<svg width="100" height="116" viewBox="0 0 100 116" fill="none" xmlns="http://www.w3.org/2000/svg">
<path d="M16.1 86.7999C16.4 85.3999 17.1 84.1998 18.2 83.0998C25.6 76.0998 33.6 74.7998 38.8 79.9998C41.7 82.8998 41.7 87.5999 38.8 90.4999C36.6 92.6999 33.5 93.1998 30.8 92.0998C30.1 92.4998 29.2 93.1999 28.5 93.7999C25.5 96.5999 20.8 96.4998 18 93.4998C16.2 91.7998 15.6 89.1999 16.1 86.7999Z" fill="#CD7C4F"/>
<path d="M23.4 97.4999C21 97.4999 18.7 96.5999 16.9 94.6999C14.8 92.4999 14 89.4999 14.7 86.4999C15.1 84.7999 16 83.2999 17.2 82.0999C25.2 74.4999 34.1 73.1999 39.9 78.9999C43.4 82.4999 43.4 88.1999 39.9 91.5999C37.6 93.8999 34.2 94.7999 31 93.7999C30.5 94.1999 29.9 94.5999 29.5 94.9999C27.8 96.6999 25.6 97.4999 23.4 97.4999ZM31.2 78.3999C27.5 78.3999 23.3 80.3999 19.2 84.1999C18.4 84.9999 17.8 85.9999 17.5 87.0999C17 88.9999 17.6 91.0999 19 92.4999C21.2 94.8999 25 94.9999 27.4 92.6999C28.1 91.9999 29.1 91.2999 29.9 90.7999C30.3 90.5999 30.8 90.4999 31.2 90.6999C33.4 91.5999 35.9 91.0999 37.6 89.3999C39.9 87.0999 39.9 83.2999 37.6 80.9999C35.9 79.2999 33.7 78.3999 31.2 78.3999Z" fill="#301F00"/>
<path d="M84.1999 86.7999C83.8999 85.3999 83.1999 84.1998 82.0999 83.0998C74.6999 76.0998 66.7 74.7998 61.5 79.9998C58.6 82.8998 58.6 87.5999 61.5 90.4999C63.7 92.6999 66.8 93.1998 69.5 92.0998C70.2 92.4998 71.1 93.1999 71.8 93.7999C74.8 96.5999 79.5 96.4998 82.3 93.4998C84.2 91.7998 84.7999 89.1999 84.1999 86.7999Z" fill="#CD7C4F"/>
<path d="M77 97.4999C74.8 97.4999 72.6 96.6999 70.9 95.0999C70.5 94.6999 70 94.2999 69.4 93.8999C66.3 94.7999 62.9 93.9999 60.5 91.6999C57 88.1999 57 82.4999 60.5 79.0999C66.3 73.2999 75.2 74.4999 83.2 82.1999C84.5 83.3999 85.3 84.8999 85.7 86.5999C86.4 89.4999 85.5 92.5999 83.5 94.7999C81.7 96.4999 79.3 97.4999 77 97.4999ZM69.6 90.6999C69.9 90.6999 70.1 90.7999 70.4 90.8999C71.3 91.3999 72.3 92.1999 72.9 92.7999C75.3 94.9999 79 94.8999 81.3 92.5999C82.7 91.0999 83.2 89.0999 82.8 87.1999C82.5 86.0999 82 85.0999 81.1 84.2999C74.4 77.8999 67.1 76.5999 62.6 81.1999C60.3 83.4999 60.3 87.2999 62.6 89.5999C64.3 91.2999 66.8 91.7999 69 90.8999C69.2 90.6999 69.4 90.6999 69.6 90.6999Z" fill="#301F00"/>
<path d="M67.6 100.4C67.6 110 59.8 112.9 50.2 112.9C40.6 112.9 32.8 110 32.8 100.4C32.8 90.8001 31.7 78.1001 50.2 78.1001C68.7 78.1001 67.6 90.8001 67.6 100.4Z" fill="#CD7C4F"/>
<path d="M32.9 102.2C33.4 94.4 36.1 87.1 50.2 87.1C64.3 87.1 67 94.4 67.5 102.2C67.6 101.6 67.6 101.1 67.6 100.5C67.6 90.9 68.7 78.2 50.2 78.2C31.7 78.2 32.8 90.9 32.8 100.5C32.8 101 32.8 101.6 32.9 102.2Z" fill="#C1693E"/>
<path d="M50.2 114.4C34.6 114.4 31.3 106.8 31.3 100.4C31.3 99.9 31.3 99.4 31.3 98.8C31.3 92.7 31.2 85.8 35.8 81.2C38.9 78.1 43.6 76.5 50.2 76.5C56.8 76.5 61.5 78 64.6 81.2C69.2 85.8 69.1 92.7 69.1 98.8C69.1 99.3 69.1 99.9 69.1 100.4C69.1 106.8 65.8 114.4 50.2 114.4ZM50.2 79.6C44.4 79.6 40.4 80.8 37.9 83.4C34.2 87.1 34.2 93.3 34.3 98.8C34.3 99.3 34.3 99.9 34.3 100.4C34.3 107.8 39.5 111.4 50.2 111.4C60.9 111.4 66.1 107.8 66.1 100.4C66.1 99.9 66.1 99.3 66.1 98.8C66.1 93.3 66.2 87.1 62.5 83.4C60 80.8 55.9 79.6 50.2 79.6Z" fill="#301F00"/>
<path d="M65.7001 107.7C65.7001 112.4 62.7001 114.1 58.9001 114.1C55.2001 114.1 52.1001 112.3 52.1001 107.7C52.1001 103.1 53.6001 97.2998 58.9001 97.2998C64.2001 97.2998 65.7001 103.1 65.7001 107.7Z" fill="#A05B38"/>
<path d="M58.9001 115.7C53.7001 115.7 50.6001 112.7 50.6001 107.8C50.6001 100.5 53.8001 95.8999 58.9001 95.8999C64.0001 95.8999 67.2001 100.5 67.2001 107.8C67.2001 112.7 64.1001 115.7 58.9001 115.7ZM58.9001 98.7999C54.0001 98.7999 53.6001 105.6 53.6001 107.7C53.6001 111 55.4001 112.6 58.9001 112.6C62.4001 112.6 64.2001 110.9 64.2001 107.7C64.2001 105.6 63.8001 98.7999 58.9001 98.7999Z" fill="#301F00"/>
<path d="M48.2001 107.7C48.2001 112.4 45.2001 114.1 41.4001 114.1C37.6001 114.1 34.6001 112.3 34.6001 107.7C34.6001 103.1 36.1001 97.2998 41.4001 97.2998C46.7001 97.2998 48.2001 103.1 48.2001 107.7Z" fill="#A05B38"/>
<path d="M41.4001 115.7C36.2001 115.7 33.1001 112.7 33.1001 107.8C33.1001 100.5 36.3001 95.8999 41.4001 95.8999C46.5001 95.8999 49.7001 100.5 49.7001 107.8C49.7001 112.7 46.6001 115.7 41.4001 115.7ZM41.4001 98.7999C36.5001 98.7999 36.1001 105.6 36.1001 107.7C36.1001 111 37.9001 112.6 41.4001 112.6C44.9001 112.6 46.7001 110.9 46.7001 107.7C46.7001 105.6 46.3001 98.7999 41.4001 98.7999Z" fill="#301F00"/>
<path d="M97.8999 22.5C97.8999 34.1 88.4999 43.5 76.8999 43.5C65.2999 43.5 55.8999 34.1 55.8999 22.5C55.8999 10.9 65.2999 1.5 76.8999 1.5C88.4999 1.5 97.8999 10.9 97.8999 22.5Z" fill="#CD7C4F"/>
<path d="M76.8999 45C64.4999 45 54.3999 34.9 54.3999 22.5C54.3999 10.1 64.4999 0 76.8999 0C89.2999 0 99.3999 10.1 99.3999 22.5C99.3999 34.9 89.2999 45 76.8999 45ZM76.8999 3C66.0999 3 57.3999 11.7 57.3999 22.5C57.3999 33.3 66.1999 42 76.8999 42C87.6999 42 96.3999 33.3 96.3999 22.5C96.3999 11.7 87.6999 3 76.8999 3Z" fill="#301F00"/>
<path d="M89.8999 22.5C89.8999 29.7 84.0999 35.5 76.8999 35.5C69.6999 35.5 63.8999 29.7 63.8999 22.5C63.8999 15.3 69.6999 9.5 76.8999 9.5C84.0999 9.5 89.8999 15.3 89.8999 22.5Z" fill="#F1D4A5"/>
<path d="M76.8999 37C68.8999 37 62.3999 30.5 62.3999 22.5C62.3999 14.5 68.8999 8 76.8999 8C84.8999 8 91.3999 14.5 91.3999 22.5C91.3999 30.5 84.8999 37 76.8999 37ZM76.8999 11C70.5999 11 65.3999 16.2 65.3999 22.5C65.3999 28.8 70.5999 34 76.8999 34C83.1999 34 88.3999 28.8 88.3999 22.5C88.3999 16.2 83.2999 11 76.8999 11Z" fill="#301F00"/>
<path d="M44.3999 22.5C44.3999 34.1 34.9999 43.5 23.3999 43.5C11.7999 43.5 2.3999 34.1 2.3999 22.5C2.3999 10.9 11.7999 1.5 23.3999 1.5C34.9999 1.5 44.3999 10.9 44.3999 22.5Z" fill="#CD7C4F"/>
<path d="M23.3999 45C10.9999 45 0.899902 34.9 0.899902 22.5C0.899902 10.1 10.9999 0 23.3999 0C35.7999 0 45.8999 10.1 45.8999 22.5C45.8999 34.9 35.7999 45 23.3999 45ZM23.3999 3C12.5999 3 3.8999 11.7 3.8999 22.5C3.8999 33.3 12.6999 42 23.3999 42C34.1999 42 42.8999 33.3 42.8999 22.5C42.8999 11.7 34.1999 3 23.3999 3Z" fill="#301F00"/>
<path d="M36.3999 22.5C36.3999 29.7 30.5999 35.5 23.3999 35.5C16.1999 35.5 10.3999 29.7 10.3999 22.5C10.3999 15.3 16.1999 9.5 23.3999 9.5C30.5999 9.5 36.3999 15.3 36.3999 22.5Z" fill="#F1D4A5"/>
<path d="M23.3999 37C15.3999 37 8.8999 30.5 8.8999 22.5C8.8999 14.5 15.3999 8 23.3999 8C31.3999 8 37.8999 14.5 37.8999 22.5C37.8999 30.5 31.3999 37 23.3999 37ZM23.3999 11C17.0999 11 11.8999 16.2 11.8999 22.5C11.8999 28.8 17.0999 34 23.3999 34C29.6999 34 34.8999 28.8 34.8999 22.5C34.8999 16.2 29.7999 11 23.3999 11Z" fill="#301F00"/>
<path d="M88.2 54C88.2 75 71.2 82 50.2 82C29.2 82 12.2 75 12.2 54C12.2 33 12.2 6 50.2 6C88.2 6 88.2 33 88.2 54Z" fill="#CD7C4F"/>
<path d="M50.2 76C29.5 76 12.7 69.2 12.2 48.8C12.2 50.5 12.2 52.3 12.2 54C12.2 75 29.2 82 50.2 82C71.2 82 88.2 75 88.2 54C88.2 52.3 88.2 50.6 88.2 48.8C87.7 69.2 70.9 76 50.2 76Z" fill="#C1693E"/>
<path d="M50.2 6C50.1 6 50 6 49.9 6C49.8 6 49.8 6 49.7 6C49.7 6 49.6999 6 49.5999 6H49.5C49.5 6 49.5 6 49.4 6H49.2999H49.2H49.0999C12.5999 11 12.2 34.2 12.2 53.1C12.2 53.4 12.2 53.6 12.2 53.9C12.2 52.2 12.2 50.5 12.2 48.7C12.2 50.2 12.4 51.6 12.6 52.9C14 35.6 20.3 18.9 50.2 18.9C80.1 18.9 86.5 35.6 87.8 52.9C88 51.6 88.1 50.2 88.2 48.7C88.2 50.4 88.2 52.2 88.2 53.9C88.2 50.1 88.2 46.1 88 42.1C87.9 41 87.9 39.9 87.8 38.7C87.6 36.8 87.4 34.8 87 33C86.8 31.8 86.5 30.6 86.2 29.4C84.3 22.2 80.7 15.7 73.8 11.4C72.7 10.7 71.6 10.1 70.4 9.6C68.6 8.8 66.7 8.1 64.5 7.6C63.4 7.3 62.2 7.1 60.9 6.8C57.7 6.3 54.1 6 50.2 6Z" fill="#DD9665"/>
<path d="M50.2 56.8C37 56.8 25.6 63.5 20 73.3C26.9 79.5 37.9 82 50.2 82C62.5 82 73.5 79.6 80.4 73.3C74.7 63.5 63.3 56.8 50.2 56.8Z" fill="#F1D4A5"/>
<path d="M53 81.9999C53.5 81.9999 54 81.9999 54.5 81.8999C54.7 81.8999 55 81.8999 55.2 81.8999C55.7 81.8999 56.1 81.7999 56.6 81.7999C56.8 81.7999 57.1 81.7999 57.3 81.6999C57.8 81.6999 58.2 81.5999 58.7 81.5999C58.9 81.5999 59.1 81.5999 59.3 81.4999C59.9 81.3999 60.4 81.3999 61 81.2999C61.1 81.2999 61.2 81.2999 61.3 81.2999C62.7 81.0999 64 80.8999 65.3 80.5999C65.4 80.5999 65.5 80.5999 65.6 80.4999C66.1 80.3999 66.7 80.1999 67.2 80.0999C67.3 80.0999 67.4 79.9999 67.6 79.9999C68.1 79.8999 68.6 79.6999 69.1 79.5999C69.2 79.5999 69.3 79.4999 69.4 79.4999C69.9 79.2999 70.5 79.0999 71 78.9999C71.1 78.9999 71.1 78.9999 71.2 78.8999C73 78.1999 74.6 77.4999 76.2 76.5999C76.7 76.2999 77.2 75.9999 77.6 75.6999C77.7 75.6999 77.7 75.5999 77.8 75.5999C78.2 75.2999 78.7 74.9999 79.1 74.6999L79.2 74.5999C79.6 74.2999 80.1 73.8999 80.5 73.4999C79.7 72.0999 78.8 70.7999 77.8 69.5999C70.8 74.0999 61 75.9999 50.2 75.9999C39.4 75.9999 29.6 74.0999 22.7 69.3999C21.7 70.5999 20.8 71.8999 20 73.2999C20.4 73.6999 20.9 73.9999 21.3 74.3999L21.4 74.4999C21.8 74.7999 22.2 75.0999 22.7 75.3999L22.8 75.4999C23.3 75.7999 23.7 76.0999 24.2 76.3999C25.7 77.2999 27.4 78.0999 29.2 78.6999C29.3 78.6999 29.3 78.6999 29.4 78.7999C29.9 78.9999 30.4 79.1999 31 79.2999C31.1 79.2999 31.2 79.3999 31.3 79.3999C31.8 79.5999 32.3 79.6999 32.8 79.7999C32.9 79.7999 33 79.8999 33.2 79.8999C33.7 79.9999 34.3 80.1999 34.8 80.2999C34.9 80.2999 35 80.2999 35.1 80.3999C36.4 80.6999 37.7 80.8999 39.1 81.0999C39.2 81.0999 39.3 81.0999 39.4 81.0999C40 81.1999 40.5 81.2999 41.1 81.2999C41.3 81.2999 41.5 81.2999 41.7 81.3999C42.2 81.4999 42.6 81.4999 43.1 81.4999C43.3 81.4999 43.6 81.4999 43.8 81.5999C44.3 81.5999 44.7 81.6999 45.2 81.6999C45.4 81.6999 45.7 81.6999 45.9 81.6999C46.4 81.6999 46.9 81.6999 47.4 81.7999C47.6 81.7999 47.8 81.7999 48.1 81.7999C48.8 81.7999 49.5 81.7999 50.2 81.7999C50.9 81.7999 51.6 81.7999 52.3 81.7999C52.5 81.9999 52.8 81.9999 53 81.9999Z" fill="#E7B777"/>
<path d="M50.2 83.5C24.4 83.5 10.7 73.3 10.7 54C10.7 33.1 10.7 4.5 50.2 4.5C89.7 4.5 89.7 33.1 89.7 54C89.7 73.3 76 83.5 50.2 83.5ZM50.2 7.5C13.7 7.5 13.7 33.3 13.7 54C13.7 75.9 33.5 80.5 50.2 80.5C66.9 80.5 86.7 75.9 86.7 54C86.7 33.3 86.7 7.5 50.2 7.5Z" fill="#301F00"/>
<path d="M66.0999 58.5C67.7567 58.5 69.0999 57.1569 69.0999 55.5C69.0999 53.8431 67.7567 52.5 66.0999 52.5C64.443 52.5 63.0999 53.8431 63.0999 55.5C63.0999 57.1569 64.443 58.5 66.0999 58.5Z" fill="#301F00"/>
<path d="M34.2998 58.5C35.9567 58.5 37.2998 57.1569 37.2998 55.5C37.2998 53.8431 35.9567 52.5 34.2998 52.5C32.643 52.5 31.2998 53.8431 31.2998 55.5C31.2998 57.1569 32.643 58.5 34.2998 58.5Z" fill="#301F00"/>
<path d="M57.0998 64.4C57.0998 66.8 53.9998 71.4 50.1998 71.4C46.3998 71.4 43.2998 66.9 43.2998 64.4C43.2998 61.9 46.3998 60 50.1998 60C53.9998 60 57.0998 62 57.0998 64.4Z" fill="#4A290A"/>
<path d="M50.1998 72.7999C45.5998 72.7999 41.7998 67.6999 41.7998 64.2999C41.7998 60.9999 45.4998 58.3999 50.1998 58.3999C54.8998 58.3999 58.5998 60.9999 58.5998 64.2999C58.5998 67.6999 54.7998 72.7999 50.1998 72.7999ZM50.1998 61.4999C46.9998 61.4999 44.7998 62.9999 44.7998 64.3999C44.7998 66.0999 47.2998 69.8999 50.1998 69.8999C53.0998 69.8999 55.5998 66.1999 55.5998 64.3999C55.5998 62.9999 53.2998 61.4999 50.1998 61.4999Z" fill="#301F00"/>
<path d="M50.5 83.5C49.7 83.5 49 82.8 49 82V71.3C49 70.5 49.7 69.8 50.5 69.8C51.3 69.8 52 70.5 52 71.3V82C52 82.8 51.3 83.5 50.5 83.5Z" fill="#301F00"/>
</svg>
