<svg width="344" height="416" viewBox="0 0 344 416" fill="none" xmlns="http://www.w3.org/2000/svg">
<path d="M195.434 193.208C181.095 203.259 139.237 248.614 186.409 299.468C237.171 292.876 258.14 221.166 195.434 193.208Z" fill="#FEE962"/>
<path d="M307.969 304.794C317.835 318.255 315.311 334.565 313.037 342.847C312.867 343.467 312.554 344.038 312.123 344.515C311.691 344.991 311.154 345.359 310.553 345.589C309.953 345.819 309.307 345.904 308.668 345.838C308.029 345.772 307.414 345.556 306.874 345.208C297.926 339.519 288.291 334.992 278.201 331.736C278.1 331.703 267.802 300.976 307.969 304.794Z" fill="#404343"/>
<path d="M130.6 387.823L124.266 412.598C122.958 417.713 115.188 415.809 116.515 410.617L122.849 385.842L130.6 387.823Z" fill="#404343"/>
<path d="M268.281 78.5162C280.362 39.8326 274.649 -6.00636 259.804 0.733161C150.725 50.2557 107.197 198.618 128.584 202.443L268.281 78.5162Z" fill="#E2BB97"/>
<path d="M18.1452 199.037C9.75869 192.189 30.37 166.819 38.8195 173.718C47.206 180.567 26.5947 205.937 18.1452 199.037Z" fill="#404343"/>
<path d="M65.7559 203.022C60.0462 158.894 34.856 180.75 34.123 181.354L29.0449 175.173C41.8095 164.642 68.0252 158.211 73.6894 201.996L65.7559 203.022Z" fill="#404343"/>
<path d="M292.024 224.043C282.562 211.295 270.587 200.382 257.606 193.155C245.309 224.762 224.04 265.176 207.218 316.941C218.781 324.624 231.712 330.016 245.309 332.823L245.315 332.815C303.842 316.944 305.646 265.176 292.024 224.043Z" fill="#FEE962"/>
<path d="M257.605 193.155C237.432 181.924 214.826 179.609 195.428 193.207C208.291 208.508 214.565 228.283 212.874 248.201C211.184 268.119 201.667 286.554 186.409 299.468C192.613 306.112 199.598 311.98 207.213 316.944C252.71 291.005 261.814 229.587 257.605 193.155Z" fill="#404343"/>
<path d="M168.548 196.213C157.927 188.97 145.111 185.663 132.312 186.863C119.512 188.063 107.534 193.694 98.4434 202.784C89.3533 211.874 83.7223 223.853 82.5226 236.652C81.3229 249.451 84.6298 262.268 91.8724 272.889C155.268 325.648 214.564 244.72 168.548 196.213Z" fill="#FEE962"/>
<path d="M137.462 296.983C149.256 296.983 160.739 293.204 170.229 286.201C179.718 279.198 186.714 269.338 190.191 258.069C193.667 246.799 193.441 234.712 189.547 223.58C185.652 212.448 178.293 202.857 168.548 196.213C202.701 246.204 141.875 307.049 91.8726 272.889C96.9312 280.317 103.73 286.396 111.676 290.596C119.622 294.795 128.475 296.988 137.462 296.983Z" fill="#FAB751"/>
<path d="M76.695 195.994C42.6309 203.393 -2.40118 260.592 37.7968 284.339C40.3112 285.836 43.0356 286.947 45.8793 287.636C92.9293 286.312 124.299 204.388 76.695 195.994Z" fill="#FEE962"/>
<path d="M52.303 244.472C39.3568 231.526 69.092 201.807 82.0302 214.745C94.9764 227.691 65.2412 257.411 52.303 244.472Z" fill="#404343"/>
<path d="M99.7125 202.183C94.0156 195.563 85.7405 194.03 76.6951 195.994C111.583 205.438 84.4501 278.903 45.8794 287.636C82.2584 296.39 121.696 227.728 99.7125 202.183Z" fill="#FAB751"/>
<path d="M336.131 66.5762C216.337 66.5762 115.369 183.673 133.263 195.998C141.669 201.788 153.684 175.705 192.537 176.058C222.932 176.334 259.299 174.098 281.938 163.913C326.661 143.792 357.703 66.5762 336.131 66.5762Z" fill="#F3E3CA"/>
<path d="M61.3145 308.808C70.7578 295.425 89.7915 295.168 98.2959 295.803L101.018 268.747C101.549 263.482 109.508 264.281 108.978 269.548L105.852 300.622C105.795 301.166 105.627 301.692 105.36 302.169C105.092 302.646 104.73 303.063 104.296 303.395C103.862 303.727 103.364 303.966 102.834 304.099C102.303 304.232 101.751 304.255 101.212 304.167C100.977 304.129 77.0659 300.362 67.8506 313.421L61.3145 308.808Z" fill="#404343"/>
<path d="M30.4034 359.461C8.68348 344.527 49.4946 285.178 71.2116 300.11C92.9316 315.044 52.1205 374.393 30.4034 359.461Z" fill="#404343"/>
<path d="M125.857 392.856C100.205 386.79 116.784 316.697 142.432 322.762C168.083 328.828 151.504 398.921 125.857 392.856Z" fill="#404343"/>
<path d="M33.6523 360.353C33.3222 360.414 14.4111 364.026 8.49069 376.931C6.30844 381.687 -1.01863 378.474 1.2192 373.595C8.91989 356.811 31.2968 352.646 32.2456 352.477L33.6523 360.353Z" fill="#404343"/>
<path d="M186.739 334.144C180.106 319.602 155.912 318.868 155.668 318.863C155.122 318.849 154.584 318.725 154.087 318.496C153.591 318.267 153.147 317.939 152.782 317.532C152.417 317.125 152.139 316.648 151.965 316.13C151.791 315.612 151.726 315.063 151.772 314.519L154.463 283.405C154.92 278.136 162.889 278.818 162.434 284.094L160.09 311.184C168.565 312.14 187.22 315.922 194.017 330.824L186.739 334.144Z" fill="#404343"/>
<path d="M214.997 386.332C239.11 375.685 210.015 309.796 185.905 320.441C161.792 331.087 190.887 396.976 214.997 386.332Z" fill="#404343"/>
<path d="M214.482 379.127C215.383 379.469 236.6 387.712 241.053 405.633C242.339 410.807 234.569 412.711 233.29 407.563C229.835 393.659 211.824 386.675 211.643 386.605L214.482 379.127Z" fill="#404343"/>
<path d="M139.134 329.035C135.436 324.513 124.112 317.907 120.061 315.743C119.208 315.287 118.549 314.538 118.206 313.635C117.862 312.731 117.858 311.733 118.193 310.826C122.463 299.293 125.284 275.141 125.312 274.898C125.917 269.644 133.867 270.555 133.259 275.815C133.15 276.761 130.744 297.346 126.791 310.328C131.725 313.146 141.206 318.931 145.327 323.97L139.134 329.035Z" fill="#404343"/>
<path d="M292.023 224.043C295.301 257.226 285.444 306.628 245.315 332.815L245.309 332.823C307.504 344.886 334.973 281.91 292.023 224.043Z" fill="#404343"/>
<path d="M304.424 90.3769C252.322 99.7675 220.357 112.399 175.523 155.227C171.655 158.924 177.266 164.624 181.049 161.012C190.837 151.523 201.262 142.715 212.252 134.648L223.804 142.44L209.914 151.894C205.485 154.909 210.1 161.447 214.416 158.507L231.073 147.169C236.616 150.237 242.878 151.769 249.21 151.606C255.543 151.442 261.718 149.59 267.095 146.241C274.695 141.48 281.546 135.617 287.425 128.846C290.904 124.858 284.875 119.598 281.396 123.588C276.036 129.764 269.789 135.11 262.861 139.453C258.355 142.266 253.131 143.715 247.82 143.625C242.509 143.535 237.338 141.91 232.93 138.947L219.312 129.76C232.077 121.236 245.893 114.402 260.414 109.427L254.113 128.029C252.398 133.094 259.999 135.591 261.691 130.596L269.879 106.42C281.713 103.056 293.718 100.329 305.843 98.2499C311.047 97.3128 309.634 89.4329 304.424 90.3769Z" fill="#E2BB97"/>
</svg>
