<svg width="101" height="101" viewBox="0 0 101 101" fill="none" xmlns="http://www.w3.org/2000/svg">
<path d="M41.0999 97.0001L36.8999 91.9001C37.2999 89.6001 37.5999 87.5001 37.5999 87.1001C37.6999 86.3001 37.0999 85.5001 36.2999 85.4001C35.4999 85.3001 34.6999 85.9001 34.5999 86.7001C34.4999 87.8001 34.2999 89.2001 33.9999 90.6001L27.2999 94.3001C26.5999 94.7001 26.2999 95.6001 26.6999 96.3001C26.9999 96.8001 27.4999 97.1001 27.9999 97.1001C28.1999 97.1001 28.4999 97.0001 28.6999 96.9001L33.0999 94.5001C32.6999 96.0001 32.2999 97.3001 31.7999 98.0001C31.2999 98.7001 31.4999 99.6001 32.0999 100.1C32.3999 100.3 32.6999 100.4 32.9999 100.4C33.4999 100.4 33.8999 100.2 34.1999 99.8001C34.8999 98.9001 35.3999 97.3001 35.8999 95.6001L38.5999 98.9001C38.8999 99.3001 39.2999 99.4001 39.7999 99.4001C40.0999 99.4001 40.4999 99.3001 40.7999 99.1001C41.4999 98.6001 41.5999 97.7001 41.0999 97.0001Z" fill="#301F00"/>
<path d="M62.0998 96.6L57.4998 91.9C57.7998 89.5 57.7998 87.5 57.8998 87.1C57.8998 86.3 57.2998 85.6 56.4998 85.5C55.6998 85.5 54.9998 86.1 54.8998 86.9C54.8998 88 54.7998 89.4 54.5998 90.9L48.2998 95.1C47.5998 95.6 47.3998 96.5 47.8998 97.2C48.1998 97.6 48.6998 97.9 49.1998 97.9C49.4998 97.9 49.7998 97.8 49.9998 97.6L54.1998 94.8C53.8998 96.4 53.5998 97.7 53.1998 98.4C52.7998 99.1 52.9998 100 53.6998 100.5C53.8998 100.6 54.1998 100.7 54.4998 100.7C54.9998 100.7 55.4998 100.4 55.7998 100C56.3998 99 56.7998 97.4 57.1998 95.7L60.1998 98.8C60.4998 99.1 60.8998 99.3 61.2998 99.3C61.6998 99.3 62.0998 99.2 62.2998 98.9C62.6998 98.2 62.6998 97.2 62.0998 96.6Z" fill="#301F00"/>
<path d="M67.5999 62.3002C67.5999 62.3002 88.0999 42.0002 96.2999 42.3002C104.5 42.6002 94.2999 55.6002 93.8999 55.8002C93.4999 56.0002 102.4 54.9002 96.5999 62.4002C90.7999 69.9002 76.9999 72.3002 76.9999 72.3002L67.5999 62.3002Z" fill="#74CBDE"/>
<path d="M93.8998 55.9001C94.2998 55.6001 104.5 42.7001 96.2998 42.4001C92.6998 42.2001 86.8998 46.0001 81.2998 50.3001C84.0998 48.6001 86.6998 47.5001 88.5998 47.6001C96.1998 47.9001 86.6998 59.8001 86.3998 60.1001C85.9998 60.4001 94.2998 59.3001 88.8998 66.2001C87.4998 68.0001 85.5998 69.5001 83.4998 70.7001C87.8998 69.2001 93.3998 66.7001 96.5998 62.6001C102.5 55.0001 93.4998 56.2001 93.8998 55.9001Z" fill="#B3F4FB"/>
<path d="M76.9998 73.9001C76.5998 73.9001 76.1998 73.7001 75.8998 73.4001L66.4998 63.3001C65.8998 62.7001 65.9998 61.8 66.4998 61.2C68.5998 59.1 87.3998 40.8 96.0998 40.8C96.1998 40.8 96.2998 40.8 96.3998 40.8C99.4998 40.9 100.5 42.7001 100.8 43.7001C101.7 46.9001 98.7998 51.7 96.6998 54.6C97.8998 54.9 99.0998 55.5001 99.7998 56.8001C100.6 58.5001 99.8998 60.6001 97.7998 63.4001C91.6998 71.3001 77.7998 73.8001 77.1998 73.9001C77.1998 73.9001 77.0998 73.9001 76.9998 73.9001ZM69.6998 62.4001L77.4998 70.8001C80.3998 70.2001 90.7998 67.6 95.3998 61.6C97.3998 59 96.9998 58.2 96.9998 58.1C96.8998 57.9 96.4998 57.5001 94.1998 57.4001C93.6998 57.4001 92.6998 57.3001 92.3998 56.3001C92.1998 55.7001 92.3998 55.1 92.7998 54.7C94.0998 53.3 98.6998 46.6001 97.7998 44.4001C97.5998 44.0001 97.0998 43.8001 96.1998 43.7001C96.0998 43.7001 96.0998 43.7001 95.9998 43.7001C90.1998 43.8001 75.9998 56.4001 69.6998 62.4001Z" fill="#301F00"/>
<path d="M75.5999 43.1999C82.2999 54.2999 84.8999 75.2999 68.5999 83.1999C57.7999 88.3999 45.1999 89.6999 30.5999 85.7999C-4.00014 76.5999 0.799857 40.1999 3.59986 26.1999C6.29986 13.0999 16.5999 1.3999 32.5999 1.3999C68.8999 1.4999 68.9999 32.2999 75.5999 43.1999Z" fill="#74CBDE"/>
<path d="M70.4 78.6C59.6 83.8 47 85.1 32.4 81.2C-2.20004 72 2.59995 35.6 5.39995 21.6C5.59995 20.6 5.89995 19.5 6.19995 18.5C5.09995 20.9 4.19995 23.5 3.69995 26.2C0.899954 40.2 -3.90004 76.5 30.7 85.8C45.3 89.7 57.9 88.4 68.7 83.2C75 80.1 78.5 75.1 80 69.4C78 73.2 74.9 76.4 70.4 78.6Z" fill="#2FB0C1"/>
<path d="M75 77.4999C79.4 68.9999 73.3 56.1999 68.7 48.5999C67.3 46.2999 64.2 44.2999 63.5 40.4999C61 27.1999 53.7 12.4999 29.5 12.4999C15.5 12.4999 6.3 22.6999 3.9 34.0999C2.9 38.9999 1.7 46.9999 2.4 55.2999C0.400003 44.0999 2.1 32.6999 3.4 26.1999C6.1 13.0999 16.4 1.3999 32.4 1.3999C68.7 1.3999 68.8 32.1999 75.4 43.0999C80.9 52.2999 83.7 67.9999 75.4 77.7999L75 77.4999Z" fill="#B3F4FB"/>
<path d="M62.3 85.8001C36.5 63.9001 23 70 16 78.9C19.8 81.8 24.6 84.2001 30.6 85.8001C42.5 89.0001 53 88.8001 62.3 85.8001Z" fill="#F2F2F2"/>
<path d="M33.8999 86.6C34.4999 86.7 34.9999 86.8 35.5999 87C35.8999 87.1 36.1999 87.1 36.4999 87.2C36.9999 87.3 37.5999 87.4 38.0999 87.5C38.3999 87.5 38.6999 87.6 38.8999 87.6C39.4999 87.7 40.1999 87.8 40.7999 87.8C40.9999 87.8 41.0999 87.8 41.2999 87.9C42.0999 88 42.7999 88 43.5999 88.1C43.7999 88.1 44.0999 88.1 44.2999 88.1C44.7999 88.1 45.2999 88.1 45.7999 88.2C46.0999 88.2 46.3999 88.2 46.6999 88.2C47.1999 88.2 47.5999 88.2 48.0999 88.2C48.3999 88.2 48.6999 88.2 48.9999 88.2C49.4999 88.2 49.9999 88.2 50.4999 88.1C50.6999 88.1 50.9999 88.1 51.1999 88.1C51.8999 88 52.5999 88 53.2999 87.9C53.4999 87.9 53.7999 87.8 53.9999 87.8C54.4999 87.7 54.8999 87.7 55.3999 87.6C55.6999 87.6 55.9999 87.5 56.2999 87.4C56.6999 87.3 57.0999 87.2 57.4999 87.2C57.7999 87.1 58.0999 87.1 58.3999 87C58.7999 86.9 59.1999 86.8 59.5999 86.7C59.8999 86.6 60.1999 86.6 60.3999 86.5C60.9999 86.3 61.6999 86.1 62.2999 85.9C60.9999 84.8 59.6999 83.7 58.3999 82.7C50.5999 84.2 41.8999 83.9 32.3999 81.3C27.1999 79.9 22.8999 77.9 19.3999 75.5C18.1999 76.6 17.0999 77.8 16.0999 79C16.4999 79.3 16.9999 79.7 17.3999 80C17.4999 80.1 17.5999 80.2 17.7999 80.2C18.1999 80.4 18.4999 80.7 18.8999 80.9C18.9999 81 19.0999 81 19.1999 81.1C19.6999 81.4 20.1999 81.7 20.6999 82C20.7999 82 20.8999 82.1 20.8999 82.1C21.2999 82.3 21.7999 82.6 22.1999 82.8C22.3999 82.9 22.4999 82.9 22.6999 83C23.1999 83.2 23.5999 83.4 24.0999 83.6C24.1999 83.6 24.2999 83.7 24.3999 83.7C24.9999 83.9 25.5999 84.2 26.1999 84.4C26.3999 84.5 26.4999 84.5 26.6999 84.6C27.1999 84.8 27.6999 84.9 28.0999 85.1C28.2999 85.2 28.4999 85.2 28.5999 85.3C29.1999 85.5 29.8999 85.7 30.5999 85.9C31.3999 86.1 32.2999 86.3 33.0999 86.5C33.3999 86.5 33.5999 86.6 33.8999 86.6Z" fill="#CCCCCC"/>
<path d="M46.9999 89.6C41.5999 89.6 35.9999 88.8 30.1999 87.3C-3.30011 78.3 -1.80011 45 2.09989 26C4.79989 13 15.1999 0 32.5999 0C61.9999 0 68.6999 20 73.1999 33.2C74.4999 37 75.5999 40.2 76.8999 42.5C81.0999 49.5 84.0999 60.9 81.1999 70.6C79.2999 76.9 75.1999 81.7 69.2999 84.6C62.3999 87.9 54.8999 89.6 46.9999 89.6ZM32.5999 3C16.8999 3 7.49989 14.8 5.09989 26.6C1.39989 44.6 -0.100113 76.1 30.9999 84.4C44.5999 88 56.9999 87.2 67.9999 81.9C73.1999 79.4 76.6999 75.3 78.3999 69.7C80.9999 60.8 78.2999 50.4 74.3999 44C72.8999 41.5 71.6999 38 70.3999 34.1C65.8999 21 59.7999 3 32.5999 3Z" fill="#301F00"/>
<path d="M42.5999 45.5C44.2567 45.5 45.5999 44.1569 45.5999 42.5C45.5999 40.8431 44.2567 39.5 42.5999 39.5C40.943 39.5 39.5999 40.8431 39.5999 42.5C39.5999 44.1569 40.943 45.5 42.5999 45.5Z" fill="#301F00"/>
<path d="M10.5999 45.5C12.2567 45.5 13.5999 44.1569 13.5999 42.5C13.5999 40.8431 12.2567 39.5 10.5999 39.5C8.943 39.5 7.59985 40.8431 7.59985 42.5C7.59985 44.1569 8.943 45.5 10.5999 45.5Z" fill="#301F00"/>
<path d="M18.4999 53.2999C20.5999 50.3999 33.7999 50.1999 35.4999 53.2999C37.1999 56.3999 31.2999 64.9999 26.9999 64.9999C22.6999 64.9999 16.3999 56.1999 18.4999 53.2999Z" fill="#FFD81A"/>
<path d="M35.1997 57.2999C35.8997 55.6999 36.0997 54.1999 35.4997 53.2999C33.7997 50.1999 20.5997 50.3999 18.4997 53.2999C17.7997 54.1999 17.9997 55.7999 18.7997 57.4999C21.3997 54.9999 32.5997 54.6999 35.1997 57.2999Z" fill="#FFEA55"/>
<path d="M26.9998 66.5C23.4998 66.5 19.6998 62.6 17.7998 58.9C16.3998 56.2 16.1998 53.9 17.2998 52.4C19.2998 49.7 25.9998 49.3 29.2998 49.6C32.0998 49.8 35.6998 50.5 36.7998 52.6C38.0998 55 36.2998 58.6 35.4998 60C33.5998 63.2 30.1998 66.5 26.9998 66.5ZM27.3998 52.5C23.3998 52.5 20.2998 53.4 19.7998 54.2C19.5998 54.5 19.5998 55.7 20.4998 57.5C22.0998 60.6 25.1998 63.5 27.0998 63.5C28.6998 63.5 31.2998 61.2 32.9998 58.4C34.3998 56.1 34.4998 54.5 34.1998 54C33.9998 53.6 32.4998 52.8 29.0998 52.6C28.4998 52.5 27.8998 52.5 27.3998 52.5Z" fill="#301F00"/>
<path d="M84.0999 63.2001C81.4999 68.7001 69.3999 68.4001 62.9999 65.4001C56.5999 62.4001 53.4999 55.5001 56.0999 50.1001C58.6999 44.6001 65.8999 42.6001 72.2999 45.6001C78.7999 48.6001 86.6999 57.7001 84.0999 63.2001Z" fill="#74CBDE"/>
<path d="M68.9998 64.7C61.9998 61.4 58.5998 53.9001 61.4998 47.9001C62.1998 46.5001 63.0998 45.3 64.2998 44.3C60.6998 44.8 57.6998 46.8 56.1998 50C53.5998 55.5 56.6998 62.3001 63.0998 65.3001C67.1998 67.2001 73.6998 68.0001 78.4998 66.9001C74.9998 66.7001 71.5998 65.9 68.9998 64.7Z" fill="#2FB0C1"/>
<path d="M72.3998 45.5999C68.2998 43.6999 63.8998 43.7999 60.4998 45.5999C62.7998 45.3999 65.3998 45.7999 67.6998 46.9999C74.0998 49.9999 81.9998 59.1999 79.3998 64.6999C78.7998 65.8999 77.7998 66.7999 76.4998 67.4999C79.9998 67.0999 82.8998 65.7999 83.9998 63.3999C86.6998 57.6999 78.7998 48.5999 72.3998 45.5999Z" fill="#B3F4FB"/>
<path d="M73.4998 69C69.4998 69 65.3998 68.1 62.3998 66.7C55.2998 63.3 51.8998 55.6 54.7998 49.4C57.6998 43.2 65.8998 40.9 72.9998 44.2C79.9998 47.5 88.4998 57.4 85.4998 63.9C83.7998 67.5 78.7998 69 73.4998 69ZM66.2998 45.7C62.4998 45.7 59.0998 47.5 57.5998 50.7C55.3998 55.4 58.0998 61.4 63.7998 64C70.0998 67 80.8998 66.8 82.8998 62.6C84.8998 58.4 78.1998 49.9 71.8998 46.9C69.8998 46.1 68.0998 45.7 66.2998 45.7Z" fill="#301F00"/>
</svg>
