<svg width="99" height="121" viewBox="0 0 99 121" fill="none" xmlns="http://www.w3.org/2000/svg">
<path d="M23.9999 23.5C23.9999 23.5 17.3999 17.7 19.9999 13.5C22.5999 9.29997 27.9999 11.5 27.9999 11.5C27.9999 11.5 24.0999 0.999973 34.9999 1.49997C45.8999 1.99997 48.3999 14 39.9999 22.5C31.5999 31 23.9999 23.5 23.9999 23.5Z" fill="#FF0013"/>
<path d="M35 1.50004C30.9 1.30004 28.9 2.70004 28 4.40004C28.2 4.40004 28.4 4.40004 28.6 4.40004C39.5 5.00004 42 17 33.6 25.5C33.2 25.9 32.8 26.2 32.5 26.6C34.8 26.4 37.4 25.3 40 22.6C48.4 14 45.9 2.00004 35 1.50004Z" fill="#FF4D4D"/>
<path d="M31.5999 28.1C26.8999 28.1 23.4999 25.1 22.9999 24.7C22.4999 24.3 15.4999 18 18.6999 12.8C20.4999 9.80001 23.4999 9.30001 25.9999 9.60001C25.6999 7.70001 25.6999 5.10001 27.1999 3.00001C28.6999 0.90001 31.3999 -0.0999907 35.0999 0.100009C40.1999 0.300009 44.0999 2.90001 45.6999 7.10001C47.6999 12.3 45.8999 18.8 41.0999 23.6C37.6999 27 34.3999 28.1 31.5999 28.1ZM24.9999 22.4C25.6999 23.1 31.7999 28.6 38.8999 21.4C42.8999 17.4 44.3999 12.1 42.7999 8.10001C41.5999 5.00001 38.7999 3.20001 34.8999 3.00001C32.2999 2.90001 30.4999 3.40001 29.5999 4.70001C27.9999 6.90001 29.3999 11 29.3999 11C29.5999 11.6 29.4999 12.2 28.9999 12.6C28.5999 13 27.8999 13.1 27.3999 12.9C27.1999 12.8 23.1999 11.2 21.2999 14.3C19.3999 17.4 24.8999 22.3 24.9999 22.4Z" fill="#301F00"/>
<path d="M72 82.4999C72 82.4999 87.5 76.7999 92.6 81.4999C97.6 86.1999 92 92.8999 84 89.5999C75.8 86.1999 74.4 88.1999 74.4 88.1999L72 82.4999Z" fill="#FF0013"/>
<path d="M74.4 88.2C74.4 88.2 75.4 86.8 80.5 88.4C80.8 87.2 80.9 85.9 81 84.5C81 83.2 80.8 81.7 80.4 80.2C75.9 81 72 82.5 72 82.5L74.4 88.2Z" fill="#C80004"/>
<path d="M92.5999 81.5999C90.5999 79.6999 86.7999 79.4999 83.0999 79.8999C84.6999 80.1999 86.0999 80.6999 87.0999 81.5999C90.4999 84.7999 88.9999 88.7999 85.2999 90.0999C92.5999 92.1999 97.2999 85.9999 92.5999 81.5999Z" fill="#FF4D4D"/>
<path d="M88.1 91.9999C86.7 91.9999 85.1 91.6999 83.4 90.9999C77.5 88.5999 75.7 89.1999 75.4 89.2999C75.1 89.5999 74.5999 89.7999 74.1999 89.6999C73.6999 89.5999 73.2 89.2999 73 88.7999L70.6 83.0999C70.4 82.6999 70.4 82.2999 70.6 81.8999C70.8 81.4999 71.1 81.1999 71.5 81.0999C73.2 80.4999 88.0999 75.1999 93.6999 80.3999C96.1999 82.7999 96.8 85.9999 95.1 88.5999C93.8 90.4999 91.3 91.9999 88.1 91.9999ZM76.4 86.1999C78.1 86.1999 80.7 86.6999 84.5 88.2999C88.4 89.8999 91.4 88.7999 92.5 87.0999C93.4 85.6999 93 84.0999 91.6 82.6999C88.7 79.8999 79.8 81.5999 74 83.4999L75.1999 86.3999C75.4999 86.1999 75.9 86.1999 76.4 86.1999Z" fill="#301F00"/>
<path d="M70.9998 82.3C70.9998 82.3 83.5998 64 92.1998 67.7C100.7 71.3 96.6998 82.3 85.0998 81.9C73.1998 81.4 72.3998 84.6 72.3998 84.6L70.9998 82.3Z" fill="#FF0013"/>
<path d="M92.1999 67.5999C88.1999 65.8999 83.3999 68.8999 79.3999 72.5999C81.1999 71.9999 82.8999 71.9999 84.4999 72.5999C88.8999 74.4999 89.8999 78.3999 88.2999 81.5999C97.3999 80.1999 99.7999 70.8999 92.1999 67.5999Z" fill="#FF4D4D"/>
<path d="M77.2998 74.7C73.5998 78.5 70.9998 82.3 70.9998 82.3L72.3998 84.5C72.3998 84.5 72.9998 82.2 80.7998 81.8C80.2998 79.5 79.0998 76.9 77.2998 74.7Z" fill="#C80004"/>
<path d="M72.3999 85.9999C71.8999 85.9999 71.3999 85.6999 71.0999 85.2999L69.6999 82.9999C69.3999 82.4999 69.3999 81.8999 69.6999 81.3999C71.0999 79.3999 83.2999 62.1999 92.6999 66.1999C96.6999 67.8999 98.7999 71.4999 97.9999 75.2999C97.0999 79.2999 92.5999 83.5999 84.9999 83.2999C75.6999 82.8999 73.8999 84.8999 73.6999 85.0999C73.4999 85.5999 73.0999 85.8999 72.4999 85.9999H72.3999ZM89.6999 68.6999C84.0999 68.6999 76.5999 77.1999 73.0999 81.8999C74.9999 80.8999 78.5999 80.0999 85.0999 80.2999C90.9999 80.4999 94.3999 77.4999 95.0999 74.6999C95.5999 72.2999 94.2999 70.1999 91.5999 68.9999C90.9999 68.7999 90.3999 68.6999 89.6999 68.6999Z" fill="#301F00"/>
<path d="M66.9998 80.2C66.9998 80.2 73.3998 55 84.3998 55.5C95.1998 56 95.2998 69.7 82.2998 74C68.9998 78.3 69.3998 82.1 69.3998 82.1L66.9998 80.2Z" fill="#FF0013"/>
<path d="M77.9998 75.6001C76.2998 73.2001 73.8998 71.0001 70.7998 69.4001C68.2998 75.0001 66.9998 80.2001 66.9998 80.2001L69.3998 82.1001C69.3998 82.1001 69.0998 79.2001 77.9998 75.6001Z" fill="#C80004"/>
<path d="M84.3999 55.5002C81.0999 55.3002 78.2999 57.5002 75.8999 60.5002C83.6999 61.2002 85.4999 69.0002 80.3999 74.6002C80.9999 74.4002 81.6999 74.2002 82.2999 73.9002C95.2999 69.8002 95.0999 56.1002 84.3999 55.5002Z" fill="#FF4D4D"/>
<path d="M69.3998 83.6001C69.0998 83.6001 68.6998 83.5001 68.4998 83.3001L66.0998 81.4001C65.5998 81.0001 65.3998 80.4001 65.5998 79.9001C65.8998 78.8001 72.4998 53.5001 84.4998 54.1001C89.4998 54.3001 93.0998 57.3001 93.6998 61.7001C94.2998 66.4001 91.1998 72.7001 82.7998 75.5001C71.9998 78.9001 70.9998 81.9001 70.8998 82.2001C70.8998 82.7001 70.5998 83.2001 70.0998 83.5001C69.8998 83.6001 69.5998 83.6001 69.3998 83.6001ZM68.6998 79.7001L68.7998 79.8001C70.1998 77.9001 73.5998 75.3001 81.7998 72.6001C88.5998 70.4001 91.0998 65.6001 90.6998 62.1001C90.2998 59.1001 87.8998 57.3001 84.2998 57.1001C76.6998 56.7001 70.6998 72.4001 68.6998 79.7001Z" fill="#301F00"/>
<path d="M63.2999 77.9001C63.2999 77.9001 60.2998 48.7001 72.0998 45.1001C83.6998 41.5001 89.0998 55.9001 77.0998 65.4001C64.7998 75.2001 66.5998 79.0001 66.5998 79.0001L63.2999 77.9001Z" fill="#FF0013"/>
<path d="M71.9 70C69.5 68.6 66.5 67.6 63.1 67.3C62.9 73.2 63.4 78 63.4 78L66.7 79.1C66.6 79 65.4 76.4 71.9 70Z" fill="#C80004"/>
<path d="M72.0999 45.1C69.3999 46 67.3999 48.2 66.0999 51.1C75.8999 48 81.2999 57.9 75.4999 66.8C75.9999 66.4 76.5999 65.9 77.0999 65.5C89.1999 55.9 83.6999 41.5 72.0999 45.1Z" fill="#FF4D4D"/>
<path d="M66.5999 80.5C66.3999 80.5 66.2999 80.5 66.0999 80.4L62.7999 79.3C62.1999 79.1 61.7999 78.6 61.7999 78C61.6999 76.8 58.7999 47.6 71.5999 43.6C76.8999 41.9 81.7999 43.7 84.0999 48C86.5999 52.7 85.6999 60.5 77.9999 66.6C67.6999 74.7 67.9999 78.2 67.9999 78.5C68.1999 79 68.0999 79.6 67.6999 80C67.4999 80.4 67.0999 80.5 66.5999 80.5ZM64.7999 76.8L65.2999 76.9C65.8999 74.4 68.3999 70.3 76.2999 64.2C82.6999 59.2 83.4999 53 81.5999 49.4C79.9999 46.3 76.5999 45.2 72.6999 46.5C64.1999 49.1 63.9999 68.4 64.7999 76.8Z" fill="#301F00"/>
<path d="M46.0001 117.6L41.8001 112.5C42.2001 110.2 42.5001 108.1 42.5001 107.7C42.6001 106.9 42.0001 106.1 41.2001 106C40.4001 105.9 39.6001 106.5 39.5001 107.3C39.4001 108.4 39.2001 109.8 38.9001 111.2L32.2001 114.9C31.5001 115.3 31.2001 116.2 31.6001 116.9C31.9001 117.4 32.4001 117.7 32.9001 117.7C33.1001 117.7 33.4001 117.6 33.6001 117.5L38.0001 115.1C37.6001 116.6 37.2001 117.9 36.7001 118.6C36.2001 119.3 36.4001 120.2 37.0001 120.7C37.3001 120.9 37.6001 121 37.9001 121C38.4001 121 38.8001 120.8 39.1001 120.4C39.8001 119.5 40.3001 117.9 40.8001 116.2L43.5001 119.5C43.8001 119.9 44.2001 120 44.7001 120C45.0001 120 45.4001 119.9 45.7001 119.7C46.4001 119.1 46.5001 118.2 46.0001 117.6Z" fill="#301F00"/>
<path d="M67.1001 115.1L62.5001 110.4C62.8001 108 62.8001 106 62.9001 105.6C62.9001 104.8 62.3001 104.1 61.5001 104C60.7001 104 60.0001 104.6 59.9001 105.4C59.9001 106.5 59.8001 107.9 59.6001 109.4L53.3001 113.6C52.6001 114.1 52.4001 115 52.9001 115.7C53.2001 116.1 53.7001 116.4 54.2001 116.4C54.5001 116.4 54.8001 116.3 55.0001 116.1L59.2001 113.3C58.9001 114.9 58.6001 116.2 58.2001 116.9C57.8001 117.6 58.0001 118.5 58.7001 119C58.9001 119.1 59.2001 119.2 59.5001 119.2C60.0001 119.2 60.5001 118.9 60.8001 118.5C61.4001 117.5 61.8001 115.9 62.2001 114.2L65.2001 117.3C65.5001 117.6 65.9001 117.8 66.3001 117.8C66.7001 117.8 67.1001 117.7 67.3001 117.4C67.6001 116.7 67.7001 115.7 67.1001 115.1Z" fill="#301F00"/>
<path d="M55.7 71.2001C60.2 66.0001 63 59.3001 63 52.0001C63 34.7001 49.3 21.7001 32.5 22.5001C15.7 23.3001 2 35.7001 2 52.0001C2 82.6001 33 81.5001 33.3 81.5001C30.6 84.6001 29 88.1001 29 91.5001C29 100.3 39.1 107.5 51.5 107.5C65.4 107.5 76.5 101.7 77 88.5001C77.3 81.6001 70.2 70.7001 55.7 71.2001Z" fill="#F2F2F2"/>
<path d="M66.2999 73.2002C69.4999 76.5002 71.0999 80.6002 70.9999 83.8002C70.4999 96.2002 60.0999 101.5 47.1999 101.5C39.6999 101.5 33.0999 98.7002 29.3999 94.5002C31.3999 101.9 40.4999 107.5 51.4999 107.5C65.3999 107.5 76.4999 101.7 76.9999 88.5002C77.1999 83.6002 73.5999 76.6002 66.2999 73.2002Z" fill="#CCCCCC"/>
<path d="M32.5 32.6001C47.6 31.9001 60.2 42.3001 62.6 56.9001C62.9 55.3001 63 53.7001 63 52.0001C63 34.7001 49.3 21.7001 32.5 22.5001C15.7 23.3001 2 35.7001 2 52.0001C2 54.0001 2.1 55.8001 2.4 57.5001C4.6 43.5001 17.3 33.3001 32.5 32.6001Z" fill="white"/>
<path d="M51.5 109C38.3 109 27.5 101.1 27.5 91.5001C27.5 88.6001 28.5 85.7001 30.3 82.9001C25.4 82.6001 15.8 81.0001 8.8 74.1001C3.3 68.8001 0.5 61.3001 0.5 52.0001C0.5 35.2001 14.2 21.9001 32.4 21.0001C41 20.6001 49 23.5001 55 29.3001C61.1 35.1001 64.5 43.2001 64.5 52.0001C64.5 58.4001 62.5 64.5001 58.8 69.7001C65.8 70.2001 70.4 73.3001 73 76.0001C76.6 79.6001 78.7 84.4001 78.5 88.5001C78 101.4 67.9 109 51.5 109ZM33.3 80.0001C33.9 80.0001 34.4 80.3001 34.7 80.9001C35 81.4001 34.9 82.1001 34.5 82.5001C31.9 85.5001 30.6 88.6001 30.6 91.5001C30.6 99.5001 40 106 51.6 106C58.6 106 75 104.3 75.6 88.4001C75.7 85.8001 74.5 81.7001 71 78.1001C68.4 75.4001 63.6 72.3001 55.9 72.6001C55.3 72.6001 54.7 72.3001 54.5 71.7001C54.2 71.2001 54.3 70.5001 54.7 70.1001C59.2 65.0001 61.6 58.6001 61.6 51.9001C61.6 43.9001 58.6 36.6001 53 31.3001C47.6 26.1001 40.4 23.5001 32.6 23.9001C16 24.8001 3.5 36.9001 3.5 52.0001C3.5 60.5001 6 67.2001 10.9 72.0001C19.5 80.3001 32.7 80.0001 33.3 80.0001Z" fill="#301F00"/>
<path d="M16 59.5C17.6569 59.5 19 58.1569 19 56.5C19 54.8431 17.6569 53.5 16 53.5C14.3431 53.5 13 54.8431 13 56.5C13 58.1569 14.3431 59.5 16 59.5Z" fill="#301F00"/>
<path d="M37 59.5C38.6569 59.5 40 58.1569 40 56.5C40 54.8431 38.6569 53.5 37 53.5C35.3431 53.5 34 54.8431 34 56.5C34 58.1569 35.3431 59.5 37 59.5Z" fill="#301F00"/>
<path d="M18.3999 64.7999C20.4999 61.8999 33.6999 61.6999 35.3999 64.7999C37.0999 67.8999 31.1999 76.4999 26.8999 76.4999C22.6999 76.4999 16.2999 67.6999 18.3999 64.7999Z" fill="#FFD81A"/>
<path d="M35.0999 68.7999C35.7999 67.1999 35.9999 65.6999 35.3999 64.7999C33.6999 61.6999 20.4999 61.8999 18.3999 64.7999C17.6999 65.6999 17.8999 67.2999 18.6999 68.9999C21.2999 66.4999 32.4999 66.2999 35.0999 68.7999Z" fill="#FFEA55"/>
<path d="M26.9 78C23.4 78 19.6 74.1 17.7 70.4C16.3 67.7 16.1 65.4 17.2 63.9C19.2 61.2 25.9 60.8 29.2 61.1C32 61.3 35.6 62 36.7 64.1C38 66.5 36.2 70.1 35.4 71.5C33.5 74.7 30.1 78 26.9 78ZM27.3 64C23.3 64 20.2 64.9 19.7 65.7C19.5 66 19.5 67.2 20.4 69C22 72.1 25.1 75 27 75C28.6 75 31.2 72.7 32.9 69.9C34.3 67.6 34.4 66 34.1 65.5C33.9 65.1 32.4 64.3 29 64.1C28.4 64 27.8 64 27.3 64Z" fill="#301F00"/>
<path d="M55 90.4999C55 90.4999 63.1 101.3 69 95.8999C71.7 93.3999 65 86.8999 65 86.8999" fill="#F2F2F2"/>
<path d="M55 90.5C55 90.5 64.1 100.7 70 95.5C65.5 95.9 56 89.5 56 89.5" fill="#CCCCCC"/>
<path d="M65.3001 98.9C65.1001 98.9 64.8 98.9 64.6 98.9C59.1 98.4 54.0001 91.7 53.8001 91.4C53.3001 90.7 53.4 89.8 54.1 89.3C54.8 88.8 55.7 88.8999 56.2 89.5999C57.4 91.1999 61.4001 95.6 64.8001 95.9C66.0001 96 67 95.6 68 94.8C68.1 94.7 68.2 94.6 68.2 94.4C68.2 92.8 65.8 89.6999 64 87.9999C63.4 87.3999 63.4 86.5 64 85.9C64.6 85.3 65.5 85.3 66.1 85.9C67 86.7 71.2 91.0999 71.2 94.4999C71.2 95.4999 70.8 96.3999 70.1 97.0999C68.6 98.2999 67.0001 98.9 65.3001 98.9Z" fill="#301F00"/>
</svg>
