<svg width="100" height="100" viewBox="0 0 100 100" fill="none" xmlns="http://www.w3.org/2000/svg">
<path d="M81.1719 76.5624C80.5469 76.5624 80 76.0155 80 75.3905C80 72.1874 75.3125 70.2343 75.3125 70.2343C74.6875 69.9999 74.375 69.2968 74.6875 68.7499C75 68.203 75.625 67.8905 76.1719 68.1249C76.4063 68.203 82.4219 70.6249 82.4219 75.4686C82.3438 76.0155 81.875 76.5624 81.1719 76.5624Z" fill="#301F00"/>
<path d="M71.6404 64.1406L70.9373 60.5469L38.906 68.3594L38.2029 72.3437L38.1248 72.2656C34.3748 75.3906 33.281 96.25 38.1248 95.7031C38.7498 95.625 39.2966 95.625 39.7654 95.5469C41.406 95.3906 42.7341 94.0625 42.7341 92.3437C42.7341 91.7187 42.8123 91.0156 42.8904 90.1563C46.2498 91.7969 50.4685 93.125 54.9998 92.8125C54.9216 94.2969 54.7654 95.4687 54.531 95.7031C53.906 96.4844 59.7654 97.7344 60.781 96.4844C61.1716 96.0156 61.8748 93.75 62.4216 91.25C65.3904 90.3906 67.8904 89.2969 69.9216 88.2812C69.531 90.5469 69.2185 92.7344 69.3748 93.3594C69.8435 94.6094 74.0623 93.3594 74.0623 93.3594C78.6716 86.4844 80.4685 70.4687 71.6404 64.1406Z" fill="#F2F2F2"/>
<path d="M68.3711 77.0308C71.1455 76.0767 72.7576 73.451 71.9718 71.1662C71.186 68.8814 68.3 67.8027 65.5255 68.7568C62.7511 69.711 61.139 72.3367 61.9248 74.6215C62.7106 76.9063 65.5966 77.985 68.3711 77.0308Z" fill="#666666"/>
<path d="M54.6871 73.6718C53.6715 72.578 51.6403 73.5936 50.3903 73.1249C49.1403 72.7343 47.2653 69.6093 44.4528 71.953C42.2653 73.7499 42.734 77.1874 44.9215 78.828C46.2496 79.7655 47.9684 79.9218 49.3746 79.2968C49.3746 79.2968 49.3746 79.2968 49.4528 79.2968C51.484 80.703 54.3746 79.9999 55.3903 77.578C55.859 76.328 55.6246 74.6874 54.6871 73.6718Z" fill="#666666"/>
<path d="M48.8281 87.5C46.875 87.5 45.3125 88.75 45.3125 90.2344C45.3125 90.625 45.3906 90.9375 45.625 91.3281C47.1875 91.875 48.8281 92.3437 50.625 92.6562C51.7188 92.1875 52.4219 91.3281 52.4219 90.3125C52.3437 88.75 50.7812 87.5 48.8281 87.5Z" fill="#666666"/>
<path d="M77.1093 72.7343C75.5468 72.4218 73.9062 73.4374 73.5156 75.078C73.2031 76.1718 73.5937 77.3437 74.375 78.0468C73.9062 79.6874 75.1562 81.4062 76.9531 81.4843C77.2656 81.4843 77.5 81.4843 77.8125 81.4061C78.0468 78.5155 77.8906 75.4686 77.1093 72.7343Z" fill="#666666"/>
<path d="M72.5781 85.7032C72.3438 84.7657 71.5625 83.9063 70.625 83.672C69.6094 83.4376 68.9063 84.8438 67.9688 85.1563C67.1094 85.3907 64.7656 84.4532 64.1406 86.9532C63.75 88.2813 64.5313 89.6095 65.625 90.2345C67.2656 89.6095 68.6719 88.9845 70 88.3595C69.9219 88.672 69.9219 88.9845 69.8438 89.297C69.9219 89.2188 69.9219 89.1407 70 89.0626C70 89.0626 70 89.0626 70.0781 89.0626C71.6406 89.0626 72.9688 87.5001 72.5781 85.7032Z" fill="#666666"/>
<path d="M49.2969 78.9062C60.5469 78.9062 70.4688 76.25 75.7031 69.6875C74.7656 67.8125 73.4375 66.1719 71.6406 64.9219L70.9375 61.3281L38.9063 69.1406L38.2031 73.125L38.125 73.0469C37.2656 73.75 36.5625 75.3906 36.0156 77.4219C40.0781 78.4375 44.5313 78.9062 49.2969 78.9062Z" fill="#CCCCCC"/>
<path d="M72.031 71.1718C71.2498 68.9062 68.3592 67.8124 65.5467 68.828C62.7342 69.7655 61.0935 72.4218 61.8748 74.6874C62.2654 75.7812 63.1248 76.5624 64.2185 77.0312C67.1873 76.0937 69.8435 74.8436 72.1092 73.203C72.2654 72.4999 72.2654 71.7968 72.031 71.1718Z" fill="#4D4D4D"/>
<path d="M54.6092 78.7499C54.8436 78.4374 55.078 78.0468 55.3123 77.6561C55.8592 76.328 55.703 74.7655 54.6873 73.6718C53.6717 72.578 51.6405 73.5936 50.3905 73.1249C49.1405 72.7343 47.2655 69.6093 44.453 71.953C42.2655 73.7499 42.6561 77.1093 44.8436 78.7499C46.328 78.828 47.8123 78.9061 49.3748 78.9061C51.0936 78.9061 52.8905 78.828 54.6092 78.7499Z" fill="#4D4D4D"/>
<path d="M78.5155 73.2812C77.578 69.0625 75.6248 65.7031 72.7342 63.5156L72.578 66.4062L73.5155 67.7344C74.9998 69.7656 75.7811 72.0312 76.1717 73.9062C76.7967 76.875 76.7967 80 76.4061 82.8906C76.2498 84.0625 76.0155 85.1562 75.7811 86.25C75.1561 88.75 74.2967 90.8594 73.2811 92.5C72.1873 92.8125 70.9373 92.9687 70.4686 92.8906C70.4686 92.2656 70.6248 90.8594 70.9373 89.2187V89.0625C71.8748 88.5937 72.7342 88.0469 73.1248 87.8906C73.6717 87.5781 74.2186 87.0312 74.0623 86.4062C73.828 85.7812 73.203 85.2344 72.4998 85.7031L72.3436 85.7812L72.1873 85.8594C72.0311 85.9375 71.7967 86.0937 71.5623 86.25C71.0936 86.4844 70.6248 86.7969 70.1561 87.0312C69.6873 87.2656 69.2186 87.5 68.9061 87.7344C67.4998 88.4375 65.7811 89.1406 63.9061 89.7656C64.1405 87.8125 64.0623 85.9375 63.5155 84.5312C63.2811 83.9062 62.578 83.6719 61.953 83.9062C61.328 84.1406 61.0936 84.8437 61.328 85.4687C61.8748 86.7187 61.7186 88.75 61.4061 90.625C61.2498 91.5625 61.0936 92.4219 60.8592 93.2031C60.4686 94.6094 60.1561 95.625 59.9217 96.0156C59.2967 96.3281 56.953 96.0156 55.8592 95.625C55.9373 95.2344 56.0155 94.7656 56.0936 94.1406C56.0936 93.9844 56.0936 93.8281 56.1717 93.6719C56.2498 93.125 56.2498 92.5 56.328 91.7969C56.4061 90.1562 56.4842 88.0469 56.5623 85.0781C56.5623 84.4531 56.0936 83.9062 55.3905 83.9062C54.7655 83.9062 54.2186 84.4531 54.2186 85.0781C54.1405 87.4219 54.0623 90 53.9842 92.0312C50.4686 92.1094 47.1092 91.0937 44.2967 89.8437C44.5311 88.5156 44.9998 87.1094 45.5467 85.5469C45.7811 84.9219 45.4686 84.2969 44.8436 84.0625C44.2186 83.8281 43.5936 84.1406 43.3592 84.7656C42.8123 86.1719 42.4217 87.5781 42.1092 88.8281C41.8748 89.6875 41.7186 90.5469 41.6405 91.3281C41.5623 91.875 41.5623 92.3437 41.5623 92.8125C41.5623 93.9062 40.7811 94.7656 39.6873 94.8437C39.2186 94.8437 38.6717 94.9219 38.0467 95C37.6561 95 37.2655 94.2187 37.1092 93.9062C36.4842 92.4219 36.1717 90.2344 36.0936 87.8125C35.9373 82.0312 37.2655 75.0781 38.9061 73.6719C39.3748 73.2812 39.453 72.5 39.0623 72.0312C38.6717 71.5625 37.8905 71.4844 37.4217 71.875C37.3436 71.9531 37.2655 72.0312 37.1873 72.1094C33.7498 75.5469 32.7342 89.6875 34.9217 94.8437C35.8592 97.0312 37.1873 97.4219 37.9686 97.4219C38.0467 97.4219 38.203 97.4219 38.2811 97.4219C38.9061 97.3437 39.3748 97.3437 39.9217 97.2656C42.1873 97.1094 43.9061 95.2344 43.9061 92.8906C43.9061 92.7344 43.9061 92.5781 43.9061 92.4219C46.7186 93.5938 50.078 94.5312 53.6717 94.5312H53.7498C53.6717 95.0781 53.6717 95.4687 53.5936 95.625C53.2811 96.1719 53.2811 96.9531 54.0623 97.5C54.7655 98.0469 56.953 98.6719 58.9061 98.6719C60.1561 98.6719 61.2498 98.4375 61.7967 97.6562C62.1873 97.1094 62.9686 95.0781 63.5155 92.6562C65.3123 92.1094 67.0311 91.4062 68.4373 90.7812C68.203 92.4219 68.1248 93.6719 68.3592 94.2187C68.7498 95.2344 69.7655 95.5469 71.0155 95.5469C72.1873 95.5469 73.5155 95.2344 74.5311 94.9219C74.7655 94.8437 74.9998 94.6875 75.1561 94.4531C78.0467 89.5312 80.1561 81.0156 78.5155 73.2812Z" fill="#301F00"/>
<path d="M53.5938 19.2969C57.6563 19.5313 66.6407 9.53122 71.0157 4.37497C71.7969 3.43747 73.3594 4.06247 73.2813 5.31247C72.7344 12.0313 71.2501 25.1563 67.4219 27.5C62.2657 30.5469 48.1251 18.9063 53.5938 19.2969Z" fill="#D6925E"/>
<path d="M60.0779 18.4375C62.4997 18.5938 67.8122 12.6563 70.3904 9.60941C70.8591 9.06253 71.7966 9.45316 71.7185 10.1563C71.406 14.1406 70.5466 21.875 68.281 23.2813C65.2341 25.1563 56.8747 18.2813 60.0779 18.4375Z" fill="#C97F4E"/>
<path d="M65.2343 29.1406C61.5625 29.1406 56.875 26.4063 54.0625 23.9844C50.5468 21.0156 51.0937 19.6094 51.25 19.2188C51.4062 18.75 52.0312 17.9688 53.5937 18.125C55.5468 18.2031 60.8593 14.5312 70.0781 3.67187C70.7812 2.8125 71.875 2.57813 72.8906 2.96875C73.9062 3.35938 74.4531 4.375 74.375 5.39063C73.6718 14.6094 71.9531 26.0156 67.9687 28.4375C67.1875 28.9063 66.25 29.1406 65.2343 29.1406ZM53.8281 20.4688C54.8437 21.7969 57.8906 24.2969 61.3281 25.8594C63.75 26.875 65.7031 27.1094 66.7968 26.4844C69.1406 25.0781 71.1718 16.9531 72.1093 5.23437C72.1093 5.23437 72.1093 5.15625 72.0312 5.15625C71.9531 5.15625 71.9531 5.15625 71.9531 5.15625C63.4375 15.1563 57.3437 20.3125 53.8281 20.4688Z" fill="#301F00"/>
<path d="M43.2811 19.2969C39.2186 19.5313 30.2343 9.53122 25.8593 4.37497C25.078 3.43747 23.5155 4.06247 23.5936 5.31247C24.1405 12.0313 25.6249 25.1563 29.453 27.5C34.6093 30.5469 48.7499 18.9063 43.2811 19.2969Z" fill="#D6925E"/>
<path d="M36.7971 18.4375C34.3752 18.5938 29.0627 12.6563 26.4846 9.60941C26.0158 9.06253 25.0783 9.45316 25.1565 10.1563C25.469 14.1406 26.3283 21.875 28.5939 23.2813C31.6408 25.1563 40.0002 18.2813 36.7971 18.4375Z" fill="#C97F4E"/>
<path d="M31.6407 29.1406C30.625 29.1406 29.6875 28.9063 28.8282 28.4375C24.8438 26.0156 23.125 14.5312 22.4219 5.39063C22.3438 4.29688 22.8907 3.35938 23.9063 2.96875C24.9219 2.57813 26.0157 2.8125 26.7188 3.67187C35.9375 14.4531 41.25 18.2031 43.2032 18.125C44.8438 18.0469 45.3907 18.75 45.5469 19.2188C45.7032 19.6875 46.25 21.0156 42.7344 23.9844C40 26.4063 35.3125 29.1406 31.6407 29.1406ZM24.9219 5.07813C24.8438 5.15625 24.8438 5.15625 24.8438 5.15625C25.7813 16.7969 27.8125 25 30.1563 26.4062C31.25 27.0313 33.2032 26.7969 35.625 25.7813C39.0625 24.2969 42.1094 21.7188 43.125 20.3906C39.5313 20.3125 33.4375 15.1562 24.9219 5.07813Z" fill="#301F00"/>
<path d="M92.2657 34.4532C94.1407 39.922 83.3595 42.9689 76.172 45.4689C69.0626 47.9689 61.7189 45.547 59.7657 40.0782C57.8126 34.6095 62.1095 28.1251 69.2189 25.6251C76.4064 23.1251 90.3907 28.9845 92.2657 34.4532Z" fill="#F2F2F2"/>
<path d="M91.0157 38.7501C88.5938 33.3595 75.1563 27.8907 68.2032 30.3126C64.0625 31.7189 60.9375 34.4532 59.375 37.5782C59.2188 32.7345 63.2032 27.7345 69.2969 25.547C76.4063 23.047 90.3907 28.9064 92.2657 34.3751C92.8125 36.0939 92.2657 37.5001 91.0157 38.7501Z" fill="white"/>
<path d="M85.2345 34.922C86.3283 38.1251 80.0002 39.922 75.7814 41.4064C71.5627 42.8907 67.2658 41.4064 66.172 38.2032C65.0783 35.0001 67.5783 31.172 71.7189 29.6876C75.9377 28.2814 84.1408 31.7189 85.2345 34.922Z" fill="#F9C0A7"/>
<path d="M72.5 43.2031C71.4844 43.2031 70.4687 43.0469 69.4531 42.7344C67.2656 42.0313 65.7031 40.5469 65.0781 38.6719C64.4531 36.7969 64.7656 34.6875 66.0156 32.7344C67.1875 30.9375 69.1406 29.4531 71.4062 28.6719C73.5937 27.8906 76.875 28.2031 80.1562 29.5313C83.4375 30.8594 85.7812 32.7344 86.4062 34.6094C86.7187 35.4688 86.6406 36.3281 86.25 37.1875C85.0781 39.6094 81.0156 40.9375 77.5 42.1875C77.1094 42.3438 76.6406 42.5 76.25 42.5781C74.9219 42.9688 73.6719 43.2031 72.5 43.2031ZM74.0625 30.5469C73.3594 30.5469 72.6563 30.625 72.1094 30.8594C70.3125 31.4844 68.8281 32.5781 67.8906 33.9844C67.0312 35.3125 66.7969 36.6406 67.2656 37.8906C67.6562 39.0625 68.75 40 70.1563 40.5469C71.7188 41.0938 73.5937 41.0156 75.3906 40.3906C75.7812 40.2344 76.25 40.0781 76.6406 39.9219C79.4531 38.9844 83.3594 37.6563 84.0625 36.1719C84.2187 35.9375 84.2187 35.7031 84.0625 35.3906C83.6719 34.2188 81.6406 32.7344 79.1406 31.7188C77.3438 30.9375 75.5469 30.5469 74.0625 30.5469Z" fill="#301F00"/>
<path d="M70.625 47.5782C65.0782 47.5782 60.3125 44.922 58.75 40.3907C57.7344 37.422 58.2031 34.0626 60.2344 31.0157C62.1875 28.047 65.2344 25.7814 68.9844 24.4532C76.4063 21.8751 91.25 27.7345 93.4375 34.0626C93.9063 35.3126 93.8282 36.5626 93.2032 37.8126C91.3282 41.5626 84.6875 43.8282 78.75 45.8595C78.0469 46.0939 77.3438 46.3282 76.6406 46.5626C74.6094 47.2657 72.5782 47.5782 70.625 47.5782ZM73.2813 26.172C71.9532 26.172 70.7031 26.3282 69.6875 26.7189C66.4844 27.8126 63.8281 29.8439 62.1875 32.3439C60.625 34.7657 60.1563 37.3439 60.9375 39.6095C62.6563 44.4532 69.2969 46.5626 75.8594 44.297C76.5625 44.0626 77.2657 43.8282 77.9688 43.5939C82.8907 41.9532 89.6875 39.6095 91.0938 36.7189C91.4063 36.0939 91.4063 35.4689 91.1719 34.7657C89.7656 30.7814 80.3125 26.172 73.2813 26.172Z" fill="#301F00"/>
<path d="M4.6095 34.4532C2.7345 39.922 13.5158 42.9689 20.7033 45.4689C27.8126 47.9689 35.1564 45.547 37.1095 40.0782C38.9845 34.6095 34.7658 28.1251 27.6564 25.6251C20.4689 23.1251 6.4845 28.9845 4.6095 34.4532Z" fill="#666666"/>
<path d="M5.85958 38.7501C8.28146 33.3595 21.719 27.8907 28.6721 30.3126C32.8127 31.7189 35.9377 34.5314 37.5002 37.6564C37.6565 32.8126 33.6721 27.8126 27.5783 25.6251C20.469 23.1251 6.48458 28.9845 4.60958 34.4532C4.06271 36.0939 4.60958 37.5001 5.85958 38.7501Z" fill="#808080"/>
<path d="M11.1719 34.9219C10.0781 38.125 16.4062 39.9219 20.625 41.4063C24.8437 42.8906 29.1406 41.4063 30.2344 38.2031C31.3281 35 28.8281 31.1719 24.6875 29.6875C20.5469 28.2031 12.2656 31.7188 11.1719 34.9219Z" fill="#F9C0A7"/>
<path d="M23.9062 43.1249C22.7343 43.1249 21.4843 42.8905 20.2343 42.4999C19.8437 42.3437 19.4531 42.1874 18.9843 42.1093C15.3906 40.9374 11.4062 39.5312 10.2343 37.1093C9.84371 36.328 9.76558 35.3905 10.0781 34.5312C11.4843 30.5468 20.4687 26.953 25.0781 28.5937C27.3437 29.3749 29.2968 30.8593 30.4687 32.6562C31.7187 34.5312 32.0312 36.6405 31.4062 38.5937C30.3906 41.4843 27.3437 43.1249 23.9062 43.1249ZM22.3437 30.5468C18.4375 30.5468 13.0468 33.1249 12.2656 35.3124C12.1875 35.6249 12.1875 35.7812 12.2656 36.0937C13.0468 37.578 16.875 38.9062 19.6875 39.8437C20.1562 39.9999 20.5468 40.1562 20.9375 40.3124C24.5312 41.5624 28.2031 40.4687 29.0625 37.8124C29.4531 36.6405 29.2187 35.2343 28.3593 33.9062C27.4218 32.4999 25.9375 31.4062 24.1406 30.7812C23.75 30.6249 23.0468 30.5468 22.3437 30.5468Z" fill="#301F00"/>
<path d="M26.25 47.5781C24.2969 47.5781 22.2656 47.2656 20.2344 46.5625C19.5312 46.3281 18.8281 46.0938 18.125 45.8594C12.1875 43.8281 5.54687 41.5625 3.67187 37.8125C3.125 36.6406 3.04688 35.3906 3.4375 34.0625C4.60937 30.625 9.53125 27.5781 13.5937 25.9375C18.9844 23.75 24.2969 23.2813 27.8906 24.4531C31.5625 25.7031 34.6875 28.0469 36.6406 31.0156C38.6719 34.0625 39.1406 37.3438 38.125 40.3906C36.5625 44.9219 31.7969 47.5781 26.25 47.5781ZM23.5937 26.1719C20.9375 26.1719 17.7344 26.875 14.5312 28.125C10 29.9219 6.48437 32.6563 5.70312 34.8438C5.46875 35.5469 5.46875 36.0938 5.78125 36.7188C7.1875 39.6094 13.9844 41.875 18.9062 43.5938C19.6094 43.8281 20.3906 44.0625 21.0156 44.2969C27.5 46.5625 34.2187 44.4531 35.9375 39.6094C36.7187 37.3438 36.3281 34.6875 34.6875 32.3438C33.0469 29.8438 30.3906 27.8125 27.1875 26.7188C26.1719 26.3281 25 26.1719 23.5937 26.1719Z" fill="#301F00"/>
<path d="M78.9844 52.3438C78.9844 68.2812 65.3125 74.2189 48.5156 74.2189C31.7188 74.2189 18.0469 68.2812 18.0469 52.3438C18.0469 38.75 22.4219 22.2656 38.75 17.6563C40.3125 17.1875 42.0313 16.875 43.8281 16.6406C44.5312 16.5625 45.2344 16.4844 46.0156 16.4844C46.7969 16.4063 47.6562 16.4062 48.5156 16.4062C49.375 16.4062 50.2344 16.4063 51.0156 16.4844C51.7969 16.5625 52.5 16.5625 53.2031 16.6406C55 16.875 56.7188 17.1875 58.2812 17.6563C74.6094 22.3438 78.9844 38.8281 78.9844 52.3438Z" fill="#F2F2F2"/>
<path d="M44.6094 41.4062C44.6094 31.7969 41.0937 23.3594 35.7812 18.75C21.875 24.375 18.0469 39.6875 18.0469 52.3438C18.0469 59.2969 20.625 64.375 25 67.8906C25.3906 67.9688 25.8594 67.9688 26.25 67.9688C36.4062 67.9688 44.6094 56.0937 44.6094 41.4062Z" fill="#666666"/>
<path d="M18.125 54.2188C18.125 54.5313 18.2031 54.8438 18.2031 55.0781C18.2031 55.2344 18.2812 55.3906 18.2812 55.5469C18.2812 55.7812 18.3594 56.0937 18.3594 56.3281C18.3594 56.4844 18.4375 56.6406 18.4375 56.7969C18.5156 57.0312 18.5156 57.2656 18.5937 57.5C18.5937 57.6562 18.6719 57.8125 18.6719 57.9687C18.75 58.2031 18.8281 58.4375 18.9063 58.6719C18.9844 58.8281 18.9844 58.9844 19.0625 59.1406C19.1406 59.375 19.2188 59.6094 19.2969 59.9219C19.375 60.0781 19.375 60.1562 19.4531 60.3125C19.6094 60.7031 19.7656 61.0156 19.9219 61.4062C20.0781 61.7187 20.2344 62.1094 20.4688 62.4219C20.5469 62.5 20.625 62.6563 20.625 62.7344C20.7812 62.9688 20.8594 63.2031 21.0156 63.3594C21.0937 63.5156 21.1719 63.5937 21.25 63.75C21.4063 63.9062 21.4844 64.1406 21.6406 64.2969C21.7188 64.4531 21.7969 64.5313 21.875 64.6875C22.0312 64.8438 22.1875 65.0781 22.2656 65.2344C22.3437 65.3125 22.4219 65.4688 22.5781 65.5469C22.7344 65.7031 22.8906 65.8594 23.0469 66.0156C23.125 66.0938 23.2031 66.25 23.3594 66.3281C23.5156 66.4844 23.75 66.6406 23.9062 66.875C23.9844 66.9531 24.0625 67.0313 24.1406 67.1094C24.4531 67.3438 24.6875 67.5781 25 67.8125C25.3906 67.8906 25.8594 67.8906 26.25 67.8906C27.7344 67.8906 29.1406 67.6563 30.5469 67.1875C23.4375 64.1406 18.5938 58.6719 18.125 50C18.125 50.7813 18.0469 51.5625 18.0469 52.3438C18.0469 52.8125 18.0469 53.2813 18.0469 53.75C18.125 53.9063 18.125 54.0625 18.125 54.2188Z" fill="#4D4D4D"/>
<path d="M48.5156 25C70.3125 25 77.5 40.9375 78.75 55.7031C78.9063 54.6094 78.9844 53.5156 78.9844 52.3438C78.9844 36.4063 72.8906 16.4062 48.5156 16.4062C24.0625 16.4062 18.0469 36.4063 18.0469 52.3438C18.0469 53.5156 18.125 54.6094 18.2812 55.7031C19.6094 40.9375 26.7188 25 48.5156 25Z" fill="white"/>
<path d="M18.125 54.2188C18.125 54.7656 18.2031 55.2344 18.2812 55.7813C19.375 42.8125 25 28.9844 41.0937 25.7812C39.6875 22.9688 37.8906 20.625 35.8594 18.75C35.7813 18.8281 35.625 18.8281 35.5469 18.9063C35.3125 18.9844 35 19.1406 34.7656 19.2188C34.5312 19.2969 34.2969 19.4531 34.1406 19.5312C33.9062 19.6875 33.6719 19.7656 33.4375 19.9219C33.0469 20.1563 32.6562 20.3906 32.2656 20.625C32.0312 20.7812 31.7969 20.9375 31.5625 21.0938C31.4063 21.25 31.1719 21.3281 31.0156 21.4844C30.7812 21.6406 30.5469 21.7969 30.3906 21.9531C30.2344 22.1094 30 22.1875 29.8438 22.3438C29.6094 22.5 29.4531 22.6563 29.2188 22.8125C29.0625 22.9688 28.9062 23.125 28.75 23.2812C28.5156 23.5156 28.2031 23.75 27.9687 23.9844C27.7344 24.2188 27.5 24.4531 27.2656 24.6875C27.1094 24.8438 26.9531 25.0781 26.7969 25.2344C26.6406 25.3906 26.4844 25.5469 26.3281 25.7031C26.1719 25.8594 26.0156 26.0937 25.8594 26.25C25.7031 26.4062 25.5469 26.5625 25.4687 26.7969C25.3125 27.0312 25.1562 27.1875 25 27.4219C24.8437 27.5781 24.7656 27.8125 24.6094 27.9687C24.4531 28.2031 24.2187 28.5156 24.0625 28.75C23.9062 29.0625 23.6719 29.2969 23.5156 29.6094C23.3594 29.8438 23.2813 30 23.2031 30.2344C23.0469 30.4688 22.9687 30.625 22.8906 30.8594C22.8125 31.0938 22.6562 31.25 22.5781 31.4844C22.5 31.7187 22.3437 31.9531 22.2656 32.1094C22.1875 32.3437 22.0312 32.5 21.9531 32.7344C21.875 32.9688 21.7188 33.2031 21.6406 33.5156C21.5625 33.75 21.4844 33.9844 21.4062 34.1406C21.25 34.5313 21.0937 34.9219 21.0156 35.2344C20.9375 35.4687 20.8594 35.625 20.7812 35.8594C20.7031 36.0938 20.625 36.4063 20.5469 36.6406C20.4687 36.875 20.3906 37.0313 20.3906 37.2656C20.3125 37.5 20.2344 37.8125 20.1562 38.0469C20.0781 38.2813 20.0781 38.4375 20 38.6719C19.9219 38.9844 19.8437 39.2969 19.7656 39.6875C19.7656 39.8437 19.6875 39.9219 19.6875 40.0781C19.6094 40.5469 19.4531 40.9375 19.375 41.4062C19.375 41.5625 19.2969 41.7969 19.2969 41.9531C19.2187 42.2656 19.2187 42.5781 19.1406 42.8906C19.1406 43.0469 19.0625 43.2812 19.0625 43.4375C18.9844 43.75 18.9844 44.0625 18.9062 44.375C18.9062 44.5312 18.8281 44.6875 18.8281 44.9219C18.75 45.3125 18.75 45.7031 18.6719 46.1719C18.6719 46.25 18.6719 46.3281 18.6719 46.3281C18.5937 46.7969 18.5938 47.2656 18.5156 47.7344C18.5156 47.8906 18.5156 48.0469 18.5156 48.2031C18.5156 48.5156 18.4375 48.8281 18.4375 49.2188C18.4375 49.375 18.4375 49.5312 18.4375 49.6875C18.4375 50 18.4375 50.3125 18.4375 50.625C18.4375 50.7813 18.4375 50.9375 18.4375 51.0938C18.4375 51.5625 18.4375 52.0312 18.4375 52.5C18.4375 53.0469 18.4375 53.5938 18.5156 54.1406C18.125 54.0625 18.125 54.1406 18.125 54.2188Z" fill="#808080"/>
<path d="M48.5156 55.3125C38.2812 55.3125 29.375 60.5469 24.9219 68.2031C30.3125 73.0469 38.9062 75 48.5156 75C58.125 75 66.7188 73.125 72.1094 68.2031C67.7344 60.625 58.8281 55.3125 48.5156 55.3125Z" fill="#F9C0A7"/>
<path d="M78.9845 50C78.5938 57.1094 75.3126 62.1094 70.1562 65.3125C70.8594 66.1719 71.4063 67.0312 71.9532 67.9688C76.3282 64.4531 78.9845 59.375 78.9845 52.3438C78.9845 51.5625 78.9845 50.7812 78.9845 50Z" fill="#CCCCCC"/>
<path d="M26.9531 65.3125C26.25 66.1719 25.7031 67.0313 25.1562 67.9688C30.7812 72.4219 39.1406 74.2188 48.5938 74.2188C58.0469 74.2188 66.4062 72.3438 72.0312 67.9688C71.4844 67.0313 70.8594 66.1719 70.2344 65.3125C64.6094 68.8281 56.9531 70.3125 48.5156 70.3125C40.0781 70.3125 32.4219 68.8281 26.9531 65.3125Z" fill="#F7AD90"/>
<path d="M73.125 67.6562C72.8125 67.1094 72.5 66.6406 72.1875 66.1719C67.1875 58.75 58.2812 54.1406 48.5156 54.1406C38.75 54.1406 29.8437 58.6719 24.8437 66.1719C24.5312 66.6406 24.2188 67.1875 23.9063 67.6562C23.75 67.8906 23.75 68.125 23.75 68.4375C29.0625 72.9687 37.4219 75.3906 48.5156 75.3906C59.6094 75.3906 67.8906 72.9687 73.2813 68.4375C73.2813 68.2031 73.2812 67.8906 73.125 67.6562ZM48.5156 73.8281C38.6719 73.8281 31.25 71.875 26.4062 67.9687C26.4844 67.8125 26.5625 67.7344 26.6406 67.5781C31.1719 60.7031 39.4531 56.4062 48.4375 56.4062C57.5 56.4062 65.7031 60.625 70.3125 67.5781C70.3906 67.7344 70.4688 67.8125 70.5469 67.9687C65.7813 71.875 58.3594 73.8281 48.5156 73.8281Z" fill="#301F00"/>
<path d="M48.5156 15.2344C20 15.2344 16.875 41.1719 16.875 52.3438C16.875 59.1406 19.2187 64.5312 23.75 68.4375C29.0625 72.9687 37.4219 75.3906 48.5156 75.3906C59.6094 75.3906 67.8906 72.9687 73.2813 68.4375C77.8125 64.6094 80.1562 59.1406 80.1562 52.3438C80.1562 41.25 77.1094 15.2344 48.5156 15.2344ZM72.1875 66.1719C71.6406 66.7187 71.0156 67.1875 70.3906 67.6562C64.0625 72.1094 55 73.0469 48.5156 73.0469C42.0312 73.0469 33.0469 72.1094 26.7188 67.6562C26.0938 67.1875 25.4687 66.7187 24.8437 66.1719C21.4844 63.0469 19.2188 58.6719 19.2188 52.3438C19.2188 41.875 22.1094 17.5781 48.5156 17.5781C75 17.5781 77.8125 41.9531 77.8125 52.3438C77.8125 58.6719 75.625 63.125 72.1875 66.1719Z" fill="#301F00"/>
<path d="M60.9375 53.9062C62.2319 53.9062 63.2812 52.8569 63.2812 51.5625C63.2812 50.2681 62.2319 49.2188 60.9375 49.2188C59.6431 49.2188 58.5938 50.2681 58.5938 51.5625C58.5938 52.8569 59.6431 53.9062 60.9375 53.9062Z" fill="#301F00"/>
<path d="M36.0938 53.9062C37.3882 53.9062 38.4375 52.8569 38.4375 51.5625C38.4375 50.2681 37.3882 49.2188 36.0938 49.2188C34.7993 49.2188 33.75 50.2681 33.75 51.5625C33.75 52.8569 34.7993 53.9062 36.0938 53.9062Z" fill="#301F00"/>
<path d="M53.8281 66.4844C54.6048 66.4844 55.2344 65.54 55.2344 64.375C55.2344 63.21 54.6048 62.2656 53.8281 62.2656C53.0515 62.2656 52.4219 63.21 52.4219 64.375C52.4219 65.54 53.0515 66.4844 53.8281 66.4844Z" fill="#301F00"/>
<path d="M43.8281 66.4844C44.6048 66.4844 45.2344 65.54 45.2344 64.375C45.2344 63.21 44.6048 62.2656 43.8281 62.2656C43.0515 62.2656 42.4219 63.21 42.4219 64.375C42.4219 65.54 43.0515 66.4844 43.8281 66.4844Z" fill="#301F00"/>
</svg>
