<svg width="113" height="126" viewBox="0 0 113 126" fill="none" xmlns="http://www.w3.org/2000/svg">
<path d="M96.9 97.1002C96.8 97.1002 96.8 97.1002 96.7 97.1002C95.9 97.0002 95.3 96.2002 95.4 95.4002C95.8 92.1002 90.4 90.0002 90.4 90.0002C89.6 89.7002 89.2 88.8002 89.5 88.1002C89.8 87.3002 90.6 86.9002 91.4 87.2002C91.7 87.3002 99.1 90.1002 98.4 95.8002C98.3 96.5002 97.7 97.1002 96.9 97.1002Z" fill="#301F00"/>
<path d="M85.7 81.6L84.8 77L43.8 87L42.9 92.1L42.8 92C38 96 36.6 122.7 42.8 122C43.6 121.9 44.3 121.9 44.9 121.8C47 121.6 48.7 119.9 48.7 117.7C48.7 116.9 48.8 116 48.9 114.9C53.2 117 58.6 118.7 64.4 118.3C64.3 120.2 64.1 121.7 63.8 122C63 123 70.5 124.6 71.8 123C72.3 122.4 73.2 119.5 73.9 116.3C77.7 115.2 80.9 113.8 83.5 112.5C83 115.4 82.6 118.2 82.8 119C83.4 120.6 88.8 119 88.8 119C94.6 110.2 96.9 89.7 85.7 81.6Z" fill="#FDAD4C"/>
<path d="M57.0999 100.5C71.4999 100.5 84.1999 97.1 90.8999 88.7C89.6999 86.3 87.9999 84.2 85.6999 82.6L84.7999 78L43.7999 88L42.8999 93.1L42.7999 93C41.6999 93.9 40.7999 96 40.0999 98.6C45.1999 99.9 50.9999 100.5 57.0999 100.5Z" fill="#EB9129"/>
<path d="M94.4 93.3C93.2 87.9 90.7 83.6 87 80.8L86.8 84.5L88 86.2C89.9 88.8 90.9 91.7 91.4 94.1C92.2 97.9 92.2 101.9 91.7 105.6C91.5 107.1 91.2 108.5 90.9 109.9C90.1 113.1 89 115.8 87.7 117.9C86.3 118.3 84.7 118.5 84.1 118.4C84.1 117.6 84.3 115.8 84.7 113.7V113.5C85.9 112.9 87 112.2 87.5 112C88.2 111.6 88.9 110.9 88.7 110.1C88.4 109.3 87.6 108.6 86.7 109.2L86.5 109.3L86.3 109.4C86.1 109.5 85.8 109.7 85.5 109.9C84.9 110.2 84.3 110.6 83.7 110.9C83.1 111.2 82.5 111.5 82.1 111.8C80.3 112.7 78.1 113.6 75.7 114.4C76 111.9 75.9 109.5 75.2 107.7C74.9 106.9 74 106.6 73.2 106.9C72.4 107.2 72.1 108.1 72.4 108.9C73.1 110.5 72.9 113.1 72.5 115.5C72.3 116.7 72.1 117.8 71.8 118.8C71.3 120.6 70.9 121.9 70.6 122.4C69.8 122.8 66.8 122.4 65.4 121.9C65.5 121.4 65.6 120.8 65.7 120C65.7 119.8 65.7 119.6 65.8 119.4C65.9 118.7 65.9 117.9 66 117C66.1 114.9 66.2 112.2 66.3 108.4C66.3 107.6 65.7 106.9 64.8 106.9C64 106.9 63.3 107.6 63.3 108.4C63.2 111.4 63.1 114.7 63 117.3C58.5 117.4 54.2 116.1 50.6 114.5C50.9 112.8 51.5 111 52.2 109C52.5 108.2 52.1 107.4 51.3 107.1C50.5 106.8 49.7 107.2 49.4 108C48.7 109.8 48.2 111.6 47.8 113.2C47.5 114.3 47.3 115.4 47.2 116.4C47.1 117.1 47.1 117.7 47.1 118.3C47.1 119.7 46.1 120.8 44.7 120.9C44.1 120.9 43.4 121 42.6 121.1C42.1 121.1 41.6 120.1 41.4 119.7C40.6 117.8 40.2 115 40.1 111.9C39.9 104.5 41.6 95.6 43.7 93.8C44.3 93.3 44.4 92.3 43.9 91.7C43.4 91.1 42.4 91 41.8 91.5C41.7 91.6 41.6 91.7 41.5 91.8C37.1 96.2 35.8 114.3 38.6 120.9C39.8 123.7 41.5 124.2 42.5 124.2C42.6 124.2 42.8 124.2 42.9 124.2C43.7 124.1 44.3 124.1 45 124C47.9 123.8 50.1 121.4 50.1 118.4C50.1 118.2 50.1 118 50.1 117.8C53.7 119.3 58 120.5 62.6 120.5H62.7C62.6 121.2 62.6 121.7 62.5 121.9C62.1 122.6 62.1 123.6 63.1 124.3C64 125 66.8 125.8 69.3 125.8C70.9 125.8 72.3 125.5 73 124.5C73.5 123.8 74.5 121.2 75.2 118.1C77.5 117.4 79.7 116.5 81.5 115.7C81.2 117.8 81.1 119.4 81.4 120.1C81.9 121.4 83.2 121.8 84.8 121.8C86.3 121.8 88 121.4 89.3 121C89.6 120.9 89.9 120.7 90.1 120.4C93.8 114.1 96.5 103.2 94.4 93.3Z" fill="#301F00"/>
<path d="M110.6 37.6001C110.6 47.0001 96.0001 61.6001 86.6001 61.6001C77.2001 61.6001 69.6001 54.0001 69.6001 44.6001C69.6001 35.2001 77.2001 27.6001 86.6001 27.6001C96.0001 27.6001 110.6 28.2001 110.6 37.6001Z" fill="#FDAD4C"/>
<path d="M86.6001 63.1001C76.4001 63.1001 68.1001 54.8001 68.1001 44.6001C68.1001 34.4001 76.4001 26.1001 86.6001 26.1001C94.2001 26.1001 112.1 26.1001 112.1 37.6001C112.1 47.8001 96.9001 63.1001 86.6001 63.1001ZM86.6001 29.1001C78.1001 29.1001 71.1001 36.1001 71.1001 44.6001C71.1001 53.1001 78.1001 60.1001 86.6001 60.1001C95.2001 60.1001 109.1 46.2001 109.1 37.6001C109.1 30.1001 97.1001 29.1001 86.6001 29.1001Z" fill="#301F00"/>
<path d="M102.2 40.5001C102.2 46.0001 93.6001 54.6001 88.1001 54.6001C82.6001 54.6001 78.1001 50.1001 78.1001 44.6001C78.1001 39.1001 82.6001 34.6001 88.1001 34.6001C93.6001 34.6001 102.2 34.9001 102.2 40.5001Z" fill="#8A4900"/>
<path d="M88.1001 56.1001C81.8001 56.1001 76.6001 50.9001 76.6001 44.6001C76.6001 38.3001 81.8001 33.1001 88.1001 33.1001C92.8001 33.1001 103.7 33.1001 103.7 40.5001C103.7 46.9001 94.5001 56.1001 88.1001 56.1001ZM88.1001 36.1001C83.4001 36.1001 79.6001 39.9001 79.6001 44.6001C79.6001 49.3001 83.4001 53.1001 88.1001 53.1001C92.8001 53.1001 100.7 45.2001 100.7 40.5001C100.7 36.5001 93.5001 36.1001 88.1001 36.1001Z" fill="#301F00"/>
<path d="M1.5 37.6001C1.5 47.0001 16.1 61.6001 25.5 61.6001C34.9 61.6001 42.5 54.0001 42.5 44.6001C42.5 35.2001 34.9 27.6001 25.5 27.6001C16.1 27.6001 1.5 28.2001 1.5 37.6001Z" fill="#FDAD4C"/>
<path d="M25.5 63.1001C15.3 63.1001 0 47.8001 0 37.6001C0 26.1001 17.9 26.1001 25.5 26.1001C35.7 26.1001 44 34.4001 44 44.6001C44 54.8001 35.7 63.1001 25.5 63.1001ZM25.5 29.1001C15 29.1001 3 30.1001 3 37.6001C3 46.2001 16.9 60.1001 25.5 60.1001C34 60.1001 41 53.1001 41 44.6001C41 36.1001 34 29.1001 25.5 29.1001Z" fill="#301F00"/>
<path d="M9.8999 40.5001C9.8999 46.0001 18.4999 54.6001 23.9999 54.6001C29.4999 54.6001 33.9999 50.1001 33.9999 44.6001C33.9999 39.1001 29.4999 34.6001 23.9999 34.6001C18.4999 34.6001 9.8999 34.9001 9.8999 40.5001Z" fill="#8A4900"/>
<path d="M24.1 56.1001C17.7 56.1001 8.5 46.9001 8.5 40.5001C8.5 33.1001 19.4 33.1001 24.1 33.1001C30.4 33.1001 35.6 38.3001 35.6 44.6001C35.6 50.9001 30.4 56.1001 24.1 56.1001ZM24.1 36.1001C18.7 36.1001 11.5 36.6001 11.5 40.5001C11.5 45.2001 19.4 53.1001 24.1 53.1001C28.8 53.1001 32.6 49.3001 32.6 44.6001C32.6 39.9001 28.7 36.1001 24.1 36.1001Z" fill="#301F00"/>
<path d="M95.1001 66.5C95.1001 86.9 77.6001 94.5 56.1001 94.5C34.6001 94.5 17.1001 86.9 17.1001 66.5C17.1001 49.1 22.7001 28 43.6001 22.1C45.6001 21.5 47.8001 21.1 50.1001 20.8C51.0001 20.7 51.9001 20.6 52.9001 20.6C53.9001 20.5 55.0001 20.5 56.1001 20.5C57.2001 20.5 58.3001 20.5 59.3001 20.6C60.3001 20.7 61.2001 20.7 62.1001 20.8C64.4001 21.1 66.6001 21.5 68.6001 22.1C89.5001 28.1 95.1001 49.2 95.1001 66.5Z" fill="#FDAD4C"/>
<path d="M38.9001 27.7001C38.9001 25.9001 39.7001 24.2001 40.9001 23.1001C22.2001 30.0001 17.1001 50.0001 17.1001 66.6001C17.1001 68.1001 17.2001 69.5001 17.4001 70.9001C18.7001 55.4001 25.0001 39.0001 42.5001 33.5001C40.4001 32.4001 38.9001 30.2001 38.9001 27.7001Z" fill="#FEC769"/>
<path d="M70.8001 22.9001C72.1001 24.1001 72.9001 25.8001 72.9001 27.7001C72.9001 30.2001 71.5001 32.4001 69.4001 33.5001C87.0001 39.0001 93.4001 55.4001 94.7001 70.9001C94.9001 69.5001 95.0001 68.1001 95.0001 66.6001C95.1001 49.8001 89.9001 29.7001 70.8001 22.9001Z" fill="#FEC769"/>
<path d="M59.9001 27.7001C59.9001 24.6001 62.1001 22.0001 64.9001 21.4001C62.2001 20.9001 59.2001 20.6001 56.0001 20.6001C52.7001 20.6001 49.7001 20.9001 46.9001 21.4001C49.7001 22.1001 51.8001 24.7001 51.8001 27.7001C51.8001 29.3001 51.2001 30.8001 50.3001 31.9001C52.1001 31.7001 54.0001 31.6001 56.0001 31.6001C57.9001 31.6001 59.7001 31.7001 61.4001 31.9001C60.5001 30.7001 59.9001 29.2001 59.9001 27.7001Z" fill="#FEC769"/>
<path d="M56.1001 89.5C35.3001 89.5 18.3001 82.4 17.2001 63.5C17.2001 64.5 17.1001 65.5 17.1001 66.5C17.1001 86.9 34.6001 94.5 56.1001 94.5C77.6001 94.5 95.1001 86.9 95.1001 66.5C95.1001 65.5 95.1001 64.5 95.0001 63.5C93.9001 82.5 76.9001 89.5 56.1001 89.5Z" fill="#EB9129"/>
<path d="M56.1001 96C30.0001 96 15.6001 85.5 15.6001 66.5C15.6001 52.2 19.5001 19 56.1001 19C92.7001 19 96.6001 52.2 96.6001 66.5C96.6001 85.6 82.2001 96 56.1001 96ZM56.1001 22C22.3001 22 18.6001 53.1 18.6001 66.5C18.6001 89.6 42.1001 93 56.1001 93C70.1001 93 93.6001 89.6 93.6001 66.5C93.6001 53.2 89.9001 22 56.1001 22Z" fill="#301F00"/>
<path d="M72 72C73.6569 72 75 70.6569 75 69C75 67.3431 73.6569 66 72 66C70.3431 66 69 67.3431 69 69C69 70.6569 70.3431 72 72 72Z" fill="#301F00"/>
<path d="M40.1001 72C41.757 72 43.1001 70.6569 43.1001 69C43.1001 67.3431 41.757 66 40.1001 66C38.4432 66 37.1001 67.3431 37.1001 69C37.1001 70.6569 38.4432 72 40.1001 72Z" fill="#301F00"/>
<path d="M55.8999 88.6001C60.8705 88.6001 64.8999 84.5707 64.8999 79.6001C64.8999 74.6295 60.8705 70.6001 55.8999 70.6001C50.9293 70.6001 46.8999 74.6295 46.8999 79.6001C46.8999 84.5707 50.9293 88.6001 55.8999 88.6001Z" fill="#FF0013"/>
<path d="M55.8999 84.2001C51.6999 84.2001 48.1999 81.3001 47.1999 77.4001C46.9999 78.1001 46.8999 78.8001 46.8999 79.6001C46.8999 84.6001 50.8999 88.6001 55.8999 88.6001C60.8999 88.6001 64.8999 84.6001 64.8999 79.6001C64.8999 78.8001 64.7999 78.1001 64.5999 77.4001C63.6999 81.3001 60.0999 84.2001 55.8999 84.2001Z" fill="#C80004"/>
<path d="M55.8999 90.1001C50.0999 90.1001 45.3999 85.4001 45.3999 79.6001C45.3999 73.8001 50.0999 69.1001 55.8999 69.1001C61.6999 69.1001 66.3999 73.8001 66.3999 79.6001C66.3999 85.4001 61.6999 90.1001 55.8999 90.1001ZM55.8999 72.1001C51.7999 72.1001 48.3999 75.5001 48.3999 79.6001C48.3999 83.7001 51.7999 87.1001 55.8999 87.1001C59.9999 87.1001 63.3999 83.7001 63.3999 79.6001C63.3999 75.5001 60.0999 72.1001 55.8999 72.1001Z" fill="#301F00"/>
<path d="M57.8999 79.2002C59.5568 79.2002 60.8999 77.857 60.8999 76.2002C60.8999 74.5433 59.5568 73.2002 57.8999 73.2002C56.243 73.2002 54.8999 74.5433 54.8999 76.2002C54.8999 77.857 56.243 79.2002 57.8999 79.2002Z" fill="#FFBBBB"/>
<path d="M87.4 2.20011C85.8 2.30011 84.5 3.80011 84.5 5.40011V11.8001C84.5 12.6001 83.9 13.2001 83.1 13.2001H70.9C70.1 13.2001 69.5 12.6001 69.5 11.8001V5.40011C69.5 3.80011 68.3 2.30011 66.6 2.20011C64.9 2.10011 63.5 3.50011 63.5 5.20011V27.0001C63.5 28.6001 64.7 30.1001 66.4 30.2001C68.1 30.3001 69.5 28.9001 69.5 27.2001V20.6001C69.5 19.8001 70.1 19.2001 70.9 19.2001H87.5C89.2 19.2001 90.5 17.8001 90.5 16.2001V5.20011C90.6 3.50011 89.1 2.10011 87.4 2.20011Z" fill="#8A4900"/>
<path d="M66.6001 31.7001C66.3001 31.7001 66.1001 31.7001 65.8001 31.6001C63.7001 31.2001 62.1001 29.3001 62.1001 27.0001V5.20009C62.1001 3.90009 62.7001 2.60009 63.7001 1.70009C64.7001 0.800092 66.1001 0.500092 67.4001 0.700092C69.5001 1.10009 71.1001 3.00009 71.1001 5.30009V11.7001H83.1001V5.30009C83.1001 3.00009 84.6001 1.10009 86.8001 0.700092C88.1001 0.500092 89.5001 0.800092 90.5001 1.70009C91.5001 2.60009 92.1001 3.80009 92.1001 5.20009V16.2001C92.1001 18.7001 90.1001 20.7001 87.6001 20.7001H71.1001V27.2001C71.1001 28.5001 70.5001 29.8001 69.5001 30.7001C68.6001 31.3001 67.6001 31.7001 66.6001 31.7001ZM66.6001 3.70009C66.2001 3.70009 65.9001 3.80009 65.6001 4.00009C65.3001 4.30009 65.1001 4.70009 65.1001 5.20009V27.0001C65.1001 27.8001 65.6001 28.5001 66.3001 28.6001C66.8001 28.7001 67.2001 28.6001 67.6001 28.3001C67.9001 28.0001 68.1001 27.6001 68.1001 27.1001V20.5001C68.1001 18.9001 69.4001 17.6001 71.0001 17.6001H87.6001C88.4001 17.6001 89.1001 16.9001 89.1001 16.1001V5.10009C89.1001 4.70009 88.9001 4.20009 88.6001 3.90009C88.3001 3.60009 87.8001 3.50009 87.3001 3.60009C86.6001 3.70009 86.1001 4.40009 86.1001 5.20009V11.7001C86.1001 13.3001 84.8001 14.6001 83.2001 14.6001H70.9001C69.3001 14.6001 68.0001 13.3001 68.0001 11.7001V5.30009C68.0001 4.50009 67.5001 3.80009 66.8001 3.70009C66.8001 3.70009 66.7001 3.70009 66.6001 3.70009Z" fill="#301F00"/>
<path d="M25.1001 2.20007C26.5001 2.50007 27.5001 3.80007 27.5001 5.30007V11.8001C27.5001 12.5001 28.1001 13.2001 28.9001 13.2001H41.2001C41.9001 13.2001 42.6001 12.6001 42.6001 11.8001V5.30007C42.6001 3.80007 43.6001 2.50007 45.0001 2.20007C46.9001 1.90007 48.6001 3.30007 48.6001 5.10007V27.0001C48.6001 28.5001 47.6001 29.8001 46.2001 30.1001C44.3001 30.4001 42.6001 29.0001 42.6001 27.2001V20.6001C42.6001 19.9001 42.0001 19.2001 41.2001 19.2001H24.6001C22.9001 19.2001 21.6001 17.9001 21.6001 16.2001V5.20007C21.6001 3.30007 23.2001 1.90007 25.1001 2.20007Z" fill="#8A4900"/>
<path d="M45.6001 31.7001C44.5001 31.7001 43.5001 31.3001 42.7001 30.7001C41.7001 29.8001 41.1001 28.6001 41.1001 27.2001V20.7001H24.6001C22.1001 20.7001 20.1001 18.7001 20.1001 16.2001V5.20009C20.1001 3.90009 20.7001 2.60009 21.7001 1.70009C22.7001 0.800092 24.1001 0.500092 25.4001 0.700092C27.5001 1.10009 29.1001 3.00009 29.1001 5.30009V11.7001H41.1001V5.30009C41.1001 3.00009 42.6001 1.10009 44.8001 0.700092C46.1001 0.500092 47.5001 0.800092 48.5001 1.70009C49.5001 2.60009 50.1001 3.80009 50.1001 5.20009V27.0001C50.1001 29.3001 48.6001 31.2001 46.4001 31.6001C46.1001 31.6001 45.8001 31.7001 45.6001 31.7001ZM24.6001 3.70009C24.2001 3.70009 23.9001 3.80009 23.6001 4.00009C23.3001 4.30009 23.1001 4.70009 23.1001 5.20009V16.2001C23.1001 17.0001 23.8001 17.7001 24.6001 17.7001H41.2001C42.8001 17.7001 44.1001 19.0001 44.1001 20.6001V27.2001C44.1001 27.6001 44.3001 28.1001 44.6001 28.4001C44.9001 28.7001 45.4001 28.8001 45.9001 28.7001C46.6001 28.6001 47.1001 27.9001 47.1001 27.1001V5.20009C47.1001 4.80009 46.9001 4.30009 46.6001 4.00009C46.3001 3.70009 45.8001 3.60009 45.3001 3.70009C44.6001 3.80009 44.1001 4.50009 44.1001 5.30009V11.8001C44.1001 13.4001 42.8001 14.7001 41.2001 14.7001H28.9001C27.3001 14.7001 26.0001 13.4001 26.0001 11.8001V5.30009C26.0001 4.50009 25.5001 3.80009 24.8001 3.70009C24.8001 3.70009 24.7001 3.70009 24.6001 3.70009Z" fill="#301F00"/>
</svg>
