<svg width="110" height="108" viewBox="0 0 110 108" fill="none" xmlns="http://www.w3.org/2000/svg">
<path d="M89.7 77.3C98 73.9 106.5 61.5 106.5 61.5C106.5 61.5 102.2 83.5 91.9 86" fill="#FDAD4C"/>
<path d="M91.8999 87.5C91.1999 87.5 90.5999 87 90.3999 86.3C90.1999 85.5 90.6999 84.7 91.4999 84.5C96.8999 83.2 100.8 75 103 68.2C99.6999 72.1 94.8999 76.7 90.1999 78.7C89.3999 79 88.5999 78.6 88.1999 77.9C87.8999 77.1 88.2999 76.3 88.9999 75.9C96.7999 72.8 105 60.7 105.1 60.6C105.5 60 106.3 59.8 106.9 60.1C107.6 60.4 107.9 61.1 107.8 61.8C107.6 62.7 103.2 84.8 92.0999 87.4C92.1999 87.5 92.0999 87.5 91.8999 87.5Z" fill="#301F00"/>
<path d="M83.5999 64.1L82.6999 59.5L41.6999 69.5L40.7999 74.6L40.6999 74.5C35.8999 78.5 34.4999 105.2 40.6999 104.5C41.4999 104.4 42.1999 104.4 42.7999 104.3C44.8999 104.1 46.5999 102.4 46.5999 100.2C46.5999 99.4 46.6999 98.5 46.7999 97.4C51.0999 99.5 56.4999 101.2 62.2999 100.8C62.1999 102.7 61.9999 104.2 61.6999 104.5C60.8999 105.5 68.3999 107.1 69.6999 105.5C70.1999 104.9 71.0999 102 71.7999 98.8C75.5999 97.7 78.7999 96.3 81.3999 95C80.8999 97.9 80.4999 100.7 80.6999 101.5C81.2999 103.1 86.6999 101.5 86.6999 101.5C92.4999 92.7 94.7999 72.2 83.5999 64.1Z" fill="#FDAD4C"/>
<path d="M57 82.9999C70.8 82.9999 82.9 79.9999 89.5 71.8999C88.2 68.7999 86.3 65.9999 83.5 63.9999L82.6 59.3999L41.6 69.3999L40.7001 74.4999L40.6 74.3999C39.5 75.2999 38.5 77.5999 37.8 80.3999C43.5 82.1999 50 82.9999 57 82.9999Z" fill="#EB9129"/>
<path d="M92.3 75.7998C91.1 70.3998 88.6 66.0998 84.9 63.2998L85.9 68.5998C87.8 71.1998 88.8 74.0998 89.3 76.4998C90.1 80.2998 90.1 84.2998 89.6 87.9998C89.4 89.4998 89.1 90.8998 88.8 92.2998C88 95.4998 86.9 98.1998 85.6 100.3C84.2 100.7 82.6 100.9 82 100.8C82 99.9998 82.2 98.1998 82.6 96.0998V95.8998C83.8 95.2998 84.9 94.5998 85.4 94.3998C86.1 93.9998 86.8 93.2998 86.6 92.4998C86.3 91.6998 85.5 90.9998 84.6 91.5998L84.4 91.6998L84.2 91.7998C84 91.8998 83.7 92.0998 83.4 92.2998C82.3 92.8998 80.9 93.6998 80 94.0998C78.2 94.9998 76 95.8998 73.6 96.6998C73.9 94.1998 73.8 91.7998 73.1 89.9998C72.8 89.1998 71.9 88.8998 71.1 89.1998C70.3 89.4998 70 90.3998 70.3 91.1998C71 92.7998 70.8 95.3998 70.4 97.7998C70.2 98.9998 70 100.1 69.7 101.1C69.2 102.9 68.8 104.2 68.5 104.7C67.7 105.1 64.7 104.7 63.3 104.2C63.4 103.7 63.5 103.1 63.6 102.3C63.7 101.5 63.8 100.5 63.9 99.1998C64 97.0998 64.1 94.3998 64.2 90.5998C64.2 89.7998 63.6 89.0998 62.7 89.0998C61.9 89.0998 61.2 89.7998 61.2 90.5998C61.1 93.5998 61 96.8998 60.9 99.4998C56.4 99.5998 52.1 98.2998 48.5 96.6998C48.8 94.9998 49.4 93.1998 50.1 91.1998C50.4 90.3998 50 89.5998 49.2 89.2998C48.4 88.9998 47.6 89.3998 47.3 90.1998C46.6 91.9998 46.1 93.7998 45.7 95.3998C45.4 96.4998 45.2 97.5998 45.2 98.5998C45.1 99.2998 45.1 99.8998 45.1 100.5C45.1 101.9 44.1 103 42.7 103.1C42.1 103.1 41.4 103.2 40.6 103.3C40.1 103.3 39.6 102.3 39.4 101.9C38.6 99.9998 38.2 97.1998 38.1 93.9998C37.9 86.5998 39.6 77.6998 41.7 75.8998C42.3 75.3998 42.4 74.3998 41.9 73.7998C41.4 73.1998 40.4 73.0998 39.8 73.5998C39.7 73.6998 39.6 73.7998 39.5 73.8998C35 77.9998 33.7 95.9998 36.5 102.7C37.7 105.5 39.3 106 40.4 106C40.5 106 40.7 106 40.8 106C41.6 105.9 42.2 105.9 42.8 105.8C45.7 105.6 47.9 103.2 47.9 100.2C47.9 99.9998 47.9 99.7998 47.9 99.5998C51.5 101.1 55.8 102.3 60.4 102.3H60.5C60.4 103 60.4 103.5 60.3 103.7C59.9 104.4 59.9 105.4 60.9 106.1C61.8 106.8 64.6 107.6 67.1 107.6C68.7 107.6 70.1 107.3 70.8 106.3C71.3 105.6 72.3 103 73 99.8998C75.3 99.1998 77.5 98.2998 79.3 97.4998C79 99.5998 78.9 101.2 79.2 101.9C79.7 103.2 81 103.6 82.6 103.6C84.1 103.6 85.8 103.2 87.1 102.8C87.4 102.7 87.7 102.5 87.9 102.2C91.7 96.5998 94.4 85.6998 92.3 75.7998Z" fill="#301F00"/>
<path d="M76.6001 6.29999C93.2001 4.39999 125.8 57 95.6001 61.8C71.8001 65.6 85.1001 40.5 85.1001 40.5L87.0001 15.6L76.6001 6.29999Z" fill="#C13202"/>
<path d="M86.7 20C96.6 28.7 106 45.3 105.2 56.9C116.6 42.7 90.8 4.59997 76.7 6.29997L87 15.6L86.7 20Z" fill="#CA4508"/>
<path d="M91.2 63.6999C86.7 63.6999 83.6 62.3999 81.7 59.7999C77.2 53.4999 82.7 42.0999 83.7 40.0999L85.5 15.4999C85.6 14.6999 86.3 14.0999 87.1 14.0999C87.9 14.1999 88.5 14.8999 88.5 15.6999L86.7 40.5999C86.7 40.7999 86.6 40.9999 86.5 41.1999C84.8 44.3999 81 53.6999 84.1 57.9999C85.8 60.3999 89.6 61.1999 95.4 60.2999C103.9 58.9999 107.5 53.5999 106.2 44.3999C104 28.1999 86.6 6.59995 76.8 7.79995C76 7.89995 75.2 7.29995 75.1 6.49995C75 5.69995 75.6 4.89995 76.4 4.79995C88.9 3.29995 106.8 27.2999 109.2 43.9999C110.7 54.7999 106 61.6999 95.9 63.2999C94.2 63.4999 92.6 63.6999 91.2 63.6999Z" fill="#301F00"/>
<path d="M32.7999 6.29987C16.2999 4.29987 -16.3001 56.9999 13.7999 61.7999C37.5999 65.5999 24.2999 40.4999 24.2999 40.4999L23.8999 15.5999L32.7999 6.29987Z" fill="#C13202"/>
<path d="M31.9 6.19995C29.5 6.19995 26.9 7.19995 24.2 8.99995C10.6 17.8 -4.80001 44.9999 4.19999 56.6999C3.49999 44.5999 13.6 27.2999 23.9 18.9L23.8 15.6L32.8 6.29995C32.5 6.19995 32.2 6.19995 31.9 6.19995Z" fill="#CA4508"/>
<path d="M18.3 63.6999C16.9 63.6999 15.3 63.5999 13.6 63.2999C3.49998 61.6999 -1.20002 54.7999 0.299978 43.9999C2.59998 27.2999 20.6 3.29995 33 4.79995C33.8 4.89995 34.4 5.59995 34.3 6.49995C34.2 7.29995 33.5 7.89995 32.6 7.79995C22.7 6.59995 5.39998 28.1999 3.19998 44.3999C1.99998 53.5999 5.59998 58.9999 14.1 60.2999C19.9 61.1999 23.6 60.3999 25.4 57.9999C28.5 53.6999 24.7 44.3999 23 41.1999C22.9 40.9999 22.8 40.7999 22.8 40.4999L22.4 15.5999C22.4 14.7999 23 14.0999 23.9 14.0999C24.7 13.9999 25.4 14.6999 25.4 15.5999L25.8 40.1999C26.9 42.2999 32.2 53.5999 27.8 59.8999C25.9 62.3999 22.8 63.6999 18.3 63.6999Z" fill="#301F00"/>
<path d="M93.2 50C93.2 71 76.2 78 55.2 78C34.2 78 17.2 71 17.2 50C17.2 29 17.2 2 55.2 2C93.2 2 93.2 29 93.2 50Z" fill="#FDAD4C"/>
<path d="M55.2 2C17.4 2 17.2 28.8 17.2 49.7V50C17.2 51.1 17.2999 52.1 17.2999 53C18.0999 34.3 23 15 55.2 15C87.4 15 92.2999 34.4 93.0999 53C93.1999 52 93.2 51 93.2 50C93.2 29 93.2 2 55.2 2Z" fill="#FEC769"/>
<path d="M17.2 44.8C17.2 46.5 17.2 48.3 17.2 50C17.2 70.9 34.1 77.9 54.9 78C42.7 78 31.9 75.5001 25 69.3001C25 69.2001 25.0999 69.2 25.0999 69.1C25.8999 67.8 26.7 66.6001 27.7 65.4001C21.4 61.2001 17.4 54.5 17.2 44.8ZM93.2 44.8C93 54.5 89 61.1001 82.7 65.4001C83.7 66.6001 84.5 67.9 85.3 69.2C85.3 69.2 85.2999 69.3001 85.3999 69.3001C78.4999 75.5001 67.6 78 55.4 78C76.3 77.9 93.0999 70.9 93.0999 50C93.1999 48.3 93.2 46.6 93.2 44.8Z" fill="#EB9129"/>
<path d="M55.2 52.8C42 52.8 30.6 59.5 25 69.3C31.9 75.5 42.9 78 55.2 78C67.5 78 78.5 75.6 85.4 69.3C79.7 59.5 68.3 52.8 55.2 52.8Z" fill="#FFEA9A"/>
<path d="M82.7 65.3999C75.8 70.0999 66 71.9999 55.2 71.9999C44.4 71.9999 34.6 70.0999 27.7 65.3999C26.7 66.5999 25.9 67.7999 25.1 69.0999C25.1 69.1999 25 69.1999 25 69.2999C25.4 69.6999 25.9 69.9999 26.3 70.3999L26.4 70.4999C26.8 70.7999 27.2 71.0999 27.7 71.3999L27.8 71.4999C28.3 71.7999 28.7 72.0999 29.2 72.3999H29.3C30.8 73.2999 32.5 74.0999 34.3 74.6999L34.5 74.7999C35 74.9999 35.5 75.1999 36.1 75.2999C36.2 75.2999 36.3 75.3999 36.4 75.3999C36.9 75.5999 37.4 75.6999 37.9 75.7999C38 75.7999 38.1 75.8999 38.3 75.8999C38.8 75.9999 39.4 76.1999 39.9 76.2999C40 76.2999 40.1 76.2999 40.2 76.3999C41.5 76.6999 42.8 76.8999 44.2 77.0999C44.3 77.0999 44.4 77.0999 44.5 77.0999C45.1 77.1999 45.6 77.2999 46.2 77.2999C46.4 77.2999 46.6 77.2999 46.8 77.3999C47.3 77.4999 47.7 77.4999 48.2 77.4999C48.4 77.4999 48.7 77.4999 48.9 77.5999C49.4 77.5999 49.8 77.6999 50.3 77.6999C50.5 77.6999 50.8 77.6999 51 77.6999C51.5 77.6999 52 77.6999 52.5 77.7999C52.7 77.7999 52.9 77.7999 53.2 77.7999C53.9 77.7999 54.6 77.7999 55.3 77.7999C56 77.7999 56.7 77.7999 57.4 77.7999C57.6 77.7999 57.8 77.7999 58.1 77.7999C58.6 77.7999 59.1 77.7999 59.6 77.6999C59.8 77.6999 60.1 77.6999 60.3 77.6999C60.8 77.6999 61.2 77.5999 61.7 77.5999C61.9 77.5999 62.2 77.5999 62.4 77.4999C62.9 77.4999 63.3 77.3999 63.8 77.3999C64 77.3999 64.2 77.3999 64.4 77.2999C65 77.1999 65.5 77.1999 66.1 77.0999C66.2 77.0999 66.3 77.0999 66.4 77.0999C67.8 76.8999 69.1 76.6999 70.4 76.3999C70.5 76.3999 70.6 76.3999 70.7 76.2999C71.2 76.1999 71.8 75.9999 72.3 75.8999C72.4 75.8999 72.5 75.7999 72.7 75.7999C73.2 75.6999 73.7 75.4999 74.2 75.3999C74.3 75.3999 74.4 75.2999 74.5 75.2999C75 75.0999 75.6 74.8999 76.1 74.7999L76.3 74.6999C78.1 73.9999 79.7 73.2999 81.3 72.3999H81.4C81.9 72.0999 82.4 71.7999 82.8 71.4999L82.9 71.3999C83.3 71.0999 83.8 70.7999 84.2 70.4999L84.3 70.3999C84.7 70.0999 85.2 69.6999 85.6 69.2999C85.6 69.2999 85.6 69.1999 85.5 69.1999C84.5 67.8999 83.6 66.5999 82.7 65.3999Z" fill="#FFDB69"/>
<path d="M55.2 79.5C29.4 79.5 15.7 69.3 15.7 50C15.7 29.1 15.7 0.5 55.2 0.5C94.7 0.5 94.7 29.1 94.7 50C94.7 69.3 81 79.5 55.2 79.5ZM55.2 3.5C18.7 3.5 18.7 29.3 18.7 50C18.7 71.9 38.5 76.5 55.2 76.5C71.9 76.5 91.7 71.9 91.7 50C91.7 29.3 91.7 3.5 55.2 3.5Z" fill="#301F00"/>
<path d="M62.1 60.4C62.1 62.8 59.0001 67.4 55.2001 67.4C51.4001 67.4 48.3 62.9 48.3 60.4C48.3 57.9 51.4001 56 55.2001 56C59.0001 56 62.1 58 62.1 60.4Z" fill="#C13202"/>
<path d="M55.2001 68.7999C50.6001 68.7999 46.8 63.6999 46.8 60.2999C46.8 56.9999 50.5001 54.3999 55.2001 54.3999C59.9001 54.3999 63.6 56.9999 63.6 60.2999C63.6 63.6999 59.8001 68.7999 55.2001 68.7999ZM55.2001 57.4999C52.0001 57.4999 49.8 58.9999 49.8 60.3999C49.8 62.0999 52.3001 65.8999 55.2001 65.8999C58.1001 65.8999 60.6 62.1999 60.6 60.3999C60.6 58.9999 58.3001 57.4999 55.2001 57.4999Z" fill="#301F00"/>
<path d="M55.2 79.5C54.4 79.5 53.7 78.8 53.7 78V67.3C53.7 66.5 54.4 65.8 55.2 65.8C56 65.8 56.6999 66.5 56.6999 67.3V78C56.6999 78.8 56 79.5 55.2 79.5Z" fill="#301F00"/>
<path d="M71.1001 54.5C72.757 54.5 74.1001 53.1569 74.1001 51.5C74.1001 49.8431 72.757 48.5 71.1001 48.5C69.4432 48.5 68.1001 49.8431 68.1001 51.5C68.1001 53.1569 69.4432 54.5 71.1001 54.5Z" fill="#301F00"/>
<path d="M39.3 54.5C40.9569 54.5 42.3 53.1569 42.3 51.5C42.3 49.8431 40.9569 48.5 39.3 48.5C37.6432 48.5 36.3 49.8431 36.3 51.5C36.3 53.1569 37.6432 54.5 39.3 54.5Z" fill="#301F00"/>
</svg>
