<svg width="128" height="128" viewBox="0 0 128 128" fill="none" xmlns="http://www.w3.org/2000/svg">
<path d="M109 104.2C108.2 104.2 107.5 103.5 107.5 102.7C107.5 98.5998 101.5 96.0998 101.5 96.0998C100.7 95.7998 100.3 94.8998 100.7 94.1998C101.1 93.4998 101.9 93.0999 102.6 93.3999C102.9 93.4999 110.6 96.5999 110.6 102.8C110.5 103.5 109.8 104.2 109 104.2Z" fill="#301F00"/>
<path d="M94.4 82.6L93.5 78L52.5 88L51.6 93.1L51.5 93C46.7 97 45.3 123.7 51.5 123C52.3 122.9 53 122.9 53.6 122.8C55.7 122.6 57.4 120.9 57.4 118.7C57.4 117.9 57.5 117 57.6 115.9C61.9 118 67.3 119.7 73.1 119.3C73 121.2 72.8 122.7 72.5 123C71.7 124 79.2 125.6 80.5 124C81 123.4 81.9 120.5 82.6 117.3C86.4 116.2 89.6 114.8 92.2 113.5C91.7 116.4 91.3 119.2 91.5 120C92.1 121.6 97.5 120 97.5 120C103.3 111.2 105.6 90.7 94.4 82.6Z" fill="#A9A69C"/>
<path d="M65.8001 101.5C80.2001 101.5 92.9 98.1 99.6 89.7C98.4 87.3 96.7001 85.2 94.4001 83.6L93.5 79L52.5 89L51.6 94.1L51.5 94C50.4 94.9 49.5 97 48.8 99.6C53.9 100.9 59.7001 101.5 65.8001 101.5Z" fill="#827E74"/>
<path d="M103.1 94.3C101.9 88.9 99.4 84.6 95.7 81.8L95.5 85.5L96.7 87.2C98.6 89.8 99.6 92.7 100.1 95.1C100.9 98.9 100.9 102.9 100.4 106.6C100.2 108.1 99.9 109.5 99.6 110.9C98.8 114.1 97.7 116.8 96.4 118.9C95 119.3 93.4 119.5 92.8 119.4C92.8 118.6 93 116.8 93.4 114.7V114.5C94.6 113.9 95.7 113.2 96.2 113C96.9 112.6 97.6 111.9 97.4 111.1C97.1 110.3 96.3 109.6 95.4 110.2L95.2 110.3L95 110.4C94.8 110.5 94.5 110.7 94.2 110.9C93.6 111.2 93 111.6 92.4 111.9C91.8 112.2 91.2 112.5 90.8 112.8C89 113.7 86.8 114.6 84.4 115.4C84.7 112.9 84.6 110.5 83.9 108.7C83.6 107.9 82.7 107.6 81.9 107.9C81.1 108.2 80.8 109.1 81.1 109.9C81.8 111.5 81.6 114.1 81.2 116.5C81 117.7 80.8 118.8 80.5 119.8C80 121.6 79.6 122.9 79.3 123.4C78.5 123.8 75.5 123.4 74.1 122.9C74.2 122.4 74.3 121.8 74.4 121C74.5 120.2 74.6 119.2 74.7 117.9C74.8 115.8 74.9 113.1 75 109.3C75 108.5 74.4 107.8 73.5 107.8C72.7 107.8 72 108.5 72 109.3C71.9 112.3 71.8 115.6 71.7 118.2C67.2 118.3 62.9 117 59.3 115.4C59.6 113.7 60.2 111.9 60.9 109.9C61.2 109.1 60.8 108.3 60 108C59.2 107.7 58.4 108.1 58.1 108.9C57.4 110.7 56.9 112.5 56.5 114.1C56.2 115.2 56 116.3 56 117.3C55.9 118 55.9 118.6 55.9 119.2C55.9 120.6 54.9 121.7 53.5 121.8C52.9 121.8 52.2 121.9 51.4 122C50.9 122 50.4 121 50.2 120.6C49.4 118.7 49 115.9 48.9 112.8C48.7 105.4 50.4 96.5 52.5 94.7C53.1 94.2 53.2 93.2 52.7 92.6C52.2 92 51.2 91.9 50.6 92.4C50.5 92.5 50.4 92.6 50.3 92.7C45.9 97.1 44.6 115.2 47.4 121.8C48.6 124.6 50.2 125.1 51.3 125.1C51.4 125.1 51.6 125.1 51.7 125.1C52.5 125 53.1 125 53.7 124.9C56.6 124.7 58.8 122.3 58.8 119.3C58.8 119.1 58.8 118.9 58.8 118.7C62.4 120.2 66.7 121.4 71.3 121.4H71.4C71.3 122.1 71.3 122.6 71.2 122.8C70.8 123.5 70.8 124.5 71.8 125.2C72.7 125.9 75.5 126.7 78 126.7C79.6 126.7 81 126.4 81.7 125.4C82.2 124.7 83.2 122.1 83.9 119C86.2 118.3 88.4 117.4 90.2 116.6C89.9 118.7 89.8 120.3 90.1 121C90.6 122.3 91.9 122.7 93.5 122.7C95 122.7 96.7 122.3 98 121.9C98.3 121.8 98.6 121.6 98.8 121.3C102.5 115.1 105.2 104.2 103.1 94.3Z" fill="#301F00"/>
<path d="M122.8 52.9999C123.7 71.4999 121.3 93.5999 109.2 94.1999C97.0999 94.7999 79.7999 73.5999 78.8999 55.1999C77.9999 36.7999 86.9999 21.2999 99.1999 20.6999C111.4 20.0999 121.9 34.5999 122.8 52.9999Z" fill="#A9A69C"/>
<path d="M109.2 86.7C119 86.2 122.5 71.6 122.9 56.2001C123.4 74 120.6 93.7001 109.2 94.3001C97.0999 94.9001 79.7999 73.7 78.8999 55.3C78.7999 53.1 78.7999 50.9 78.9999 48.8C80.4999 67 97.2999 87.2 109.2 86.7Z" fill="#827E74"/>
<path d="M122.8 66.3999C121.9 47.8999 111.3 33.3999 99.2 33.9999C89.2 34.4999 81.3 44.9999 79.3 58.9999C79.1 57.6999 78.9 56.3998 78.9 55.0998C78 36.7999 87.1 21.2999 99.2 20.6999C111.3 20.0999 121.9 34.5998 122.8 53.0998C123 57.3998 123.1 61.9999 122.8 66.3999Z" fill="#C0BEB4"/>
<path d="M108.7 95.8C102.5 95.8 95.1 91 88.7 82.9C82 74.5 77.8 64.1999 77.4 55.2999C76.9 46.0999 78.9 37.3 82.9 30.5C87 23.5 92.8 19.5 99.2 19.2C99.5 19.2 99.7 19.2 100 19.2C112.6 19.2 123.5 34.1 124.4 53C124.9 63.8 124.2 73.6 122.4 80.8C120 90.5 115.6 95.5 109.3 95.8C109.1 95.8 108.9 95.8 108.7 95.8ZM99.9 22.2C99.7 22.2 99.5 22.2 99.2 22.2C93.9 22.4 89 25.9 85.4 32C81.7 38.3 79.9 46.4999 80.3 55.0999C80.8 63.3999 84.8 73.1 91 81C97 88.5 103.9 93.1 109.1 92.8C113.9 92.6 117.3 88.3 119.4 80C121.1 73.2 121.8 63.5999 121.3 53.0999C120.5 35.7999 110.9 22.2 99.9 22.2Z" fill="#301F00"/>
<path d="M4.80007 52.9999C3.90007 71.4999 6.30007 93.6999 18.4001 94.2999C30.5001 94.8999 47.8001 73.6999 48.7001 55.2999C49.6001 36.8999 40.5001 21.3999 28.4001 20.6999C16.3001 19.9999 5.70007 34.5999 4.80007 52.9999Z" fill="#A9A69C"/>
<path d="M18.4 86.6998C8.59997 86.1998 5.09997 71.4998 4.69997 56.1998C4.19997 73.8998 6.99997 93.6998 18.4 94.2998C30.5 94.8998 47.8 73.6998 48.7 55.2998C48.8 53.0998 48.8 50.8998 48.6 48.7998C47.1 66.9998 30.3 87.1998 18.4 86.6998Z" fill="#827E74"/>
<path d="M4.80015 66.3999C5.70015 47.8999 16.3001 33.3999 28.4001 33.9999C38.4001 34.4999 46.3001 44.9999 48.3001 58.9999C48.5001 57.6999 48.7001 56.3999 48.7001 55.0999C49.6001 36.5999 40.5001 21.1999 28.4001 20.4999C16.3001 19.7999 5.70015 34.5999 4.80015 52.9999C4.60015 57.3999 4.60015 61.9999 4.80015 66.3999Z" fill="#C0BEB4"/>
<path d="M18.9 95.7999C18.7 95.7999 18.5 95.7999 18.3 95.7999C2.90005 94.9999 2.70005 65.5999 3.30005 52.9999C4.30005 33.6999 15.6 18.5999 28.5 19.1999C34.9 19.4999 40.7 23.4999 44.8 30.4999C48.8 37.2999 50.7 46.0999 50.3 55.2999C49.9 64.1999 45.6 74.4999 39 82.7999C32.5 90.9999 25.1 95.7999 18.9 95.7999ZM6.30005 53.0999C5.40005 71.9999 8.10005 92.2999 18.5 92.7999C23.7 92.9999 30.7 88.4999 36.6 80.9999C42.8 73.0999 46.8001 63.3999 47.2001 55.1999C47.6001 46.5999 45.8 38.2999 42.1 32.0999C38.5 25.9999 33.6 22.4999 28.3 22.2999C28.1 22.2999 27.9 22.2999 27.6 22.2999C16.7001 22.1999 7.20005 35.7999 6.30005 53.0999Z" fill="#301F00"/>
<path d="M64.8001 23C31.0001 23 27.3 54.1 27.3 67.5C27.3 90.6 50.7001 94 64.8001 94C78.9001 94 102.3 90.6 102.3 67.5C102.3 54.2 98.6001 23 64.8001 23Z" fill="#A9A69C"/>
<path d="M64.8001 21.5C63.7001 21.5 62.6 21.5 61.6 21.6C60.6 21.7 59.7 21.7 58.8 21.8C56.5 22.1 54.3 22.5 52.3 23.1C31.4 29 25.8 50.1 25.8 67.5C25.8 66.5 25.8 65.5 25.9 64.5C26 66 26.2 67.5 26.5 68.8C28.4 54 35.3001 39 52.4001 34.2C54.4001 33.6 56.6001 33.2 58.9001 32.9C59.8001 32.8 60.7001 32.7 61.7001 32.7C62.7001 32.6 63.8001 32.6 64.9001 32.6C66.0001 32.6 67.1 32.6 68.1 32.7C69.1 32.8 70.0001 32.8 70.9001 32.9C73.2001 33.2 75.4001 33.6 77.4001 34.2C94.5001 39 101.4 54 103.3 68.8C103.6 67.4 103.8 66 103.9 64.5C103.9 65.5 104 66.5 104 67.5C104 50.1 98.4 29 77.5 23.1C75.5 22.5 73.3 22.1 71 21.8C70.1 21.7 69.2 21.6 68.2 21.6C66.9 21.6 65.9001 21.5 64.8001 21.5Z" fill="#C0BEB4"/>
<path d="M103.8 67.5C103.8 69 103.7 70.5 103.5 71.8C103.4 70.8 103.3 69.8 103.2 68.8C99.9 84.5 84.0001 90.5 64.8001 90.5C45.6001 90.5 29.7 84.5 26.4 68.8C26.3 69.8 26.2 70.8 26.1 71.8C25.9 70.4 25.8 69 25.8 67.5C25.8 87.9 43.3001 95.5 64.8001 95.5C86.3001 95.5 103.8 88 103.8 67.5Z" fill="#827E74"/>
<path d="M64.8001 97C38.7001 97 24.3 86.5 24.3 67.5C24.3 53.2 28.2001 20 64.8001 20C101.4 20 105.3 53.2 105.3 67.5C105.3 86.6 90.9001 97 64.8001 97ZM64.8001 23C31.0001 23 27.3 54.1 27.3 67.5C27.3 90.6 50.7001 94 64.8001 94C78.9001 94 102.3 90.6 102.3 67.5C102.3 54.2 98.6001 23 64.8001 23Z" fill="#301F00"/>
<path d="M80.7 73C82.3568 73 83.7 71.6569 83.7 70C83.7 68.3431 82.3568 67 80.7 67C79.0431 67 77.7 68.3431 77.7 70C77.7 71.6569 79.0431 73 80.7 73Z" fill="#301F00"/>
<path d="M48.8 73C50.4569 73 51.8 71.6569 51.8 70C51.8 68.3431 50.4569 67 48.8 67C47.1432 67 45.8 68.3431 45.8 70C45.8 71.6569 47.1432 73 48.8 73Z" fill="#301F00"/>
<path d="M80.7001 87.1001L82.6001 98.9001C83.1001 101.9 78.5001 103.8 76.7001 101.4L69.5001 91.9001C66.7001 85.2001 77.8001 80.4001 80.7001 87.1001Z" fill="#CCCCCC"/>
<path d="M73.7003 93.1002C73.3003 92.2002 71.1003 86.4002 71.4003 85.7002C72.2003 84.1002 77.8003 85.0002 79.4003 85.7002C80.0003 86.0002 79.5003 89.7002 79.9003 90.5002L81.0003 97.0002C81.3003 98.6002 78.7003 99.7002 77.7003 98.4002L73.7003 93.1002Z" fill="#F2F2F2"/>
<path d="M79.0002 103.9C77.6002 103.9 76.4002 103.3 75.5002 102.2L68.3002 92.7001C68.2002 92.6001 68.1002 92.5001 68.1002 92.3001C66.3002 88.1001 68.9002 84.4001 72.3002 83.0001C75.7002 81.5001 80.2002 82.2001 82.0002 86.4001C82.0002 86.5001 82.1002 86.7001 82.1002 86.8001L84.0002 98.6001C84.3002 100.6 83.1002 102.6 81.0002 103.5C80.4002 103.8 79.7002 103.9 79.0002 103.9ZM70.8002 91.1001L77.9002 100.5C78.4002 101.1 79.3002 101 79.9002 100.8C80.5002 100.5 81.2002 99.9001 81.1002 99.2001L79.2002 87.6001C77.9002 84.9001 75.0002 85.3001 73.5002 85.9001C72.0002 86.5001 69.8002 88.3001 70.8002 91.1001Z" fill="#301F00"/>
<path d="M48.8001 87.1001L46.9001 98.9001C46.4001 101.9 51.0001 103.8 52.8001 101.4L60.0001 91.9001C62.8001 85.2001 51.7001 80.4001 48.8001 87.1001Z" fill="#CCCCCC"/>
<path d="M55.7 93.1C56.1 92.2 58.3 86.4 58 85.7C57.2 84.1 51.6 85 50 85.7C49.4 86 49.9 89.7 49.5 90.5L48.5 97C48.2 98.6 50.8 99.7 51.8 98.4L55.7 93.1Z" fill="#F2F2F2"/>
<path d="M50.5001 103.9C49.8001 103.9 49.1001 103.8 48.4001 103.5C46.3001 102.6 45.1001 100.6 45.4001 98.6L47.3001 86.8V86.7C47.3001 86.6 47.4001 86.4 47.4001 86.3C49.2001 82.2 53.6001 81.5 57.1001 83C60.6001 84.5 63.1001 88.2 61.3001 92.4C61.3001 92.5 61.2001 92.6 61.1001 92.7L53.9001 102.2C53.1001 103.4 51.9001 103.9 50.5001 103.9ZM50.3001 87.5L48.4001 99.1C48.3001 99.9 49.0001 100.5 49.6001 100.7C50.2001 101 51.1001 101.1 51.6001 100.4L58.7001 91C59.8001 88.2 57.5001 86.4 56.0001 85.7C54.4001 85.2 51.5001 84.8 50.3001 87.5Z" fill="#301F00"/>
<path d="M74.3001 80.7V111.3C74.3001 114.3 71.9001 116.7 68.9001 116.7H60.7001C57.7001 116.7 55.3 114.3 55.3 111.3V80.7" fill="#A9A69C"/>
<path d="M68.8001 89.2H60.8C60 89.2 59.3 88.5 59.3 87.7C59.3 86.9 60 86.2 60.8 86.2H68.8001C69.6001 86.2 70.3001 86.9 70.3001 87.7C70.3001 88.5 69.6001 89.2 68.8001 89.2Z" fill="#C0BEB4"/>
<path d="M68.8001 96.2H60.8C60 96.2 59.3 95.5 59.3 94.7C59.3 93.9 60 93.2 60.8 93.2H68.8001C69.6001 93.2 70.3001 93.9 70.3001 94.7C70.3001 95.5 69.6001 96.2 68.8001 96.2Z" fill="#C0BEB4"/>
<path d="M68.8001 103.2H60.8C60 103.2 59.3 102.5 59.3 101.7C59.3 100.9 60 100.2 60.8 100.2H68.8001C69.6001 100.2 70.3001 100.9 70.3001 101.7C70.3001 102.5 69.6001 103.2 68.8001 103.2Z" fill="#C0BEB4"/>
<path d="M68.8001 110.2H60.8C60 110.2 59.3 109.5 59.3 108.7C59.3 107.9 60 107.2 60.8 107.2H68.8001C69.6001 107.2 70.3001 107.9 70.3001 108.7C70.3001 109.5 69.6001 110.2 68.8001 110.2Z" fill="#C0BEB4"/>
<path d="M68.8 118.2H60.5999C56.7999 118.2 53.7 115.1 53.7 111.3V80.7C53.7 79.9 54.4 79.2 55.2 79.2C56 79.2 56.7 79.9 56.7 80.7V111.3C56.7 113.5 58.4999 115.2 60.5999 115.2H68.8C71 115.2 72.6999 113.4 72.6999 111.3V80.7C72.6999 79.9 73.3999 79.2 74.1999 79.2C74.9999 79.2 75.6999 79.9 75.6999 80.7V111.3C75.7999 115.1 72.7 118.2 68.8 118.2Z" fill="#301F00"/>
</svg>
