<svg width="128" height="128" viewBox="0 0 128 128" fill="none" xmlns="http://www.w3.org/2000/svg">
<path d="M82.3999 93.2C82.3999 93.2 90.5999 87 93.5999 87.8C97.6999 88.9 98.5999 96.5 95.2999 103.2C95.2999 103.2 101.1 104.7 100.7 107.2C100.3 109.8 96.5999 109.5 94.5999 109.2C93.8999 109.1 93.2999 109.4 92.9999 110C92.2999 111.5 90.5999 114 87.7999 113.1C83.9999 111.8 87.8999 105.7 87.8999 105.7L82.3999 101.1V93.2Z" fill="#8CC63F"/>
<path d="M88.9999 114.8C88.4999 114.8 87.8999 114.7 87.2999 114.5C86.0999 114.1 85.1999 113.3 84.7999 112.1C84.0999 110.1 85.0999 107.5 85.8999 106L81.3999 102.2C81.0999 101.9 80.8999 101.5 80.8999 101V93.1C80.8999 92.6 81.0999 92.2001 81.4999 91.9001C83.5999 90.3001 90.5999 85.3 93.9999 86.2C95.6999 86.6 96.9999 87.9 97.7999 89.7C99.2999 92.9 98.9999 97.7 97.2999 102.1C99.4999 102.9 102.6 104.5 102.1 107.3C101.9 108.3 101.4 109.2 100.6 109.8C98.8999 111 96.1999 110.9 94.2999 110.5C93.0999 113.3 91.1999 114.8 88.9999 114.8ZM83.8999 100.4L88.8999 104.5C89.4999 105 89.5999 105.8 89.1999 106.5C88.3999 107.8 87.3999 110.1 87.6999 111.2C87.7999 111.4 87.8999 111.6 88.2999 111.7C89.5999 112.1 90.6999 111.4 91.6999 109.4C92.2999 108.2 93.5999 107.5 94.8999 107.7C96.6999 108 98.2999 107.9 98.8999 107.5C99.0999 107.4 99.1999 107.2 99.1999 107C99.2999 106.5 97.1999 105.2 94.8999 104.7C94.4999 104.6 94.0999 104.3 93.8999 103.9C93.6999 103.5 93.6999 103 93.8999 102.6C95.8999 98.7 96.2999 94 95.0999 91.2C94.5999 90.2 93.9999 89.5001 93.1999 89.3001C91.8999 89.0001 87.3999 91.4 83.7999 94V100.4H83.8999Z" fill="#301F00"/>
<path d="M46.4003 93.2003C46.4003 93.2003 38.2003 87.0003 35.2003 87.8003C31.1003 88.9003 30.2003 96.5003 33.5003 103.2C33.5003 103.2 27.7003 104.7 28.1003 107.2C28.5003 109.8 32.2003 109.5 34.2003 109.2C34.9003 109.1 35.5003 109.4 35.8003 110C36.5003 111.5 38.2003 114 41.0003 113.1C44.8003 111.8 40.9003 105.7 40.9003 105.7L46.4003 101.1V93.2003Z" fill="#8CC63F"/>
<path d="M39.8001 114.8C37.7001 114.8 35.7001 113.4 34.4001 110.7C32.5001 111 29.8001 111.2 28.1001 109.9C27.3001 109.3 26.7001 108.4 26.6001 107.4C26.1001 104.6 29.3001 103 31.4001 102.2C29.7001 97.9001 29.4001 93.1001 30.9001 89.8001C31.7001 87.9001 33.1001 86.7001 34.7001 86.3001C38.2001 85.4001 45.2001 90.4001 47.2001 92.0001C47.6001 92.3001 47.8001 92.7001 47.8001 93.2001V101.1C47.8001 101.5 47.6001 102 47.3001 102.3L42.8001 106.1C43.6001 107.6 44.6001 110.2 43.9001 112.2C43.5001 113.3 42.7001 114.1 41.4001 114.6C40.9001 114.7 40.3001 114.8 39.8001 114.8ZM34.4001 107.7C35.5001 107.7 36.6001 108.3 37.1001 109.4C38.1001 111.4 39.2001 112.1 40.5001 111.7C40.9001 111.6 41.0001 111.4 41.1001 111.2C41.5001 110.1 40.5001 107.8 39.6001 106.5C39.2001 105.9 39.3001 105 39.9001 104.5L44.9001 100.4V93.9001C41.3001 91.3001 36.9001 88.8001 35.5001 89.2001C34.7001 89.4001 34.1001 90.0001 33.6001 91.1001C32.3001 93.9001 32.8001 98.6001 34.8001 102.5C35.0001 102.9 35.0001 103.4 34.8001 103.8C34.6001 104.2 34.2001 104.5 33.8001 104.6C31.4001 105.2 29.4001 106.5 29.5001 106.9C29.5001 107.2 29.6001 107.3 29.8001 107.4C30.4001 107.9 32.0001 107.9 33.8001 107.6C34.0001 107.7 34.2001 107.7 34.4001 107.7Z" fill="#301F00"/>
<path d="M64.0002 108.2C76.8684 108.2 87.3002 98.8427 87.3002 87.2999C87.3002 75.7572 76.8684 66.3999 64.0002 66.3999C51.132 66.3999 40.7002 75.7572 40.7002 87.2999C40.7002 98.8427 51.132 108.2 64.0002 108.2Z" fill="#8CC63F"/>
<path d="M64.0001 103.2C52.1001 103.2 42.2001 95.2 40.8001 84.8C40.7001 85.6 40.6001 86.5 40.6001 87.3C40.6001 98.8 51.1001 108.2 63.9001 108.2C76.7001 108.2 87.2001 98.9 87.2001 87.3C87.2001 86.5 87.1001 85.6 87.0001 84.8C85.8001 95.2 75.9001 103.2 64.0001 103.2Z" fill="#5AA319"/>
<path d="M64.0002 109.7C50.3002 109.7 39.2002 99.7 39.2002 87.3C39.2002 74.9 50.3002 65 64.0002 65C77.7002 65 88.8002 75 88.8002 87.4C88.8002 99.8 77.7002 109.7 64.0002 109.7ZM64.0002 68C52.0002 68 42.2002 76.7 42.2002 87.4C42.2002 98.1 52.0002 106.7 64.0002 106.7C76.0002 106.7 85.8002 98 85.8002 87.3C85.8002 76.6 76.0002 68 64.0002 68Z" fill="#301F00"/>
<path d="M68.6999 98.7V110.8C68.6999 110.8 61.4999 114.2 64.8999 117.6C66.6999 119.4 71.7999 117.9 73.4999 115.5C73.8999 115 74.6999 114.9 75.0999 115.4C76.6999 117.2 79.8999 119.8 82.5999 116.7C85.3999 113.4 79.5999 110.8 79.5999 110.8V98.7" fill="#8CC63F"/>
<path d="M67.2997 119.9C65.8997 119.9 64.6997 119.5 63.7997 118.7C62.3997 117.3 62.2997 115.9 62.4997 115C62.8997 112.5 65.5997 110.7 67.0997 109.9V98.7C67.0997 97.9 67.7997 97.2 68.5997 97.2C69.3997 97.2 70.0997 97.9 70.0997 98.7V110.8C70.0997 111.4 69.7997 111.9 69.1997 112.2C67.7997 112.9 65.5997 114.4 65.3997 115.6C65.3997 115.7 65.2997 116.1 65.8997 116.6C66.1997 116.9 66.7997 117 67.5997 117C69.3997 116.9 71.3997 115.9 72.1997 114.7C72.6997 114.1 73.3997 113.7 74.0997 113.6C74.8997 113.6 75.5997 113.9 76.0997 114.4C77.3997 115.8 78.6997 116.6 79.6997 116.6C80.2997 116.6 80.7997 116.3 81.2997 115.7C81.7997 115.1 81.6997 114.8 81.6997 114.7C81.4997 113.7 79.5997 112.6 78.7997 112.2C78.2997 112 77.8997 111.4 77.8997 110.8V98.7C77.8997 97.9 78.5997 97.2 79.3997 97.2C80.1997 97.2 80.8997 97.9 80.8997 98.7V109.9C82.0997 110.6 84.1997 112 84.5997 114C84.7997 114.9 84.7997 116.2 83.5997 117.6C82.1997 119.2 80.6997 119.6 79.6997 119.6C77.4997 119.6 75.5997 118.2 74.1997 116.8C72.7997 118.5 70.1997 119.7 67.7997 119.9C67.7997 119.9 67.4997 119.9 67.2997 119.9Z" fill="#301F00"/>
<path d="M49.3 98.7V110.8C49.3 110.8 42.1 114.2 45.5 117.6C47.3 119.4 52.4 117.9 54.1 115.5C54.5 115 55.3 114.9 55.7 115.4C57.3 117.2 60.5 119.8 63.2 116.7C66 113.4 60.2 110.8 60.2 110.8V98.7" fill="#8CC63F"/>
<path d="M47.9999 119.9C46.5999 119.9 45.3999 119.5 44.4999 118.6C43.0999 117.2 42.9999 115.8 43.1999 114.9C43.5999 112.4 46.2999 110.6 47.7999 109.8V98.7C47.7999 97.9 48.4999 97.2 49.2999 97.2C50.0999 97.2 50.7999 97.9 50.7999 98.7V110.8C50.7999 111.4 50.4999 111.9 49.8999 112.2C48.4999 112.9 46.2999 114.4 46.0999 115.6C46.0999 115.7 45.9999 116.1 46.5999 116.6C46.8999 116.9 47.4999 117 48.2999 117C50.0999 116.9 52.0999 115.9 52.8999 114.7C53.3999 114.1 54.0999 113.7 54.7999 113.6C55.5999 113.6 56.2999 113.9 56.7999 114.4C58.0999 115.8 59.3999 116.6 60.3999 116.6C60.9999 116.6 61.4999 116.3 61.9999 115.7C62.4999 115.1 62.3999 114.8 62.3999 114.7C62.1999 113.7 60.2999 112.6 59.4999 112.2C58.9999 112 58.5999 111.4 58.5999 110.8V98.7C58.5999 97.9 59.2999 97.2 60.0999 97.2C60.8999 97.2 61.5999 97.9 61.5999 98.7V109.9C62.7999 110.6 64.8999 112 65.2999 114C65.4999 114.9 65.4999 116.2 64.2999 117.6C62.8999 119.2 61.3999 119.6 60.3999 119.6C58.1999 119.6 56.2999 118.2 54.8999 116.8C53.4999 118.5 50.8999 119.7 48.4999 119.9C48.3999 119.9 48.1999 119.9 47.9999 119.9Z" fill="#301F00"/>
<path d="M64 22.0999C41.1 22.0999 22.5 35.9999 22.5 55.0999C22.5 74.0999 34.7 91.0999 64 91.0999C93.3 91.0999 105.5 74.0999 105.5 55.0999C105.5 35.9999 86.9 22.0999 64 22.0999Z" fill="#8CC63F"/>
<path d="M64 26.1C86.2 26.1 104.3 39.1 105.4 57.2C105.4 56.5 105.5 55.8 105.5 55C105.5 36 86.9 22 64 22C41.1 22 22.5 36 22.5 55.1C22.5 55.8 22.5 56.5 22.6 57.3C23.7 39.1 41.8 26.1 64 26.1Z" fill="#ACDC57"/>
<path d="M103.7 45.0999C103.9 46.3999 104 47.6999 104 49.0999C104 67.4999 92.2 83.7999 64 83.7999C35.8 83.7999 24 67.4999 24 49.0999C24 47.6999 24.1 46.3999 24.3 45.0999C23.1 48.1999 22.5 51.4999 22.5 54.9999C22.5 73.9999 34.7 90.9999 64 90.9999C93.3 90.9999 105.5 73.9999 105.5 54.9999C105.5 51.5999 104.9 48.1999 103.7 45.0999Z" fill="#5AA319"/>
<path d="M64 92.5999C32.3 92.5999 21 73.1999 21 55.0999C21 35.7999 39.9 20.7 64 20.7C88.1 20.7 107 35.7999 107 55.0999C107 73.1999 95.7 92.5999 64 92.5999ZM64 23.6C41.6 23.6 24 37.4 24 55C24 76.6 39 89.5 64 89.5C89 89.5 104 76.6 104 55C104 37.4 86.4 23.6 64 23.6Z" fill="#301F00"/>
<path d="M64.0001 57.6C56.7001 57.6 49.7001 54.5 44.8001 49.1C44.2001 48.5 44.3001 47.5 44.9001 47C45.5001 46.4 46.5001 46.5 47.0001 47.1C51.3001 51.9 57.5001 54.6 64.0001 54.6C70.4001 54.6 76.6001 51.9 81.0001 47.1C81.6001 46.5 82.5001 46.4 83.1001 47C83.7001 47.6 83.8001 48.5 83.2001 49.1C78.3001 54.5 71.3001 57.6 64.0001 57.6Z" fill="#301F00"/>
<path d="M66.1999 44C66.9179 44 67.4999 43.1493 67.4999 42.0999C67.4999 41.0506 66.9179 40.2 66.1999 40.2C65.4819 40.2 64.8999 41.0506 64.8999 42.0999C64.8999 43.1493 65.4819 44 66.1999 44Z" fill="#301F00"/>
<path d="M61.8 44C62.518 44 63.1 43.1493 63.1 42.0999C63.1 41.0506 62.518 40.2 61.8 40.2C61.082 40.2 60.5 41.0506 60.5 42.0999C60.5 43.1493 61.082 44 61.8 44Z" fill="#301F00"/>
<path d="M86.4999 42.7C94.5633 42.7 101.1 36.1634 101.1 28.1C101.1 20.0366 94.5633 13.5 86.4999 13.5C78.4365 13.5 71.8999 20.0366 71.8999 28.1C71.8999 36.1634 78.4365 42.7 86.4999 42.7Z" fill="#F2F2F2"/>
<path d="M86.4999 44.1C77.5999 44.1 70.3999 36.9 70.3999 28C70.3999 19.1 77.5999 12 86.4999 12C95.3999 12 102.6 19.2 102.6 28.1C102.6 37 95.3999 44.1 86.4999 44.1ZM86.4999 15C79.2999 15 73.3999 20.9 73.3999 28.1C73.3999 35.3 79.2999 41.2 86.4999 41.2C93.6999 41.2 99.5999 35.3 99.5999 28.1C99.5999 20.9 93.6999 15 86.4999 15Z" fill="#301F00"/>
<path d="M86.5 31.1001C88.1569 31.1001 89.5 29.757 89.5 28.1001C89.5 26.4432 88.1569 25.1001 86.5 25.1001C84.8431 25.1001 83.5 26.4432 83.5 28.1001C83.5 29.757 84.8431 31.1001 86.5 31.1001Z" fill="#301F00"/>
<path d="M41.4999 42.7C49.5633 42.7 56.0999 36.1634 56.0999 28.1C56.0999 20.0366 49.5633 13.5 41.4999 13.5C33.4365 13.5 26.8999 20.0366 26.8999 28.1C26.8999 36.1634 33.4365 42.7 41.4999 42.7Z" fill="#F2F2F2"/>
<path d="M41.4999 44.1C32.5999 44.1 25.3999 36.9 25.3999 28C25.3999 19.1 32.5999 12 41.4999 12C50.3999 12 57.5999 19.2 57.5999 28.1C57.5999 37 50.3999 44.1 41.4999 44.1ZM41.4999 15C34.2999 15 28.3999 20.9 28.3999 28.1C28.3999 35.3 34.2999 41.2 41.4999 41.2C48.6999 41.2 54.5999 35.3 54.5999 28.1C54.5999 20.9 48.6999 15 41.4999 15Z" fill="#301F00"/>
<path d="M41.5 31.1001C43.1569 31.1001 44.5 29.757 44.5 28.1001C44.5 26.4432 43.1569 25.1001 41.5 25.1001C39.8431 25.1001 38.5 26.4432 38.5 28.1001C38.5 29.757 39.8431 31.1001 41.5 31.1001Z" fill="#301F00"/>
</svg>
