<svg width="128" height="128" viewBox="0 0 128 128" fill="none" xmlns="http://www.w3.org/2000/svg">
<path d="M105.9 106.5C105.2 106.5 104.6 106.2 104.2 105.6C101.9 101.9 93.9997 96.2001 91.0997 94.4001C90.1997 93.8001 89.8997 92.5001 90.4997 91.6001C91.0997 90.7001 92.2997 90.4001 93.2997 91.0001C93.6997 91.3001 104.3 98.3001 107.5 103.4C108.1 104.3 107.8 105.6 106.9 106.2C106.7 106.4 106.3 106.5 105.9 106.5Z" fill="#FFE581"/>
<path d="M107 106.2C107.5 105.9 107.8 105.4 107.9 104.9L107 102.5C106.7 102 106.3 101.6 105.8 101.1L102.7 103.6C103.3 104.3 103.9 104.9 104.3 105.6C104.7 106.2 105.3 106.5 106 106.5C106.3 106.5 106.7 106.4 107 106.2Z" fill="#6F4A38"/>
<path d="M105.9 108C104.7 108 103.6 107.4 102.9 106.4C100.9 103.3 94.0998 98.2 90.2998 95.6C89.4998 95.1 88.9998 94.3 88.7998 93.4C88.5998 92.5 88.7998 91.6 89.2998 90.8C90.3998 89.2 92.4998 88.7 94.0998 89.8C95.1998 90.6 105.4 97.4 108.8 102.7C109.3 103.5 109.5 104.4 109.3 105.3C109.1 106.2 108.6 107 107.8 107.5C107.2 107.8 106.6 108 105.9 108ZM92.1998 92.2C91.9998 92.2 91.8998 92.3 91.7998 92.4C91.5998 92.6 91.6998 92.9 91.8998 93.1C91.9998 93.2 102.4 100.1 105.4 104.8C105.5 105 105.9 105.1 106.1 105C106.3 104.9 106.3 104.8 106.3 104.7C106.3 104.6 106.3 104.5 106.2 104.3C103.7 100.4 96.0998 94.8 92.3998 92.3C92.3998 92.2 92.2998 92.2 92.1998 92.2Z" fill="#301F00"/>
<path d="M97.6001 99.4V110C97.6001 112.7 95.8001 115.1 93.2001 115.6C89.7001 116.3 86.6001 113.6 86.6001 110.2C86.6001 110.2 86.6001 109 86.3001 109.1C85.2001 109.5 83.3001 109.8 81.3001 109.9C80.5001 109.9 79.7001 110 78.9001 110C75.2001 110 71.6001 109.8 71.6001 109.8V115C71.6001 117.9 69.5001 120.5 66.6001 120.7C63.9001 120.9 61.5001 119.2 60.8001 116.7H59.5001C59.4001 116.7 59.4001 116.7 59.4001 116.7C58.7001 119.1 56.3001 120.9 53.6001 120.7C50.7001 120.4 48.6001 117.9 48.6001 115V70.8L62.5001 69.8V81.6C62.5001 81.7 62.5001 81.8 62.5001 81.9C62.6001 85.7 65.8001 88.7 69.6001 88.7H87.0001C88.0001 88.7 89.0001 88.8 90.0001 89.1C94.3001 90.4 97.6001 94.5 97.6001 99.4Z" fill="#FFE581"/>
<path d="M89.9002 89.2C89.0002 88.9 88.0002 88.8 86.9002 88.8H69.7002C65.9002 88.8 62.7002 85.8 62.6002 82C62.6002 81.9 62.6002 81.8 62.6002 81.7V69.8L48.7002 70.8V73.7L61.0002 72.7V84.5C61.0002 84.6 61.0002 84.7 61.0002 84.8C61.1002 88.6 64.3002 91.6 68.1002 91.6H85.4002C86.4002 91.6 87.4002 91.7 88.4002 92C92.8002 93.3 96.1002 97.4 96.1002 102.2V113C96.1002 113.4 96.1002 113.7 96.0002 114C97.0002 112.9 97.6002 111.5 97.6002 110V99.4C97.6002 94.5 94.3002 90.4 89.9002 89.2Z" fill="#FFF5AE"/>
<path d="M72.1001 106.2V109.8C73.2001 109.9 76.0001 110 78.9001 110C79.7001 110 80.5001 110 81.3001 109.9C82.9001 109.8 84.4001 109.6 85.5001 109.4C88.2001 107.5 91.0001 105.5 91.0001 105.5C88.2001 107.8 72.1001 106.2 72.1001 106.2Z" fill="#FFD252"/>
<path d="M55.1002 77.2C57.7002 77.2 60.2002 77 62.6002 76.6V69.7L48.7002 70.7V76.7C50.7002 77.1 52.9002 77.2 55.1002 77.2Z" fill="#FFD252"/>
<path d="M54.0001 91.2001C54.0001 93.4001 52.2001 95.2001 50.0001 95.2001C49.5001 95.2001 49.0001 95.1001 48.6001 94.9001V87.6001C49.1001 87.4001 49.5001 87.3001 50.0001 87.3001C52.2001 87.2001 54.0001 89.0001 54.0001 91.2001Z" fill="#6F4A38"/>
<path d="M78.1002 90.2C78.1002 92.4 76.3002 94.2 74.2002 94.2C72.0002 94.2 70.2002 92.4 70.2002 90.2C70.2002 89.7 70.3002 89.2 70.5002 88.8H77.8002C78.0002 89.2 78.1002 89.7 78.1002 90.2Z" fill="#6F4A38"/>
<path d="M70.5001 91.7H77.7001C77.9001 91.2 78.0001 90.7 78.0001 90.1C78.0001 89.6 77.9001 89.1 77.7001 88.7H70.4001C70.2001 89.2 70.1001 89.6 70.1001 90.1C70.2001 90.7 70.3001 91.3 70.5001 91.7Z" fill="#825C4D"/>
<path d="M62.6001 81.9C62.1001 82.1 61.6001 82.2 61.0001 82.2C58.8001 82.2 57.1001 80.4 57.1001 78.3C57.1001 76.1 58.9001 74.3 61.0001 74.3C61.5001 74.3 62.1001 74.4 62.6001 74.6V81.6C62.6001 81.7 62.6001 81.8 62.6001 81.9Z" fill="#6F4A38"/>
<path d="M90.1002 90.3C90.1002 92.5 88.3002 94.2 86.2002 94.2C84.0002 94.2 82.2002 92.4 82.2002 90.3C82.2002 89.8 82.3002 89.2 82.5002 88.7H87.0002C88.0002 88.7 89.0002 88.8 90.0002 89.1C90.0002 89.5 90.1002 89.9 90.1002 90.3Z" fill="#6F4A38"/>
<path d="M82.5002 91.7H85.5002C86.5002 91.7 87.5002 91.8 88.5002 92.1C88.8002 92.2 89.2002 92.3 89.5002 92.4C89.9002 91.8 90.2002 91 90.2002 90.2C90.2002 89.8 90.1002 89.4 90.0002 89.1C89.1002 88.8 88.1002 88.7 87.0002 88.7H82.5002C82.3002 89.2 82.2002 89.7 82.2002 90.3C82.2002 90.8 82.3002 91.3 82.5002 91.7Z" fill="#825C4D"/>
<path d="M84.0002 106.2C84.0002 107.9 82.9002 109.4 81.4002 109.9C80.6002 109.9 79.8002 110 79.0002 110C77.4002 109.5 76.2002 108 76.2002 106.2C76.2002 104 78.0002 102.3 80.1002 102.3C82.2002 102.2 84.0002 104 84.0002 106.2Z" fill="#6F4A38"/>
<path d="M63.0001 100.2C65.154 100.2 66.9001 98.4541 66.9001 96.3001C66.9001 94.1462 65.154 92.4001 63.0001 92.4001C60.8462 92.4001 59.1001 94.1462 59.1001 96.3001C59.1001 98.4541 60.8462 100.2 63.0001 100.2Z" fill="#6F4A38"/>
<path d="M90.9 103.6C93.0539 103.6 94.8 101.854 94.8 99.7C94.8 97.5461 93.0539 95.8 90.9 95.8C88.7461 95.8 87 97.5461 87 99.7C87 101.854 88.7461 103.6 90.9 103.6Z" fill="#6F4A38"/>
<path d="M99.1001 99.1C99.0001 92.5 93.6001 87.2 87.0001 87.2H69.7001C66.6001 87.2 64.1001 84.7 64.1001 81.6V69.8C64.1001 69.4 63.9001 68.9 63.6001 68.7C63.3001 68.4 62.9001 68.3 62.5001 68.3L48.6001 69.3C47.8001 69.3 47.1001 70 47.1001 70.8V104.8V115V115.3C47.1001 118.7 49.5001 121.5 52.8001 122.2C52.9001 122.2 53.0001 122.2 53.1001 122.2C53.2001 122.2 53.4001 122.2 53.5001 122.3C53.7001 122.3 53.8001 122.3 54.0001 122.3H54.1001C54.5001 122.3 55.0001 122.2 55.4001 122.2C57.4001 121.8 59.1001 120.6 60.1001 118.9C60.7001 119.9 61.5001 120.7 62.5001 121.3C62.6001 121.3 62.6001 121.4 62.7001 121.4C62.9001 121.5 63.0001 121.6 63.2001 121.7C63.3001 121.8 63.5001 121.8 63.6001 121.9C63.7001 122 63.9001 122 64.0001 122C64.2001 122.1 64.4001 122.1 64.6001 122.2C64.7001 122.2 64.8001 122.2 64.9001 122.3C65.1001 122.3 65.3001 122.4 65.5001 122.4C65.6001 122.4 65.7001 122.4 65.8001 122.4C65.9001 122.4 66.0001 122.4 66.0001 122.4C66.2001 122.4 66.4001 122.4 66.6001 122.4H66.7001C66.8001 122.4 67.0001 122.4 67.1001 122.3C67.2001 122.3 67.3001 122.3 67.4001 122.3C70.6001 121.7 73.1001 118.8 73.1001 115.4V115V111.4C75.9001 111.6 81.6001 111.7 85.1001 111.1C85.1001 111.2 85.1001 111.3 85.2001 111.5C85.2001 111.6 85.2001 111.7 85.2001 111.8C85.2001 112 85.3001 112.2 85.4001 112.4V112.5C85.5001 112.7 85.5001 112.9 85.6001 113.1C85.9001 113.8 86.3001 114.4 86.8001 115C86.9001 115.1 87.0001 115.2 87.1001 115.3C87.1001 115.3 87.1001 115.3 87.2001 115.4C87.3001 115.5 87.5001 115.7 87.7001 115.8C87.7001 115.8 87.7001 115.8 87.8001 115.8C88.0001 115.9 88.2001 116.1 88.3001 116.2C88.4001 116.2 88.4001 116.3 88.5001 116.3C88.7001 116.4 88.8001 116.5 89.0001 116.6C89.1001 116.6 89.1001 116.7 89.2001 116.7C89.4001 116.8 89.5001 116.8 89.7001 116.9C89.8001 116.9 89.8001 116.9 89.9001 117C90.1001 117.1 90.3001 117.1 90.4001 117.2C90.5001 117.2 90.5001 117.2 90.6001 117.2C90.8001 117.2 91.0001 117.3 91.2001 117.3C91.3001 117.3 91.3001 117.3 91.4001 117.3C91.6001 117.3 91.8001 117.3 92.0001 117.3C92.1001 117.3 92.1001 117.3 92.2001 117.3H92.3001C92.5001 117.3 92.6001 117.3 92.8001 117.3H92.9001C93.1001 117.3 93.3001 117.3 93.5001 117.2C93.6001 117.2 93.6001 117.2 93.7001 117.2H93.8001C94.1001 117.1 94.4001 117 94.7001 116.9C94.8001 116.9 94.9001 116.8 94.9001 116.8C95.2001 116.7 95.5001 116.5 95.8001 116.3H95.9001C97.9001 115.1 99.2001 112.9 99.2001 110.4V110V99.4V99.3C99.1001 99.2 99.1001 99.2 99.1001 99.1ZM96.1001 110C96.1001 111.5 95.4001 112.9 94.2001 113.6C94.0001 113.7 93.9001 113.8 93.7001 113.9H93.6001C93.4001 114 93.1001 114.1 92.9001 114.1C92.6001 114.2 92.3001 114.2 92.1001 114.2C92.0001 114.2 91.9001 114.2 91.8001 114.2C91.6001 114.2 91.5001 114.2 91.3001 114.1C91.2001 114.1 91.1001 114 90.9001 114C90.7001 114 90.6001 113.9 90.5001 113.8C90.4001 113.8 90.3001 113.7 90.2001 113.6C90.0001 113.5 89.9001 113.4 89.7001 113.3C89.6001 113.2 89.5001 113.2 89.5001 113.1C89.4001 113 89.2001 112.8 89.1001 112.7C89.0001 112.6 89.0001 112.6 88.9001 112.5C88.8001 112.4 88.7001 112.2 88.6001 112C88.6001 111.9 88.5001 111.8 88.5001 111.7C88.4001 111.5 88.4001 111.4 88.3001 111.2C88.3001 111.1 88.2001 111 88.2001 110.9C88.2001 110.7 88.1001 110.5 88.1001 110.3C88.1001 110.2 88.1001 110.2 88.1001 110.1V110C89.4001 109.5 91.2001 108.7 92.1001 107.9C92.7001 107.4 92.8001 106.4 92.3001 105.8C91.8001 105.2 90.8001 105.1 90.2001 105.6C89.6001 106.1 86.0001 107.5 85.9001 107.5C83.5001 108.4 76.8001 108.3 73.2001 108.1V104.5C73.2001 103.7 72.5001 103 71.7001 103C70.9001 103 70.2001 103.7 70.2001 104.5V109.5V114.7C70.2001 116.6 69.0001 118.2 67.4001 118.7C67.3001 118.7 67.2001 118.8 67.2001 118.8C67.1001 118.8 66.9001 118.9 66.8001 118.9C66.7001 118.9 66.5001 118.9 66.4001 118.9C66.3001 118.9 66.1001 118.9 66.0001 118.9C65.9001 118.9 65.8001 118.9 65.7001 118.9C65.6001 118.9 65.4001 118.9 65.3001 118.8C65.2001 118.8 65.2001 118.8 65.1001 118.7C65.0001 118.7 64.8001 118.6 64.7001 118.6C64.6001 118.6 64.6001 118.5 64.5001 118.5C64.4001 118.4 64.3001 118.4 64.1001 118.3C64.0001 118.3 64.0001 118.2 63.9001 118.2C63.8001 118.1 63.7001 118 63.6001 117.9C63.5001 117.8 63.5001 117.8 63.4001 117.7C63.3001 117.6 63.2001 117.5 63.1001 117.4C63.0001 117.3 63.0001 117.3 62.9001 117.2C62.8001 117.1 62.7001 116.9 62.7001 116.8C62.7001 116.7 62.6001 116.7 62.6001 116.6C62.5001 116.4 62.4001 116.2 62.4001 116.1V116C62.3001 115.7 62.3001 115.3 62.3001 114.9V104.4C62.3001 103.6 61.6001 102.9 60.8001 102.9C60.6001 102.9 60.0001 102.9 59.8001 102.9C59.0001 102.9 58.3001 103.6 58.3001 104.4V114.9C58.3001 115.3 58.2001 115.6 58.1001 116V116.1C58.0001 116.3 58.0001 116.5 57.9001 116.6C57.9001 116.7 57.8001 116.7 57.8001 116.8C57.7001 116.9 57.7001 117.1 57.6001 117.2C57.6001 117.3 57.5001 117.3 57.4001 117.4C57.3001 117.5 57.2001 117.6 57.1001 117.7C57.0001 117.8 57.0001 117.8 56.9001 117.8C56.8001 117.9 56.7001 118 56.6001 118.1C56.5001 118.1 56.5001 118.2 56.4001 118.2C56.3001 118.3 56.1001 118.4 56.0001 118.4C55.9001 118.4 55.9001 118.4 55.8001 118.5C55.6001 118.6 55.5001 118.6 55.3001 118.7C55.2001 118.7 55.2001 118.7 55.1001 118.7C54.9001 118.7 54.8001 118.8 54.6001 118.8C54.5001 118.8 54.5001 118.8 54.4001 118.8C54.3001 118.8 54.1001 118.8 54.0001 118.8C53.9001 118.8 53.7001 118.8 53.6001 118.8C53.5001 118.8 53.3001 118.8 53.2001 118.7C53.1001 118.7 53.0001 118.7 53.0001 118.6C51.4001 118 50.2001 116.4 50.2001 114.6V104.4V72.1L61.2001 71.3V81.6C61.2001 86.4 65.1001 90.2 69.8001 90.2H87.0001C92.0001 90.2 96.1001 94.3 96.1001 99.3V110Z" fill="#301F00"/>
<path d="M40.9 37.2999C40.7 34.8999 39.4 32.6999 36.9 30.9999C31.8 27.5999 21.7 30.3999 20.5 32.0999C19.4 33.7999 20.7 44.2999 25.8 47.5999C27.3 48.5999 28.9 49.0999 30.3 49.1999C31.8 49.2999 33.3 48.8999 34.6 48.1999" fill="#FFE581"/>
<path d="M36.8 39.7001C33.8 34.4001 23.4 32.4001 21.6 33.4001C21.2 33.7001 20.6 34.5001 20.1 35.6001C19.9 33.9001 20.1 32.5001 20.4 32.0001C21.5 30.3001 31.7 27.5001 36.8 30.9001C39.4 32.6001 40.6 34.8001 40.8 37.2001L39.3 39.7001C38.8 40.8001 37.4 40.8001 36.8 39.7001Z" fill="#FFF5AE"/>
<path d="M30.7999 50.8C30.5999 50.8 30.3999 50.8 30.1999 50.8C28.3999 50.7 26.5999 50.1 24.8999 48.9C21.4999 46.7 19.9999 42.1 19.2999 39.6C18.6999 37.3 17.9999 33 19.1999 31.3C20.9999 28.6 32.0999 26.1 37.5999 29.8C40.3999 31.7 41.9999 34.2 42.2999 37.2C42.3999 38 41.7999 38.8 40.8999 38.8C40.0999 38.9 39.2999 38.3 39.2999 37.4C39.0999 35.3 37.9999 33.6 35.8999 32.2C31.5999 29.4 22.7999 31.8 21.5999 32.9C20.9999 34.5 22.1999 43.5 26.4999 46.3C27.7999 47.1 28.9999 47.6 30.2999 47.7C31.4999 47.8 32.6999 47.5 33.7999 46.9C34.4999 46.5 35.3999 46.8 35.7999 47.5C36.1999 48.2 35.8999 49.1 35.1999 49.5C33.8999 50.4 32.2999 50.8 30.7999 50.8Z" fill="#301F00"/>
<path d="M81.6001 46.7C81.6001 64.7 69.7001 70.6999 55.1001 70.6999C40.5001 70.6999 28.6001 64.9 28.6001 46.7C28.6001 33.2 40.5001 21.7 55.1001 21.7C69.7001 21.7 81.6001 33.2 81.6001 46.7Z" fill="#FFE581"/>
<path d="M31.3999 59.5999C35.7999 67.7999 44.6999 70.6999 55.0999 70.6999C59.3999 70.6999 63.4999 70.2 66.9999 69C66.8999 60.5 57.9999 53.7 46.9999 53.7C40.6999 53.7 35.0999 56.0999 31.3999 59.5999Z" fill="#C97F4E"/>
<path d="M29.7001 52.7001C29.7001 39.7001 41.1001 28.7001 55.1001 28.7001C69.1001 28.7001 80.5001 39.7001 80.5001 52.7001C80.5001 53.7001 80.5001 54.7001 80.4001 55.7001C81.2001 53.1001 81.6001 50.2 81.6001 46.8C81.6001 33.3 69.7001 21.8 55.1001 21.8C40.5001 21.8 28.6001 33.3 28.6001 46.8C28.6001 50.2 29.0001 53.2 29.8001 55.8C29.8001 54.8 29.7001 53.8001 29.7001 52.7001Z" fill="#FFF5AE"/>
<path d="M55.1001 65.7C41.3001 65.7 29.9001 60.5 28.7001 44.5C28.6001 45.2 28.6001 45.9 28.6001 46.7C28.6001 64.9 40.5001 70.7 55.1001 70.7C69.7001 70.7 81.6001 64.7 81.6001 46.7C81.6001 46 81.6001 45.2 81.5001 44.5C80.3001 60.4 69.0001 65.7 55.1001 65.7Z" fill="#FFD252"/>
<path d="M57 70.6999C57.4 70.6999 57.7 70.6999 58.1 70.5999C58.2 70.5999 58.4 70.5999 58.5 70.5999C58.9 70.5999 59.2 70.4999 59.6 70.4999C59.7 70.4999 59.8 70.4999 60 70.4999C60.4 70.4999 60.8 70.3999 61.2 70.3999C61.3 70.3999 61.3 70.3999 61.4 70.3999C63.4 70.0999 65.3 69.6999 67.1 69.0999C67.1 67.4999 66.7 65.8999 66.1 64.3999C62.8 65.3999 59.1 65.7999 55.2 65.7999C46.3 65.7999 38.5 63.5999 33.7 57.8999C32.9 58.4999 32.2 58.9999 31.5 59.6999C32.3 61.1999 33.3 62.5999 34.4 63.6999C35.1 64.4999 35.9 65.1999 36.8 65.7999C36.8 65.7999 36.8 65.7999 36.9 65.7999C37.8 66.3999 38.7 66.9999 39.6 67.4999C40.1 67.6999 40.5 67.9999 41 68.1999C41 68.1999 41.1 68.1999 41.1 68.2999C42.1 68.6999 43.1 69.0999 44.1 69.3999C44.2 69.3999 44.3 69.3999 44.3 69.4999C44.8 69.5999 45.3 69.7999 45.9 69.8999C46.4 69.9999 47 70.0999 47.5 70.1999C47.6 70.1999 47.7 70.1999 47.8 70.2999C48.3 70.3999 48.7 70.3999 49.2 70.4999C49.3 70.4999 49.4 70.4999 49.5 70.4999C50 70.5999 50.6 70.5999 51.2 70.6999C51.3 70.6999 51.4 70.6999 51.5 70.6999C52 70.6999 52.4 70.7999 52.9 70.7999C53.1 70.7999 53.2 70.7999 53.4 70.7999C54 70.7999 54.5 70.7999 55.1 70.7999C55.6 70.7999 56.1 70.7999 56.6 70.7999C56.8 70.6999 56.9 70.6999 57 70.6999Z" fill="#B86538"/>
<path d="M55.1001 72.1999C36.8001 72.1999 27.1001 63.4 27.1001 46.7C27.1001 32.1 39.7001 20.2 55.1001 20.2C70.5001 20.2 83.1001 32.1 83.1001 46.7C83.1001 63.2 73.2001 72.1999 55.1001 72.1999ZM55.1001 23.2C41.5001 23.2 30.1001 34 30.1001 46.7C30.1001 61.6 38.5001 69.1999 55.1001 69.1999C71.7001 69.1999 80.1001 61.6 80.1001 46.7C80.1001 34 68.7001 23.2 55.1001 23.2Z" fill="#301F00"/>
<path d="M48.8998 62.2001C49.5073 62.2001 49.9998 61.4389 49.9998 60.5C49.9998 59.5612 49.5073 58.8 48.8998 58.8C48.2923 58.8 47.7998 59.5612 47.7998 60.5C47.7998 61.4389 48.2923 62.2001 48.8998 62.2001Z" fill="#301F00"/>
<path d="M45.1 62.2001C45.7075 62.2001 46.2 61.4389 46.2 60.5C46.2 59.5612 45.7075 58.8 45.1 58.8C44.4925 58.8 44 59.5612 44 60.5C44 61.4389 44.4925 62.2001 45.1 62.2001Z" fill="#301F00"/>
<path d="M60.1001 53.7C61.757 53.7 63.1001 52.3568 63.1001 50.7C63.1001 49.0431 61.757 47.7 60.1001 47.7C58.4432 47.7 57.1001 49.0431 57.1001 50.7C57.1001 52.3568 58.4432 53.7 60.1001 53.7Z" fill="#301F00"/>
<path d="M36.1001 53.7C37.757 53.7 39.1001 52.3568 39.1001 50.7C39.1001 49.0431 37.757 47.7 36.1001 47.7C34.4432 47.7 33.1001 49.0431 33.1001 50.7C33.1001 52.3568 34.4432 53.7 36.1001 53.7Z" fill="#301F00"/>
<path d="M70.5 37.3002C70.7 34.9002 72 32.7002 74.5 31.0002C79.6 27.6002 89.7 30.4002 90.9 32.1002C92 33.8002 90.7 44.3002 85.6 47.6002C84.1 48.6002 82.5 49.1002 81.1 49.2002C79.6 49.3002 78.1 48.9002 76.8 48.2002" fill="#FFE581"/>
<path d="M74.6001 39.7001C77.6001 34.4001 88.0001 32.4001 89.8001 33.4001C90.2001 33.7001 90.8001 34.5001 91.3001 35.6001C91.5001 33.9001 91.3001 32.5001 91.0001 32.0001C89.9001 30.3001 79.7001 27.5001 74.6001 30.9001C72.0001 32.6001 70.8001 34.8001 70.6001 37.2001L72.1001 39.7001C72.5001 40.8001 74.0001 40.8001 74.6001 39.7001Z" fill="#FFF5AE"/>
<path d="M80.6 50.8001C79 50.8001 77.5 50.4001 76.1 49.6001C75.4 49.2001 75.1 48.3001 75.5 47.6001C75.9 46.9001 76.8 46.6001 77.5 47.0001C78.6 47.6001 79.8 47.9001 81 47.8001C82.3 47.7001 83.5 47.3001 84.8 46.4001C89.1 43.6001 90.2 34.5001 89.7 33.0001C88.5 31.8001 79.7 29.4001 75.4 32.3001C73.3 33.7001 72.2 35.4001 72 37.5001C71.9 38.3001 71.2 38.9001 70.4 38.9001C69.6 38.8001 69 38.1001 69 37.3001C69.3 34.3001 70.9 31.7001 73.7 29.9001C79.2 26.2001 90.3 28.7001 92.1 31.4001C93.9 34.1001 91.9 45.4001 86.4 49.0001C84.7 50.1001 82.9 50.8001 81.1 50.9001C81 50.7001 80.8 50.8001 80.6 50.8001Z" fill="#301F00"/>
<path d="M60.1001 31.3V12.3C60.1001 10.6 61.4001 9.30005 63.1001 9.30005C64.8001 9.30005 66.1001 10.6 66.1001 12.3V31.3" fill="#FFE581"/>
<path d="M66.1001 32.8C65.3001 32.8 64.6001 32.1 64.6001 31.3V12.3C64.6001 11.5 63.9001 10.8 63.1001 10.8C62.3001 10.8 61.6001 11.5 61.6001 12.3V31.3C61.6001 32.1 60.9001 32.8 60.1001 32.8C59.3001 32.8 58.6001 32.1 58.6001 31.3V12.3C58.6001 9.80005 60.6001 7.80005 63.1001 7.80005C65.6001 7.80005 67.6001 9.80005 67.6001 12.3V31.3C67.6001 32.1 66.9001 32.8 66.1001 32.8Z" fill="#301F00"/>
<path d="M63.1001 15.3C65.3092 15.3 67.1001 13.5092 67.1001 11.3C67.1001 9.09091 65.3092 7.30005 63.1001 7.30005C60.891 7.30005 59.1001 9.09091 59.1001 11.3C59.1001 13.5092 60.891 15.3 63.1001 15.3Z" fill="#6F4A38"/>
<path d="M63.1001 16.8C60.1001 16.8 57.6001 14.3 57.6001 11.3C57.6001 8.30005 60.1001 5.80005 63.1001 5.80005C66.1001 5.80005 68.6001 8.30005 68.6001 11.3C68.6001 14.3 66.1001 16.8 63.1001 16.8ZM63.1001 8.80005C61.7001 8.80005 60.6001 9.90005 60.6001 11.3C60.6001 12.7 61.7001 13.8 63.1001 13.8C64.5001 13.8 65.6001 12.7 65.6001 11.3C65.6001 9.90005 64.5001 8.80005 63.1001 8.80005Z" fill="#301F00"/>
<path d="M43.5 31.3V12.3C43.5 10.6 44.8 9.30005 46.5 9.30005C48.2 9.30005 49.5 10.6 49.5 12.3V31.3" fill="#FFE581"/>
<path d="M49.5 32.8C48.7 32.8 48 32.1 48 31.3V12.3C48 11.5 47.3 10.8 46.5 10.8C45.7 10.8 45 11.4 45 12.3V31.3C45 32.1 44.3 32.8 43.5 32.8C42.7 32.8 42 32.1 42 31.3V12.3C42 9.80005 44 7.80005 46.5 7.80005C49 7.80005 51 9.80005 51 12.3V31.3C51 32.1 50.3 32.8 49.5 32.8Z" fill="#301F00"/>
<path d="M46.5 15.3C48.7091 15.3 50.5 13.5092 50.5 11.3C50.5 9.09091 48.7091 7.30005 46.5 7.30005C44.2909 7.30005 42.5 9.09091 42.5 11.3C42.5 13.5092 44.2909 15.3 46.5 15.3Z" fill="#6F4A38"/>
<path d="M46.5 16.8C43.5 16.8 41 14.3 41 11.3C41 8.30005 43.5 5.80005 46.5 5.80005C49.5 5.80005 52 8.20005 52 11.3C52 14.4 49.5 16.8 46.5 16.8ZM46.5 8.80005C45.1 8.80005 44 9.90005 44 11.3C44 12.7 45.1 13.8 46.5 13.8C47.9 13.8 49 12.7 49 11.3C49 9.90005 47.9 8.80005 46.5 8.80005Z" fill="#301F00"/>
</svg>
