<svg width="128" height="128" viewBox="0 0 128 128" fill="none" xmlns="http://www.w3.org/2000/svg">
<path d="M30.0999 61.1002C29.0999 59.4002 26.7999 58.8002 25.0999 59.8002C23.3999 60.8002 22.7999 63.1002 23.7999 64.8002C23.9999 65.1002 24.0999 65.3002 24.2999 65.5002C25.3999 66.7002 27.2999 67.0002 28.7999 66.1002C30.4999 65.1002 31.0999 62.8002 30.0999 61.1002Z" fill="#FFD4C5"/>
<path d="M26.8998 68.1002C25.4998 68.1002 24.1998 67.6002 23.1998 66.5002C22.8998 66.2002 22.6998 65.9002 22.3998 65.5002C20.9998 63.0002 21.7998 59.9002 24.2998 58.4002C25.4998 57.7002 26.8998 57.5002 28.1998 57.9002C29.4998 58.2002 30.5998 59.1002 31.2998 60.3002C31.9998 61.5002 32.1998 62.9002 31.7998 64.2002C31.4998 65.5002 30.5998 66.6002 29.3998 67.3002C28.6998 67.9002 27.7998 68.1002 26.8998 68.1002ZM26.8998 60.8002C26.4998 60.8002 26.1998 60.9002 25.7998 61.1002C24.7998 61.7002 24.3998 63.0002 24.9998 64.0002C25.0998 64.1002 25.1998 64.3002 25.2998 64.4002C25.9998 65.1002 27.0998 65.3002 27.8998 64.7002C28.3998 64.4002 28.7998 63.9002 28.8998 63.4002C28.9998 62.8002 28.9998 62.3002 28.6998 61.8002C28.3998 61.3002 27.8998 60.9002 27.3998 60.8002C27.2998 60.8002 27.0998 60.8002 26.8998 60.8002Z" fill="#301F00"/>
<path d="M26.5 51.8002C25.8 51.1002 24.9 50.7002 23.9 50.7002C22.9 50.7002 21.9999 51.1002 21.2999 51.7002C20.5999 52.4002 20.2 53.3002 20.2 54.3002C20.2 55.3002 20.6 56.2002 21.2 56.9002C21.9 57.6002 22.7999 58.0002 23.7999 58.0002C24.7999 58.0002 25.7 57.6002 26.4 57.0002C27.1 56.3002 27.5 55.4002 27.5 54.4002C27.6 53.4002 27.2 52.5002 26.5 51.8002Z" fill="#FFD4C5"/>
<path d="M23.9 59.5001C22.5 59.5001 21.2 58.9001 20.2 57.9001C19.3 56.9001 18.7 55.6001 18.7 54.2001C18.7 52.9001 19.2999 51.5001 20.2999 50.6001C21.2999 49.7001 22.6 49.2001 24 49.1001C25.3 49.1001 26.7 49.7001 27.6 50.7001C28.5 51.7001 29.1 53.0001 29.1 54.4001C29.1 55.8001 28.5 57.1001 27.5 58.0001C26.6 59.0001 25.3 59.5001 23.9 59.5001ZM23.9 52.2001C23.3 52.2001 22.8 52.4001 22.4 52.8001C22 53.2001 21.7999 53.7001 21.7999 54.3001C21.7999 54.9001 22 55.4001 22.4 55.8001C22.8 56.2001 23.3 56.4001 23.9 56.4001C24.5 56.4001 25 56.2001 25.4 55.8001C25.8 55.4001 26 54.9001 26 54.3001C26 53.7001 25.8 53.2001 25.4 52.8001C25.1 52.4001 24.5 52.2001 23.9 52.2001Z" fill="#301F00"/>
<path d="M57.1 59.4C59.9 58.8 62.7 58.8 65.1 59.4C67.5 60 69.4001 61.3 70.3001 63.2C71.2001 65.1 70.7001 67.5 68.9001 69.7C67.1001 71.8 64.2001 73.8 60.4001 74.6C59.5001 74.8 58 75.1 56 75.2C54.1 75.4 51.7 75.5 49 75.3C46.3 75.1 43.3 74.6 40.3 73.6C37.3 72.6 34.2001 70.9 31.7001 68.7C29.2001 66.6 27.3001 63.9 26.1 61.4C25.4 60.2 25.1001 58.9 24.7001 57.7C24.4001 56.5 24.2 55.4 24 54.4C23.9 53.4 23.9 52.4 23.8 51.6C23.8 50.8 23.9 50.1 24 49.5C24.2 48.3 24.6 47.6 25.1 47.5C25.6 47.4 26.3 47.9 27 48.7C27.4 49.1 27.7001 49.7 28.2001 50.3C28.6001 50.9 29.1 51.5 29.6 52.2C31.6 55 34.5 58.1 38 59.6C39.7 60.4 41.6 60.8 43.5 61C45.4 61.2 47.3 61.1 49.1 60.9C50.9 60.7 52.6001 60.4 53.9001 60.1C55.3001 59.8 56.4 59.6 57.1 59.4Z" fill="#FF9797"/>
<path d="M68.9001 66.8C67.1001 68.9 64.2001 70.9 60.4001 71.7C59.5001 71.9 58 72.2 56 72.3C54.1 72.5 51.7 72.6 49 72.4C46.3 72.2 43.3 71.7 40.3 70.7C37.3 69.7 34.2001 68 31.7001 65.8C29.2001 63.7 27.3001 61 26.1 58.5C25.4 57.3 25.1001 56 24.7001 54.8C24.4001 53.6 24.2 52.5 24 51.5C24 51.1 23.9 50.8 23.9 50.5C23.9 50.9 23.8 51.3 23.8 51.7C23.8 52.5 23.9 53.4 24 54.5C24.2 55.5 24.4001 56.6 24.7001 57.8C25.1001 59 25.5 60.2 26.1 61.5C27.3001 64 29.2001 66.7 31.7001 68.8C34.2001 71 37.3 72.6 40.3 73.7C43.3 74.7 46.4 75.2 49 75.4C51.7 75.6 54.1 75.5 56 75.3C57.9 75.1 59.4001 74.9 60.4001 74.7C64.1001 73.9 67.1001 72 68.9001 69.8C70.5001 67.9 71.1 65.7 70.5 63.9C70.2 64.8 69.7001 65.8 68.9001 66.8Z" fill="#FF8484"/>
<path d="M70.3001 63.2001C69.4001 61.3001 67.5 60.0001 65.1 59.4001C62.7 58.8001 59.9 58.8001 57.1 59.4001C56.4 59.6001 55.3001 59.8001 53.9001 60.1001C52.5001 60.4001 50.8 60.7001 49.1 60.9001C47.3 61.1001 45.4 61.2001 43.5 61.0001C41.6 60.8001 39.7 60.4001 38 59.6001C34.5 58.1001 31.7 55.0001 29.6 52.2001C29.1 51.5001 28.7001 50.8001 28.2001 50.3001C27.7001 49.7001 27.4 49.2001 27 48.7001C26.3 47.8001 25.6 47.4001 25.1 47.5001C24.6 47.6001 24.2 48.3001 24 49.5001C23.9 50.1001 23.8 50.8001 23.8 51.6001C23.8 52.0001 23.8 52.3001 23.8 52.7001C24.2 52.8001 24.7001 53.3001 25.2001 53.9001C25.6001 54.3001 25.9 54.9001 26.4 55.5001C26.8 56.1001 27.3 56.7001 27.8 57.4001C29.8 60.2001 32.7001 63.3001 36.2001 64.8001C37.9001 65.6001 39.8001 66.0001 41.7001 66.2001C43.6001 66.4001 45.5 66.3001 47.3 66.1001C49.1 65.9001 50.8 65.6001 52.1 65.3001C53.5 65.0001 54.6 64.7001 55.3 64.6001C58.1 64.0001 60.9 64.0001 63.3 64.6001C65.7 65.2001 67.6 66.5001 68.5 68.4001C68.7 68.8001 68.8001 69.3001 68.9001 69.8001C70.7001 67.6001 71.2001 65.2001 70.3001 63.2001Z" fill="#FFAAAA"/>
<path d="M52.2 76.9C51.1 76.9 50 76.9 48.9 76.8C45.6 76.6 42.5999 75.9 39.7999 75C36.3999 73.8 33.2 72.1 30.7 69.9C27.6 67.3 25.7 64.2 24.7 62.1C24.1 61 23.7 59.8 23.4 58.8L23.2 58.3C22.9 57.2 22.7 56.1 22.5 55.2L22.4 54.8V54.7C22.3 53.7 22.3 52.7 22.2 51.8C22.2 50.9 22.3 50.1 22.4 49.5C22.6 48.7 23 46.6 24.7 46.3C26.1 46 27.3 47.2 28 48C28.2 48.2 28.5 48.6 28.7 48.9C28.9 49.1 29 49.3 29.2 49.6C29.6 50.2 30.1 50.9 30.6 51.6C33.1 55 35.6999 57.4 38.2999 58.5C39.7999 59.2 41.4999 59.6 43.2999 59.8C44.8999 60 46.6999 59.9 48.5999 59.7C50.0999 59.5 51.5999 59.3 53.2999 58.9C54.1999 58.7 54.9 58.5 55.5 58.4C55.9 58.3 56.2 58.2 56.5 58.2C59.6 57.5 62.5999 57.6 65.1999 58.2C68.1999 59 70.3 60.6 71.4 62.8C72.6 65.2 72 68.3 69.8 70.9C67.7 73.5 64.3 75.5 60.5 76.3C59.6 76.5 58 76.8 55.9 77C54.8 76.8 53.5 76.9 52.2 76.9ZM25.4 54.1L25.5 54.5C25.7 55.4 25.8 56.3 26.1 57.2L26.2999 57.7C26.5999 58.7 26.9 59.7 27.5 60.6C28.4 62.5 29.9999 65.2 32.7999 67.5C35.0999 69.5 37.9 71 40.9 72.1C43.5 73 46.2999 73.5 49.2999 73.8C51.4999 74 53.7999 74 56.0999 73.7C58.0999 73.5 59.5999 73.2 60.2999 73.1C63.4999 72.4 66.2 70.8 68 68.8C69.4 67.1 69.7999 65.3 69.1999 63.9C68.3999 62.1 66.4 61.3 65 60.9C62.9 60.3 60.3 60.3 57.7 60.9C57.4 61 57.0999 61 56.7999 61.1C56.1999 61.2 55.4 61.4 54.5 61.6C52.7 62 51.1 62.3 49.5 62.4C47.4 62.6 45.3999 62.7 43.5999 62.5C41.4999 62.3 39.5 61.8 37.7 61C34.6 59.7 31.6 57 28.7 53.1C28.2 52.3 27.6999 51.7 27.2999 51.2C27.0999 50.9 26.9 50.7 26.7 50.4C26.5 50.1 26.4 49.9 26.2 49.7C26.1 49.5 25.8999 49.4 25.7999 49.3C25.7999 49.4 25.7 49.6 25.7 49.7C25.6 50.3 25.5 50.9 25.5 51.5C25.3 52.4 25.3 53.2 25.4 54.1Z" fill="#301F00"/>
<path d="M19.6999 75.2998C18.1999 73.5998 15.6999 73.4998 14.0999 74.8998C12.5999 76.1998 12.2999 78.3998 13.3999 79.9998C13.4999 80.1998 13.5999 80.2998 13.7999 80.4998C15.2999 82.1998 17.7999 82.2998 19.3999 80.8998C20.9999 79.4998 21.1999 76.9998 19.6999 75.2998Z" fill="#FFD4C5"/>
<path d="M16.7 83.3998C15.2 83.3998 13.6999 82.7998 12.5999 81.4998C12.3999 81.2998 12.1999 80.9998 12.0999 80.7998C10.5999 78.4998 11.0999 75.4998 13.0999 73.6998C15.3999 71.6998 18.8999 71.8998 20.8999 74.1998C22.8999 76.4998 22.6999 79.9998 20.3999 81.9998C19.2999 82.9998 18 83.3998 16.7 83.3998ZM16.7 75.3998C16.1 75.3998 15.4999 75.5998 15.0999 75.9998C14.1999 76.7998 13.9999 78.1998 14.5999 79.1998C14.6999 79.2998 14.6999 79.3998 14.7999 79.4998C15.6999 80.4998 17.2999 80.5998 18.2999 79.6998C19.2999 78.7998 19.3999 77.1998 18.4999 76.1998C18.0999 75.6998 17.4 75.3998 16.7 75.3998Z" fill="#301F00"/>
<path d="M15.6 68.0999C14.9 65.9999 12.6 64.8999 10.5 65.5999C8.40002 66.2999 7.30002 68.5999 8.00002 70.6999C8.10002 70.9999 8.20002 71.2999 8.40002 71.5999C9.40002 73.0999 11.3 73.7999 13 73.2999C15.1 72.3999 16.3 70.1999 15.6 68.0999Z" fill="#FFD4C5"/>
<path d="M11.7001 74.7999C9.90011 74.7999 8.10011 73.8999 7.10011 72.1999C6.90011 71.7999 6.70011 71.3999 6.50011 70.9999C5.50011 68.0999 7.10011 64.9999 10.0001 63.9999C12.9001 62.9999 16.0001 64.5999 17.0001 67.4999C17.5001 68.8999 17.4001 70.3999 16.7001 71.6999C16.0001 72.9999 14.9001 73.9999 13.5001 74.4999C12.9001 74.6999 12.3001 74.7999 11.7001 74.7999ZM11.8001 66.7999C11.5001 66.7999 11.3001 66.7999 11.0001 66.8999C9.70011 67.2999 9.00011 68.7999 9.40011 70.0999C9.50011 70.2999 9.60011 70.4999 9.70011 70.6999C10.3001 71.6999 11.5001 72.0999 12.6001 71.6999C13.2001 71.4999 13.7001 70.9999 14.0001 70.3999C14.3001 69.7999 14.3001 69.0999 14.1001 68.4999C13.8001 67.4999 12.8001 66.7999 11.8001 66.7999Z" fill="#301F00"/>
<path d="M26.4 80.7C24.5 79.6 22 80.3 20.9 82.2C20.1 83.5 20.2 85.1 21 86.3C21.3 86.8 21.8 87.3 22.4 87.6C24.3 88.7 26.8 88 27.9 86.1C29 84.2 28.4 81.8 26.4 80.7Z" fill="#FFD4C5"/>
<path d="M24.5001 89.7C23.6001 89.7 22.7001 89.5 21.8001 89C21.0001 88.5 20.3001 87.9 19.8001 87.1C18.7001 85.4 18.7001 83.2 19.7001 81.5C21.2001 78.9 24.5001 77.9 27.2001 79.4C29.8001 80.9 30.8001 84.3 29.3001 86.9C28.3001 88.6 26.4001 89.7 24.5001 89.7ZM24.5001 81.7C23.6001 81.7 22.8001 82.2 22.3001 83C21.8001 83.8 21.9001 84.8 22.4001 85.6C22.6001 85.9 22.9001 86.2 23.3001 86.4C24.5001 87.1 26.0001 86.6 26.7001 85.4C27.4001 84.2 26.9001 82.7 25.7001 82C25.3001 81.8 24.9001 81.7 24.5001 81.7Z" fill="#301F00"/>
<path d="M34.8 84C32.7 83.4 30.5 84.7 29.9 86.8C29.6 87.9 29.8 89.1 30.4 90C30.9 90.8 31.7 91.5 32.8 91.7C34.9 92.3 37.1 91 37.7 88.9C38.2 86.7 36.9 84.6 34.8 84Z" fill="#FFD4C5"/>
<path d="M33.8001 93.4C33.3001 93.4 32.8001 93.3 32.4001 93.2C31.1001 92.8 29.9001 92.0001 29.2001 90.8001C28.4001 89.5001 28.1001 87.9 28.5001 86.4C29.3001 83.5 32.3001 81.7 35.2001 82.5C38.1001 83.3 39.9001 86.3 39.1001 89.2C38.7001 90.6 37.8001 91.8 36.5001 92.5C35.7001 93.1 34.7001 93.4 33.8001 93.4ZM33.8001 85.4C32.7001 85.4 31.7001 86.1001 31.4001 87.3001C31.2001 88.0001 31.3001 88.7001 31.7001 89.3001C32.0001 89.8001 32.6001 90.2 33.2001 90.4C33.9001 90.6 34.5001 90.5 35.1001 90.1C35.7001 89.8 36.1001 89.2 36.3001 88.6C36.7001 87.3 35.9001 85.9 34.5001 85.5C34.2001 85.4 34.0001 85.4 33.8001 85.4Z" fill="#301F00"/>
<path d="M13.9001 57.3C13.3001 56.4 12.4001 55.8 11.4001 55.5C10.4001 55.3 9.30008 55.5 8.40008 56C7.50008 56.6 6.90008 57.5 6.60008 58.5C6.40008 59.5 6.60008 60.6 7.10008 61.5C7.70008 62.4 8.60008 63 9.60008 63.3C10.6001 63.5 11.7001 63.3 12.6001 62.8C13.5001 62.2 14.1001 61.3 14.4001 60.3C14.6001 59.3 14.4001 58.2 13.9001 57.3Z" fill="#FFD4C5"/>
<path d="M10.5 64.8999C10.1 64.8999 9.70004 64.8999 9.30004 64.7999C7.90004 64.4999 6.60004 63.5999 5.90004 62.3999C5.10004 61.1999 4.90004 59.6999 5.20004 58.1999C5.50004 56.7999 6.40004 55.4999 7.60004 54.7999C8.80004 53.9999 10.3 53.7999 11.7 54.0999C13.1 54.3999 14.4 55.2999 15.1 56.4999C15.9 57.6999 16.1 59.1999 15.8 60.6999C15.5 62.0999 14.6 63.3999 13.4 64.0999C12.6 64.5999 11.5 64.8999 10.5 64.8999ZM10.5 56.8999C10 56.8999 9.60004 56.9999 9.20004 57.2999C8.60004 57.6999 8.20004 58.1999 8.10004 58.8999C8.00004 59.5999 8.10004 60.1999 8.40004 60.7999C8.80004 61.3999 9.30004 61.7999 10 61.8999C10.6 61.9999 11.3 61.8999 11.9 61.5999C12.5 61.1999 12.9 60.6999 13 59.9999C13.1 59.3999 13 58.6999 12.7 58.0999C12.3 57.4999 11.8 57.0999 11.1 56.9999C10.9 56.9999 10.7 56.8999 10.5 56.8999Z" fill="#301F00"/>
<path d="M44.8999 72.4001C48.0999 72.4001 51.0999 73.0001 53.3999 74.2001C55.7999 75.4001 57.5999 77.2001 58.0999 79.5001C58.6999 81.8001 57.4999 84.2001 55.0999 86.2001C52.6999 88.1001 49.0999 89.5001 44.8999 89.5001C43.8999 89.5001 42.1999 89.4001 40.0999 89.2001C37.9999 89.0001 35.3999 88.5001 32.5999 87.7001C29.7999 86.9001 26.6999 85.7001 23.5999 83.9001C20.5999 82.1001 17.6999 79.6001 15.4999 76.7001C13.2999 73.8001 11.8999 70.5001 11.0999 67.6001C10.6999 66.1001 10.5999 64.7001 10.3999 63.3001C10.2999 62.0001 10.3999 60.7001 10.3999 59.6001C10.4999 58.5001 10.6999 57.5001 10.8999 56.6001C11.0999 55.7001 11.3999 55.0001 11.5999 54.4001C12.0999 53.2001 12.6999 52.6001 13.2999 52.6001C13.8999 52.6001 14.4999 53.3001 15.0999 54.4001C15.3999 54.9001 15.5999 55.6001 15.9999 56.3001C16.2999 57.0001 16.6999 57.8001 16.9999 58.7001C18.4999 62.1001 20.8999 66.2001 24.2999 68.5001C25.9999 69.7001 27.8999 70.6001 29.8999 71.2001C31.8999 71.8001 33.9999 72.2001 35.9999 72.4001C37.9999 72.6001 39.7999 72.6001 41.3999 72.6001C42.8999 72.4001 44.0999 72.4001 44.8999 72.4001Z" fill="#FF9797"/>
<path d="M44.8999 72.4001C48.0999 72.4001 51.0999 73.0001 53.3999 74.2001C55.7999 75.4001 57.5999 77.2001 58.0999 79.5001C58.6999 81.8001 57.4999 84.2001 55.0999 86.2001C52.6999 88.1001 49.0999 89.5001 44.8999 89.5001C43.8999 89.5001 42.1999 89.4001 40.0999 89.2001C37.9999 89.0001 35.3999 88.5001 32.5999 87.7001C29.7999 86.9001 26.6999 85.7001 23.5999 83.9001C20.5999 82.1001 17.6999 79.6001 15.4999 76.7001C13.2999 73.8001 11.8999 70.5001 11.0999 67.6001C10.6999 66.1001 10.5999 64.7001 10.3999 63.3001C10.2999 62.0001 10.3999 60.7001 10.3999 59.6001C10.4999 58.5001 10.6999 57.5001 10.8999 56.6001C11.0999 55.7001 11.3999 55.0001 11.5999 54.4001C12.0999 53.2001 12.6999 52.6001 13.2999 52.6001C13.8999 52.6001 14.4999 53.3001 15.0999 54.4001C15.3999 54.9001 15.5999 55.6001 15.9999 56.3001C16.2999 57.0001 16.6999 57.8001 16.9999 58.7001C18.4999 62.1001 20.8999 66.2001 24.2999 68.5001C25.9999 69.7001 27.8999 70.6001 29.8999 71.2001C31.8999 71.8001 33.9999 72.2001 35.9999 72.4001C37.9999 72.6001 39.7999 72.6001 41.3999 72.6001C42.8999 72.4001 44.0999 72.4001 44.8999 72.4001Z" fill="#FF9797"/>
<path d="M57.7 78.2C57.2 79.3 56.3 80.3 55.2 81.3C52.8 83.2 49.2 84.6 45 84.6C44 84.6 42.3 84.5 40.2 84.3C38.1 84.1 35.5 83.6 32.7 82.8C29.9 82 26.8 80.8 23.7 79C20.7 77.2 17.8 74.7 15.6 71.8C13.4 68.9 12 65.6 11.2 62.7C10.8 61.4 10.7 60.2 10.6 59C10.6 59.2 10.5 59.3 10.5 59.5C10.5 60.6 10.4 61.9 10.5 63.2C10.7 64.5 10.8 66 11.2 67.5C11.9 70.5 13.3 73.8 15.6 76.6C17.8 79.5 20.7 82 23.7 83.8C26.7 85.6 29.8 86.8 32.7 87.6C35.5 88.4 38.1 88.9 40.2 89.1C42.3 89.4 44 89.4 45 89.4C49.2 89.4 52.8 88 55.2 86.1C57.6 84.2 58.7 81.7 58.2 79.4C58.1 79 57.9 78.6 57.7 78.2Z" fill="#FF8484"/>
<path d="M58.2 79.5C57.6 77.2 55.9 75.4 53.5 74.2C51.1 73 48.1 72.4 45 72.4C44.2 72.4 43 72.5 41.4 72.5C39.8 72.5 38 72.5 36 72.3C34 72.1 31.9 71.7 29.9 71.1C27.9 70.5 26 69.6 24.3 68.4C20.9 66 18.6 62 17 58.6C16.7 57.7 16.3 56.9 16 56.2C15.6 55.5 15.4 54.8 15.1 54.3C14.5 53.2 13.9 52.6 13.3 52.5C12.7 52.5 12.2 53.1 11.6 54.3C11.4 54.9 11 55.6 10.9 56.5C10.8 56.8 10.8 57.2 10.7 57.6C10.7 57.6 10.7 57.6 10.8 57.6C11.4 57.6 12 58.3 12.6 59.4C12.9 59.9 13.1 60.6 13.5 61.3C13.8 62 14.2 62.8 14.5 63.7C16 67.1 18.4 71.2 21.8 73.5C23.5 74.7 25.4 75.6 27.4 76.2C29.4 76.8 31.5 77.2 33.5 77.4C35.5 77.6 37.3 77.6 38.9 77.6C40.4 77.6 41.7 77.5 42.5 77.5C45.7 77.5 48.7 78.1 51 79.3C53.4 80.5 55.2 82.3 55.7 84.6C55.8 84.9 55.7999 85.3 55.7999 85.6C57.7999 83.8 58.7 81.6 58.2 79.5Z" fill="#FFAAAA"/>
<path d="M44.9 90.9C43.9 90.9 42.2 90.8 40 90.6C37.4 90.3 34.7 89.8 32.2 89C28.8 88 25.6 86.7 22.9 85C19.5 83 16.6 80.4 14.4 77.5C11.7 74 10.4 70.3 9.80001 67.8C9.40001 66.5 9.30001 65.1 9.10001 64L9.00001 63.3C8.90001 62 9.00001 60.9 9.00001 59.9V59.4V59.3C9.10001 58.2 9.30001 57.1 9.50001 56.2C9.70001 55.2 10 54.4 10.3 53.8V53.7C10.6 53 11.5 51 13.3 51C14.8 51 15.8 52.5 16.4 53.5C16.6 53.8 16.8 54.2 16.9 54.6C17 54.9 17.1 55.1 17.3 55.4C17.6 56.1 18 56.9 18.4 57.9C20.3 62.2 22.6 65.3 25.1 67.1C26.6 68.2 28.3 69 30.3 69.6C32 70.1 33.9 70.5 36.1 70.7C37.7 70.9 39.4 70.9 41.3 70.9C42.2 70.9 43.1 70.9 43.7 70.9C44.2 70.9 44.5 70.9 44.9 70.9C44.9 70.9 44.9 70.9 45 70.9C48.4 70.9 51.6 71.6 54.2 72.9C57.2 74.4 59.1 76.6 59.7 79.1C60.4 81.9 59.1 85 56.2 87.3C53.4 89.6 49.3 90.9 45.1 90.9C45 90.9 44.9 90.9 44.9 90.9ZM12 59.5V59.9C12 60.9 11.9 61.9 12 63L12.1 63.5C12.2 64.6 12.4 65.8 12.7 66.9C13.3 69.2 14.4 72.4 16.8 75.5C18.8 78.1 21.5 80.5 24.5 82.3C27.1 83.8 30 85.1 33.1 86C35.5 86.7 37.9 87.2 40.4 87.5C42.5 87.8 44.1 87.8 45 87.8C48.6 87.8 51.9 86.7 54.3 84.8C56.2 83.3 57.1 81.3 56.7 79.7C56.2 77.5 54.3 76.2 52.8 75.4C50.7 74.3 47.9 73.7 45 73.7C45 73.7 45 73.7 44.9 73.7C44.6 73.7 44.2 73.7 43.8 73.7C43.1 73.7 42.3 73.7 41.3 73.7C39.3 73.7 37.5 73.6 35.8 73.5C33.5 73.3 31.3 72.8 29.5 72.2C27.3 71.5 25.3 70.5 23.5 69.3C20.5 67.2 17.9 63.7 15.7 58.9C15.3 57.9 15 57.2 14.7 56.5C14.5 56.2 14.4 55.9 14.3 55.5C14.2 55.2 14 54.9 13.9 54.6C13.7 54.3 13.6 54.1 13.5 53.9C13.4 54.1 13.3 54.3 13.2 54.6C13 55.2 12.7 55.8 12.6 56.5C12.3 57.6 12.1 58.5 12 59.5Z" fill="#301F00"/>
<path d="M33.5001 105.5C31.3001 105.9 29.7001 108 30.1001 110.2C30.4001 112.2 32.2001 113.7 34.2001 113.7C34.4001 113.7 34.6001 113.7 34.9001 113.6C37.1001 113.2 38.7001 111.1 38.3001 108.9C37.8001 106.7 35.7001 105.1 33.5001 105.5Z" fill="#FFD4C5"/>
<path d="M34.1001 115.2C31.3001 115.2 29.0001 113.2 28.5001 110.4C28.0001 107.3 30.1001 104.4 33.2001 104C36.3001 103.5 39.2001 105.6 39.6001 108.7C40.1001 111.8 38.0001 114.7 34.9001 115.1C34.7001 115.2 34.4001 115.2 34.1001 115.2ZM33.7001 107C32.3001 107.2 31.3001 108.6 31.5001 110C31.7001 111.4 33.0001 112.4 34.5001 112.2C35.9001 112 36.9001 110.6 36.7001 109.2C36.5001 107.7 35.1001 106.7 33.7001 107Z" fill="#301F00"/>
<path d="M24.9001 105.1C22.7001 104.5 20.4001 105.9 19.9001 108.1C19.3001 110.3 20.7001 112.6 22.9001 113.1C23.2001 113.2 23.6001 113.2 23.9001 113.2C25.8001 113.2 27.4001 111.9 27.9001 110.1C28.4001 107.9 27.1001 105.7 24.9001 105.1Z" fill="#FFD4C5"/>
<path d="M23.9002 114.8C23.4002 114.8 23.0002 114.7 22.5002 114.6C19.5002 113.8 17.6002 110.8 18.4002 107.8C19.2002 104.8 22.2002 103 25.2002 103.7C28.2002 104.5 30.1002 107.5 29.3002 110.5C28.7002 113 26.5002 114.8 23.9002 114.8ZM23.9002 106.5C22.7002 106.5 21.6002 107.3 21.3002 108.5C21.0002 109.9 21.8002 111.3 23.2002 111.7C23.4002 111.7 23.6002 111.8 23.8002 111.8C25.0002 111.8 26.1002 111 26.3002 109.8C26.7002 108.4 25.8002 107 24.4002 106.6C24.3002 106.5 24.1002 106.5 23.9002 106.5Z" fill="#301F00"/>
<path d="M41.9 102.6C39.9 103.7 39.1 106.2 40.2 108.2C40.9 109.6 42.4 110.4 43.8 110.4C44.5 110.4 45.1 110.2 45.8 109.9C47.8 108.8 48.6 106.3 47.5 104.3C46.4 102.2 43.9 101.5 41.9 102.6Z" fill="#FFD4C5"/>
<path d="M43.8 111.8C41.7 111.8 39.8 110.7 38.8 108.8C37.3 106.1 38.4 102.7 41.1 101.2C43.8 99.7 47.3001 100.8 48.7001 103.5C50.2001 106.2 49.1001 109.7 46.4001 111.1C45.6001 111.6 44.7 111.8 43.8 111.8ZM42.6 103.9C41.3 104.6 40.9001 106.2 41.5001 107.5C42.2001 108.7 43.8 109.3 45.1 108.6C46.4 107.9 46.8001 106.3 46.2001 105C45.4001 103.7 43.8 103.2 42.6 103.9Z" fill="#301F00"/>
<path d="M61.3002 88.9999C59.4002 87.6999 56.8002 88.1999 55.6002 89.9999C54.3002 91.8999 54.8002 94.4999 56.7002 95.6999C57.4002 96.1999 58.2002 96.3999 59.0002 96.3999C60.3002 96.3999 61.6002 95.7999 62.4002 94.5999C63.6002 92.8999 63.1002 90.2999 61.3002 88.9999Z" fill="#FFD4C5"/>
<path d="M58.9001 97.9999C57.8001 97.9999 56.7001 97.6999 55.7001 96.9999C54.5001 96.1999 53.6001 94.8999 53.4001 93.3999C53.1001 91.8999 53.4001 90.3999 54.3001 89.1999C55.2001 87.9999 56.4001 87.0999 57.9001 86.8999C59.4001 86.5999 60.9001 86.9999 62.1001 87.7999C64.7001 89.5999 65.3001 93.0999 63.5001 95.5999C62.5001 97.0999 60.7001 97.9999 58.9001 97.9999ZM58.9001 89.7999C58.7001 89.7999 58.6001 89.7999 58.4001 89.7999C57.7001 89.8999 57.1001 90.2999 56.7001 90.8999C56.3001 91.4999 56.2001 92.1999 56.3001 92.8999C56.4001 93.5999 56.8001 94.1999 57.4001 94.5999C58.6001 95.3999 60.3001 95.0999 61.1001 93.8999C61.9001 92.6999 61.6001 91.0999 60.4001 90.1999C60.0001 89.8999 59.4001 89.7999 58.9001 89.7999Z" fill="#301F00"/>
<path d="M49.3 97.0999C47.6 98.6999 47.5 101.3 49.1 102.9C49.9 103.8 51 104.2 52.1 104.2C53.1 104.2 54.1 103.8 54.9 103.1C56.6 101.5 56.7 98.8999 55.1 97.2999C53.6 95.6999 51 95.5999 49.3 97.0999Z" fill="#FFD4C5"/>
<path d="M52.2001 105.8C50.6001 105.8 49.1001 105.1 48.1001 104C46.0001 101.7 46.1001 98.2 48.4001 96C50.7001 93.9 54.2001 94 56.4001 96.3C57.4001 97.4 58.0001 98.8 57.9001 100.3C57.8001 101.8 57.2001 103.2 56.1001 104.2C54.9001 105.3 53.6001 105.8 52.2001 105.8ZM50.4001 98.2C49.3001 99.2 49.3001 100.9 50.3001 101.9C51.2001 102.9 53.0001 103 54.0001 102C54.5001 101.5 54.8001 100.9 54.8001 100.2C54.8001 99.5 54.6001 98.8 54.1001 98.3C53.1001 97.3 51.4001 97.2 50.4001 98.2Z" fill="#301F00"/>
<path d="M14.5001 100.7C13.4001 100.7 12.3001 101.1 11.6001 101.9C10.8001 102.7 10.4001 103.7 10.4001 104.8C10.4001 105.9 10.8001 107 11.6001 107.7C12.4001 108.5 13.4001 108.9 14.5001 108.9C15.6001 108.9 16.6001 108.5 17.4001 107.7C18.2001 106.9 18.6001 105.9 18.6001 104.8C18.6001 103.7 18.2001 102.7 17.4001 101.9C16.7001 101.1 15.6001 100.7 14.5001 100.7Z" fill="#FFD4C5"/>
<path d="M14.5001 110.4C13.0001 110.4 11.6001 109.8 10.5001 108.7C9.50015 107.7 8.90015 106.2 8.90015 104.7C8.90015 103.2 9.50015 101.8 10.6001 100.7C11.6001 99.7 13.1001 99 14.6001 99C16.1001 99 17.5001 99.6 18.6001 100.7C19.6001 101.7 20.3001 103.2 20.3001 104.7C20.3001 106.2 19.7001 107.6 18.6001 108.7C17.5001 109.8 16.0001 110.4 14.5001 110.4ZM14.5001 102.2C13.8001 102.2 13.1001 102.5 12.6001 103C12.1001 103.5 11.8001 104.2 11.8001 104.9C11.8001 105.6 12.1001 106.3 12.6001 106.8C13.6001 107.8 15.3001 107.8 16.3001 106.8C16.8001 106.3 17.1001 105.6 17.1001 104.9C17.1001 104.2 16.8001 103.5 16.3001 103C15.9001 102.4 15.2001 102.2 14.5001 102.2Z" fill="#301F00"/>
<path d="M44.8001 81.9C46.5001 79.1 48.7001 76.9 51.1001 75.5C53.5001 74.1 56.0001 73.5 58.3001 74.3C60.6001 75.1 62.1001 77.4 62.5001 80.5C62.9001 83.6 62.0001 87.5 59.7001 91.2C59.1001 92.1 58.2001 93.5 56.8001 95.2C55.4001 96.9 53.6001 98.9 51.3001 100.9C49.0001 102.9 46.2001 105 43.0001 106.6C39.8001 108.2 36.0001 109.4 32.3001 109.7C28.6001 110.1 24.9001 109.5 21.9001 108.5C20.4001 108.1 19.0001 107.4 17.8001 106.8C16.6001 106.1 15.5001 105.4 14.6001 104.8C13.7001 104.1 12.9001 103.4 12.2001 102.7C11.5001 102.1 11.1001 101.4 10.7001 100.8C9.90009 99.7 9.70009 98.8 10.0001 98.3C10.3001 97.8 11.2001 97.6 12.5001 97.7C13.1001 97.7 13.8001 97.9 14.7001 98C15.5001 98.1 16.4001 98.2 17.4001 98.4C21.2001 98.9 26.1001 99.1 30.0001 97.5C32.0001 96.7 33.8001 95.6 35.4001 94.2C37.0001 92.8 38.5001 91.2 39.8001 89.6C41.1001 88 42.1001 86.4 43.0001 85C43.7001 83.7 44.4001 82.6 44.8001 81.9Z" fill="#FF9797"/>
<path d="M62.5001 80.5C62.1001 77.4 60.6001 75 58.3001 74.3C56.8001 73.8 55.3001 73.9 53.7001 74.3C56.0001 75.1 57.5001 77.4 57.8001 80.5C58.2001 83.6 57.3001 87.5 55.0001 91.2C54.4001 92.1 53.5001 93.5 52.1001 95.2C50.7001 96.9 48.9001 98.9 46.6001 100.9C44.3001 102.9 41.5001 105 38.3001 106.6C35.1001 108.2 31.4001 109.4 27.6001 109.7C29.1001 109.8 30.6001 109.9 32.2001 109.7C35.9001 109.4 39.7001 108.2 42.9001 106.6C46.2001 105 48.9001 102.9 51.2001 100.9C53.5001 98.9 55.3001 96.9 56.7001 95.2C58.1001 93.5 59.1001 92.1 59.6001 91.2C62.0001 87.5 62.8001 83.6 62.5001 80.5Z" fill="#FF8484"/>
<path d="M14.8001 103.5C15.4001 103.5 16.1001 103.7 17.0001 103.8C17.8001 103.9 18.7001 104 19.7001 104.2C23.5001 104.7 28.4001 104.9 32.3001 103.3C34.3001 102.5 36.1001 101.4 37.7001 100C39.3001 98.6 40.8001 97 42.1001 95.4C43.4001 93.8 44.4001 92.2 45.3001 90.8C46.2001 89.4 46.8001 88.3 47.2001 87.6C48.9001 84.8 51.1001 82.6 53.5001 81.2C55.9001 79.8 58.4001 79.2 60.7001 80C61.4001 80.2 62.0001 80.6 62.6001 81.1C62.6001 80.9 62.6001 80.7 62.6001 80.5C62.2001 77.4 60.7001 75 58.4001 74.3C56.1001 73.5 53.6001 74.1 51.2001 75.5C48.8001 76.9 46.6001 79.2 44.9001 81.9C44.5001 82.6 43.8001 83.7 43.0001 85.1C42.2001 86.5 41.1001 88.1 39.8001 89.7C38.5001 91.3 37.1001 92.9 35.4001 94.3C33.8001 95.7 31.9001 96.8 30.0001 97.6C26.1001 99.3 21.3001 99.1 17.4001 98.5C16.5001 98.3 15.6001 98.2 14.7001 98.1C13.9001 98 13.2001 97.8 12.5001 97.8C11.2001 97.7 10.3001 97.9 10.0001 98.4C9.70009 98.9 9.90009 99.7 10.7001 100.9C11.1001 101.4 11.6001 102.1 12.2001 102.8C12.5001 103.1 12.8001 103.4 13.2001 103.7C13.6001 103.5 14.1001 103.4 14.8001 103.5Z" fill="#FFAAAA"/>
<path d="M30.0001 111.4C26.5001 111.4 23.5001 110.7 21.5001 110C20.1001 109.6 18.9001 109 17.8001 108.5L17.2001 108.2C16.0001 107.6 15.1001 106.9 14.2001 106.3L13.8001 106L13.7001 105.9C12.8001 105.2 12.0001 104.5 11.2001 103.8C10.5001 103.1 9.90009 102.4 9.50009 101.8L9.40009 101.7C9.00009 101.1 7.70009 99.1 8.70009 97.6C9.60009 96.3 11.3001 96.3 12.6001 96.4C13.0001 96.4 13.4001 96.5 13.9001 96.6C14.2001 96.6 14.5001 96.7 14.8001 96.7C15.6001 96.8 16.5001 96.9 17.6001 97.1C22.4001 97.8 26.4001 97.5 29.3001 96.3C31.1001 95.6 32.8001 94.5 34.4001 93.2C35.8001 92 37.2001 90.5 38.6001 88.8C39.6001 87.5 40.6001 86 41.7001 84.4C42.2001 83.6 42.7001 82.8 43.0001 82.2C43.2001 81.8 43.4001 81.5 43.6001 81.2C45.5001 78.2 47.8001 75.8 50.4001 74.3C53.3001 72.5 56.3001 72.1 58.8001 72.9C61.6001 73.9 63.6001 76.7 64.0001 80.4C64.4001 84.1 63.3001 88.4 61.0001 92.1C60.4001 93 59.4001 94.5 58.0001 96.3C56.3001 98.4 54.4001 100.4 52.4001 102.2C49.6001 104.6 46.8001 106.6 43.8001 108.1C40.2001 109.9 36.3001 111.1 32.5001 111.4C31.6001 111.4 30.8001 111.4 30.0001 111.4ZM15.4001 103.6L15.8001 103.8C16.6001 104.4 17.5001 105 18.5001 105.5L19.0001 105.7C20.0001 106.2 21.1001 106.7 22.3001 107.1C24.6001 107.9 28.1001 108.7 32.1001 108.3C35.5001 108 39.0001 107 42.3001 105.3C45.0001 103.9 47.7001 102.1 50.3001 99.8C52.2001 98.1 54.0001 96.3 55.6001 94.3C57.1001 92.5 58.0001 91.1 58.4001 90.4C60.4001 87.3 61.3001 83.7 60.9001 80.7C60.6001 78.1 59.4001 76.3 57.7001 75.7C55.5001 75 53.3001 75.9 51.8001 76.8C49.7001 78.1 47.6001 80.2 46.0001 82.8C45.8001 83.1 45.6001 83.4 45.4001 83.7C45.0001 84.3 44.6001 85.1 44.0001 85.9C42.9001 87.7 41.9001 89.2 40.7001 90.6C39.2001 92.5 37.7001 94.1 36.1001 95.4C34.3001 97 32.3001 98.2 30.2001 99C26.8001 100.4 22.3001 100.8 16.8001 100C15.8001 99.8 14.9001 99.7 14.2001 99.6C13.8001 99.6 13.5001 99.5 13.1001 99.5C12.7001 99.4 12.4001 99.4 12.1001 99.4C11.7001 99.4 11.4001 99.4 11.2001 99.4C11.3001 99.6 11.4001 99.8 11.6001 100.1C12.0001 100.6 12.4001 101.2 12.9001 101.7C13.9001 102.3 14.6001 102.9 15.4001 103.6Z" fill="#301F00"/>
<path d="M98.1 61.0999C99.1 59.3999 101.4 58.7999 103.1 59.7999C104.8 60.7999 105.4 63.1 104.4 64.8C104.2 65.1 104.1 65.2999 103.9 65.4999C102.8 66.6999 100.9 66.9999 99.4 66.0999C97.7 65.0999 97.1 62.7999 98.1 61.0999Z" fill="#FFD4C5"/>
<path d="M101.3 68.1C100.4 68.1 99.5001 67.9 98.7001 67.4C97.5001 66.7 96.7001 65.6 96.3001 64.3C95.9001 63 96.1001 61.6 96.8001 60.4C97.5001 59.2 98.6001 58.4 99.9001 58C101.2 57.6 102.6 57.8 103.8 58.5C106.3 59.9 107.1 63.1 105.7 65.6C105.5 66 105.2 66.3 104.9 66.6C104 67.6 102.6 68.1 101.3 68.1ZM101.3 60.8C101.1 60.8 100.9 60.8 100.7 60.9C100.1 61 99.7001 61.4 99.4001 61.9C99.1001 62.4 99.0001 63 99.2001 63.5C99.3001 64.1 99.7001 64.5 100.2 64.8C101.1 65.3 102.1 65.2 102.8 64.5C102.9 64.4 103 64.2 103.1 64.1C103.7 63.1 103.3 61.8 102.3 61.2C102 60.9 101.6 60.8 101.3 60.8Z" fill="#301F00"/>
<path d="M101.6 51.8002C102.3 51.1002 103.2 50.7002 104.2 50.7002C105.2 50.7002 106.1 51.1002 106.8 51.7002C107.5 52.4002 107.9 53.3002 107.9 54.3002C107.9 55.3002 107.5 56.2002 106.9 56.9002C106.2 57.6002 105.3 58.0002 104.3 58.0002C103.3 58.0002 102.4 57.6002 101.7 57.0002C101 56.3002 100.6 55.4002 100.6 54.4002C100.6 53.4002 101 52.5002 101.6 51.8002Z" fill="#FFD4C5"/>
<path d="M104.2 59.5001C102.9 59.5001 101.6 59.0001 100.6 58.0001C99.6 57.1001 99.1 55.7001 99 54.4001C99 53.0001 99.5 51.7001 100.5 50.7001C101.5 49.7001 102.8 49.2001 104.1 49.1001C105.4 49.1001 106.8 49.6001 107.8 50.6001C108.8 51.6001 109.3 52.9001 109.4 54.2001C109.4 55.5001 108.9 56.9001 107.9 57.9001C107 58.9001 105.7 59.5001 104.2 59.5001C104.3 59.5001 104.3 59.5001 104.2 59.5001ZM102.7 52.8001C102.3 53.2001 102.1 53.8001 102.1 54.3001C102.1 54.8001 102.3 55.4001 102.7 55.8001C103.1 56.2001 103.7 56.4001 104.2 56.4001C104.8 56.4001 105.3 56.2001 105.7 55.8001C106.1 55.4001 106.3 54.8001 106.3 54.3001C106.3 53.7001 106.1 53.2001 105.7 52.8001C105.3 52.4001 104.7 52.2001 104.2 52.2001C103.6 52.2001 103.1 52.4001 102.7 52.8001Z" fill="#301F00"/>
<path d="M71.1 59.4C68.3 58.8 65.5 58.8 63.1 59.4C60.7 60 58.8 61.3 57.9 63.2C57 65.1 57.5 67.5 59.3 69.7C61.1 71.8 64 73.8 67.8 74.6C68.7 74.8 70.2 75.1 72.2 75.2C74.1 75.4 76.5 75.5 79.2 75.3C81.9 75.1 84.9 74.6 87.9 73.6C90.9 72.6 94 70.9 96.5 68.7C99 66.6 100.9 63.9 102.1 61.4C102.8 60.2 103.1 58.9 103.5 57.7C103.8 56.5 104 55.4 104.2 54.4C104.3 53.4 104.3 52.4 104.4 51.6C104.4 50.8 104.3 50.1 104.2 49.5C104 48.3 103.6 47.6 103.1 47.5C102.6 47.4 101.9 47.9 101.2 48.7C100.8 49.1 100.5 49.7 100 50.3C99.6 50.9 99.1 51.5 98.6 52.2C96.6 55 93.7 58.1 90.2 59.6C88.5 60.4 86.6 60.8 84.7 61C82.8 61.2 80.9 61.1 79.1 60.9C77.3 60.7 75.6 60.4 74.3 60.1C72.9 59.8 71.8 59.6 71.1 59.4Z" fill="#FF9797"/>
<path d="M59.5001 66.8C61.3001 68.9 64.2001 70.9 68.0001 71.7C68.9001 71.9 70.4001 72.2 72.4001 72.3C74.3001 72.5 76.7001 72.6 79.4001 72.4C82.1001 72.2 85.1001 71.7 88.1001 70.7C91.1001 69.7 94.2001 68 96.7001 65.8C99.2001 63.7 101.1 61 102.3 58.5C103 57.3 103.3 56 103.7 54.8C104 53.6 104.2 52.5 104.4 51.5C104.4 51.1 104.5 50.8 104.5 50.5C104.5 50.9 104.6 51.3 104.6 51.7C104.6 52.5 104.5 53.4 104.4 54.5C104.2 55.5 104 56.6 103.7 57.8C103.3 59 102.9 60.2 102.3 61.5C101.1 64 99.2001 66.7 96.7001 68.8C94.2001 71 91.1001 72.6 88.1001 73.7C85.1001 74.7 82.0001 75.2 79.4001 75.4C76.7001 75.6 74.3001 75.5 72.4001 75.3C70.5001 75.1 69.0001 74.9 68.0001 74.7C64.3001 73.9 61.3001 72 59.5001 69.8C57.9001 67.9 57.3001 65.7 57.9001 63.9C58.1001 64.8 58.7001 65.8 59.5001 66.8Z" fill="#FF8484"/>
<path d="M57.3999 63.2001C58.2999 61.3001 60.1999 60.0001 62.5999 59.4001C64.9999 58.8001 67.7999 58.8001 70.5999 59.4001C71.2999 59.6001 72.3999 59.8001 73.7999 60.1001C75.1999 60.4001 76.8999 60.7001 78.5999 60.9001C80.3999 61.1001 82.2999 61.2001 84.1999 61.0001C86.0999 60.8001 87.9999 60.4001 89.6999 59.6001C93.1999 58.1001 95.9999 55.0001 98.0999 52.2001C98.5999 51.5001 98.9999 50.8001 99.4999 50.3001C99.9999 49.7001 100.3 49.2001 100.7 48.7001C101.4 47.8001 102.1 47.4001 102.6 47.5001C103.1 47.6001 103.5 48.3001 103.7 49.5001C103.8 50.1001 103.9 50.8001 103.9 51.6001C103.9 52.0001 103.9 52.3001 103.9 52.7001C103.5 52.8001 103 53.3001 102.5 53.9001C102.1 54.3001 101.8 54.9001 101.3 55.5001C100.9 56.1001 100.4 56.7001 99.8999 57.4001C97.8999 60.2001 94.9999 63.3001 91.4999 64.8001C89.7999 65.6001 87.8999 66.0001 85.9999 66.2001C84.0999 66.4001 82.1999 66.3001 80.3999 66.1001C78.5999 65.9001 76.8999 65.6001 75.5999 65.3001C74.1999 65.0001 73.0999 64.7001 72.3999 64.6001C69.5999 64.0001 66.7999 64.0001 64.3999 64.6001C61.9999 65.2001 60.0999 66.5001 59.1999 68.4001C58.9999 68.8001 58.8999 69.3001 58.7999 69.8001C56.9999 67.6001 56.3999 65.2001 57.3999 63.2001Z" fill="#FFAAAA"/>
<path d="M76 76.9C74.7 76.9 73.3 76.8 72 76.7C69.9 76.5 68.4 76.2 67.4 76C63.6 75.2 60.2 73.2 58.1 70.6C56 68 55.4 65 56.5 62.6C57.6 60.4 59.7 58.8 62.7 58C65.3 57.3 68.3 57.3 71.4 58C71.7 58.1 72 58.1 72.4 58.2C73 58.3 73.7 58.5 74.6 58.7C76.3 59.1 77.8 59.3 79.3 59.5C81.2 59.7 83 59.7 84.6 59.6C86.4 59.4 88.1 59 89.6 58.3C92.2 57.2 94.8 54.9 97.4 51.4C97.9 50.7 98.4 50 98.8 49.4C99 49.2 99.1 48.9 99.3 48.7C99.5 48.3 99.8 48 100 47.7C100.4 47.2 101.7 45.7 103.3 46C105.1 46.3 105.5 48.4 105.6 49.1C105.7 49.8 105.9 50.6 105.9 51.6C105.9 52.5 105.8 53.4 105.7 54.5V54.6L105.6 55.1C105.4 56 105.2 57 104.9 58.1L104.7 58.7C104.4 59.7 104 60.9 103.3 62.1C102.3 64.2 100.5 67.2 97.3 69.9C94.8 72.1 91.6 73.9 88.2 75C85.4 76 82.3 76.6 79.1 76.8C78.2 76.9 77.1 76.9 76 76.9ZM66.9 60.4C65.7 60.4 64.5 60.5 63.4 60.8C61.9 61.2 60 62 59.2 63.8C58.5 65.2 59 67 60.4 68.7C62.1 70.8 64.9 72.4 68 73C68.7 73.2 70.1 73.4 72.2 73.6C74.5 73.8 76.8 73.8 79 73.7C82 73.5 84.8 72.9 87.4 72C90.5 71 93.3 69.4 95.5 67.4C98.2 65.1 99.9 62.4 100.8 60.6C101.3 59.6 101.7 58.6 102 57.6L102.2 57.1C102.4 56.2 102.6 55.3 102.8 54.5L102.9 54.1C103 53.2 103 52.3 103 51.5C103 50.8 102.9 50.3 102.8 49.7C102.8 49.5 102.7 49.4 102.7 49.2C102.6 49.3 102.5 49.4 102.4 49.6C102.2 49.8 102 50.1 101.8 50.3C101.6 50.6 101.4 50.8 101.2 51.1C100.8 51.6 100.4 52.2 99.9 53C97 57 94 59.7 90.9 61C89.1 61.8 87.1 62.3 85 62.5C83.2 62.7 81.2 62.6 79.1 62.4C77.5 62.2 75.9 62 74.1 61.6C73.2 61.4 72.5 61.2 71.9 61.1C71.5 61 71.2 60.9 71 60.9C69.5 60.6 68.2 60.4 66.9 60.4Z" fill="#301F00"/>
<path d="M108.4 75.3C109.9 73.6 112.4 73.5 114 74.9C115.5 76.2 115.8 78.4 114.7 80C114.6 80.2 114.5 80.3 114.3 80.5C112.8 82.2 110.3 82.3 108.7 80.9C107.2 79.5 107 77 108.4 75.3Z" fill="#FFD4C5"/>
<path d="M111.5 83.4001C110.2 83.4001 108.9 83.0001 107.9 82.0001C105.6 80.0001 105.4 76.5001 107.4 74.2001C109.4 71.9001 112.9 71.7001 115.2 73.7001C117.2 75.5001 117.7 78.5001 116.2 80.8001C116 81.0001 115.9 81.3001 115.7 81.5001C114.5 82.8001 113 83.4001 111.5 83.4001ZM109.6 76.3001C108.7 77.3001 108.8 78.9001 109.8 79.8001C110.8 80.7001 112.4 80.6001 113.3 79.6001C113.4 79.5001 113.5 79.4001 113.5 79.3001C114.2 78.3001 114 76.9001 113 76.1001C112.1 75.1001 110.5 75.2001 109.6 76.3001Z" fill="#301F00"/>
<path d="M112.6 68.1001C113.3 66.0001 115.6 64.9001 117.7 65.6001C119.8 66.3001 120.9 68.6001 120.2 70.7001C120.1 71.0001 120 71.3001 119.8 71.6001C118.8 73.1001 116.9 73.8001 115.2 73.3001C113.1 72.4001 111.9 70.2001 112.6 68.1001Z" fill="#FFD4C5"/>
<path d="M116.4 74.8001C115.8 74.8001 115.2 74.7001 114.7 74.5001C113.3 74.0001 112.2 73.1001 111.5 71.7001C110.8 70.4001 110.7 68.9001 111.2 67.5001C112.2 64.6001 115.3 63.1001 118.2 64.0001C121.1 65.0001 122.7 68.1001 121.7 71.0001C121.6 71.4001 121.4 71.8001 121.1 72.2001C120 73.9001 118.3 74.8001 116.4 74.8001ZM114 68.5001C113.8 69.1001 113.8 69.8001 114.1 70.4001C114.4 71.0001 114.9 71.4001 115.5 71.7001C116.6 72.1001 117.8 71.6001 118.4 70.7001C118.5 70.5001 118.6 70.3001 118.7 70.1001C119.1 68.8001 118.4 67.4001 117.1 66.9001C115.9 66.5001 114.5 67.2001 114 68.5001Z" fill="#301F00"/>
<path d="M101.7 80.7C103.6 79.6 106.1 80.3 107.2 82.2C108 83.5 107.9 85.1 107.1 86.3C106.8 86.8 106.3 87.3 105.7 87.6C103.8 88.7 101.3 88 100.2 86.1C99.1 84.2 99.8 81.8 101.7 80.7Z" fill="#FFD4C5"/>
<path d="M103.7 89.7C101.8 89.7 99.9 88.7 98.9 86.9C97.4 84.3 98.4 80.9 101 79.4C103.6 77.9 107 78.9 108.5 81.5C109.5 83.3 109.4 85.4 108.4 87.1C107.9 87.9 107.3 88.5 106.5 88.9C105.5 89.4 104.6 89.7 103.7 89.7ZM102.5 82C101.3 82.7 100.9 84.2 101.6 85.4C102.3 86.6 103.8 87 105 86.3C105.4 86.1 105.7 85.8 105.9 85.5C106.4 84.7 106.4 83.7 106 82.9C105.2 81.7 103.7 81.3 102.5 82Z" fill="#301F00"/>
<path d="M93.3999 84C95.4999 83.4 97.6999 84.7 98.2999 86.8C98.5999 87.9 98.3999 89.1 97.7999 90C97.2999 90.8 96.4999 91.5 95.3999 91.7C93.2999 92.3 91.0999 91 90.4999 88.9C89.8999 86.8 91.2999 84.6 93.3999 84Z" fill="#FFD4C5"/>
<path d="M94.3999 93.4001C93.3999 93.4001 92.4999 93.1001 91.6999 92.7001C90.3999 92.0001 89.4999 90.8001 89.0999 89.4001C88.6999 88.0001 88.8999 86.5001 89.6999 85.2001C90.3999 83.9001 91.5999 83.0001 92.9999 82.6001C95.8999 81.8001 98.8999 83.6001 99.6999 86.5001C100.1 88.0001 99.8999 89.6001 98.9999 90.9001C98.2999 92.1001 97.0999 92.9001 95.7999 93.3001C95.3999 93.3001 94.8999 93.4001 94.3999 93.4001ZM93.7999 85.4001C93.1999 85.6001 92.5999 86.0001 92.2999 86.6001C91.9999 87.2001 91.8999 87.9001 91.9999 88.5001C92.1999 89.1001 92.5999 89.7001 93.1999 90.0001C93.7999 90.3001 94.4999 90.4001 95.0999 90.3001C95.6999 90.1001 96.1999 89.8001 96.5999 89.2001C96.9999 88.6001 97.0999 87.9001 96.8999 87.2001C96.4999 85.9001 95.0999 85.1001 93.7999 85.4001Z" fill="#301F00"/>
<path d="M114.3 57.3C114.9 56.4 115.8 55.8 116.8 55.5C117.8 55.3 118.9 55.5 119.8 56C120.7 56.6 121.3 57.5 121.6 58.5C121.8 59.5 121.6 60.6 121.1 61.5C120.5 62.4 119.6 63 118.6 63.3C117.6 63.5 116.5 63.3 115.6 62.8C114.7 62.2 114.1 61.3 113.8 60.3C113.5 59.3 113.7 58.2 114.3 57.3Z" fill="#FFD4C5"/>
<path d="M117.7 64.9C116.7 64.9 115.6 64.6 114.8 64.1C113.6 63.3 112.7 62.1 112.4 60.7C112.1 59.3 112.3 57.8 113.1 56.6C113.9 55.4 115.1 54.5 116.5 54.2C117.9 53.9 119.4 54.1 120.6 54.9C121.8 55.7 122.7 56.9 123 58.4C123.3 59.8 123.1 61.3 122.3 62.5C121.5 63.7 120.3 64.6 118.9 64.9C118.5 64.9 118.1 64.9 117.7 64.9ZM117.7 56.9C117.5 56.9 117.3 56.9 117.2 57C116.6 57.1 116 57.5 115.6 58.1C115.2 58.7 115.1 59.3 115.3 60C115.4 60.6 115.8 61.2 116.4 61.6C117 62 117.6 62.1 118.3 61.9C118.9 61.8 119.5 61.4 119.9 60.8C120.3 60.2 120.4 59.6 120.2 58.9C120.1 58.3 119.7 57.7 119.1 57.3C118.6 57.1 118.1 56.9 117.7 56.9Z" fill="#301F00"/>
<path d="M83.2999 72.4001C80.0999 72.4001 77.0999 73.0001 74.7999 74.2001C72.3999 75.4001 70.5999 77.2001 70.0999 79.5001C69.4999 81.8001 70.6999 84.2001 73.0999 86.2001C75.4999 88.1001 79.0999 89.5001 83.2999 89.5001C84.2999 89.5001 85.9999 89.4001 88.0999 89.2001C90.1999 89.0001 92.7999 88.5001 95.5999 87.7001C98.3999 86.9001 101.5 85.7001 104.6 83.9001C107.6 82.1001 110.5 79.6001 112.7 76.7001C114.9 73.8001 116.3 70.5001 117.1 67.6001C117.5 66.1001 117.6 64.7001 117.8 63.3001C117.9 62.0001 117.8 60.7001 117.8 59.6001C117.7 58.5001 117.5 57.5001 117.3 56.6001C117.1 55.7001 116.8 55.0001 116.6 54.4001C116.1 53.2001 115.5 52.6001 114.9 52.6001C114.3 52.6001 113.7 53.3001 113.1 54.4001C112.8 54.9001 112.6 55.6001 112.2 56.3001C111.9 57.0001 111.5 57.8001 111.2 58.7001C109.7 62.1001 107.3 66.2001 103.9 68.5001C102.2 69.7001 100.3 70.6001 98.2999 71.2001C96.2999 71.8001 94.1999 72.2001 92.1999 72.4001C90.1999 72.6001 88.3999 72.6001 86.7999 72.6001C85.2999 72.4001 83.9999 72.4001 83.2999 72.4001Z" fill="#FF9797"/>
<path d="M70.5998 78.2C71.0998 79.3 71.9998 80.3 73.0998 81.3C75.4998 83.2 79.0998 84.6 83.2998 84.6C84.2998 84.6 85.9998 84.5 88.0998 84.3C90.1998 84.1 92.7998 83.6 95.5998 82.8C98.3998 82 101.5 80.8 104.6 79C107.6 77.2 110.5 74.7 112.7 71.8C114.9 68.9 116.3 65.6 117.1 62.7C117.5 61.4 117.6 60.2 117.7 59C117.7 59.2 117.8 59.3 117.8 59.5C117.8 60.6 117.9 61.9 117.8 63.2C117.6 64.5 117.5 66 117.1 67.5C116.4 70.5 115 73.8 112.7 76.6C110.5 79.5 107.6 82 104.6 83.8C101.6 85.6 98.4998 86.8 95.5998 87.6C92.7998 88.4 90.1998 88.9 88.0998 89.1C85.9998 89.4 84.2998 89.4 83.2998 89.4C79.0998 89.4 75.4998 88 73.0998 86.1C70.6998 84.2 69.5998 81.7 70.0998 79.4C70.2998 79 70.3998 78.6 70.5998 78.2Z" fill="#FF8484"/>
<path d="M69.4999 79.5C70.0999 77.2 71.7999 75.4 74.1999 74.2C76.5999 73 79.5999 72.4 82.6999 72.4C83.4999 72.4 84.6999 72.5 86.2999 72.5C87.8999 72.5 89.6999 72.5 91.6999 72.3C93.6999 72.1 95.7999 71.7 97.7999 71.1C99.7999 70.5 101.7 69.6 103.4 68.4C106.8 66 109.1 62 110.7 58.6C111 57.7 111.4 56.9 111.7 56.2C112.1 55.5 112.3 54.8 112.6 54.3C113.2 53.2 113.8 52.6 114.4 52.5C115 52.5 115.5 53.1 116.1 54.3C116.3 54.9 116.7 55.6 116.8 56.5C116.9 56.8 116.9 57.2 117 57.6C117 57.6 117 57.6 116.9 57.6C116.3 57.6 115.7 58.3 115.1 59.4C114.8 59.9 114.6 60.6 114.2 61.3C113.9 62 113.5 62.8 113.2 63.7C111.7 67.1 109.3 71.2 105.9 73.5C104.2 74.7 102.3 75.6 100.3 76.2C98.2999 76.8 96.1999 77.2 94.1999 77.4C92.1999 77.6 90.3999 77.6 88.7999 77.6C87.2999 77.6 85.9999 77.5 85.1999 77.5C81.9999 77.5 78.9999 78.1 76.6999 79.3C74.2999 80.5 72.4999 82.3 71.9999 84.6C71.8999 84.9 71.8999 85.3 71.8999 85.6C69.8999 83.8 68.9999 81.6 69.4999 79.5Z" fill="#FFAAAA"/>
<path d="M83.2999 90.9C83.1999 90.9 83.1999 90.9 83.0999 90.9C78.8999 90.9 74.7999 89.6 71.9999 87.3C69.0999 85 67.7999 81.9 68.4999 79.1C69.0999 76.5 70.9999 74.4 73.9999 72.9C76.5999 71.6 79.7999 70.9 83.1999 70.9H83.2999C83.5999 70.9 83.9999 70.9 84.4999 70.9C85.1999 70.9 85.9999 70.9 86.8999 70.9C88.7999 70.9 90.4999 70.9 92.0999 70.7C94.1999 70.5 96.1999 70.1 97.8999 69.6C99.7999 69 101.6 68.1 103 67.1C105.6 65.3 107.8 62.2 109.8 57.9C110.2 57 110.5 56.2 110.9 55.5C111 55.2 111.2 54.9 111.3 54.7C111.5 54.3 111.6 53.9 111.9 53.5C112.5 52.5 113.4 51 114.9 51C116.7 51 117.6 53.1 117.9 53.7V53.8C118.2 54.4 118.5 55.2 118.7 56.2C118.9 57.1 119.1 58.2 119.2 59.3V59.4V59.9C119.2 60.9 119.3 62 119.2 63.2L119.1 63.9C119 65.1 118.8 66.4 118.4 67.8C117.8 70.2 116.5 73.9 113.8 77.4C111.6 80.3 108.6 82.9 105.3 84.9C102.5 86.6 99.3999 87.9 95.9999 88.9C93.4999 89.6 90.8999 90.2 88.1999 90.5C85.9999 90.8 84.2999 90.9 83.2999 90.9ZM83.1999 73.9C80.2999 73.9 77.4999 74.5 75.3999 75.6C73.8999 76.4 71.9999 77.7 71.4999 79.9C71.0999 81.6 71.9999 83.5 73.8999 85C76.1999 86.9 79.5999 87.9 83.1999 88C84.0999 88 85.6999 88 87.7999 87.7C90.2999 87.4 92.6999 86.9 95.0999 86.2C98.2999 85.3 101.2 84 103.7 82.5C106.8 80.7 109.4 78.3 111.4 75.7C113.8 72.6 115 69.3 115.5 67.1C115.8 65.9 116 64.7 116.1 63.6L116.2 63C116.3 62 116.2 61 116.2 60V59.6C116.1 58.6 115.9 57.6 115.8 56.8C115.7 56.1 115.4 55.5 115.2 54.9C115.1 54.6 114.9 54.4 114.9 54.2C114.8 54.4 114.7 54.6 114.5 54.9C114.3 55.2 114.2 55.5 114.1 55.8C114 56.1 113.8 56.4 113.7 56.8C113.4 57.4 113.1 58.2 112.7 59.1C110.5 64 107.9 67.5 104.9 69.6C103.2 70.8 101.2 71.8 98.8999 72.5C96.9999 73.1 94.8999 73.5 92.5999 73.8C90.8999 74 89.0999 74.1 87.0999 74C86.1999 74 85.2999 74 84.5999 74C83.8999 73.9 83.5999 73.9 83.1999 73.9Z" fill="#301F00"/>
<path d="M94.6999 105.5C96.8999 105.9 98.4999 108 98.0999 110.2C97.7999 112.2 95.9999 113.7 93.9999 113.7C93.7999 113.7 93.5999 113.7 93.2999 113.6C91.0999 113.2 89.4999 111.1 89.8999 108.9C90.2999 106.7 92.4999 105.1 94.6999 105.5Z" fill="#FFD4C5"/>
<path d="M94.0999 115.2C93.7999 115.2 93.4999 115.2 93.1999 115.1C90.0999 114.6 87.9999 111.7 88.4999 108.7C88.9999 105.6 91.8999 103.5 94.8999 104C97.9999 104.5 100.1 107.4 99.5999 110.4C99.1999 113.2 96.8999 115.2 94.0999 115.2ZM94.0999 106.9C92.7999 106.9 91.6999 107.8 91.4999 109.1C91.2999 110.5 92.2999 111.9 93.6999 112.1C93.7999 112.1 93.9999 112.1 94.0999 112.1C95.3999 112.1 96.4999 111.2 96.6999 109.9C96.8999 108.5 95.8999 107.1 94.4999 106.9C94.2999 106.9 94.1999 106.9 94.0999 106.9Z" fill="#301F00"/>
<path d="M103.3 105.1C105.5 104.5 107.8 105.9 108.3 108.1C108.9 110.3 107.5 112.6 105.3 113.1C105 113.2 104.6 113.2 104.3 113.2C102.4 113.2 100.8 111.9 100.3 110.1C99.7 107.9 101.1 105.7 103.3 105.1Z" fill="#FFD4C5"/>
<path d="M104.3 114.8C101.7 114.8 99.4999 113 98.7999 110.5C98.0999 107.5 99.8999 104.4 102.9 103.7C105.9 103 109 104.8 109.7 107.8C110.4 110.8 108.6 113.9 105.6 114.6C105.2 114.7 104.8 114.8 104.3 114.8ZM103.7 106.6C102.3 107 101.4 108.4 101.8 109.8C102.1 111 103.1 111.8 104.3 111.8C104.5 111.8 104.7 111.8 104.9 111.7C106.3 111.4 107.2 109.9 106.8 108.5C106.5 107.1 105.1 106.2 103.7 106.6Z" fill="#301F00"/>
<path d="M86.3 102.6C88.3 103.7 89.1 106.2 88 108.2C87.3 109.6 85.8 110.4 84.4 110.4C83.7 110.4 83.1 110.2 82.4 109.9C80.4 108.8 79.6 106.3 80.7 104.3C81.8 102.2 84.3 101.5 86.3 102.6Z" fill="#FFD4C5"/>
<path d="M84.3001 111.8C83.4001 111.8 82.5 111.6 81.6 111.1C78.9 109.6 77.8001 106.2 79.3001 103.5C80.8001 100.8 84.2 99.7002 86.9 101.2C89.6 102.7 90.6 106.1 89.2 108.8C88.3 110.7 86.4001 111.8 84.3001 111.8ZM84.4 103.6C83.5 103.6 82.5 104.1 82.1 105C81.4 106.3 81.9 107.9 83.2 108.6C84.5 109.3 86.1001 108.8 86.8001 107.5C87.5001 106.2 87 104.6 85.7 103.9C85.2 103.7 84.8 103.6 84.4 103.6Z" fill="#301F00"/>
<path d="M66.9 89.0002C68.8 87.7002 71.4 88.2002 72.6 90.0002C73.9 91.9002 73.4 94.5002 71.5 95.7002C70.8 96.2002 70 96.4002 69.2 96.4002C67.9 96.4002 66.6 95.8002 65.8 94.6002C64.6 92.9002 65 90.3002 66.9 89.0002Z" fill="#FFD4C5"/>
<path d="M69.3 98.0001C67.5 98.0001 65.7 97.1001 64.7 95.6001C63.8 94.4001 63.5 92.9001 63.8 91.4001C64.1 89.9001 64.9 88.6001 66.1 87.8001C67.3 86.9001 68.8 86.6001 70.3 86.9001C71.8 87.2001 73.1 88.0001 73.9 89.2001C74.8 90.4001 75.1 91.9001 74.8 93.4001C74.5 94.9001 73.7 96.2001 72.5 97.0001C71.5 97.7001 70.4 98.0001 69.3 98.0001ZM69.2 89.8001C68.7 89.8001 68.2 90.0001 67.7 90.3001C67.1 90.7001 66.7 91.3001 66.6 92.0001C66.5 92.7001 66.6 93.4001 67 94.0001C67.8 95.1001 69.5 95.5001 70.7 94.7001C71.3 94.3001 71.7 93.7001 71.8 93.0001C71.9 92.3001 71.8 91.6001 71.4 91.0001C71 90.4001 70.4 90.0001 69.7 89.9001C69.6 89.8001 69.4 89.8001 69.2 89.8001Z" fill="#301F00"/>
<path d="M78.7999 97.1001C80.4999 98.7001 80.5999 101.3 78.9999 102.9C78.1999 103.8 77.0999 104.2 75.9999 104.2C74.9999 104.2 73.9999 103.8 73.1999 103.1C71.4999 101.5 71.3999 98.9001 72.9999 97.3001C74.4999 95.7001 77.1999 95.6001 78.7999 97.1001Z" fill="#FFD4C5"/>
<path d="M76 105.8C74.6 105.8 73.2 105.3 72.2 104.3C71.1 103.3 70.5 101.9 70.4 100.4C70.3 98.9001 70.9 97.5001 71.9 96.4001C74 94.1001 77.6 94.0001 79.9 96.1001C82.2 98.2001 82.3 101.8 80.2 104.1C79.1 105.1 77.6 105.8 76 105.8ZM76 97.5001C75.3 97.5001 74.6 97.8001 74.1 98.3001C73.6 98.8001 73.4 99.5001 73.4 100.2C73.4 100.9 73.7 101.6 74.2 102C75.2 103 77 102.9 77.9 101.9C78.9 100.8 78.8 99.2001 77.8 98.2001C77.3 97.8001 76.7 97.5001 76 97.5001Z" fill="#301F00"/>
<path d="M113.6 100.7C114.7 100.7 115.8 101.1 116.5 101.9C117.3 102.7 117.7 103.7 117.7 104.8C117.7 105.9 117.3 107 116.5 107.7C115.7 108.5 114.7 108.9 113.6 108.9C112.5 108.9 111.5 108.5 110.7 107.7C109.9 106.9 109.5 105.9 109.5 104.8C109.5 103.7 109.9 102.7 110.7 101.9C111.5 101.1 112.5 100.7 113.6 100.7Z" fill="#FFD4C5"/>
<path d="M113.6 110.4C112.1 110.4 110.7 109.8 109.6 108.7C108.6 107.7 107.9 106.2 107.9 104.7C107.9 103.2 108.5 101.8 109.6 100.7C110.6 99.7 112.1 99 113.6 99C115.1 99 116.5 99.6 117.6 100.7C118.6 101.7 119.2 103.2 119.2 104.7C119.2 106.2 118.6 107.6 117.5 108.7C116.5 109.8 115.1 110.4 113.6 110.4ZM113.6 102.2C112.9 102.2 112.2 102.5 111.7 103C111.2 103.5 110.9 104.2 110.9 104.9C110.9 105.6 111.2 106.3 111.7 106.8C112.7 107.8 114.4 107.8 115.4 106.8C115.9 106.3 116.2 105.6 116.2 104.9C116.2 104.2 115.9 103.5 115.4 103C115 102.4 114.3 102.2 113.6 102.2Z" fill="#301F00"/>
<path d="M83.4001 81.9002C81.7001 79.1002 79.5001 76.9002 77.1001 75.5002C74.7001 74.1002 72.2001 73.5002 69.9001 74.3002C67.6001 75.1002 66.1001 77.4002 65.7001 80.5002C65.3001 83.6002 66.2001 87.5002 68.5001 91.2002C69.1001 92.1002 70.0001 93.5002 71.4001 95.2002C72.8001 96.9002 74.6001 98.9002 76.9001 100.9C79.2001 102.9 82.0001 105 85.2001 106.6C88.4001 108.2 92.2001 109.4 95.9001 109.7C99.6001 110.1 103.3 109.5 106.3 108.5C107.8 108.1 109.2 107.4 110.4 106.8C111.6 106.1 112.7 105.4 113.6 104.8C114.5 104.1 115.3 103.4 116 102.7C116.7 102.1 117.1 101.4 117.5 100.8C118.3 99.7002 118.5 98.8002 118.2 98.3002C117.9 97.8002 117 97.6002 115.7 97.7002C115.1 97.7002 114.4 97.9002 113.5 98.0002C112.7 98.1002 111.8 98.2002 110.8 98.4002C107 98.9002 102.1 99.1002 98.2001 97.5002C96.2001 96.7002 94.4001 95.6002 92.8001 94.2002C91.2001 92.8002 89.7001 91.2002 88.4001 89.6002C87.1001 88.0002 86.1001 86.4002 85.2001 85.0002C84.4001 83.7002 83.8001 82.6002 83.4001 81.9002Z" fill="#FF9797"/>
<path d="M65.9 80.5002C66.3 77.4002 67.8 75.0002 70.1 74.3002C71.6 73.8002 73.1 73.9002 74.7 74.3002C72.4 75.1002 70.9 77.4002 70.6 80.5002C70.2 83.6002 71.1 87.5002 73.4 91.2002C74 92.1002 74.9 93.5002 76.3 95.2002C77.7 96.9002 79.5 98.9002 81.8 100.9C84.1 102.9 86.9 105 90.1 106.6C93.3 108.2 97 109.4 100.8 109.7C99.3 109.8 97.8 109.9 96.2 109.7C92.5 109.4 88.7 108.2 85.5 106.6C82.2 105 79.5 102.9 77.2 100.9C74.9 98.9002 73.1 96.9002 71.7 95.2002C70.3 93.5002 69.3 92.1002 68.8 91.2002C66.3 87.5002 65.5 83.6002 65.9 80.5002Z" fill="#FF8484"/>
<path d="M112.8 103.5C112.2 103.5 111.5 103.7 110.6 103.8C109.8 103.9 108.9 104 107.9 104.2C104.1 104.7 99.2 104.9 95.3 103.3C93.3 102.5 91.5 101.4 89.9 100C88.3 98.6002 86.8 97.0002 85.5 95.4002C84.2 93.8002 83.2 92.2002 82.3 90.8002C81.4 89.4002 80.8 88.3002 80.4 87.6002C78.7 84.8002 76.5 82.6002 74.1 81.2002C71.7 79.8002 69.2 79.2002 66.9 80.0002C66.2 80.2002 65.6 80.6002 65 81.1002C65 80.9002 65 80.7002 65 80.5002C65.4 77.4002 66.9 75.0002 69.2 74.3002C71.5 73.5002 74 74.1002 76.4 75.5002C78.8 76.9002 81 79.2002 82.7 81.9002C83.1 82.6002 83.8 83.7002 84.6 85.1002C85.4 86.5002 86.5 88.1002 87.8 89.7002C89.1 91.3002 90.5 92.9002 92.2 94.3002C93.8 95.7002 95.7 96.8002 97.6 97.6002C101.5 99.3002 106.3 99.1002 110.2 98.5002C111.1 98.3002 112 98.2002 112.9 98.1002C113.7 98.0002 114.4 97.8002 115.1 97.8002C116.4 97.7002 117.3 97.9002 117.6 98.4002C117.9 98.9002 117.7 99.7002 116.9 100.9C116.5 101.4 116 102.1 115.4 102.8C115.1 103.1 114.8 103.4 114.4 103.7C114.1 103.5 113.5 103.4 112.8 103.5Z" fill="#FFAAAA"/>
<path d="M98.2 111.4C97.4 111.4 96.6 111.4 95.7 111.3C92 111 88.1 109.8 84.4 108C81.4 106.5 78.5 104.5 75.8 102.1C73.8 100.3 71.9 98.3001 70.1 96.2001C68.6 94.4001 67.6 92.9001 67.1 92.0001C64.8 88.3001 63.7 84.1001 64.1 80.3001C64.5 76.6001 66.5 73.8001 69.3 72.8001C71.9 71.9001 74.8 72.4001 77.7 74.2001C80.3 75.7001 82.6 78.1001 84.5 81.1001C84.7 81.4001 84.9 81.7001 85.1 82.1001C85.5 82.7001 85.9 83.4001 86.4 84.3001C87.4 86.0001 88.4 87.4001 89.5 88.7001C90.9 90.4001 92.3 91.9001 93.7 93.1001C95.3 94.5001 97 95.5001 98.7 96.2001C101.7 97.5001 105.6 97.7001 110.5 97.0001C111.5 96.8001 112.4 96.7001 113.2 96.6001C113.5 96.6001 113.9 96.5001 114.2 96.5001C114.7 96.4001 115.1 96.4001 115.5 96.3001C116.7 96.2001 118.5 96.2001 119.3 97.5001C120.3 99.1001 119 101 118.6 101.6L118.5 101.7C118.1 102.3 117.6 103 116.8 103.7C116.1 104.4 115.3 105.1 114.4 105.8L114.3 105.9L113.9 106.2C113 106.8 112.1 107.4 111 108L110.4 108.3C109.3 108.8 108 109.4 106.6 109.9C104.7 110.7 101.7 111.4 98.2 111.4ZM72 75.4001C71.4 75.4001 70.9 75.5001 70.3 75.7001C68.6 76.3001 67.4 78.1001 67.1 80.7001C66.7 83.8001 67.7 87.3001 69.6 90.4001C70.1 91.2001 71 92.6001 72.4 94.3001C74 96.3001 75.8 98.2001 77.7 99.9001C80.3 102.2 82.9 104 85.7 105.4C89 107.1 92.5 108.1 95.9 108.4C100 108.8 103.5 108 105.7 107.2C106.9 106.8 108 106.3 109.1 105.8L109.7 105.5C110.6 105 111.5 104.4 112.3 103.9L112.7 103.7C113.5 103 114.3 102.4 114.9 101.8C115.5 101.3 115.9 100.7 116.2 100.2C116.4 99.9001 116.6 99.6001 116.6 99.5001C116.4 99.5001 116.1 99.5001 115.7 99.5001C115.3 99.5001 115 99.6001 114.7 99.6001C114.4 99.7001 114 99.7001 113.6 99.8001C112.9 99.9001 112 100 111 100.2C105.5 101 101 100.6 97.6 99.2001C95.6 98.4001 93.6 97.2001 91.8 95.6001C90.2 94.3001 88.7 92.7001 87.2 90.8001C86.1 89.4001 85 87.9001 83.9 86.1001C83.4 85.3001 82.9 84.5001 82.6 83.9001C82.4 83.5001 82.2 83.2001 82 82.9001C80.4 80.3001 78.3 78.2001 76.2 76.9001C75.2 76.1001 73.6 75.4001 72 75.4001Z" fill="#301F00"/>
<path d="M31.5999 59.7999C31.5999 41.9 38.7999 13.2 63.9999 13.2C89.1999 13.2 96.3999 41.9 96.3999 59.7999C96.3999 77.6999 86.3999 89.2 63.9999 89.2C41.5999 89.2 31.5999 77.6999 31.5999 59.7999Z" fill="#FF9797"/>
<path d="M64.0999 83.4999C42.7999 83.4999 32.6999 73.0999 31.6999 56.5999C31.6999 57.6999 31.5999 58.7999 31.5999 59.7999C31.5999 77.6999 41.5999 89.1999 63.9999 89.1999C86.3999 89.1999 96.3999 77.6999 96.3999 59.7999C96.3999 58.7999 96.3999 57.6999 96.2999 56.5999C95.4999 73.0999 85.3999 83.4999 64.0999 83.4999Z" fill="#FF8484"/>
<path d="M64.0999 27.6C86.2999 27.6 94.6 47.9999 96.2 65.0999C96.4 63.3999 96.5 61.5999 96.5 59.7999C96.5 41.9 89.2999 13.2 64.0999 13.2C38.8999 13.2 31.7 41.9 31.7 59.7999C31.7 61.6999 31.8 63.3999 32 65.0999C33.6 47.9999 41.8999 27.6 64.0999 27.6Z" fill="#FFAAAA"/>
<path d="M64.0999 90.7C42.1999 90.7 30.2 79.6999 30.2 59.7999C30.2 41.9 37.2999 11.7 64.0999 11.7C90.8999 11.7 98 41.9 98 59.7999C98 79.6999 85.9999 90.7 64.0999 90.7ZM64.0999 14.7C39.6999 14.7 33.2 43.0999 33.2 59.7999C33.2 78 43.8999 87.7 64.0999 87.7C84.2999 87.7 95 78 95 59.7999C95 43 88.4999 14.7 64.0999 14.7Z" fill="#301F00"/>
<path d="M64.3999 83.5999C66.3329 83.5999 67.8999 81.5851 67.8999 79.0999C67.8999 76.6146 66.3329 74.5999 64.3999 74.5999C62.4669 74.5999 60.8999 76.6146 60.8999 79.0999C60.8999 81.5851 62.4669 83.5999 64.3999 83.5999Z" fill="#7C0000"/>
<path d="M64.3999 85.0999C61.5999 85.0999 59.3999 82.3999 59.3999 79.0999C59.3999 75.7999 61.5999 73.0999 64.3999 73.0999C67.1999 73.0999 69.3999 75.7999 69.3999 79.0999C69.3999 82.3999 67.1999 85.0999 64.3999 85.0999ZM64.3999 76.0999C63.2999 76.0999 62.3999 77.4999 62.3999 79.0999C62.3999 80.6999 63.2999 82.0999 64.3999 82.0999C65.4999 82.0999 66.3999 80.6999 66.3999 79.0999C66.3999 77.4999 65.4999 76.0999 64.3999 76.0999Z" fill="#301F00"/>
<path d="M77.8999 74.5999C79.5568 74.5999 80.8999 73.2567 80.8999 71.5999C80.8999 69.943 79.5568 68.5999 77.8999 68.5999C76.243 68.5999 74.8999 69.943 74.8999 71.5999C74.8999 73.2567 76.243 74.5999 77.8999 74.5999Z" fill="#301F00"/>
<path d="M49.8999 74.5999C51.5568 74.5999 52.8999 73.2567 52.8999 71.5999C52.8999 69.943 51.5568 68.5999 49.8999 68.5999C48.243 68.5999 46.8999 69.943 46.8999 71.5999C46.8999 73.2567 48.243 74.5999 49.8999 74.5999Z" fill="#301F00"/>
</svg>
