<svg width="118" height="126" viewBox="0 0 118 126" fill="none" xmlns="http://www.w3.org/2000/svg">
<path d="M92.8999 2.30005H75.3999V124.2H92.8999V2.30005Z" fill="#FDAD4C"/>
<path d="M92.8999 125.8C92.0999 125.8 91.3999 125.1 91.3999 124.3V2.30005C91.3999 1.50005 92.0999 0.800049 92.8999 0.800049C93.6999 0.800049 94.3999 1.50005 94.3999 2.30005V124.2C94.3999 125.1 93.7999 125.8 92.8999 125.8Z" fill="#301F00"/>
<path d="M75.3999 125.8C74.5999 125.8 73.8999 125.1 73.8999 124.3V2.30005C73.8999 1.50005 74.5999 0.800049 75.3999 0.800049C76.1999 0.800049 76.8999 1.50005 76.8999 2.30005V124.2C76.8999 125.1 76.2999 125.8 75.3999 125.8Z" fill="#301F00"/>
<path d="M83.8998 108.3H75.3998C76.3998 105.6 76.8998 102.6 76.8998 99.5C76.8998 96.4 76.2998 93.5 75.0998 90.9H83.6998C86.7998 90.9 89.3998 88.3 89.3998 85.2C89.3998 82.1 86.7998 79.5 83.6998 79.5H65.9998C65.9998 79.5 61.5998 79.5 59.0998 79.5C49.1998 79.5 38.2998 93 38.2998 104C38.2998 115 49.2998 119.5 59.0998 119.5C61.6998 119.5 65.9998 119.5 65.9998 119.5H83.9998C87.0998 119.5 89.5998 117 89.5998 113.9C89.4998 110.8 86.9998 108.3 83.8998 108.3Z" fill="#999999"/>
<path d="M83.7997 79.5H65.9997C65.9997 79.5 61.5997 79.5 59.0997 79.5C53.5997 79.5 47.6997 83.7 43.6997 89.3C48.3997 90.4 53.6997 90.9 59.0997 90.9C71.0997 90.9 81.8997 88.5 88.9997 82.9C88.1997 80.9 86.1997 79.5 83.7997 79.5Z" fill="#808080"/>
<path d="M83.8998 121H59.0998C47.9998 121 36.7998 115.7 36.7998 104C36.7998 91.9 48.6998 78 59.0998 78H83.7998C87.7998 78 90.9998 81.2 90.9998 85.2C90.9998 89.2 87.7998 92.4 83.7998 92.4H77.2998C77.9998 94.7 78.3998 97.1 78.3998 99.5C78.3998 102.1 78.0998 104.5 77.4998 106.8H83.8998C87.7998 106.8 90.9998 110 90.9998 113.9C90.9998 117.8 87.8998 121 83.8998 121ZM59.0998 81C50.2998 81 39.7998 93.5 39.7998 104C39.7998 113.7 49.4998 118 59.0998 118H83.8998C86.1998 118 87.9998 116.2 87.9998 113.9C87.9998 111.6 86.1998 109.8 83.8998 109.8H75.3998C74.8998 109.8 74.3998 109.6 74.1998 109.2C73.8998 108.8 73.8998 108.3 73.9998 107.8C74.8998 105.3 75.3998 102.5 75.3998 99.5C75.3998 96.7 74.8998 94 73.7998 91.5C73.5998 91 73.6998 90.5 73.8998 90.1C74.0998 89.7 74.5998 89.4 75.1998 89.4H83.7998C86.0998 89.4 87.9998 87.5 87.9998 85.2C87.9998 82.9 86.0998 81 83.7998 81H59.0998Z" fill="#301F00"/>
<path d="M47.1998 32.3001C48.1998 31.5001 48.8998 30.2001 48.8998 28.8001C48.8998 27.4001 48.1998 26.2001 47.1998 25.4001C47.8998 24.3001 48.0998 22.9001 47.6998 21.6001C47.2998 20.3001 46.2998 19.3001 44.9998 18.8001C45.2998 17.5001 45.0998 16.2001 44.2998 15.0001C43.4998 13.9001 42.1998 13.3001 40.8998 13.2001C40.7998 11.9001 40.1998 10.7001 39.0998 9.80015C37.9998 9.00015 36.5998 8.80015 35.2998 9.10015C34.7998 7.90015 33.7998 6.90015 32.4998 6.50015C31.1998 6.10015 29.7998 6.30015 28.6998 7.00015C27.8998 6.00015 26.5998 5.40015 25.1998 5.40015C23.7998 5.40015 22.5998 6.10015 21.6998 7.10015C20.5998 6.40015 19.1998 6.20015 17.8998 6.60015C16.5998 7.00015 15.6998 8.00015 15.1998 9.20015C13.8998 8.90015 12.5998 9.10015 11.3998 9.90015C10.2998 10.7001 9.6998 12.0001 9.5998 13.3001C8.2998 13.4001 7.0998 14.0001 6.1998 15.1001C5.3998 16.2001 5.1998 17.6001 5.4998 18.9001C4.2998 19.4001 3.2998 20.4001 2.8998 21.7001C2.4998 23.0001 2.6998 24.4001 3.3998 25.5001C2.3998 26.3001 1.7998 27.6001 1.7998 29.0001C1.7998 30.4001 2.4998 31.6001 3.4998 32.5001C2.7998 33.6001 2.5998 35.0001 2.9998 36.3001C3.3998 37.6001 4.3998 38.6001 5.5998 39.1001C5.2998 40.4001 5.4998 41.7001 6.2998 42.9001C7.0998 44.0001 8.3998 44.6001 9.6998 44.7001C9.7998 46.0001 10.3998 47.2001 11.4998 48.1001C12.5998 48.9001 13.9998 49.1001 15.2998 48.8001C15.7998 50.0001 16.7998 51.0001 18.0998 51.4001C19.3998 51.8001 20.7998 51.6001 21.8998 50.9001C22.6998 51.9001 23.9998 52.5001 25.3998 52.5001C26.7998 52.5001 27.9998 51.8001 28.8998 50.8001C29.9998 51.5001 31.3998 51.7001 32.6998 51.3001C33.9998 50.9001 34.9998 49.9001 35.4998 48.7001C36.7998 49.0001 38.0998 48.8001 39.2998 48.0001C40.3998 47.2001 40.9998 45.9001 41.0998 44.6001C42.3998 44.5001 43.5998 43.9001 44.4998 42.8001C45.2998 41.7001 45.4998 40.3001 45.1998 39.0001C46.3998 38.5001 47.3998 37.6001 47.7998 36.2001C48.0998 34.8001 47.8998 33.4001 47.1998 32.3001Z" fill="#999999"/>
<path d="M25.2999 53.9001C23.8999 53.9001 22.5999 53.4001 21.5999 52.6001C20.2999 53.1001 18.8999 53.1001 17.5999 52.7001C16.2999 52.3001 15.1999 51.4001 14.3999 50.3001C12.9999 50.4001 11.6999 50.0001 10.5999 49.2001C9.4999 48.4001 8.6999 47.2001 8.3999 45.9001C7.0999 45.6001 5.8999 44.8001 5.0999 43.7001C4.2999 42.6001 3.8999 41.2001 3.9999 39.9001C2.8999 39.2001 1.9999 38.1001 1.5999 36.8001C1.1999 35.5001 1.1999 34.1001 1.6999 32.8001C0.799902 31.7001 0.399902 30.4001 0.399902 29.1001C0.399902 27.7001 0.899902 26.4001 1.6999 25.4001C1.1999 24.1001 1.1999 22.7001 1.5999 21.4001C1.9999 20.1001 2.8999 19.0001 3.9999 18.2001C3.8999 16.8001 4.2999 15.5001 5.0999 14.4001C5.8999 13.3001 7.0999 12.5001 8.3999 12.1001C8.6999 10.8001 9.4999 9.6001 10.5999 8.8001C11.6999 8.0001 13.0999 7.6001 14.3999 7.7001C15.0999 6.6001 16.1999 5.7001 17.4999 5.3001C18.7999 4.9001 20.1999 4.9001 21.4999 5.4001C22.5999 4.5001 23.8999 4.1001 25.1999 4.1001C26.5999 4.1001 27.8999 4.6001 28.8999 5.4001C30.1999 4.9001 31.5999 4.9001 32.8999 5.3001C34.1999 5.7001 35.2999 6.6001 36.0999 7.7001C37.4999 7.6001 38.7999 8.0001 39.8999 8.8001C40.9999 9.6001 41.7999 10.8001 42.1999 12.1001C43.4999 12.4001 44.6999 13.2001 45.4999 14.3001C46.2999 15.4001 46.6999 16.8001 46.5999 18.1001C47.6999 18.8001 48.5999 19.9001 48.9999 21.2001C49.3999 22.5001 49.3999 23.9001 48.8999 25.2001C49.7999 26.3001 50.1999 27.6001 50.1999 28.9001C50.1999 28.9001 50.1999 28.9001 50.1999 29.0001C50.1999 30.4001 49.6999 31.7001 48.8999 32.7001C49.3999 34.0001 49.3999 35.4001 48.9999 36.7001C48.5999 38.0001 47.6999 39.1001 46.5999 39.9001C46.6999 41.3001 46.2999 42.6001 45.4999 43.7001C44.6999 44.8001 43.4999 45.6001 42.1999 45.9001C41.7999 47.2001 41.0999 48.4001 39.9999 49.2001C38.8999 50.0001 37.4999 50.4001 36.1999 50.3001C35.4999 51.4001 34.3999 52.3001 32.9999 52.7001C31.6999 53.1001 30.2999 53.1001 28.9999 52.6001C27.9999 53.4001 26.6999 53.9001 25.2999 53.9001ZM21.8999 49.2001C22.2999 49.2001 22.7999 49.4001 23.0999 49.7001C23.6999 50.4001 24.4999 50.8001 25.3999 50.8001C26.2999 50.8001 27.0999 50.4001 27.6999 49.7001C28.1999 49.1001 28.9999 49.0001 29.6999 49.4001C30.4999 49.9001 31.3999 50.0001 32.1999 49.7001C32.9999 49.4001 33.6999 48.8001 33.9999 47.9001C34.2999 47.2001 34.9999 46.8001 35.7999 47.0001C36.6999 47.2001 37.5999 47.1001 38.2999 46.5001C38.9999 46.0001 39.4999 45.2001 39.4999 44.3001C39.4999 43.5001 40.0999 42.9001 40.8999 42.9001C41.7999 42.8001 42.5999 42.4001 43.0999 41.7001C43.5999 41.0001 43.7999 40.1001 43.5999 39.2001C43.3999 38.5001 43.7999 37.7001 44.4999 37.4001C45.3999 37.1001 45.9999 36.4001 46.2999 35.6001C46.5999 34.8001 46.3999 33.8001 45.9999 33.1001C45.5999 32.5001 45.6999 31.6001 46.2999 31.1001C46.9999 30.5001 47.3999 29.7001 47.3999 28.9001C47.3999 28.9001 47.3999 28.9001 47.3999 28.8001V28.7001C47.3999 27.8001 46.9999 27.0001 46.2999 26.5001C45.6999 26.0001 45.5999 25.2001 45.9999 24.5001C46.4999 23.7001 46.5999 22.8001 46.2999 22.0001C45.9999 21.2001 45.3999 20.5001 44.4999 20.2001C43.7999 19.9001 43.3999 19.2001 43.5999 18.4001C43.7999 17.5001 43.6999 16.6001 43.0999 15.9001C42.5999 15.2001 41.7999 14.8001 40.7999 14.7001C39.9999 14.7001 39.3999 14.1001 39.3999 13.3001C39.2999 12.4001 38.8999 11.6001 38.1999 11.1001C37.4999 10.6001 36.5999 10.4001 35.6999 10.6001C34.9999 10.8001 34.1999 10.4001 33.8999 9.7001C33.5999 8.9001 32.8999 8.2001 31.9999 7.9001C31.1999 7.6001 30.1999 7.8001 29.4999 8.3001C28.8999 8.7001 27.9999 8.6001 27.4999 8.0001C26.8999 7.3001 26.0999 6.9001 25.1999 6.9001C24.2999 6.9001 23.4999 7.3001 22.8999 8.0001C22.3999 8.6001 21.5999 8.7001 20.8999 8.3001C20.0999 7.8001 19.1999 7.7001 18.3999 8.0001C17.5999 8.3001 16.8999 8.9001 16.5999 9.8001C16.2999 10.5001 15.5999 10.9001 14.7999 10.7001C13.8999 10.5001 12.9999 10.6001 12.2999 11.2001C11.5999 11.7001 11.1999 12.5001 11.0999 13.4001C11.0999 14.2001 10.4999 14.8001 9.6999 14.8001C8.7999 14.9001 7.9999 15.3001 7.4999 16.0001C6.9999 16.7001 6.7999 17.6001 6.9999 18.5001C7.1999 19.2001 6.7999 20.0001 6.0999 20.3001C5.2999 20.6001 4.5999 21.3001 4.2999 22.2001C3.9999 23.1001 4.1999 24.0001 4.5999 24.7001C4.9999 25.3001 4.8999 26.2001 4.2999 26.7001C3.5999 27.3001 3.1999 28.1001 3.1999 29.0001C3.1999 29.9001 3.5999 30.7001 4.2999 31.3001C4.8999 31.8001 4.9999 32.6001 4.5999 33.3001C4.0999 34.1001 3.9999 35.0001 4.2999 35.8001C4.5999 36.6001 5.1999 37.3001 6.0999 37.6001C6.7999 37.9001 7.1999 38.6001 6.9999 39.4001C6.7999 40.3001 6.8999 41.2001 7.4999 41.9001C7.9999 42.6001 8.7999 43.1001 9.6999 43.1001C10.4999 43.1001 11.0999 43.7001 11.0999 44.5001C11.1999 45.4001 11.5999 46.2001 12.2999 46.7001C12.9999 47.2001 13.8999 47.4001 14.7999 47.2001C15.4999 47.0001 16.2999 47.4001 16.5999 48.1001C16.8999 48.9001 17.5999 49.6001 18.3999 49.9001C19.1999 50.2001 20.1999 50.0001 20.8999 49.6001C21.2999 49.3001 21.5999 49.2001 21.8999 49.2001Z" fill="#301F00"/>
<path d="M25.2998 41.9001C32.4795 41.9001 38.2998 36.0798 38.2998 28.9001C38.2998 21.7204 32.4795 15.9001 25.2998 15.9001C18.1201 15.9001 12.2998 21.7204 12.2998 28.9001C12.2998 36.0798 18.1201 41.9001 25.2998 41.9001Z" fill="#FFB6C6"/>
<path d="M25.2998 43.4001C17.2998 43.4001 10.7998 36.9001 10.7998 28.9001C10.7998 20.9001 17.2998 14.4001 25.2998 14.4001C33.2998 14.4001 39.7998 20.9001 39.7998 28.9001C39.7998 36.9001 33.2998 43.4001 25.2998 43.4001ZM25.2998 17.4001C18.9998 17.4001 13.7998 22.6001 13.7998 28.9001C13.7998 35.2001 18.9998 40.4001 25.2998 40.4001C31.5998 40.4001 36.7998 35.2001 36.7998 28.9001C36.7998 22.6001 31.5998 17.4001 25.2998 17.4001Z" fill="#301F00"/>
<path d="M114.8 32.3001C115.8 31.5001 116.5 30.2001 116.5 28.8001C116.5 27.4001 115.8 26.2001 114.8 25.4001C115.5 24.3001 115.7 22.9001 115.3 21.6001C114.9 20.3001 113.9 19.3001 112.6 18.8001C112.9 17.5001 112.7 16.2001 111.9 15.0001C111.1 13.9001 109.8 13.3001 108.5 13.2001C108.4 11.9001 107.8 10.7001 106.7 9.80015C105.6 9.00015 104.2 8.80015 102.9 9.10015C102.4 7.90015 101.4 6.90015 100.1 6.50015C98.7999 6.10015 97.3999 6.30015 96.2999 7.00015C95.4999 6.00015 94.1999 5.40015 92.7999 5.40015C91.3999 5.40015 90.1999 6.10015 89.2999 7.10015C88.1999 6.40015 86.7999 6.20015 85.4999 6.60015C84.2999 7.00015 83.2999 8.00015 82.7999 9.20015C81.4999 8.90015 80.1999 9.10015 78.9999 9.90015C77.8999 10.7001 77.2999 12.0001 77.1999 13.3001C75.8999 13.4001 74.6999 14.0001 73.7999 15.1001C72.9999 16.2001 72.7999 17.6001 73.0999 18.9001C71.8999 19.4001 70.8999 20.4001 70.4999 21.7001C70.0999 23.0001 70.2999 24.4001 70.9999 25.5001C69.9999 26.3001 69.3999 27.6001 69.3999 29.0001C69.3999 30.4001 70.0999 31.6001 71.0999 32.5001C70.3999 33.6001 70.1999 35.0001 70.5999 36.3001C70.9999 37.6001 71.9999 38.6001 73.1999 39.1001C72.8999 40.4001 73.0999 41.7001 73.8999 42.9001C74.6999 44.0001 75.9999 44.6001 77.2999 44.7001C77.3999 46.0001 77.9999 47.2001 79.0999 48.1001C80.1999 48.9001 81.5999 49.1001 82.8999 48.8001C83.3999 50.0001 84.3999 51.0001 85.6999 51.4001C86.9999 51.8001 88.3999 51.6001 89.4999 50.9001C90.2999 51.9001 91.5999 52.5001 92.9999 52.5001C94.3999 52.5001 95.5999 51.8001 96.4999 50.8001C97.5999 51.5001 98.9999 51.7001 100.3 51.3001C101.6 50.9001 102.6 49.9001 103.1 48.7001C104.4 49.0001 105.7 48.8001 106.9 48.0001C108 47.2001 108.6 45.9001 108.7 44.6001C110 44.5001 111.2 43.9001 112.1 42.8001C112.9 41.7001 113.1 40.3001 112.8 39.0001C114 38.5001 115 37.6001 115.4 36.2001C115.7 34.8001 115.5 33.4001 114.8 32.3001Z" fill="#999999"/>
<path d="M92.9 53.9001C91.5 53.9001 90.2 53.4001 89.2 52.6001C87.9 53.1001 86.5 53.1001 85.2 52.7001C83.9 52.3001 82.8 51.4001 82 50.3001C80.6 50.4001 79.3 50.0001 78.2 49.2001C77.1 48.4001 76.3 47.2001 76 45.9001C74.7 45.6001 73.5 44.8001 72.7 43.7001C71.9 42.6001 71.5 41.2001 71.6 39.9001C70.5 39.2001 69.6 38.1001 69.2 36.8001C68.8 35.5001 68.8 34.1001 69.3 32.8001C68.4 31.7001 68 30.4001 68 29.1001C68 27.7001 68.5 26.4001 69.3 25.4001C68.8 24.1001 68.8 22.7001 69.2 21.4001C69.6 20.1001 70.5 19.0001 71.6 18.2001C71.5 16.8001 71.9 15.5001 72.7 14.4001C73.5 13.3001 74.7 12.5001 76 12.1001C76.3 10.8001 77.1 9.6001 78.2 8.8001C79.3 8.0001 80.7 7.6001 82 7.7001C82.7 6.6001 83.8 5.7001 85.1 5.3001C86.4 4.9001 87.8 4.9001 89.1 5.4001C90.2 4.5001 91.5 4.1001 92.8 4.1001C94.2 4.1001 95.5 4.6001 96.5 5.4001C97.8 4.9001 99.2 4.9001 100.5 5.3001C101.8 5.7001 102.9 6.6001 103.7 7.7001C105.1 7.6001 106.4 8.0001 107.5 8.8001C108.6 9.6001 109.4 10.8001 109.8 12.1001C111.1 12.4001 112.3 13.2001 113.1 14.3001C113.9 15.4001 114.3 16.8001 114.2 18.1001C115.3 18.8001 116.2 19.9001 116.6 21.2001C117 22.5001 117 23.9001 116.5 25.2001C117.4 26.3001 117.8 27.6001 117.8 28.9001C117.8 28.9001 117.8 28.9001 117.8 29.0001C117.8 30.4001 117.3 31.7001 116.5 32.7001C117 34.0001 117 35.4001 116.6 36.7001C116.2 38.0001 115.3 39.1001 114.2 39.9001C114.3 41.3001 113.9 42.6001 113.1 43.7001C112.3 44.8001 111.1 45.6001 109.8 45.9001C109.4 47.2001 108.7 48.4001 107.6 49.2001C106.5 50.0001 105.1 50.4001 103.8 50.3001C103.1 51.4001 102 52.3001 100.6 52.7001C99.3 53.1001 97.9 53.1001 96.6 52.6001C95.6 53.4001 94.3 53.9001 92.9 53.9001ZM89.5 49.2001C89.9 49.2001 90.4 49.4001 90.7 49.7001C91.3 50.4001 92.1 50.8001 93 50.8001C93.9 50.8001 94.7 50.4001 95.3 49.7001C95.8 49.1001 96.6 49.0001 97.3 49.4001C98.1 49.9001 99 50.0001 99.8 49.7001C100.6 49.4001 101.3 48.8001 101.6 47.9001C101.9 47.2001 102.6 46.8001 103.4 47.0001C104.3 47.2001 105.2 47.1001 105.9 46.5001C106.6 46.0001 107.1 45.2001 107.1 44.3001C107.1 43.5001 107.7 42.9001 108.5 42.9001C109.4 42.8001 110.2 42.4001 110.7 41.7001C111.2 41.0001 111.4 40.1001 111.2 39.2001C111 38.5001 111.4 37.7001 112.1 37.4001C113 37.1001 113.6 36.4001 113.9 35.6001C114.2 34.8001 114 33.8001 113.6 33.1001C113.2 32.5001 113.3 31.6001 113.9 31.1001C114.6 30.5001 115 29.7001 115 28.9001C115 28.9001 115 28.9001 115 28.8001V28.7001C115 27.8001 114.6 27.0001 113.9 26.5001C113.3 26.0001 113.2 25.2001 113.6 24.5001C114.1 23.7001 114.2 22.8001 113.9 22.0001C113.6 21.2001 113 20.5001 112.1 20.2001C111.4 19.9001 111 19.2001 111.2 18.4001C111.4 17.5001 111.3 16.6001 110.7 15.9001C110.2 15.2001 109.4 14.8001 108.4 14.7001C107.6 14.7001 107 14.1001 107 13.3001C106.9 12.4001 106.5 11.6001 105.8 11.1001C105.1 10.6001 104.2 10.4001 103.3 10.6001C102.6 10.8001 101.8 10.4001 101.5 9.7001C101.2 8.9001 100.5 8.2001 99.6 7.9001C98.8 7.6001 97.8 7.8001 97.1 8.3001C96.5 8.7001 95.6 8.6001 95.1 8.0001C94.5 7.3001 93.7 6.9001 92.8 6.9001C91.9 6.9001 91.1 7.3001 90.5 8.0001C90 8.6001 89.2 8.7001 88.5 8.3001C87.7 7.8001 86.8 7.7001 86 8.0001C85.2 8.3001 84.5 8.9001 84.2 9.8001C83.9 10.5001 83.2 10.9001 82.4 10.7001C81.5 10.5001 80.6 10.6001 79.9 11.2001C79.2 11.7001 78.8 12.5001 78.7 13.4001C78.7 14.2001 78.1 14.8001 77.3 14.8001C76.4 14.9001 75.6 15.3001 75.1 16.0001C74.6 16.7001 74.4 17.6001 74.6 18.5001C74.8 19.2001 74.4 20.0001 73.7 20.3001C72.9 20.6001 72.2 21.3001 71.9 22.2001C71.6 23.1001 71.8 24.0001 72.2 24.7001C72.6 25.3001 72.5 26.2001 71.9 26.7001C71.2 27.3001 70.8 28.1001 70.8 29.0001C70.8 29.9001 71.2 30.7001 71.9 31.3001C72.5 31.8001 72.6 32.6001 72.2 33.3001C71.7 34.1001 71.6 35.0001 71.9 35.8001C72.2 36.6001 72.8 37.3001 73.7 37.6001C74.4 37.9001 74.8 38.6001 74.6 39.4001C74.4 40.3001 74.5 41.2001 75.1 41.9001C75.6 42.6001 76.4 43.1001 77.3 43.1001C78.1 43.1001 78.7 43.7001 78.7 44.5001C78.8 45.4001 79.2 46.2001 79.9 46.7001C80.6 47.2001 81.5 47.4001 82.4 47.2001C83.1 47.0001 83.9 47.4001 84.2 48.1001C84.5 48.9001 85.2 49.6001 86 49.9001C86.8 50.2001 87.8 50.0001 88.5 49.6001C88.9 49.3001 89.2 49.2001 89.5 49.2001Z" fill="#301F00"/>
<path d="M92.8999 41.9001C100.08 41.9001 105.9 36.0798 105.9 28.9001C105.9 21.7204 100.08 15.9001 92.8999 15.9001C85.7202 15.9001 79.8999 21.7204 79.8999 28.9001C79.8999 36.0798 85.7202 41.9001 92.8999 41.9001Z" fill="#FFB6C6"/>
<path d="M92.8999 43.4001C84.8999 43.4001 78.3999 36.9001 78.3999 28.9001C78.3999 20.9001 84.8999 14.4001 92.8999 14.4001C100.9 14.4001 107.4 20.9001 107.4 28.9001C107.4 36.9001 100.9 43.4001 92.8999 43.4001ZM92.8999 17.4001C86.5999 17.4001 81.3999 22.6001 81.3999 28.9001C81.3999 35.2001 86.5999 40.4001 92.8999 40.4001C99.1999 40.4001 104.4 35.2001 104.4 28.9001C104.4 22.6001 99.2999 17.4001 92.8999 17.4001Z" fill="#301F00"/>
<path d="M20.0999 56.8C20.0999 77.2 37.5999 84.8 59.0999 84.8C80.5999 84.8 98.0999 77.2 98.0999 56.8C98.0999 36.4 90.3999 10.8 59.0999 10.8C27.8999 10.8 20.0999 36.4 20.0999 56.8Z" fill="#999999"/>
<path d="M59.0999 79.8001C38.2999 79.8001 21.2999 72.7 20.1999 53.8C20.1999 54.8 20.0999 55.8 20.0999 56.8C20.0999 77.2 37.5999 84.8001 59.0999 84.8001C80.5999 84.8001 98.0999 77.2 98.0999 56.8C98.0999 55.8 98.0999 54.8 97.9999 53.8C96.9999 72.8 79.8999 79.8001 59.0999 79.8001Z" fill="#808080"/>
<path d="M59.0999 21.8C86.9999 21.8 96.1999 42.2 97.7999 61.1C97.9999 59.7 98.0999 58.3 98.0999 56.8C98.0999 36.4 90.2999 10.8 59.0999 10.8C27.7999 10.8 20.0999 36.4 20.0999 56.8C20.0999 58.3 20.1999 59.7 20.3999 61.1C21.9999 42.2 31.1999 21.8 59.0999 21.8Z" fill="#B3B3B3"/>
<path d="M59.0999 86.3C32.9999 86.3 18.5999 75.8 18.5999 56.8C18.5999 42.5 22.4999 9.30005 59.0999 9.30005C95.6999 9.30005 99.5999 42.5 99.5999 56.8C99.5999 75.9 85.1999 86.3 59.0999 86.3ZM59.0999 12.3C25.2999 12.3 21.5999 43.4 21.5999 56.8C21.5999 79.9 45.0999 83.3 59.0999 83.3C73.0999 83.3 96.5999 79.9 96.5999 56.8C96.5999 43.5 92.9999 12.3 59.0999 12.3Z" fill="#301F00"/>
<path d="M59.0999 75.2C55.2999 75.2 52.2 73.2 52.2 70.8C52.2 68.4 55.2999 63.8 59.0999 63.8C62.8999 63.8 66 68.3 66 70.8C66 73.3 62.8999 75.2 59.0999 75.2Z" fill="#301F00"/>
<path d="M67.5 70.8001C67.5 74.1001 63.7999 76.7 59.0999 76.7C54.3999 76.7 50.7 74.1001 50.7 70.8001C50.7 67.5001 54.4999 62.3 59.0999 62.3C63.6999 62.3 67.5 67.5001 67.5 70.8001ZM64.5 70.8001C64.5 69.1001 61.9999 65.3001 59.0999 65.3001C56.1999 65.3001 53.7 69.0001 53.7 70.8001C53.7 72.2001 55.8999 73.7 59.0999 73.7C62.2999 73.7 64.5 72.2001 64.5 70.8001Z" fill="#301F00"/>
<path d="M75 62.3C76.6569 62.3 78 60.9569 78 59.3C78 57.6432 76.6569 56.3 75 56.3C73.3431 56.3 72 57.6432 72 59.3C72 60.9569 73.3431 62.3 75 62.3Z" fill="#301F00"/>
<path d="M43.2 62.3C44.8568 62.3 46.2 60.9569 46.2 59.3C46.2 57.6432 44.8568 56.3 43.2 56.3C41.5431 56.3 40.2 57.6432 40.2 59.3C40.2 60.9569 41.5431 62.3 43.2 62.3Z" fill="#301F00"/>
</svg>
