<svg width="128" height="128" viewBox="0 0 128 128" fill="none" xmlns="http://www.w3.org/2000/svg">
<path d="M97.6001 97.5998C105.9 94.1998 114.4 81.7998 114.4 81.7998C114.4 81.7998 110.1 103.8 99.8001 106.3" fill="#C69452"/>
<path d="M99.8 107.7C99.1 107.7 98.5 107.2 98.3 106.5C98.1 105.7 98.6 104.9 99.4 104.7C104.8 103.4 108.7 95.1999 110.9 88.3999C107.6 92.2999 102.8 96.8999 98.1 98.8999C97.3 99.1999 96.5 98.7999 96.1 98.0999C95.8 97.2999 96.2 96.4999 96.9 96.0999C104.7 92.9999 112.9 80.8999 113 80.7999C113.4 80.1999 114.2 79.9999 114.8 80.2999C115.5 80.5999 115.8 81.2999 115.7 81.9999C115.5 82.8999 111.1 105 100 107.6C100 107.7 99.9 107.7 99.8 107.7Z" fill="#301F00"/>
<path d="M118.1 86.7999C116.1 89.0999 113 89.6999 111 87.9999C109.1 86.3999 109.1 83.1999 111.1 80.7999C113.1 78.4999 120 73.7999 119.7 76.8999C119.5 80.5999 120.1 84.4999 118.1 86.7999Z" fill="#8A4900"/>
<path d="M113 90.3999C111.9 90.2999 110.9 89.8999 110.1 89.1999C107.5 86.9999 107.5 82.8999 110 79.8999C111.2 78.4999 117.1 73.4999 119.9 74.5999C120.8 74.9999 121.3 75.8999 121.3 76.9999C121.2 77.8999 121.2 78.7999 121.2 79.6999C121.2 82.5999 121.1 85.5999 119.3 87.6999C117.6 89.6999 115.2 90.6999 113 90.3999ZM118.2 77.5999C116.7 78.1999 113.6 80.2999 112.3 81.7999C110.9 83.4999 110.8 85.6999 112 86.7999C113.2 87.8999 115.5 87.3999 116.9 85.6999C118 84.3999 118.1 81.9999 118.1 79.5999C118.2 78.9999 118.2 78.2999 118.2 77.5999Z" fill="#301F00"/>
<path d="M91.6002 81.4L90.7002 76.8L49.7002 86.8L48.8002 92L48.7002 91.9C43.9002 95.9 42.5002 122.6 48.7002 121.9C49.5002 121.8 50.2002 121.8 50.8002 121.7C52.9002 121.5 54.6002 119.8 54.6002 117.6C54.6002 116.8 54.7002 115.9 54.8002 114.8C59.1002 116.9 64.5002 118.6 70.3002 118.2C70.2002 120.1 70.0002 121.6 69.7002 121.9C68.9002 122.9 76.4002 124.5 77.7002 122.9C78.2002 122.3 79.1002 119.4 79.8002 116.2C83.6002 115.1 86.8002 113.7 89.4002 112.4C88.9002 115.3 88.5002 118.1 88.7002 118.9C89.3002 120.5 94.7002 118.9 94.7002 118.9C100.6 110.1 102.9 89.5 91.6002 81.4Z" fill="#C69452"/>
<path d="M65.1001 100.4C78.9001 100.4 91.0001 97.4 97.6001 89.3C96.3001 86.2 94.4001 83.4 91.6001 81.4L90.7001 76.8L49.7001 86.8L48.8001 92L48.7001 91.9C47.6001 92.8 46.6001 95.1 45.9001 97.9C51.6001 99.6 58.1001 100.4 65.1001 100.4Z" fill="#C69452"/>
<path d="M100.4 93.1001C99.2001 87.7001 96.7001 83.4001 93.0001 80.6001L94.0001 85.9001C95.9001 88.5001 96.9001 91.4001 97.4001 93.8001C98.2001 97.6001 98.2001 101.6 97.7001 105.3C97.5001 106.8 97.2001 108.2 96.9001 109.6C96.1001 112.8 95.0001 115.5 93.7001 117.6C92.3001 118 90.7001 118.2 90.1001 118.1C90.1001 117.3 90.3001 115.5 90.7001 113.4V113.2C91.9001 112.6 93.0001 111.9 93.5001 111.7C94.2001 111.3 94.9001 110.6 94.7001 109.8C94.4001 109 93.6001 108.3 92.7001 108.9L92.5001 109L92.3001 109.1C92.1001 109.2 91.8001 109.4 91.5001 109.6C90.9001 109.9 90.3001 110.3 89.7001 110.6C89.1001 110.9 88.5001 111.2 88.1001 111.5C86.3001 112.4 84.1001 113.3 81.7001 114.1C82.0001 111.6 81.9001 109.2 81.2001 107.4C80.9001 106.6 80.0001 106.3 79.2001 106.6C78.4001 106.9 78.1001 107.8 78.4001 108.6C79.1001 110.2 78.9001 112.8 78.5001 115.2C78.3001 116.4 78.1001 117.5 77.8001 118.5C77.3001 120.3 76.9001 121.6 76.6001 122.1C75.8001 122.5 72.8001 122.1 71.4001 121.6C71.5001 121.1 71.6001 120.5 71.7001 119.7C71.8001 118.9 71.9001 117.9 72.0001 116.6C72.1001 114.5 72.2001 111.8 72.3001 108C72.3001 107.2 71.7001 106.5 70.8001 106.5C70.0001 106.5 69.3001 107.2 69.3001 108C69.2001 111 69.1001 114.3 69.0001 116.9C64.5001 117 60.2001 115.7 56.6001 114.1C56.9001 112.4 57.5001 110.6 58.2001 108.6C58.5001 107.8 58.1001 107 57.3001 106.7C56.5001 106.4 55.7001 106.8 55.4001 107.6C54.7001 109.4 54.2001 111.2 53.8001 112.8C53.5001 113.9 53.3001 115 53.3001 116C53.2001 116.7 53.2001 117.3 53.2001 117.9C53.2001 119.3 52.2001 120.4 50.8001 120.5C50.2001 120.5 49.5001 120.6 48.7001 120.7C48.2001 120.7 47.7001 119.7 47.5001 119.3C46.7001 117.4 46.3001 114.6 46.2001 111.5C46.0001 104.1 47.7001 95.2001 49.8001 93.4001C50.4001 92.9001 50.5001 91.9001 50.0001 91.3001C49.5001 90.7001 48.5001 90.6001 47.9001 91.1001C47.8001 91.2001 47.7001 91.3001 47.6001 91.4001C43.2001 95.8001 41.9001 113.9 44.7001 120.5C45.9001 123.3 47.5001 123.8 48.6001 123.8C48.7001 123.8 48.9001 123.8 49.0001 123.8C49.8001 123.7 50.4001 123.7 51.0001 123.6C53.9001 123.4 56.1001 121 56.1001 118C56.1001 117.8 56.1001 117.6 56.1001 117.4C59.7001 118.9 64.0001 120.1 68.6001 120.1H68.7001C68.6001 120.8 68.6001 121.3 68.5001 121.5C68.1001 122.2 68.1001 123.2 69.1001 123.9C70.0001 124.6 72.8001 125.4 75.3001 125.4C76.9001 125.4 78.3001 125.1 79.0001 124.1C79.5001 123.4 80.5001 120.8 81.2001 117.7C83.5001 117 85.7001 116.1 87.5001 115.3C87.2001 117.4 87.1001 119 87.4001 119.7C87.9001 121 89.2001 121.4 90.8001 121.4C92.3001 121.4 94.0001 121 95.3001 120.6C95.6001 120.5 95.9001 120.3 96.1001 120C99.8001 114 102.5 103 100.4 93.1001Z" fill="#301F00"/>
<path d="M117.5 62.0999C118.5 53.9999 115 46.2999 108.9 41.3999C110.8 33.9999 108.9 25.8999 103.1 19.7999C97.0999 13.4999 88.3999 11.0999 80.3999 12.7999C75.6999 6.29987 67.5999 2.29987 58.7999 2.89987C49.9999 3.59987 42.6999 8.69987 39.1999 15.8999C30.9999 15.4999 22.7999 19.0999 17.9999 26.1999C13.0999 33.2999 12.7999 42.0999 16.3999 49.2999C10.9999 55.2999 8.89992 63.7999 11.6999 71.9999C14.4999 80.0999 21.3999 85.7999 29.3999 87.5999C30.8999 95.4999 36.5999 102.4 44.7999 105.3C46.5999 105.9 48.3999 106.4 50.2999 106.6C56.7999 107.4 63.2999 105.5 68.2999 101.5C75.5999 105.2 84.5999 105.3 92.0999 100.8C99.5999 96.2999 103.6 88.4999 103.5 80.5999C110.9 77.3999 116.5 70.5999 117.5 62.0999Z" fill="#8A4900"/>
<path d="M53.2 108.3C52.2 108.3 51.2 108.2 50.2 108.1C48.2 107.9 46.3 107.4 44.4 106.7C36.3 103.8 30.1 96.9999 28.2 88.7999C19.9 86.5999 13.1 80.3999 10.4 72.4999C7.69997 64.4999 9.29997 55.5999 14.7 49.0999C11.2 41.3999 12 32.3999 16.8 25.3999C21.6 18.3999 29.7 14.2999 38.4 14.3999C42.4 6.99994 50.1 2.09994 58.7 1.39994C67.3 0.799944 75.8 4.49995 81 11.0999C89.4 9.69995 98.2 12.4999 104.1 18.5999L104.2 18.6999C109.9 24.6999 112.2 32.7999 110.6 40.6999C116.8 46.0999 119.9 54.0999 119 62.0999C118 70.4999 112.7 77.7999 105 81.4999C104.8 89.8999 100.2 97.6999 92.9 102.1C85.5 106.5 76.3 106.9 68.5 103.3C64.1 106.6 58.6 108.3 53.2 108.3ZM37.9 17.3999C30.4 17.3999 23.3 20.9999 19.2 27.0999C14.8 33.4999 14.3 41.6999 17.7 48.6999C18 49.2999 17.9 49.8999 17.5 50.3999C12.3 56.1999 10.6 64.2999 13.1 71.5999C15.6 78.8999 21.9 84.4999 29.7 86.1999C30.3 86.2999 30.7 86.7999 30.8 87.3999C32.3 94.9999 37.8 101.3 45.3 104C47 104.6 48.7 105 50.5 105.2C56.5 105.9 62.7 104.2 67.4 100.5C67.9 100.1 68.5 100.1 69 100.3C76 103.9 84.6 103.7 91.4 99.5999C98.1 95.5999 102.2 88.3999 102 80.6999C102 80.0999 102.3 79.4999 102.9 79.2999C110.1 76.1999 115.2 69.4999 116.1 61.8999C117 54.5999 114 47.2999 108.1 42.4999C107.6 42.0999 107.4 41.4999 107.6 40.9999C109.4 33.8999 107.4 26.3999 102.3 20.8999L102.2 20.7999C96.8 15.0999 88.6 12.5999 80.8 14.1999C80.2 14.2999 79.6 14.0999 79.3 13.5999C74.7 7.29994 66.9 3.79994 59 4.29994C51 4.99994 44 9.69994 40.5 16.5999C40.2 17.0999 39.7 17.4999 39.1 17.3999C38.7 17.3999 38.3 17.3999 37.9 17.3999Z" fill="#301F00"/>
<path d="M101.2 67.3999C101.2 88.3999 84.2 95.3999 63.2 95.3999C42.2 95.3999 25.2 88.3999 25.2 67.3999C25.2 46.3999 25.2 19.3999 63.2 19.3999C101.2 19.3999 101.2 46.3999 101.2 67.3999Z" fill="#C69452"/>
<path d="M63.2 89.4C42.5 89.4 25.7 82.6 25.2 62.2C25.2 63.9 25.2 65.7 25.2 67.4C25.2 88.4 42.2 95.4 63.2 95.4C84.2 95.4 101.2 88.4 101.2 67.4C101.2 65.7 101.2 64 101.2 62.2C100.8 82.5 83.9 89.4 63.2 89.4Z" fill="#B17637"/>
<path d="M63.2 70.2C50.1 70.2 38.7 76.9 33 86.7C39.9 92.9 50.9 95.4 63.2 95.4C75.5 95.4 86.5 93 93.4 86.7C87.8 76.9 76.4 70.2 63.2 70.2Z" fill="#E1D6BA"/>
<path d="M90.7 82.7998C83.8 87.4998 74 89.3998 63.2 89.3998C52.4 89.3998 42.6 87.4998 35.7 82.7998C34.7 83.9998 33.9 85.1998 33.1 86.4998C33.1 86.5998 33 86.5998 33 86.6998C33.4 87.0998 33.9 87.3998 34.3 87.7998L34.4 87.8998C34.8 88.1998 35.2 88.4998 35.7 88.7998L35.8 88.8998C36.3 89.1998 36.7 89.4998 37.2 89.7998H37.3C38.8 90.6998 40.5 91.4998 42.3 92.0998L42.5 92.1998C43 92.3998 43.5 92.5998 44.1 92.6998C44.2 92.6998 44.3 92.7998 44.4 92.7998C44.9 92.9998 45.4 93.0998 45.9 93.1998C46 93.1998 46.1 93.2998 46.3 93.2998C46.8 93.3998 47.4 93.5998 47.9 93.6998C48 93.6998 48.1 93.6998 48.2 93.7998C49.5 94.0998 50.8 94.2998 52.2 94.4998C52.3 94.4998 52.4 94.4998 52.5 94.4998C53.1 94.5998 53.6 94.6998 54.2 94.6998C54.4 94.6998 54.6 94.6998 54.8 94.7998C55.3 94.8998 55.7 94.8998 56.2 94.8998C56.4 94.8998 56.7 94.8998 56.9 94.9998C57.4 94.9998 57.8 95.0998 58.3 95.0998C58.5 95.0998 58.8 95.0998 59 95.0998C59.5 95.0998 60 95.0998 60.5 95.1998C60.7 95.1998 60.9 95.1998 61.2 95.1998C61.9 95.1998 62.6 95.1998 63.3 95.1998C64 95.1998 64.7 95.1998 65.4 95.1998C65.6 95.1998 65.8 95.1998 66.1 95.1998C66.6 95.1998 67.1 95.1998 67.6 95.0998C67.8 95.0998 68.1 95.0998 68.3 95.0998C68.8 95.0998 69.2 94.9998 69.7 94.9998C69.9 94.9998 70.2 94.9998 70.4 94.8998C70.9 94.8998 71.3 94.7998 71.8 94.7998C72 94.7998 72.2 94.7998 72.4 94.6998C73 94.5998 73.5 94.5998 74.1 94.4998C74.2 94.4998 74.3 94.4998 74.4 94.4998C75.8 94.2998 77.1 94.0998 78.4 93.7998C78.5 93.7998 78.6 93.7998 78.7 93.6998C79.2 93.5998 79.8 93.3998 80.3 93.2998C80.4 93.2998 80.5 93.1998 80.7 93.1998C81.2 93.0998 81.7 92.8998 82.2 92.7998C82.3 92.7998 82.4 92.6998 82.5 92.6998C83 92.4998 83.6 92.2998 84.1 92.1998L84.3 92.0998C86.1 91.3998 87.7 90.6998 89.3 89.7998H89.4C89.9 89.4998 90.4 89.1998 90.8 88.8998L90.9 88.7998C91.3 88.4998 91.8 88.1998 92.2 87.8998L92.3 87.7998C92.7 87.4998 93.2 87.0998 93.6 86.6998C93.6 86.6998 93.6 86.5998 93.5 86.5998C92.6 85.2998 91.7 83.9998 90.7 82.7998Z" fill="#CCBB92"/>
<path d="M63.2 19.3999C25.4 19.3999 25.2 46.1999 25.2 67.0999V67.1999C25.2 68.2999 25.2999 69.2999 25.2999 70.1999C26.0999 51.4999 31 32.1999 63.2 32.1999C95.4 32.1999 100.3 51.5999 101.1 70.1999C101.2 69.1999 101.2 68.1999 101.2 67.1999C101.2 46.3999 101.2 19.3999 63.2 19.3999Z" fill="#D8AD68"/>
<path d="M63.2 96.8999C37.4 96.8999 23.7 86.6999 23.7 67.3999C23.7 46.4999 23.7 17.8999 63.2 17.8999C102.7 17.8999 102.7 46.4999 102.7 67.3999C102.7 86.6999 89.1 96.8999 63.2 96.8999ZM63.2 20.8999C26.7 20.8999 26.7 46.6999 26.7 67.3999C26.7 89.2999 46.5 93.8999 63.2 93.8999C79.9 93.8999 99.7 89.2999 99.7 67.3999C99.7 46.6999 99.7 20.8999 63.2 20.8999Z" fill="#301F00"/>
<path d="M79.2 71.8999C80.8568 71.8999 82.2 70.5568 82.2 68.8999C82.2 67.243 80.8568 65.8999 79.2 65.8999C77.5431 65.8999 76.2 67.243 76.2 68.8999C76.2 70.5568 77.5431 71.8999 79.2 71.8999Z" fill="#301F00"/>
<path d="M47.3 71.8999C48.9569 71.8999 50.3 70.5568 50.3 68.8999C50.3 67.243 48.9569 65.8999 47.3 65.8999C45.6432 65.8999 44.3 67.243 44.3 68.8999C44.3 70.5568 45.6432 71.8999 47.3 71.8999Z" fill="#301F00"/>
<path d="M70.1 77.8001C70.1 80.2001 67.0001 84.8001 63.2001 84.8001C59.4001 84.8001 56.3 80.3001 56.3 77.8001C56.3 75.4001 59.4001 73.4001 63.2001 73.4001C67.0001 73.4001 70.1 75.3001 70.1 77.8001Z" fill="#8A4900"/>
<path d="M63.2001 86.2C58.6001 86.2 54.8 81.1 54.8 77.7C54.8 74.4 58.5001 71.8 63.2001 71.8C67.9001 71.8 71.6 74.4 71.6 77.7C71.6 81.1 67.9001 86.2 63.2001 86.2ZM63.2001 74.9C60.0001 74.9 57.8 76.4 57.8 77.8C57.8 79.5 60.3001 83.3 63.2001 83.3C66.0001 83.3 68.6 79.6 68.6 77.8C68.6 76.4 66.4001 74.9 63.2001 74.9Z" fill="#301F00"/>
<path d="M63.2 96.9C62.4 96.9 61.7 96.2 61.7 95.4V84.7C61.7 83.9 62.4 83.2 63.2 83.2C64 83.2 64.6999 83.9 64.6999 84.7V95.4C64.6999 96.2 64.1 96.9 63.2 96.9Z" fill="#301F00"/>
</svg>
