<svg width="128" height="128" viewBox="0 0 128 128" fill="none" xmlns="http://www.w3.org/2000/svg">
<path d="M89.4998 112.8C76.8998 112.8 65.0998 96.8001 63.6998 95.0001C62.5998 93.4001 62.8998 91.2001 64.4998 90.1001C66.0998 89.0001 68.2998 89.3001 69.3998 90.9001C72.3998 95.0001 81.7998 105.8 89.4998 105.8C92.1998 105.8 94.4998 104.4 96.4998 101.6C101.4 94.8001 97.5998 81.7001 93.7998 69.0001C89.0998 52.9001 84.1998 36.3001 98.0998 31.0001C103.7 28.9001 109.8 29.8001 114.9 33.5001C120.4 37.5001 123.8 44.2001 123.5 50.3001C123.4 52.2001 121.7 53.7001 119.8 53.6001C117.9 53.5001 116.4 51.8001 116.5 49.9001C116.7 46.2001 114.4 41.8001 110.8 39.2001C109 37.9001 105.2 35.9001 100.6 37.6001C93.2998 40.4001 95.6998 50.6001 100.6 67.1001C104.8 81.4001 109.2 96.3001 102.2 105.8C97.8998 111.5 92.8998 112.8 89.4998 112.8Z" fill="#C97F4E"/>
<path d="M122.5 39.9001C120.9 36.9001 118.6 34.2001 115.8 32.2001C112.3 29.6001 108.3 28.3 104.2 28.3C102 28.3 99.6999 28.7 97.4999 29.5C93.7999 30.9 91.1999 33.1001 89.5999 35.9001C87.9999 38.7001 87.3999 42 87.3999 45.5C87.3999 49.1 87.9999 53 88.9999 57C89.8999 61 91.0999 65.2001 92.2999 69.3001C93.4999 73.5001 94.7999 77.7 95.6999 81.7C96.5999 85.7 97.1999 89.5 97.1999 92.7C97.1999 96 96.5999 98.7001 95.1999 100.6C94.1999 101.9 93.2999 102.8 92.2999 103.4C91.2999 104 90.3999 104.2 89.2999 104.2C87.6999 104.2 85.8999 103.6 84.0999 102.6C81.2999 101.1 78.3999 98.7 75.9999 96.3C73.5999 93.9 71.5999 91.4 70.4999 90C69.4999 88.6 67.9999 87.9001 66.3999 87.9001C65.3999 87.9001 64.3999 88.2001 63.4999 88.8001C62.0999 89.8001 61.3999 91.3001 61.3999 92.9001C61.3999 93.9001 61.6999 94.9 62.2999 95.8C62.9999 96.8 66.2999 101.3 71.0999 105.6C73.4999 107.8 76.2999 109.9 79.2999 111.5C82.2999 113.1 85.6999 114.2 89.0999 114.2C90.9999 114.2 93.2999 113.9 95.7999 112.7C98.1999 111.5 100.8 109.6 103 106.4C105.9 102.4 106.9 97.7001 106.9 92.6001C106.9 84.4001 104.2 75.2001 101.6 66.3001C100.3 61.8001 99.0999 57.8 98.2999 54.3C97.4999 50.8 96.9999 47.8 96.9999 45.5C96.9999 43.6 97.2999 42.1 97.8999 41C98.4999 39.9 99.2999 39.2001 100.7 38.7001C101.8 38.3001 102.8 38.1 103.8 38.1C105 38.1 106.1 38.4 107.1 38.8C108.1 39.2 108.9 39.7 109.4 40.1C110.9 41.2 112.2 42.7 113.1 44.3C114 45.9 114.5 47.6 114.5 49.1C114.5 49.2 114.5 49.3 114.5 49.5C114.5 49.6 114.5 49.7 114.5 49.8C114.5 52.4 116.6 54.6 119.2 54.8H119.5C122.1 54.8 124.3 52.7 124.5 50.1C124.5 49.8 124.5 49.5001 124.5 49.2001C125 46.1001 124.1 42.8001 122.5 39.9001ZM122 50C121.9 51.1 121.1 51.9001 120 51.9001H119.9C118.8 51.8001 118 51.0001 118 49.9001V49.8C118 49.6 118 49.4 118 49.3C118 47.2 117.3 45 116.2 43C115.1 41 113.5 39.2 111.6 37.8C110.9 37.3 109.9 36.6 108.6 36.1C107.3 35.6 105.9 35.2001 104.2 35.2001C102.9 35.2001 101.5 35.4 99.9999 36C98.0999 36.7 96.5999 38.0001 95.6999 39.7001C94.7999 41.4001 94.4999 43.4 94.4999 45.6C94.4999 48.3 94.9999 51.5 95.7999 55.1C96.5999 58.7 97.7999 62.8001 99.0999 67.3001C101.7 76.2001 104.3 85.2 104.3 92.7C104.3 97.3 103.3 101.4 100.9 104.7C98.8999 107.5 96.7999 109.1 94.7999 110C92.7999 110.9 90.8999 111.2 89.3999 111.2C86.5999 111.2 83.6999 110.3 80.8999 108.8C76.7999 106.6 72.9999 103.3 70.0999 100.3C67.1999 97.3 65.2999 94.7 64.7999 94C64.4999 93.6 64.3999 93.2 64.3999 92.8C64.3999 92.2 64.6999 91.6 65.1999 91.2C65.5999 90.9 65.9999 90.8001 66.3999 90.8001C66.9999 90.8001 67.5999 91.1 67.9999 91.6C69.5999 93.8 72.6999 97.5 76.4999 100.8C78.3999 102.5 80.4999 104 82.5999 105.1C84.6999 106.2 86.9999 107 89.2999 107C90.8999 107 92.3999 106.6 93.7999 105.7C95.1999 104.9 96.3999 103.6 97.4999 102.1C99.3999 99.4001 100.1 96.1001 100.1 92.4001C100.1 88.8001 99.3999 84.9 98.4999 80.7C97.4999 76.6 96.2999 72.3 95.0999 68.1C93.8999 64 92.6999 59.9 91.7999 56C90.8999 52.1 90.2999 48.4 90.2999 45.1C90.2999 41.9 90.7999 39.2 92.0999 37C93.3999 34.8 95.2999 33.1 98.3999 31.9C100.2 31.2 102.1 30.9 104 30.9C107.4 30.9 110.8 32.0001 113.8 34.2001C116.2 36.0001 118.2 38.3001 119.6 40.9001C121 43.5001 121.8 46.3001 121.8 48.9001C122 49.5001 122 49.8 122 50Z" fill="#301F00"/>
<path d="M74.7 97.3C73.6 93.6 70.7 93.3 70.7 93.3C70.7 93.3 64.3 92.1 58 92C57.8 92 57.6 92 57.4 92C57.2 92 57 92 56.8 92C50.4 92.1 44 93.3 44 93.3C44 93.3 41.1 93.6 40 97.3C37.7 105.4 38.1 120.4 46 120.3C48.2 120.3 49.9 118.3 49.9 114.1C51.9 114.8 54.3 115.3 57 115.3C60 115.3 62.8 114.7 64.9 113.8C64.8 118.2 66.5 120.3 68.8 120.3C76.7 120.3 77.1 105.3 74.7 97.3Z" fill="#C97F4E"/>
<path d="M74.8001 97.3C73.7001 93.6 70.8001 93.3 70.8001 93.3C70.8001 93.3 64.4 92.1 58 92C57.8 92 57.6001 92 57.4001 92C57.2001 92 57 92 56.8 92C50.5 92.1 44 93.3 44 93.3C44 93.3 41.1 93.6 40 97.3C39.7 98.3 39.5 99.4 39.3 100.6C44.1 101.7 49.4 102.2 55 102.2C55.2 102.2 55.4 102.2 55.5 102.2C55.7 102.2 55.8 102.2 56 102.2C63 102.2 69.6001 101.4 75.3001 99.6C75.2001 98.8 75.0001 98 74.8001 97.3Z" fill="#B86538"/>
<path d="M76.1999 96.7999C74.9999 92.4999 71.6 91.7999 71 91.6999C70.5 91.5999 64.4 90.4999 58.2 90.3999H58H56.7H56.5C50.3 90.5999 44.3 91.5999 43.7 91.6999C43.1 91.7999 39.7 92.4999 38.5 96.7999C36.8 102.6 36.2 113.6 40.2 118.8C41.6 120.7 43.6 121.7 45.9 121.7H46C47.5 121.7 48.9 121 49.9 119.7C50.5 118.9 51.1 117.7 51.3 116C53 116.4 55 116.6 57 116.6C59.4 116.6 61.6 116.3 63.5 115.8C63.7 117.6 64.3 118.9 64.9 119.7C65.8 121 67.2 121.6 68.8 121.7H68.9C71.2 121.7 73.0999 120.7 74.5999 118.8C78.4999 113.6 77.8999 102.6 76.1999 96.7999ZM72.0999 117C71.1999 118.2 70.1 118.7 68.8 118.7C68.2 118.7 67.7 118.4 67.3 117.9C66.7 117.2 65.5999 114.7 67.1999 108.6C67.3999 107.8 66.8999 107 66.0999 106.8C65.2999 106.6 64.5 107.1 64.3 107.9C63.8 109.7 63.5 111.4 63.4 112.7C61.6 113.3 59.4 113.7 57 113.7C54.9 113.7 53 113.4 51.4 112.9C51.3 111.4 51 109.8 50.5 107.8C50.3 107 49.5 106.5 48.7 106.7C47.9 106.9 47.3999 107.7 47.5999 108.5C47.8999 109.6 48.1 110.6 48.2 111.5C48.4 113 48.5 114.1 48.4 115C48.3 116.6 47.8 117.5 47.5 117.9C47.1 118.4 46.6 118.7 46 118.7C44.6 118.7 43.6 118.2 42.7 117C39.8 113.2 39.7 103.7 41.5 97.5999C42.2 94.9999 44 94.6999 44.2 94.6999H44.3C44.4 94.6999 50.6999 93.4999 56.7999 93.3999H56.9H57.7999H57.9C64 93.4999 70.4 94.6999 70.5 94.6999C70.7 94.6999 72.4999 94.9999 73.1999 97.5999C75.0999 103.8 74.9999 113.2 72.0999 117Z" fill="#301F00"/>
<path d="M108.3 68.3998C108.3 77.4998 104.4 84.7998 96.0002 84.7998C89.2002 84.7998 83.7002 77.3998 83.7002 68.3998C83.7002 59.2998 89.2002 51.9998 96.0002 51.9998C104.4 51.8998 108.3 59.2998 108.3 68.3998Z" fill="#C97F4E"/>
<path d="M106.5 55.8999C105.4 54.1999 103.9 52.8999 102.1 51.8999C100.3 50.8999 98.2001 50.3999 95.9001 50.3999C93.9001 50.3999 92.0001 50.8999 90.4001 51.8999C87.9001 53.2999 85.8001 55.5999 84.4001 58.4999C83.0001 61.2999 82.1001 64.6999 82.1001 68.3999C82.1001 73.1999 83.6001 77.6999 86.0001 80.8999C87.2001 82.4999 88.7001 83.8999 90.4001 84.7999C92.1001 85.6999 94.0001 86.2999 95.9001 86.2999C98.2001 86.2999 100.3 85.7999 102.1 84.7999C104.8 83.3999 106.7 80.9999 107.9 78.0999C109.1 75.1999 109.7 71.8999 109.7 68.2999C109.8 63.5999 108.8 59.1999 106.5 55.8999ZM104 79.1999C103.1 80.4999 102 81.4999 100.7 82.1999C99.4001 82.8999 97.8001 83.2999 95.9001 83.2999C94.5001 83.2999 93.1001 82.8999 91.8001 82.1999C89.9001 81.0999 88.2001 79.2999 87.0001 76.8999C85.8001 74.4999 85.1001 71.5999 85.1001 68.3999C85.1001 64.1999 86.4001 60.3999 88.4001 57.6999C89.4001 56.3999 90.6001 55.2999 91.9001 54.5999C93.2001 53.8999 94.5001 53.4999 96.0001 53.4999C97.9001 53.4999 99.5001 53.8999 100.8 54.5999C102.8 55.6999 104.3 57.3999 105.3 59.7999C106.3 62.1999 106.9 65.1999 106.9 68.3999C106.8 72.6999 105.8 76.4999 104 79.1999Z" fill="#301F00"/>
<path d="M103.5 68.3999C103.5 73.8999 101.1 78.3999 96 78.3999C91.8 78.3999 88.5 73.8999 88.5 68.3999C88.5 62.8999 91.9 58.3999 96 58.3999C101.1 58.3999 103.5 62.8999 103.5 68.3999Z" fill="#F9C0A7"/>
<path d="M102.9 60.4999C102.2 59.3999 101.2 58.4999 100 57.8999C98.8001 57.2999 97.5001 56.8999 95.9001 56.8999C94.6001 56.8999 93.3001 57.2999 92.2001 57.8999C90.5001 58.7999 89.2001 60.2999 88.3001 62.1999C87.4001 63.9999 86.9001 66.1999 86.9001 68.4999C86.9001 71.5999 87.8001 74.3999 89.4001 76.4999C90.2001 77.5999 91.2001 78.3999 92.3001 79.0999C93.4001 79.6999 94.7001 80.0999 96.0001 80.0999C97.5001 80.0999 98.9001 79.7999 100.1 79.0999C101.9 78.1999 103.1 76.5999 103.9 74.6999C104.7 72.8999 105 70.6999 105 68.4999C105 65.3999 104.3 62.5999 102.9 60.4999ZM100.4 74.5999C99.9001 75.2999 99.3001 75.8999 98.6001 76.2999C97.9001 76.6999 97.0001 76.8999 96.0001 76.8999C95.2001 76.8999 94.5001 76.6999 93.8001 76.2999C92.8001 75.6999 91.8001 74.6999 91.1001 73.2999C90.4001 71.8999 90.0001 70.1999 90.0001 68.3999C90.0001 65.8999 90.8001 63.6999 91.9001 62.1999C92.5001 61.3999 93.1001 60.7999 93.8001 60.4999C94.5001 60.0999 95.2001 59.8999 96.0001 59.8999C97.1001 59.8999 97.9001 60.0999 98.6001 60.4999C99.7001 61.0999 100.5 61.9999 101.1 63.3999C101.7 64.7999 102 66.4999 102 68.3999C102 70.8999 101.4 73.1999 100.4 74.5999Z" fill="#301F00"/>
<path d="M5.5 68.4C5.5 77.5 9.4 84.8 17.8 84.8C24.6 84.8 30.1 77.4 30.1 68.4C30.1 59.3 24.6 52 17.8 52C9.4 51.9 5.5 59.3 5.5 68.4Z" fill="#C97F4E"/>
<path d="M27.8 55.9C26.6 54.3 25.1 52.9 23.4 52C21.7 51.1 19.8 50.5 17.9 50.5C15.6 50.5 13.5 51 11.7 52C9 53.3 7 55.7 5.8 58.6C4.6 61.5 4 64.8 4 68.4C4 73.2 5 77.5 7.3 80.9C8.4 82.6 9.9 83.9 11.7 84.9C13.5 85.9 15.6 86.4 17.9 86.4C19.9 86.4 21.8 85.9 23.4 84.9C25.9 83.5 28 81.2 29.4 78.3C30.8 75.5 31.7 72.1 31.7 68.4C31.7 63.5 30.2 59.1 27.8 55.9ZM25.4 79.1C24.4 80.4 23.2 81.5 21.9 82.2C20.6 82.9 19.3 83.3 17.8 83.3C15.9 83.3 14.3 82.9 13 82.2C11 81.1 9.5 79.4 8.5 77C7.5 74.6 6.9 71.6 6.9 68.4C6.9 64.1 7.9 60.2 9.7 57.6C10.6 56.3 11.7 55.3 13 54.6C14.3 53.9 15.9 53.5 17.8 53.5C19.2 53.5 20.6 53.9 21.9 54.6C23.8 55.7 25.5 57.5 26.7 59.9C27.9 62.3 28.6 65.2 28.6 68.4C28.7 72.6 27.4 76.4 25.4 79.1Z" fill="#301F00"/>
<path d="M10.3 68.3999C10.3 73.8999 12.7 78.3999 17.8 78.3999C22 78.3999 25.3 73.8999 25.3 68.3999C25.3 62.8999 21.9 58.3999 17.8 58.3999C12.7 58.3999 10.3 62.8999 10.3 68.3999Z" fill="#F9C0A7"/>
<path d="M24.4 60.4001C23.6 59.3001 22.6 58.5 21.5 57.8C20.4 57.2 19.1 56.8 17.8 56.8C16.3 56.8 14.9 57.1 13.7 57.8C11.9 58.7 10.7 60.3001 9.90005 62.2001C9.10005 64.0001 8.80005 66.2001 8.80005 68.4001C8.80005 71.4001 9.40005 74.2001 10.9 76.3001C11.6 77.4001 12.6 78.3001 13.8 78.9001C15 79.5001 16.3 79.9001 17.9 79.9001C19.2 79.9001 20.5 79.5001 21.6 78.9001C23.3 78.0001 24.6 76.5 25.5 74.6C26.4 72.8 26.9 70.6001 26.9 68.3001C26.9 65.3001 25.9 62.5001 24.4 60.4001ZM22 74.6C21.4 75.4 20.8 76.0001 20.1 76.3001C19.4 76.7001 18.7 76.9001 17.9 76.9001C16.8 76.9001 16 76.7001 15.3 76.3001C14.2 75.7001 13.4 74.8001 12.8 73.4001C12.2 72.0001 11.9 70.3001 11.9 68.4001C11.9 65.8001 12.5 63.6001 13.5 62.2001C14 61.5001 14.6 60.9 15.3 60.5C16 60.1 16.9 59.9001 17.9 59.9001C18.7 59.9001 19.4 60.1 20.1 60.5C21.1 61.1 22.1 62.1 22.8 63.5C23.5 64.9 23.9 66.6001 23.9 68.4001C23.9 70.9001 23.1 73.1 22 74.6Z" fill="#301F00"/>
<path d="M95.8 69C95.8 89.4 78.3 97 56.8 97C35.3 97 17.8 89.4 17.8 69C17.8 51.6 23.4 30.5 44.3 24.6C46.3 24 48.5 23.6 50.8 23.3C51.7 23.2 52.6 23.1 53.6 23.1C54.7 23 55.7 23 56.8 23C57.9 23 59 23 60 23.1C60.9 23.2 61.9 23.2 62.8 23.3C65.1 23.6 67.3001 24 69.3001 24.6C90.2001 30.6 95.8 51.7 95.8 69Z" fill="#C97F4E"/>
<path d="M87.0999 74.3C85.7999 73.5 85.2 71.8 85.8 70.3C86.8 68.1 87.3 65.7 87.3 63.2C87.3 57.8 84.8999 53 81.0999 49.7C78.6999 47.6 75.7 46.2 72.4 45.7C71.5 45.5 70.4999 45.5 69.5999 45.5C68.1999 45.5 66.8 45.7 65.5 46C62.7 46.7 60.2 48 58.2 49.7C58 49.9 57.7 50.1 57.5 50.3C57.3 50.1 57.0999 49.9 56.7999 49.7C54.6999 47.9 52.2 46.6 49.5 46C48.2 45.7 46.8 45.5 45.4 45.5C44.4 45.5 43.4999 45.6 42.5999 45.7C39.2999 46.2 36.3 47.7 33.9 49.7C30.1 53 27.7 57.8 27.7 63.2C27.7 65.7 28.2 68.2 29.2 70.3C29.8 71.8 29.3 73.4 27.9 74.3C25.6999 75.7 23.3 78.4 21.2 82C27.1 92.8 40.9999 97 57.0999 97C57.2999 97 57.4999 97 57.5999 97C57.7999 97 57.8999 97 58.0999 97C74.2999 97 88.1 92.7 94 82C91.7 78.4 89.2999 75.7 87.0999 74.3Z" fill="#F9C0A7"/>
<path d="M56.8 92C36 92 19 84.9 17.9 66C17.9 67 17.8 68 17.8 69C17.8 89.4 35.3 97 56.8 97C78.3 97 95.8 89.4 95.8 69C95.8 68 95.8 67 95.7 66C94.7 84.9 77.7 92 56.8 92Z" fill="#B86538"/>
<path d="M93.3001 81.1C92.8001 80.3 92.3001 79.5 91.7001 78.8C85.3001 88.2 72.1001 92 56.8001 92C42.0001 92 29.1001 88.4 22.5001 79.5C22.0001 80.3 21.4001 81.1 20.9001 82C21.0001 82.2 21.1001 82.3 21.2001 82.5C21.4001 82.9 21.6001 83.2 21.9001 83.6C22.1001 83.9 22.3001 84.1 22.4001 84.4C22.6001 84.7 22.8001 84.9 23.0001 85.2C23.3001 85.6 23.7001 86 24.1001 86.4C24.3001 86.6 24.5001 86.8 24.7001 87C25.0001 87.3 25.2001 87.5 25.5001 87.8C25.7001 87.9 25.8001 88.1 26.0001 88.2C26.6001 88.7 27.2001 89.2 27.8001 89.6C27.9001 89.7 28.0001 89.8 28.1001 89.8C28.5001 90.1 28.9001 90.3 29.3001 90.6L29.5001 90.7C36.5001 95.1 46.2001 97 56.9001 97C73.5001 97 87.6001 92.5 93.3001 81.1Z" fill="#F7AD90"/>
<path d="M56.8 23C56.2 23 55.6 23 55 23C54.5 23 54 23 53.6 23.1C53.3 23.1 53 23.1 52.7 23.2C52.1 23.2 51.5 23.3 50.9 23.4C48.6 23.7 46.4 24.1 44.4 24.7C30.6 28.6 23.5 39.1 20.2 50.7C19.9 51.7 19.7 52.6 19.5 53.6C19.3 54.7 19 55.8 18.9 56.9C18.7 57.9 18.6 58.9 18.5 59.9C18.2 62.3 18 64.7 18 67.1C18 66.7 18 66.4 18 66C18.1 67.5 18.3 68.9 18.6 70.3C20.9 52.3 30.6 34 57 34C83.4 34 93 52.3 95.4 70.3C95.7 68.9 95.9 67.5 96 66C96 67 96.1 68 96.1 69C96.1 69.4 96.1 69.8 96.1 70.2C96.1 69.8 96.1 69.4 96.1 69.1C96.1 69 96.1 69 96.1 69C96.1 66.2 95.9 63.4 95.6 60.5C95.5 59.5 95.3 58.5 95.2 57.5C95 56.4 94.8 55.3 94.6 54.2C94.4 53.2 94.1 52.3 93.9 51.3C93.2 48.6 92.2 46 91 43.5C90.3 42.1 89.6 40.7 88.8 39.4C84.7 32.9 78.6 27.6 69.7 25.1C67.7 24.5 65.5 24.1 63.2 23.8C62.6 23.7 62 23.7 61.4 23.6C61.1 23.6 60.8 23.6 60.5 23.5C60 23.5 59.5 23.4 59 23.4C58.1 23.1 57.5 23 56.8 23C56.9 23 56.9 23 56.8 23Z" fill="#D38F5B"/>
<path d="M56.8 21.5C20.3 21.5 16.3 54.7 16.3 69C16.3 77.7 19.3 84.6 25.1 89.6C31.9001 95.4 42.6 98.5 56.8 98.5C71 98.5 81.6 95.4 88.5 89.6C94.3 84.7 97.3 77.7 97.3 69C97.3 54.8 93.4 21.5 56.8 21.5ZM87.1001 86.7C86.4001 87.4 85.6 88 84.8 88.6C76.7 94.3 65.1 95.5 56.8 95.5C48.5 95.5 37 94.3 28.9 88.6C28.1 88 27.3 87.4 26.5 86.7C22.2 82.7 19.3 77.1 19.3 69C19.3 55.6 23 24.5 56.8 24.5C90.6 24.5 94.3 55.6 94.3 69C94.3 77.1 91.5001 82.8 87.1001 86.7Z" fill="#301F00"/>
<path d="M50.8001 26.5C50.8001 26.5 43.3001 19.2 47.7001 14.8C50.5001 12 56.6001 17.8 56.6001 17.8C56.6001 17.8 52.3001 7.5 59.1001 7.5C69.1001 7.5 68.6001 21.4 65.1001 26.5" fill="#D38F5B"/>
<path d="M51.9 25.4C51.8 25.3 50.7 24.2 49.7 22.8C49.2 22.1 48.7 21.3 48.4 20.4C48.1 19.6 47.9 18.8 47.9 18.1C47.9 17.7 47.9999 17.3 48.0999 16.9C48.1999 16.5 48.4999 16.2 48.7999 15.8C48.8999 15.7 49 15.6 49.2 15.6C49.3 15.6 49.5 15.5 49.7 15.5C50.1 15.5 50.8 15.7 51.4 16C52.4 16.5 53.4999 17.2 54.2999 17.8C54.6999 18.1 54.9999 18.4 55.2999 18.6C55.3999 18.7 55.4999 18.8 55.5999 18.8L55.7 18.9C56.2 19.4 56.9999 19.4 57.5999 19C58.1999 18.6 58.3999 17.8 58.0999 17.2C57.9999 17.1 57.7 16.2 57.4 15.2C57.1 14.1 56.7999 12.8 56.7999 11.7C56.7999 11.2 56.8 10.8 56.9 10.5C57 10 57.2 9.6 57.5 9.4C57.8 9.2 58.1999 9 59.0999 9C60.3999 9 61.4 9.3 62.2 9.7C63.4 10.4 64.3 11.4 64.9 12.9C65.5 14.3 65.8 16.1 65.8 17.9C65.8 19.4 65.5999 21 65.1999 22.4C64.7999 23.8 64.2999 25 63.7999 25.8C63.2999 26.5 63.4999 27.4 64.1999 27.9C64.8999 28.4 65.8 28.2 66.3 27.5C67.1 26.3 67.6999 24.8 68.0999 23.2C68.4999 21.6 68.8 19.8 68.8 18C68.8 15.2 68.1999 12.4 66.6999 10.1C65.9999 8.7 64.8999 7.7 63.5999 7C62.2999 6.3 60.7999 6 59.0999 6C58.1999 6 57.3999 6.2 56.5999 6.5C55.4999 7 54.6999 7.9 54.2999 8.8C53.8999 9.8 53.7999 10.8 53.7999 11.7C53.7999 13.4 54.2 15 54.5 16.3C54.9 17.6 55.2 18.4 55.2 18.4L56.5999 17.8L57.5999 16.7C57.5999 16.7 56.5 15.7 55 14.7C54.3 14.2 53.4 13.7 52.5 13.3C51.6 12.9 50.6 12.6 49.5 12.6C49 12.6 48.5 12.7 47.9 12.9C47.4 13.1 46.9 13.4 46.5 13.8C45.9 14.4 45.3999 15.2 45.0999 15.9C44.7999 16.7 44.7 17.4 44.7 18.2C44.7 19.5 45 20.7 45.5 21.8C46.2 23.4 47.1999 24.9 48.0999 25.9C48.8999 26.9 49.5999 27.6 49.5999 27.6C50.1999 28.2 51.1 28.2 51.7 27.6C52.5 26.9 52.5 26 51.9 25.4Z" fill="#301F00"/>
<path d="M72.7998 77C74.4567 77 75.7998 75.6569 75.7998 74C75.7998 72.3431 74.4567 71 72.7998 71C71.143 71 69.7998 72.3431 69.7998 74C69.7998 75.6569 71.143 77 72.7998 77Z" fill="#301F00"/>
<path d="M40.8999 77C42.5568 77 43.8999 75.6569 43.8999 74C43.8999 72.3431 42.5568 71 40.8999 71C39.243 71 37.8999 72.3431 37.8999 74C37.8999 75.6569 39.243 77 40.8999 77Z" fill="#301F00"/>
<path d="M64.5 90.3C63.7 90.6 62.9 90.8 62 90.8C60 90.8 58.3 89.9 57.1 88.5C55.9 89.9 54.2 90.8 52.2 90.8C51.3 90.8 50.5 90.6 49.7 90.3C48.9 90 48.6 89.1 48.9 88.3C49.2 87.5 50.1 87.2 50.9 87.5C51.3 87.7 51.8 87.8 52.2 87.8C53.6 87.8 54.7 87 55.3 85.8C55.5 85.4 55.6 84.9 55.6 84.4C55.6 83.8 56 83.3 56.5 83C56.8 83.1 57.2 83.2 57.5 83.2C57.7 83.2 57.8 83.2 58 83.2C58.4 83.5 58.7 83.9 58.7 84.5C58.7 85.1 58.9 85.6 59.1 86.1C59.7 87.2 60.8 87.9 62.1 87.9C62.6 87.9 63 87.8 63.4 87.6C64.2 87.3 65 87.6 65.4 88.4C65.6 89 65.3 89.9 64.5 90.3Z" fill="#301F00"/>
<path d="M57.0999 83.2C59.53 83.2 61.5 81.7674 61.5 80C61.5 78.2327 59.53 76.8 57.0999 76.8C54.6699 76.8 52.7 78.2327 52.7 80C52.7 81.7674 54.6699 83.2 57.0999 83.2Z" fill="#301F00"/>
<path d="M61.5999 80H60.0999C60.0999 80.2 60.1 80.3 60 80.5C59.8 80.8 59.5 81.1 59 81.3C58.5 81.5 57.9 81.7 57.2 81.7C56.3 81.7 55.5 81.4 55 81C54.7 80.8 54.6 80.6 54.5 80.4C54.4 80.2 54.4 80.1 54.4 79.9C54.4 79.7 54.4 79.6 54.5 79.4C54.7 79.1 55 78.8 55.5 78.6C56 78.4 56.5999 78.2 57.2999 78.2C58.1999 78.2 59 78.5 59.5 78.9C59.8 79.1 59.9 79.3 60 79.5C60.1 79.7 60.0999 79.8 60.0999 80H61.5999H63.0999C63.0999 79.3 62.9 78.6 62.5 78C62 77.1 61.1999 76.4 60.2999 76C59.3999 75.5 58.3 75.3 57.2 75.3C55.7 75.3 54.3 75.7 53.2 76.5C52.7 76.9 52.1999 77.4 51.7999 78C51.4999 78.6 51.2 79.3 51.2 80C51.2 80.7 51.3999 81.4 51.7999 82C52.2999 82.9 53.1 83.6 54 84C54.9 84.5 55.9999 84.7 57.0999 84.7C58.5999 84.7 59.9999 84.3 61.0999 83.5C61.5999 83.1 62.1 82.6 62.5 82C62.8 81.4 63.0999 80.7 63.0999 80H61.5999Z" fill="#301F00"/>
</svg>
