<svg width="128" height="128" viewBox="0 0 128 128" fill="none" xmlns="http://www.w3.org/2000/svg">
<path d="M30.4 77.2998C36 71.6998 37.3 64.0998 33.5 60.1998C29.7 56.2998 22 57.6998 16.4 63.2998C10.8 68.8998 4.50005 81.4998 8.40005 85.2998C12.2 89.1998 19.1 88.5998 30.4 77.2998Z" fill="#253542"/>
<path d="M16.4 69.2998C22 63.6998 29.6 62.3998 33.5 66.1998C34.3 66.9998 34.9 67.9998 35.3 69.1998C36.2 65.6998 35.7 62.3998 33.5 60.1998C29.6 56.2998 22 57.6998 16.4 63.2998C11.2 68.4998 5.39998 79.5998 7.69998 84.2998C8.99998 79.0998 12.9 72.7998 16.4 69.2998Z" fill="#2B4753"/>
<path d="M13.4999 88.9998C10.7999 88.9998 8.69993 87.8998 7.29993 86.3998C4.49993 83.5998 5.79993 78.2998 7.39993 74.3998C9.19993 69.9998 12.2999 65.1998 15.2999 62.2998C18.1999 59.3998 21.6999 57.3998 25.2999 56.7998C28.9999 56.0998 32.2999 56.9998 34.4999 59.1998C38.9999 63.6998 37.5999 72.2998 31.3999 78.3998C23.4999 86.3998 17.6999 88.9998 13.4999 88.9998ZM27.6999 59.4998C27.0999 59.4998 26.4999 59.5998 25.7999 59.6998C22.8999 60.1998 19.8999 61.8998 17.3999 64.3998C14.6999 67.0998 11.8999 71.4998 10.1999 75.5998C8.49993 79.7998 8.19993 83.0998 9.39993 84.3998C14.2999 89.2998 22.8999 82.7998 29.2999 76.3998C34.2999 71.3998 35.5999 64.6998 32.3999 61.3998C31.1999 60.0998 29.5999 59.4998 27.6999 59.4998Z" fill="#301F00"/>
<path d="M98.5 77.2998C92.9 71.6998 91.6 64.0998 95.4 60.1998C99.3 56.2998 106.9 57.6998 112.5 63.2998C118.1 68.8998 124.4 81.4998 120.5 85.2998C116.7 89.1998 109.8 88.5998 98.5 77.2998Z" fill="#253542"/>
<path d="M95.4 65.1998C99.3 61.2998 106.9 62.6998 112.5 68.2998C116.2 71.9998 120.2 78.6998 121.4 83.9998C123.2 79.0998 117.6 68.2998 112.5 63.2998C106.9 57.6998 99.3 56.3998 95.4 60.1998C93.4 62.1998 92.8 65.2998 93.5 68.5998C93.9 67.2998 94.5 66.0998 95.4 65.1998Z" fill="#2B4753"/>
<path d="M115.4 88.9998C111.3 88.9998 105.5 86.3998 97.5 78.3998C94.6 75.4998 92.6 71.9998 92 68.3998C91.3 64.6998 92.2 61.3998 94.4 59.1998C96.6 56.9998 99.9 56.0998 103.6 56.7998C107.1 57.3998 110.7 59.3998 113.6 62.2998C116.6 65.2998 119.6 69.9998 121.5 74.3998C123.1 78.2998 124.5 83.5998 121.6 86.3998C120.1 87.7998 118.1 88.9998 115.4 88.9998ZM101.2 59.4998C99.3 59.4998 97.6 60.0998 96.5 61.2998C93.2 64.5998 94.6 71.2998 99.6 76.2998C106 82.6998 114.6 89.1998 119.5 84.2998C120.7 83.0998 120.4 79.6998 118.7 75.4998C117 71.3998 114.2 66.9998 111.5 64.2998C109 61.7998 106 60.1998 103.1 59.5998C102.4 59.5998 101.8 59.4998 101.2 59.4998Z" fill="#301F00"/>
<path d="M49.7999 122C56.3721 122 61.6999 119.493 61.6999 116.4C61.6999 113.307 56.3721 110.8 49.7999 110.8C43.2277 110.8 37.8999 113.307 37.8999 116.4C37.8999 119.493 43.2277 122 49.7999 122Z" fill="#FFD81A"/>
<path d="M49.7998 110.8C45.5998 110.8 41.8998 111.8 39.7998 113.4C45.3998 115.5 52.4998 116.6 61.6998 116.8C61.6998 116.7 61.6998 116.6 61.6998 116.5C61.6998 113.3 56.3998 110.8 49.7998 110.8Z" fill="#FFA227"/>
<path d="M49.7999 123.5C42.1999 123.5 36.3999 120.4 36.3999 116.4C36.3999 112.3 42.1999 109.3 49.7999 109.3C57.3999 109.3 63.1999 112.4 63.1999 116.4C63.1999 120.5 57.4999 123.5 49.7999 123.5ZM49.7999 112.3C43.3999 112.3 39.3999 114.7 39.3999 116.4C39.3999 118.1 43.4999 120.5 49.7999 120.5C56.0999 120.5 60.1999 118.1 60.1999 116.4C60.1999 114.7 56.1999 112.3 49.7999 112.3Z" fill="#301F00"/>
<path d="M78.1998 122C84.772 122 90.0998 119.493 90.0998 116.4C90.0998 113.307 84.772 110.8 78.1998 110.8C71.6276 110.8 66.2998 113.307 66.2998 116.4C66.2998 119.493 71.6276 122 78.1998 122Z" fill="#FFD81A"/>
<path d="M78.1998 110.8C71.5998 110.8 66.2998 113.3 66.2998 116.4C66.2998 116.5 66.2998 116.6 66.2998 116.7C75.3998 116.5 82.5998 115.4 88.1998 113.4C86.0998 111.8 82.3998 110.8 78.1998 110.8Z" fill="#FFA227"/>
<path d="M78.1998 123.5C70.5998 123.5 64.7998 120.4 64.7998 116.4C64.7998 112.3 70.5998 109.3 78.1998 109.3C85.7998 109.3 91.5998 112.4 91.5998 116.4C91.5998 120.5 85.7998 123.5 78.1998 123.5ZM78.1998 112.3C71.7998 112.3 67.7998 114.7 67.7998 116.4C67.7998 118.1 71.8998 120.5 78.1998 120.5C84.4998 120.5 88.5998 118.1 88.5998 116.4C88.5998 114.7 84.4998 112.3 78.1998 112.3Z" fill="#301F00"/>
<path d="M107.5 69.2999C107.5 97.0999 102 112.8 64 112.8C26.2 112.8 20.5 97.0999 20.5 69.2999C20.5 41.4999 30.8 12.3999 64 12.3999C100.1 12.3999 107.5 41.4999 107.5 69.2999Z" fill="#253542"/>
<path d="M64.0001 107.7C27.5001 107.7 21.0001 93.0999 20.6001 67.0999C20.6001 67.7999 20.6001 68.4999 20.6001 69.1999C20.6001 96.9999 26.3001 112.7 64.1001 112.7C102.1 112.7 107.6 96.9999 107.6 69.1999C107.6 68.3999 107.6 67.6999 107.6 66.8999C107.1 93.0999 100.7 107.7 64.0001 107.7Z" fill="#0F171C"/>
<path d="M64 23.3998C97.8 23.3998 106.4 48.8998 107.4 74.8998C107.5 73.0998 107.5 71.1998 107.5 69.1998C107.5 41.3998 100.2 12.2998 64 12.2998C30.8 12.2998 20.5 41.3998 20.5 69.1998C20.5 71.2998 20.5 73.2998 20.6 75.2998C21.8 49.0998 32.8 23.3998 64 23.3998Z" fill="#2B4753"/>
<path d="M64 114.2C45.4 114.2 33.7 110.4 26.9 102.4C20 93.9999 19 81.4999 19 69.2999C19 58.0999 20.7 42.1999 28.5 29.5999C36.3 17.1999 48.2 10.8999 64 10.8999C80.9 10.8999 93.2 17.1999 100.6 29.5999C106.2 39.1999 109 52.0999 109 69.1999C109 99.0999 102 114.2 64 114.2ZM64 13.8999C26.1 13.8999 22 52.5999 22 69.2999C22 97.6999 28.3 111.3 64 111.3C99.7 111.3 106 97.7999 106 69.2999C106 31.9999 92.2 13.8999 64 13.8999Z" fill="#301F00"/>
<path d="M96.9999 56.7999C97.2999 55.4999 97.3999 54.3 97.3999 53C97.3999 42.1 88.4999 33.2 77.5999 33.2C76.4999 33.2 75.4999 33.3 74.3999 33.5C73.8999 33.6 73.3999 33.6999 72.8999 33.7999C72.0999 33.9999 71.1999 34.2999 70.3999 34.5999H70.2999C69.8999 34.6999 69.5999 34.8999 69.1999 35.0999H69.0999C68.6999 35.2999 68.3999 35.3999 68.0999 35.5999H67.9999C67.6999 35.7999 67.2999 36 66.9999 36.2C66.9999 36.2 66.9999 36.2 66.8999 36.2C66.0999 36.7 65.3999 37.3 64.5999 37.9C64.2999 38.1 64.0999 38.2999 63.7999 38.5999C61.2999 36.2999 58.2999 34.5 54.7999 33.7C53.2999 33.4 51.7999 33.2 50.1999 33.2C49.0999 33.2 48.0999 33.3 46.9999 33.5C43.2999 34.1 39.9999 35.7 37.2999 38C33.0999 41.6 30.3999 47 30.3999 53C30.3999 57.2 31.6999 61.0999 33.8999 64.1999C26.4999 85.7999 37.0999 108.5 63.6999 108.5C90.2999 108.5 101 85.7999 93.4999 64.1999C95.2999 61.9999 96.3999 59.4999 96.9999 56.7999Z" fill="#F2F2F2"/>
<path d="M64.0001 110C52.1001 110 42.2001 105.4 36.3001 97.0999C30.1001 88.3999 28.7001 76.1999 32.5001 64.3999C30.3001 60.9999 29.1001 56.9999 29.1001 52.8999C29.1001 46.6999 31.8001 40.7999 36.5001 36.6999C39.5001 34.1999 43.1001 32.4999 46.9001 31.8999C49.5001 31.4999 52.5001 31.5999 55.2001 32.1999C58.4001 32.9999 61.3001 34.3999 63.8001 36.4999C64.5001 35.8999 65.2001 35.3999 66.0001 34.8999C66.4001 34.5999 66.8001 34.3999 67.2001 34.1999L67.3001 34.0999C67.7001 33.8999 68.0001 33.6999 68.4001 33.4999L68.5001 33.3999C68.9001 33.1999 69.3001 33.0999 69.7001 32.8999C70.7001 32.4999 71.6001 32.1999 72.4001 31.9999C72.9001 31.8999 73.4001 31.7999 74.0001 31.6999C75.1001 31.4999 76.2001 31.3999 77.4001 31.3999C89.1001 31.3999 98.7001 40.8999 98.7001 52.6999C98.7001 54.0999 98.6001 55.4999 98.3001 56.7999C97.8001 59.3999 96.8001 61.8999 95.3001 64.0999C99.2001 75.8999 97.8001 88.0999 91.5001 96.7999C85.8001 105.4 75.9001 110 64.0001 110ZM50.4001 34.6999C49.4001 34.6999 48.4001 34.7999 47.5001 34.8999C44.2001 35.3999 41.1001 36.8999 38.6001 38.9999C34.5001 42.4999 32.2001 47.4999 32.2001 52.8999C32.2001 56.5999 33.3001 60.1999 35.5001 63.2999C35.8001 63.6999 35.8001 64.1999 35.7001 64.5999C31.9001 75.6999 33.0001 87.1999 38.8001 95.2999C44.2001 103 52.9001 107 64.0001 107C75.1001 107 83.8001 103 89.3001 95.3999C95.1001 87.2999 96.3001 75.7999 92.4001 64.6999V64.5999C92.3001 64.1999 92.4001 63.6999 92.6001 63.2999C94.0001 61.1999 95.0001 58.9999 95.5001 56.4999C95.7001 55.2999 95.9001 54.0999 95.9001 52.9999C95.9001 42.8999 87.7001 34.6999 77.6001 34.6999C76.6001 34.6999 75.6001 34.7999 74.7001 34.8999C74.2001 34.9999 73.8001 35.0999 73.4001 35.1999C72.6001 35.3999 71.9001 35.5999 71.1001 35.8999C70.7001 36.0999 70.3001 36.1999 70.0001 36.3999H69.9001C69.6001 36.5999 69.2001 36.6999 68.9001 36.8999L68.8001 36.9999C68.5001 37.1999 68.2001 37.2999 67.9001 37.4999C67.1001 37.9999 66.4001 38.4999 65.8001 39.0999C65.5001 39.2999 65.3001 39.4999 65.1001 39.6999C64.5001 40.1999 63.6001 40.1999 63.0001 39.6999C60.7001 37.4999 57.8001 35.8999 54.7001 35.1999C53.3001 34.7999 51.8001 34.6999 50.4001 34.6999Z" fill="#301F00"/>
<path d="M80 64C81.6569 64 83 62.6569 83 61C83 59.3431 81.6569 58 80 58C78.3431 58 77 59.3431 77 61C77 62.6569 78.3431 64 80 64Z" fill="#301F00"/>
<path d="M48 64C49.6569 64 51 62.6569 51 61C51 59.3431 49.6569 58 48 58C46.3431 58 45 59.3431 45 61C45 62.6569 46.3431 64 48 64Z" fill="#301F00"/>
<path d="M55.8999 71.7997C57.9999 68.8997 71.1999 68.6997 72.8999 71.7997C74.5999 74.8997 68.6999 83.4997 64.3999 83.4997C60.1999 83.4997 53.7999 74.6997 55.8999 71.7997Z" fill="#FFD81A"/>
<path d="M72.5999 75.7997C73.2999 74.1997 73.4999 72.6997 72.8999 71.7997C71.1999 68.6997 57.9999 68.8997 55.8999 71.7997C55.1999 72.6997 55.3999 74.2997 56.1999 75.9997C58.7999 73.3997 69.9999 73.1997 72.5999 75.7997Z" fill="#FFEA55"/>
<path d="M64.4 84.9998C60.9 84.9998 57.1 81.0998 55.2 77.3998C53.8 74.6998 53.6 72.3998 54.7 70.8998C56.7 68.1998 63.4 67.7998 66.7 68.0998C69.5 68.2998 73.1 68.9998 74.2 71.0998C75.5 73.4998 73.7 77.0998 72.9 78.4998C71 81.5998 67.6 84.9998 64.4 84.9998ZM64.8 70.9998C60.8 70.9998 57.7 71.8998 57.2 72.6998C57 72.9998 57 74.1998 57.9 75.9998C59.5 79.0998 62.6 81.9998 64.5 81.9998C66.1 81.9998 68.7 79.6998 70.4 76.8998C71.8 74.5998 71.9 72.9998 71.6 72.4998C71.4 72.0998 69.9 71.2998 66.5 71.0998C65.9 70.9998 65.3 70.9998 64.8 70.9998Z" fill="#301F00"/>
</svg>
