<svg width="128" height="128" viewBox="0 0 128 128" fill="none" xmlns="http://www.w3.org/2000/svg">
<path d="M80.6001 101.2C79.5001 97.4999 76.6001 97.1999 76.6001 97.1999C76.6001 97.1999 70.2001 95.9999 63.8001 95.8999C63.6001 95.8999 63.4001 95.8999 63.2001 95.8999C63.0001 95.8999 62.8001 95.8999 62.6001 95.8999C56.3001 95.9999 49.8001 97.1999 49.8001 97.1999C49.8001 97.1999 46.9001 97.4999 45.8001 101.2C43.5001 109.3 43.9001 124.3 51.8001 124.2C54.0001 124.2 55.7001 122.2 55.7001 118C57.7001 118.7 60.1001 119.2 62.8001 119.2C65.8001 119.2 68.6001 118.6 70.7001 117.7C70.6001 122.1 72.3001 124.2 74.6001 124.2C82.5001 124.2 82.9001 109.2 80.6001 101.2Z" fill="#F2F2F2"/>
<path d="M80.6001 101.2C79.5001 97.4999 76.6001 97.1999 76.6001 97.1999C76.6001 97.1999 70.2001 95.9999 63.8001 95.8999C63.6001 95.8999 63.4001 95.8999 63.2001 95.8999C63.0001 95.8999 62.8001 95.8999 62.6001 95.8999C56.3001 95.9999 49.8001 97.1999 49.8001 97.1999C49.8001 97.1999 46.9001 97.4999 45.8001 101.2C45.5001 102.2 45.3001 103.3 45.1001 104.5C49.9001 105.6 55.2001 106.1 60.8001 106.1C61.0001 106.1 61.2001 106.1 61.3001 106.1C61.5001 106.1 61.6001 106.1 61.8001 106.1C68.8001 106.1 75.4001 105.3 81.1001 103.5C81.0001 102.7 80.8001 101.9 80.6001 101.2Z" fill="#CCCCCC"/>
<path d="M82 100.7C80.8 96.3998 77.4 95.6998 76.8 95.5998C76.3 95.4998 70.2 94.3998 64 94.2998H63.8H63.2H62.5H62.3C56.1 94.3998 50.1 95.4998 49.5 95.5998C48.9 95.6998 45.5 96.3998 44.3 100.7C42.6 106.5 42 117.5 46 122.7C47.4 124.6 49.4 125.6 51.7 125.6H51.8C53.3 125.6 54.7 124.9 55.7 123.6C56.3 122.8 56.9 121.6 57.1 119.9C58.8 120.3 60.8 120.6 62.8 120.6C65.2 120.6 67.4 120.3 69.3 119.7C69.5 121.5 70.1 122.8 70.7 123.6C71.6 124.8 73 125.5 74.6 125.6H74.7C77 125.6 78.9 124.6 80.4 122.7C84.3 117.5 83.7 106.5 82 100.7ZM77.9 120.9C77 122.1 75.9 122.6 74.6 122.6C74 122.6 73.5 122.3 73.1 121.8C72.8 121.4 72.3 120.4 72.2 118.6C72.2 118.1 72.2 117.5 72.2 116.9C72.2 116.6 72.3 116.3 72.3 116C72.3 115.9 72.3 115.9 72.3 115.8C72.3 115.6 72.4 115.4 72.4 115.2C72.5 114.4 72.7 113.5 73 112.5C73.2 111.7 72.7 110.9 71.9 110.7C71.1 110.5 70.3 111 70.1 111.8C69.6 113.7 69.3 115.3 69.2 116.7C67.4 117.3 65.2 117.7 62.8 117.7C60.7 117.7 58.8 117.4 57.1 116.9C57 115.5 56.7 113.8 56.2 111.8C56 111 55.2 110.5 54.4 110.7C53.6 110.9 53.1 111.7 53.3 112.5C53.6 113.6 53.8 114.6 53.9 115.4C54 116.1 54.1 116.8 54.1 117.4C54.1 117.7 54.1 117.9 54.1 118.2V118.3C54.1 118.5 54.1 118.8 54.1 119C54 120.6 53.5 121.5 53.2 121.9C52.8 122.4 52.3 122.7 51.7 122.7C50.3 122.7 49.3 122.2 48.4 121C45.5 117.2 45.4 107.7 47.2 101.6C47.9 98.9998 49.7 98.6998 49.9 98.6998H50C50.1 98.6998 56.4 97.5998 62.5 97.3998H62.6H63.1H63.5H63.6C69.7 97.4998 76.1 98.6998 76.2 98.6998C76.4 98.6998 78.2 98.9998 78.9 101.6C80.9 107.7 80.8 117.1 77.9 120.9Z" fill="#301F00"/>
<path d="M96.6 36.3C102.5 21.6 104.1 8.40002 94.6 4.60002C85.1 0.800015 77 11.3 71.1 26C65.2 40.7 63.6 53.9 73.1 57.7C82.6 61.5 90.7 50.9 96.6 36.3Z" fill="#F2F2F2"/>
<path d="M77.0999 59.9999C75.4999 59.9999 73.9999 59.5999 72.5999 59.0999C69.0999 57.6999 64.9999 54.2999 64.8999 45.8999C64.7999 40.4999 66.4999 33.5999 69.7999 25.3999C73.0999 17.1999 76.6999 11.0999 80.4999 7.29991C86.2999 1.39991 91.6999 1.79991 95.1999 3.19991C101.6 5.79991 107.4 13.6999 97.9999 36.7999C90.5999 54.9999 83.0999 59.9999 77.0999 59.9999ZM90.6999 5.29991C87.9999 5.29991 85.2999 6.69991 82.5999 9.39991C78.9999 12.9999 75.6999 18.7999 72.4999 26.5999C69.3999 34.3999 67.7999 40.8999 67.7999 45.8999C67.8999 51.2999 69.7999 54.6999 73.5999 56.2999C82.9999 60.0999 90.4999 47.1999 95.0999 35.6999C99.7999 24.2999 103.4 9.79991 93.9999 5.99991C92.8999 5.49991 91.7999 5.29991 90.6999 5.29991Z" fill="#301F00"/>
<path d="M76.9999 52.4998C76.4999 52.4998 75.8999 52.3998 75.3999 52.0998C74.3999 51.6998 72.3999 50.8998 72.3999 45.7998C72.3999 41.3998 73.8999 35.2998 76.6999 28.1998C82.1999 14.5998 87.4999 9.7998 90.6999 9.7998C91.1999 9.7998 91.7999 9.8998 92.2999 10.1998C97.5999 12.2998 95.0999 23.8998 90.9999 34.0998C85.4999 47.5998 80.1999 52.4998 76.9999 52.4998Z" fill="#FFB6C6"/>
<path d="M76.9998 54C76.2998 54 75.5998 53.8 74.7998 53.5C72.9998 52.8 70.8998 51.1999 70.7998 45.7999C70.7998 41.1999 72.2998 34.9 75.1998 27.6C80.1998 15.3 85.7998 8.19995 90.5998 8.19995C91.2998 8.19995 91.9998 8.39995 92.7998 8.69995C95.8998 9.99995 97.1998 13.5 96.5998 19.2C96.1998 23.4 94.5998 28.8 92.2998 34.5C87.3998 46.9 81.7998 54 76.9998 54ZM90.6998 11.3C88.5998 11.3 83.6998 14.9999 78.0998 28.7999C75.2998 35.7999 73.7998 41.5999 73.8998 45.7999C73.8998 49.8999 75.2998 50.4 75.9998 50.7C76.3998 50.9 76.7998 50.9 77.0998 50.9C79.1998 50.9 84.0998 47.2 89.6998 33.4C91.8998 27.9 93.3998 22.8 93.7998 18.9C94.0998 16 93.9998 12.4 91.8998 11.5C91.3998 11.4 90.9998 11.3 90.6998 11.3Z" fill="#301F00"/>
<path d="M29.7999 36.2998C23.8999 21.5998 22.2999 8.39977 31.7999 4.59977C41.2999 0.799771 49.2999 11.2998 55.1999 25.9998C61.0999 40.6998 62.6999 53.8998 53.1999 57.6998C43.6999 61.4998 35.6999 50.8998 29.7999 36.2998Z" fill="#F2F2F2"/>
<path d="M49.3 59.9998C43.3 59.9998 35.7 55.0998 28.4 36.8998C19.1 13.7998 24.8 5.89981 31.2 3.29981C37.6 0.699814 47.3 2.39981 56.6 25.4998C65.9 48.5998 60.2 56.4998 53.8 59.0998C52.4 59.5998 50.9 59.9998 49.3 59.9998ZM35.7 5.29981C34.6 5.29981 33.5 5.49981 32.4 5.99981C23 9.79981 26.6 24.2998 31.2 35.6998C35.8 47.1998 43.3 60.0998 52.7 56.2998C62.1 52.4998 58.5 37.9998 53.9 26.5998C49.8 16.4998 43.5 5.29981 35.7 5.29981Z" fill="#301F00"/>
<path d="M49.3 52.4998C46.1 52.4998 40.8 47.6998 35.3 34.0998C31.2 23.9998 28.7 12.3998 34 10.1998C34.6 9.9998 35.1 9.7998 35.6 9.7998C38.8 9.7998 44.1 14.5998 49.6 28.1998C52.5 35.2998 54 41.3998 53.9 45.7998C53.8 50.8998 51.8 51.6998 50.9 52.0998C50.4 52.3998 49.9 52.4998 49.3 52.4998Z" fill="#FFB6C6"/>
<path d="M49.3 53.9998C44.5 53.9998 38.9 46.8998 33.9 34.5998C31.6 28.8998 30.1 23.3998 29.6 19.2998C29 13.5998 30.3 10.0998 33.4 8.7998C34.2 8.4998 34.9 8.2998 35.6 8.2998C40.4 8.2998 46 15.3998 51 27.6998C54 34.9998 55.5 41.2998 55.4 45.8998C55.3 51.2998 53.3 52.7998 51.4 53.5998C50.8 53.7998 50 53.9998 49.3 53.9998ZM35.7 11.2998C35.4 11.2998 35 11.3998 34.6 11.4998C32.4 12.3998 32.4 15.9998 32.7 18.8998C33.1 22.7998 34.6 27.9998 36.8 33.3998C42.3 47.2998 47.3 50.9998 49.3 50.9998C49.6 50.9998 50 50.8998 50.4 50.7998C51.1 50.4998 52.4 49.9998 52.5 45.8998C52.5 41.6998 51.1 35.7998 48.3 28.8998C42.7 14.9998 37.7 11.2998 35.7 11.2998Z" fill="#301F00"/>
<path d="M102.2 72.8999C102.2 93.2999 84.7 100.9 63.2 100.9C41.7 100.9 24.2 93.2999 24.2 72.8999C24.2 55.4999 29.8 34.3999 50.7 28.4999C52.7 27.8999 54.9 27.4999 57.2 27.1999C58.1 27.0999 59 26.9999 60 26.9999C61.1 26.8999 62.1 26.8999 63.2 26.8999C64.3 26.8999 65.4 26.8999 66.4 26.9999C67.3 27.0999 68.2999 27.0999 69.1999 27.1999C71.4999 27.4999 73.6999 27.8999 75.6999 28.4999C96.5999 34.4999 102.2 55.5999 102.2 72.8999Z" fill="#F2F2F2"/>
<path d="M63.2 95.8999C42.4 95.8999 25.3999 88.7999 24.2999 69.8999C24.2999 70.8999 24.2 71.8999 24.2 72.8999C24.2 93.2999 41.7 100.9 63.2 100.9C84.7 100.9 102.2 93.2999 102.2 72.8999C102.2 71.8999 102.2 70.8999 102.1 69.8999C101 88.7999 84 95.8999 63.2 95.8999Z" fill="#CCCCCC"/>
<path d="M63.1999 26.8999C62.5999 26.8999 61.9999 26.8999 61.3999 26.8999C60.8999 26.8999 60.3999 26.8999 59.9999 26.9999C59.6999 26.9999 59.3999 26.9999 59.0999 27.0999C58.4999 27.0999 57.8999 27.1999 57.2999 27.2999C54.9999 27.5999 52.7999 27.9999 50.7999 28.5999C36.9999 32.4999 29.8999 42.9999 26.5999 54.5999C26.2999 55.5999 26.0999 56.4999 25.8999 57.4999C25.6999 58.5999 25.3999 59.6999 25.2999 60.7999C25.0999 61.7999 24.9999 62.7999 24.8999 63.7999C24.5999 66.1999 24.3999 68.5999 24.3999 70.9999C24.3999 70.5999 24.3999 70.2999 24.3999 69.8999C24.4999 71.3999 24.6999 72.7999 24.9999 74.1999C27.2999 56.1999 36.9999 37.8999 63.3999 37.8999C89.7999 37.8999 99.3999 56.1999 101.8 74.1999C102.1 72.7999 102.3 71.3999 102.4 69.8999C102.4 70.8999 102.5 71.8999 102.5 72.8999C102.5 73.2999 102.5 73.6999 102.5 74.0999C102.5 73.6999 102.5 73.2999 102.5 72.9999C102.5 72.8999 102.5 72.8999 102.5 72.8999C102.5 70.0999 102.3 67.2999 102 64.3999C101.9 63.3999 101.7 62.3999 101.6 61.3999C101.4 60.2999 101.2 59.1999 101 58.0999C100.8 57.0999 100.5 56.1999 100.3 55.1999C99.5999 52.4999 98.5999 49.8999 97.3999 47.3999C96.6999 45.9999 95.9999 44.5999 95.1999 43.2999C91.0999 36.7999 84.9999 31.4999 76.0999 28.9999C74.0999 28.3999 71.8999 27.9999 69.5999 27.6999C68.9999 27.5999 68.3999 27.5999 67.7999 27.4999C67.4999 27.4999 67.1999 27.4999 66.8999 27.3999C66.3999 27.3999 65.8999 27.2999 65.3999 27.2999C64.3999 26.9999 63.7999 26.9999 63.1999 26.8999Z" fill="white"/>
<path d="M63.2 25.3999C26.7 25.3999 22.7 58.5999 22.7 72.8999C22.7 81.5999 25.7 88.4999 31.5 93.4999C38.3 99.2999 49 102.4 63.2 102.4C77.4 102.4 87.9999 99.2999 94.8999 93.4999C100.7 88.5999 103.7 81.5999 103.7 72.8999C103.7 58.6999 99.7 25.3999 63.2 25.3999ZM93.5 90.5999C92.8 91.2999 92 91.8999 91.2 92.4999C83.1 98.1999 71.5 99.3999 63.2 99.3999C54.9 99.3999 43.4 98.1999 35.2999 92.4999C34.4999 91.8999 33.7 91.2999 32.9 90.5999C28.6 86.5999 25.7 80.9999 25.7 72.8999C25.7 59.4999 29.4 28.3999 63.2 28.3999C97 28.3999 100.7 59.4999 100.7 72.8999C100.7 80.9999 97.8 86.6999 93.5 90.5999Z" fill="#301F00"/>
<path d="M79.1001 80.8999C80.757 80.8999 82.1001 79.5568 82.1001 77.8999C82.1001 76.243 80.757 74.8999 79.1001 74.8999C77.4432 74.8999 76.1001 76.243 76.1001 77.8999C76.1001 79.5568 77.4432 80.8999 79.1001 80.8999Z" fill="#301F00"/>
<path d="M47.3 80.8999C48.9569 80.8999 50.3 79.5568 50.3 77.8999C50.3 76.243 48.9569 74.8999 47.3 74.8999C45.6432 74.8999 44.3 76.243 44.3 77.8999C44.3 79.5568 45.6432 80.8999 47.3 80.8999Z" fill="#301F00"/>
<path d="M64.2998 96.8H62.6998C61.9998 96.8 61.3998 96.3 61.2998 95.5L60.9998 91.7C60.8998 90.9 61.5998 90.2 62.3998 90.2H64.6998C65.4998 90.2 66.1998 90.9 66.0998 91.7L65.7998 95.5C65.5998 96.2 64.9998 96.8 64.2998 96.8Z" fill="#F2F2F2"/>
<path d="M65.3999 89.9C65.1999 89.5 65.0999 89.1 64.9999 88.7C64.8999 88.7 64.6999 88.7 64.5999 88.7H62.2999C62.1999 88.7 61.9999 88.7 61.8999 88.7C61.8999 89 61.7999 89.4 61.5999 89.7C61.1999 90.6 60.3999 91.3 59.3999 91.6C59.3999 91.7 59.3999 91.8 59.3999 91.9L59.5999 94.6L59.6999 95.7C59.7999 97.2 61.0999 98.3 62.5999 98.3H64.1999C65.6999 98.3 66.8999 97.2 67.0999 95.7L67.1999 94.6L67.3999 91.9C67.3999 91.8 67.3999 91.7 67.3999 91.6C66.5999 91.3 65.7999 90.7 65.3999 89.9ZM62.7999 95.3L62.5999 93.3L62.4999 91.7H64.5999L64.4999 93.3L64.2999 95.3H62.7999Z" fill="#301F00"/>
<path d="M70.8999 94.1999C70.0999 94.4999 69.2999 94.6999 68.3999 94.6999C67.9999 94.6999 67.6999 94.6999 67.2999 94.5999C66.7999 94.4999 66.2999 94.2999 65.7999 94.0999C65.2999 93.8999 64.7999 93.5999 64.3999 93.1999C64.0999 92.8999 63.7999 92.5999 63.4999 92.2999C63.1999 92.5999 62.8999 92.8999 62.5999 93.1999C62.1999 93.5999 61.6999 93.8999 61.1999 94.0999C60.6999 94.2999 60.1999 94.4999 59.6999 94.5999C59.2999 94.6999 58.9999 94.6999 58.5999 94.6999C57.6999 94.6999 56.8999 94.4999 56.0999 94.1999C55.2999 93.8999 54.9999 92.9999 55.2999 92.1999C55.5999 91.3999 56.4999 91.0999 57.2999 91.3999C57.6999 91.5999 58.0999 91.6999 58.5999 91.6999C58.8999 91.6999 59.1999 91.6999 59.3999 91.5999C60.3999 91.2999 61.1999 90.5999 61.5999 89.6999C61.6999 89.3999 61.7999 89.0999 61.8999 88.6999C61.8999 88.5999 61.8999 88.3999 61.8999 88.2999C61.8999 87.6999 62.2999 87.1999 62.7999 86.8999C63.0999 86.9999 63.4999 87.0999 63.7999 87.0999C63.9999 87.0999 64.0999 87.0999 64.2999 87.0999C64.6999 87.3999 64.9999 87.7999 64.9999 88.3999C64.9999 88.4999 64.9999 88.6999 64.9999 88.7999C65.0999 89.1999 65.1999 89.5999 65.3999 89.9999C65.7999 90.7999 66.5999 91.3999 67.4999 91.6999C67.7999 91.7999 68.0999 91.7999 68.2999 91.7999C68.7999 91.7999 69.1999 91.6999 69.5999 91.4999C70.3999 91.1999 71.1999 91.4999 71.5999 92.2999C71.9999 92.9999 71.5999 93.7999 70.8999 94.1999Z" fill="#301F00"/>
<path d="M63.5001 87.1998C65.9302 87.1998 67.9001 85.7671 67.9001 83.9998C67.9001 82.2325 65.9302 80.7998 63.5001 80.7998C61.07 80.7998 59.1001 82.2325 59.1001 83.9998C59.1001 85.7671 61.07 87.1998 63.5001 87.1998Z" fill="#FFB6C6"/>
<path d="M67.9 83.9998H66.4C66.4 84.1998 66.4 84.2998 66.3 84.4998C66.1 84.7998 65.8 85.0998 65.3 85.2998C64.8 85.4998 64.2 85.6998 63.5 85.6998C62.6 85.6998 61.8 85.3998 61.3 84.9998C61 84.7998 60.9 84.5998 60.8 84.3998C60.7 84.1998 60.7 84.0998 60.7 83.8998C60.7 83.6998 60.7 83.5998 60.8 83.3998C61 83.0998 61.3 82.7998 61.8 82.5998C62.3 82.3998 62.9 82.1998 63.6 82.1998C64.5 82.1998 65.3 82.4998 65.8 82.8998C66.1 83.0998 66.2 83.2998 66.3 83.4998C66.4 83.6998 66.4 83.7998 66.4 83.9998H67.9H69.4C69.4 83.2998 69.2 82.5998 68.8 81.9998C68.3 81.0998 67.5 80.3998 66.6 79.9998C65.7 79.4998 64.6 79.2998 63.5 79.2998C62 79.2998 60.6 79.6998 59.5 80.4998C59 80.8998 58.5 81.3998 58.1 81.9998C57.8 82.5998 57.5 83.2998 57.5 83.9998C57.5 84.6998 57.7 85.3998 58.1 85.9998C58.6 86.8998 59.4 87.5998 60.3 87.9998C61.2 88.4998 62.3 88.6998 63.4 88.6998C64.9 88.6998 66.3 88.2998 67.4 87.4998C67.9 87.0998 68.4 86.5998 68.8 85.9998C69.1 85.3998 69.4 84.6998 69.4 83.9998H67.9Z" fill="#301F00"/>
</svg>
