<svg width="128" height="128" viewBox="0 0 128 128" fill="none" xmlns="http://www.w3.org/2000/svg">
<path d="M62.3999 97.3001C62.3999 97.3001 84.5999 87.1001 81.0999 66.9001C78.4999 51.8001 91.4999 39.6001 107.7 45.6001C127.5 52.9001 117.3 77.0001 107 82.1001C107 82.1001 111 68.5001 105.6 67.8001C99.3999 66.9001 102.7 80.3001 98.7999 88.8001C94.2999 98.4001 75.3999 112.3 56.3999 101.9L51.8999 94.1001L57.6999 90.3001L62.3999 97.3001Z" fill="#FFB6C6"/>
<path d="M117.8 54.6001C120.3 64.6001 115.4 76.4001 108.8 79.7001C108.8 79.7001 115.4 63.0001 105.9 63.1001C95.5999 63.2001 96.6999 75.2001 94.6999 84.6001C92.4999 94.8001 74.3999 110.2 55.5999 100.5L56.4999 102C75.4999 112.4 94.3999 98.5001 98.8999 88.9001C102.8 80.5001 99.4999 67.0001 105.7 67.9001C111.2 68.7001 107.1 82.2001 107.1 82.2001C114.5 78.4001 122 64.7001 117.8 54.6001Z" fill="#FF97A9"/>
<path d="M107.7 45.6001C91.3998 39.6001 78.4998 51.8001 81.0998 66.9001C84.4998 87.1001 62.3998 97.3001 62.3998 97.3001L57.7998 90.3001L51.9998 94.1001L56.4998 101.9C57.1998 102.3 57.0998 100.4 57.7998 100.8C62.1998 99.2001 88.4998 91.0001 85.5998 73.5001C83.0998 59.2001 94.4998 46.9001 109 54.6001C115.8 58.2001 116.8 73.3001 108.9 79.7001L107.1 82.2001C117.3 77.1001 127.5 53.0001 107.7 45.6001Z" fill="#FFD0DC"/>
<path d="M70.4999 107.1C65.3999 107.1 60.3999 105.8 55.6999 103.2C55.4999 103.1 55.2999 102.9 55.0999 102.6L50.5999 94.8C50.1999 94.1 50.3999 93.2 51.0999 92.8L56.8999 89C57.5999 88.5 58.4999 88.7 58.9999 89.4L62.8999 95.3C67.2999 92.9 82.3999 83.3 79.5999 67.1C78.2999 59.2 80.7999 51.7 86.4999 47C92.2999 42.2 100.2 41.2 108.2 44.1C115.7 46.9 120 52.4 120.4 59.7C120.9 69.6 114.1 80.1 107.6 83.3C107.1 83.6 106.4 83.5 106 83.1C105.5 82.7 105.4 82.1 105.5 81.5C106.5 78.1 107.6 71.8 106.2 69.7C106 69.3 105.7 69.1 105.3 69.1C104.7 69 104.4 69.2 104.3 69.3C103.2 70.2 102.9 73.6 102.6 77C102.3 81 101.9 85.5 100.1 89.3C97.5999 94.7 90.2999 102.1 80.2999 105.4C77.0999 106.5 73.7999 107.1 70.4999 107.1ZM57.4999 100.8C66.1999 105.4 74.1999 104.3 79.3999 102.6C88.0999 99.7 95.0999 93.2 97.3999 88.1C98.8999 84.8 99.2999 80.6 99.5999 76.8C99.9999 72.3 100.3 68.7 102.4 67C103.3 66.3 104.4 66 105.7 66.2C107 66.4 108 67.1 108.7 68.2C110.3 70.7 109.9 75.3 109.3 78.6C113.8 74.5 117.7 66.9 117.4 59.9C117.2 55.6 115.2 49.9 107.1 46.9C100.1 44.3 93.2999 45.2 88.2999 49.3C83.4999 53.3 81.2999 59.8 82.3999 66.6C85.9999 87.6 63.0999 98.5 62.7999 98.6C62.0999 98.9 61.2999 98.7 60.8999 98.1L57.0999 92.3L53.9999 94.6L57.4999 100.8Z" fill="#301F00"/>
<path d="M70.1001 97.4001C69.0001 93.7001 66.1001 93.4001 66.1001 93.4001C66.1001 93.4001 59.7001 92.2001 53.3001 92.1001C53.1001 92.1001 52.9001 92.1001 52.7001 92.1001C52.5001 92.1001 52.3001 92.1001 52.1001 92.1001C45.8001 92.2001 39.3001 93.4001 39.3001 93.4001C39.3001 93.4001 36.4001 93.7001 35.3001 97.4001C33.0001 105.5 33.4001 120.5 41.3001 120.4C43.5001 120.4 45.2001 118.4 45.2001 114.2C47.2001 114.9 49.6001 115.4 52.3001 115.4C55.3001 115.4 58.1001 114.8 60.2001 113.9C60.1001 118.3 61.8001 120.4 64.1001 120.4C72.0001 120.5 72.4001 105.5 70.1001 97.4001Z" fill="#F2F2F2"/>
<path d="M70.1001 97.4001C69.0001 93.7001 66.1001 93.4001 66.1001 93.4001C66.1001 93.4001 59.7001 92.2001 53.3001 92.1001C53.1001 92.1001 52.9001 92.1001 52.7001 92.1001C52.5001 92.1001 52.3001 92.1001 52.1001 92.1001C45.8001 92.2001 39.3001 93.4001 39.3001 93.4001C39.3001 93.4001 36.4001 93.7001 35.3001 97.4001C35.0001 98.4001 34.8001 99.5001 34.6001 100.7C39.4001 101.8 44.7001 102.3 50.3001 102.3C50.5001 102.3 50.7001 102.3 50.8001 102.3C51.0001 102.3 51.1001 102.3 51.3001 102.3C58.3001 102.3 64.9001 101.5 70.6001 99.7001C70.5001 99.0001 70.3001 98.2001 70.1001 97.4001Z" fill="#CCCCCC"/>
<path d="M71.5 97.0001C70.3 92.7001 66.9 92.0001 66.3 91.9001C65.8 91.8001 59.7 90.7001 53.5 90.6001H53.3H52.7H52H51.8C45.6 90.7001 39.6 91.8001 39 91.9001C38.4 92.0001 35 92.7001 33.8 97.0001C32.1 102.8 31.5 113.8 35.5 119C36.9 120.9 38.9 121.9 41.2 121.9H41.3C42.8 121.9 44.2 121.2 45.2 119.9C45.8 119.1 46.4 117.9 46.6 116.2C48.3 116.6 50.3 116.9 52.3 116.9C54.7 116.9 56.9 116.6 58.8 116C59 117.8 59.6 119.1 60.2 119.9C61.1 121.1 62.5 121.8 64.1 121.9H64.2C66.5 121.9 68.4 120.9 69.9 119C73.8 113.8 73.2 102.8 71.5 97.0001ZM67.4 117.2C66.5 118.4 65.4 118.9 64.1 118.9C63.5 118.9 63 118.6 62.6 118.1C62.3 117.7 61.8 116.7 61.7 114.9C61.7 114.4 61.7 113.8 61.7 113.2C61.7 112.9 61.8 112.6 61.8 112.3C61.8 112.2 61.8 112.2 61.8 112.1C61.8 111.9 61.9 111.7 61.9 111.5C62 110.7 62.2 109.8 62.5 108.8C62.7 108 62.2 107.2 61.4 107C60.6 106.8 59.8 107.3 59.6 108.1C59.1 110 58.8 111.6 58.7 113C56.9 113.6 54.7 114 52.3 114C50.2 114 48.3 113.7 46.6 113.2C46.5 111.8 46.2 110.1 45.7 108.1C45.5 107.3 44.7 106.8 43.9 107C43.1 107.2 42.6 108 42.8 108.8C43.1 109.9 43.3 110.9 43.4 111.7C43.5 112.4 43.6 113.1 43.6 113.7C43.6 114 43.6 114.2 43.6 114.5V114.6C43.6 114.8 43.6 115.1 43.6 115.3C43.5 116.9 43 117.8 42.7 118.2C42.3 118.7 41.8 119 41.2 119C39.8 119 38.8 118.5 37.9 117.3C35 113.5 34.9 104 36.7 97.9001C37.4 95.3001 39.2 95.0001 39.4 95.0001H39.5C39.6 95.0001 45.9 93.9001 52 93.7001H52.1H52.6H53H53.1C59.2 93.8001 65.6 95.0001 65.7 95.0001C65.9 95.0001 67.7 95.3001 68.4 97.9001C70.4 103.9 70.3 113.4 67.4 117.2Z" fill="#301F00"/>
<path d="M91.7 69.2002C91.7 89.6002 74.2 97.2002 52.7 97.2002C31.2 97.2002 13.7 89.6002 13.7 69.2002C13.7 51.8002 19.3 30.7002 40.2 24.8002C42.2 24.2002 44.4 23.8002 46.7 23.5002C47.6 23.4002 48.5 23.3002 49.5 23.3002C50.6 23.2002 51.6 23.2002 52.7 23.2002C53.8 23.2002 54.9 23.2002 55.9 23.3002C56.8 23.4002 57.8 23.4002 58.7 23.5002C61 23.8002 63.1999 24.2002 65.1999 24.8002C86.0999 30.7002 91.7 51.8002 91.7 69.2002Z" fill="#F2F2F2"/>
<path d="M52.7 92.2002C31.9 92.2002 14.9 85.1002 13.8 66.2002C13.8 67.2002 13.7 68.2002 13.7 69.2002C13.7 89.6002 31.2 97.2002 52.7 97.2002C74.2 97.2002 91.7 89.6002 91.7 69.2002C91.7 68.2002 91.7 67.2002 91.6 66.2002C90.5 85.1002 73.5 92.2002 52.7 92.2002Z" fill="#CCCCCC"/>
<path d="M52.6999 23.2001C52.0999 23.2001 51.4999 23.2001 50.8999 23.2001C50.3999 23.2001 49.8999 23.2001 49.4999 23.3001C49.1999 23.3001 48.8999 23.3001 48.5999 23.4001C47.9999 23.4001 47.3999 23.5001 46.7999 23.6001C44.4999 23.9001 42.2999 24.3001 40.2999 24.9001C26.4999 28.8001 19.3999 39.3001 16.0999 50.9001C15.7999 51.9001 15.5999 52.8001 15.3999 53.8001C15.1999 54.9001 14.8999 56.0001 14.7999 57.1001C14.5999 58.1001 14.4999 59.1001 14.3999 60.1001C14.0999 62.5001 13.8999 64.9001 13.8999 67.3001C13.8999 66.9001 13.8999 66.6001 13.8999 66.2001C13.9999 67.7001 14.1999 69.1001 14.4999 70.5001C16.7999 52.5001 26.4999 34.2001 52.8999 34.2001C79.2999 34.2001 88.8999 52.5001 91.2999 70.5001C91.5999 69.1001 91.7999 67.7001 91.8999 66.2001C91.8999 67.2001 91.9999 68.2001 91.9999 69.2001C91.9999 69.6001 91.9999 70.0001 91.9999 70.4001C91.9999 70.0001 91.9999 69.6001 91.9999 69.3001C91.9999 69.2001 91.9999 69.2001 91.9999 69.2001C91.9999 66.4001 91.7999 63.6001 91.4999 60.7001C91.3999 59.7001 91.1999 58.7001 91.0999 57.7001C90.8999 56.6001 90.6999 55.5001 90.4999 54.4001C90.2999 53.4001 89.9999 52.5001 89.7999 51.5001C89.0999 48.8001 88.0999 46.2001 86.8999 43.7001C86.1999 42.3001 85.4999 40.9001 84.6999 39.6001C80.0999 32.6001 73.9999 27.3001 65.1999 24.8001C63.1999 24.2001 60.9999 23.8001 58.6999 23.5001C58.0999 23.4001 57.4999 23.4001 56.8999 23.3001C56.5999 23.3001 56.2999 23.3001 55.9999 23.2001C55.4999 23.2001 54.9999 23.1001 54.4999 23.1001C53.8999 23.2001 53.2999 23.2001 52.6999 23.2001Z" fill="white"/>
<path d="M52.7 21.7002C16.2 21.7002 12.2 54.9002 12.2 69.2002C12.2 77.9002 15.2 84.8002 21 89.8002C27.8 95.6002 38.5 98.7002 52.7 98.7002C66.9 98.7002 77.5 95.6002 84.4 89.8002C90.2 84.9002 93.2 77.9002 93.2 69.2002C93.2 54.9002 89.2 21.7002 52.7 21.7002ZM83 86.9002C82.3 87.6002 81.5 88.2002 80.7 88.8002C72.6 94.5002 61 95.7002 52.7 95.7002C44.4 95.7002 32.9 94.5002 24.8 88.8002C24 88.2002 23.2 87.6002 22.4 86.9002C18.1 82.9002 15.2 77.3002 15.2 69.2002C15.2 55.8002 18.9 24.7002 52.7 24.7002C86.5 24.7002 90.2 55.8002 90.2 69.2002C90.2 77.3002 87.3 82.9002 83 86.9002Z" fill="#301F00"/>
<path d="M66.9 95.9001C66.9 95.8001 66.9 95.7001 66.9 95.5001C66.9 86.7001 60.5999 79.6001 52.7999 79.6001C44.9999 79.6001 38.7 86.7001 38.7 95.5001C38.7 95.6001 38.7 95.8001 38.7 95.9001C43.1 96.8001 47.8 97.2001 52.7 97.2001C57.7 97.2001 62.5 96.8001 66.9 95.9001Z" fill="#B3B3B3"/>
<path d="M66.8999 95.6002C66.8999 94.0002 66.6999 92.5002 66.2999 91.0002C62.0999 91.8002 57.4999 92.2002 52.6999 92.2002C47.9999 92.2002 43.3999 91.8002 39.1999 91.0002C38.7999 92.4002 38.5999 94.0002 38.5999 95.5002C38.5999 95.6002 38.5999 95.7002 38.5999 95.9002C39.1999 96.0002 39.7999 96.1002 40.3999 96.2002C40.5999 96.2002 40.8999 96.3002 41.0999 96.3002C44.7999 96.9002 48.5999 97.1002 52.6999 97.1002C55.9999 97.1002 59.1999 96.9002 62.2999 96.5002C62.3999 96.5002 62.3999 96.5002 62.4999 96.5002C63.0999 96.4002 63.7999 96.3002 64.3999 96.2002C64.9999 96.1002 65.5999 96.0002 66.0999 95.9002C66.2999 95.9002 66.5999 95.8002 66.7999 95.7002C66.8999 95.8002 66.8999 95.7002 66.8999 95.6002Z" fill="#999999"/>
<path d="M52.7 98.7002C47.5 98.7002 42.7 98.3002 38.4 97.4002C37.7 97.3002 37.2 96.7002 37.2 96.0002V95.9002C37.2 95.8002 37.2 95.7002 37.2 95.6002C37.2 86.0002 44.1999 78.2002 52.7999 78.2002C61.4 78.2002 68.4 86.0002 68.4 95.6002C68.4 95.7002 68.4 95.8002 68.4 95.9002C68.4 96.6002 67.8999 97.3002 67.1999 97.4002C62.7999 98.3002 57.9 98.7002 52.7 98.7002ZM40.2 94.7002C44 95.4002 48.2 95.7002 52.7 95.7002C57.2 95.7002 61.5 95.4002 65.4 94.7002C65 87.1002 59.4999 81.1002 52.7999 81.1002C46.0999 81.1002 40.6 87.1002 40.2 94.7002Z" fill="#301F00"/>
<path d="M49.3 91.6C50.018 91.6 50.6 91.018 50.6 90.3C50.6 89.582 50.018 89 49.3 89C48.582 89 48 89.582 48 90.3C48 91.018 48.582 91.6 49.3 91.6Z" fill="#301F00"/>
<path d="M56.1 91.6C56.818 91.6 57.4001 91.018 57.4001 90.3C57.4001 89.582 56.818 89 56.1 89C55.3821 89 54.8 89.582 54.8 90.3C54.8 91.018 55.3821 91.6 56.1 91.6Z" fill="#301F00"/>
<path d="M68.6001 78.2002C70.257 78.2002 71.6001 76.857 71.6001 75.2002C71.6001 73.5433 70.257 72.2002 68.6001 72.2002C66.9432 72.2002 65.6001 73.5433 65.6001 75.2002C65.6001 76.857 66.9432 78.2002 68.6001 78.2002Z" fill="#301F00"/>
<path d="M36.8 78.2002C38.4569 78.2002 39.8 76.857 39.8 75.2002C39.8 73.5433 38.4569 72.2002 36.8 72.2002C35.1432 72.2002 33.8 73.5433 33.8 75.2002C33.8 76.857 35.1432 78.2002 36.8 78.2002Z" fill="#301F00"/>
<path d="M50.5 21.4001C62.8 24.0001 72 35.7001 60.1 45.5001C51.6 52.5001 37.9 54.3001 30.8 54.7001C28.6 54.8001 27 52.8001 27.7 50.7001C29.2 46.1001 30.2 39.6001 28.8 36.4001C26.6 31.4001 29.2 16.9001 50.5 21.4001Z" fill="#74CBDE"/>
<path d="M49.4999 28.4C56.8999 29.9 63.0999 34.7 64.3999 40.5C68.7999 32.1 60.7999 23.6 50.4999 21.4C31.1999 17.4 27.2999 28.8 28.2999 34.7C30.5999 29.9 36.5999 25.7 49.4999 28.4Z" fill="#B3F4FB"/>
<path d="M30.5999 56.2001C29.1999 56.2001 27.8999 55.5001 26.9999 54.4001C26.0999 53.2001 25.7999 51.6001 26.2999 50.2001C27.7999 45.7001 28.6999 39.7001 27.4999 37.0001C26.0999 33.9001 26.5 28.4001 29.7 24.5001C32.5 21.0001 38.5 17.4001 50.9 20.0001C59 21.7001 65.4 26.9001 66.9 33.0001C68.1 37.8001 66.1 42.7001 61.2 46.8001C52.4 54.0001 38.4999 55.9001 30.9999 56.3001C30.7999 56.2001 30.6999 56.2001 30.5999 56.2001ZM43 22.0001C36.9 22.0001 33.5999 24.2001 31.8999 26.3001C29.2999 29.6001 29.2999 33.8001 30.0999 35.7001C31.8999 39.8001 30.2999 47.3001 28.9999 51.1001C28.7999 51.6001 28.9 52.1001 29.2 52.5001C29.5 52.9001 29.9999 53.1001 30.4999 53.1001C37.6999 52.7001 50.9 50.9001 59 44.2001C63 40.9001 64.6 37.2001 63.7 33.5001C62.5 28.6001 56.9 24.2001 50 22.8001C47.5 22.3001 45.1 22.0001 43 22.0001Z" fill="#301F00"/>
<path d="M64.4999 21.6001C76.9999 20.6001 84.9999 32.1001 75.7999 44.6001C69.1999 53.6001 59.7999 56.1001 53.0999 58.5001C50.9999 59.2001 48.9999 57.7001 49.1999 55.6001C49.5999 50.8001 49.0999 44.4001 46.9999 41.7001C43.6999 37.6001 42.7999 23.2001 64.4999 21.6001Z" fill="#74CBDE"/>
<path d="M64.4999 28.6C71.8999 28 77.6999 31.8 79.2999 37.5C81.6999 28.1 74.5999 20.8 64.4999 21.6C45.9999 23 43.8999 33.6 45.7999 39.3C47.2999 34.4 52.2999 29.5 64.4999 28.6Z" fill="#B3F4FB"/>
<path d="M51.9999 60.2C50.9999 60.2 50.0999 59.9 49.2999 59.3C48.0999 58.4 47.4999 57 47.6999 55.5C48.0999 50.9 47.5999 44.9 45.7999 42.7C43.7999 40.2 42.7999 35.2 44.7999 30.5C46.5999 26.3 51.4999 21.1 64.2999 20.1C70.9999 19.6 76.7999 22.4 79.5999 27.4C82.4999 32.7 81.5999 39.3 76.9999 45.5C70.6999 54.1 61.7999 57.1 55.2999 59.3C54.6999 59.5 54.0999 59.7 53.5999 59.9C53.0999 60.1 52.4999 60.2 51.9999 60.2ZM65.8999 23C65.4999 23 64.9999 23 64.5999 23C53.2999 23.9 49.0999 28.2 47.5999 31.6C45.9999 35.3 46.9999 39.2 48.1999 40.7C50.8999 44.1 51.0999 51.7 50.6999 55.6C50.5999 56.3 50.9999 56.6 51.1999 56.8C51.5999 57.1 52.0999 57.2 52.5999 57C53.1999 56.8 53.6999 56.6 54.2999 56.4C60.7999 54.2 68.7999 51.5 74.5999 43.6C78.4999 38.3 79.2999 32.9 76.9999 28.7C74.9999 25.2 70.7999 23 65.8999 23Z" fill="#301F00"/>
<path d="M59.2999 14.0001C71.5999 16.4001 79.9999 34.2001 68.1999 43.4001C59.6999 50.0001 45.9999 51.6001 38.8999 52.0001C36.6999 52.1001 35.0999 50.2001 35.7999 48.3001C37.2999 44.0001 38.2999 37.9001 36.8999 34.9001C34.5999 30.2001 37.8999 9.90006 59.2999 14.0001Z" fill="#FFB6C6"/>
<path d="M37.7999 51.2001C39.0999 47.4001 39.9999 42.1001 38.7999 39.4001C36.8999 35.3001 39.7999 17.4001 58.4999 21.1001C66.9999 22.8001 73.3999 32.8001 70.6999 40.9001C78.4999 31.3001 70.5999 16.2001 59.2999 14.0001C37.8999 9.90006 34.5999 30.2001 36.7999 34.9001C38.1999 37.9001 37.1999 44.0001 35.6999 48.3001C35.0999 49.9001 36.0999 51.4001 37.6999 51.9001C37.6999 51.6001 37.6999 51.4001 37.7999 51.2001Z" fill="#FFD0DC"/>
<path d="M38.5998 53.5001C37.0998 53.5001 35.7998 52.8001 34.8998 51.7001C33.9998 50.6001 33.7998 49.1001 34.2998 47.8001C35.6998 43.7001 36.5998 38.0001 35.4998 35.6001C33.9998 32.4001 34.6998 24.5001 39.0998 18.8001C42.1998 14.8001 48.2998 10.4001 59.5998 12.6001C66.6998 14.0001 72.9998 20.3001 74.7998 27.9001C76.3998 34.5001 74.1998 40.5001 68.9998 44.6001C60.1998 51.4001 46.2998 53.1001 38.7998 53.5001C38.7998 53.5001 38.6998 53.5001 38.5998 53.5001ZM53.8998 15.0001C48.5998 15.0001 44.3998 16.9001 41.4998 20.6001C37.5998 25.6001 37.2998 32.3001 38.1998 34.3001C39.9998 38.2001 38.3998 45.3001 37.0998 48.8001C36.8998 49.3001 37.0998 49.7001 37.2998 49.9001C37.5998 50.3001 38.0998 50.5001 38.6998 50.5001C45.8998 50.1001 59.0998 48.5001 67.1998 42.2001C72.9998 37.7001 72.6998 31.7001 71.8998 28.6001C70.3998 22.2001 64.8998 16.7001 58.9998 15.5001C57.1998 15.2001 55.4998 15.0001 53.8998 15.0001Z" fill="#301F00"/>
<path d="M53.4001 11.1C53.3001 10.6 52.9001 10.5 52.7001 10.5C52.5001 10.5 52.1001 10.6 52.0001 11.1L50.4001 17.5C51.8001 17 53.3001 16.5 54.6001 15.8L53.4001 11.1Z" fill="#FF4D4D"/>
<path d="M55.4001 18.7002C53.4001 19.7002 51.4001 20.4002 49.5001 20.9002L48.4001 25.1002C50.9001 24.5002 53.8001 23.4002 56.1001 21.9002L55.4001 18.7002Z" fill="#FFE581"/>
<path d="M56.9 24.9001C53.8 26.7001 50.2 27.8001 47.6 28.4001L46.5 32.6001C49.6 31.9001 54.7 30.5001 57.6 27.7001L56.9 24.9001Z" fill="#FEC769"/>
<path d="M59.2999 34.1001L58.5 30.9001C54.4 33.9001 48.5 35.3001 45.7 35.8001L45.4 36.9001C45.3 37.3001 45.2 37.8001 45.2 38.2001C45.2 38.8001 45.3 39.4001 45.5 39.9001C48 39.5001 55.7999 38.0001 59.2999 34.1001Z" fill="#8CC63F"/>
<path d="M60.1 37.4001C56.5 40.4001 51.1 41.9001 47.8 42.6001C50.5 44.0001 54.4001 44.0001 57.2001 42.8001C59.3001 41.8001 60.4 39.6001 60.1 37.4001Z" fill="#74CBDE"/>
<path d="M62.9001 36.2001L60.9001 28.6001L60.4001 26.5001L59.5 23.0001L59.1 21.3001L59 21.0001L58.6 19.6001L58 17.2001L57.6 15.6001L57.4001 14.7001L57.2001 14.0001L56.3 10.4001C56.1 9.6001 55.6 8.8001 55 8.4001C54.4 7.9001 53.6001 7.6001 52.7001 7.6001C51.0001 7.6001 49.5 8.7001 49.1 10.4001L47.1 18.4001L46.9001 19.3001L46.6 20.0001L46.2 21.6001L45.1 25.8001L44.8 27.1001L44.7 27.4001L44.3 29.0001L43.2 33.2001L42.6 35.4001L42.4001 36.2001C41.5001 39.8001 43.1 43.5001 46.2 45.2001C48 46.2001 50.3 46.7001 52.6 46.7001C54.6 46.7001 56.7001 46.3001 58.4001 45.5001C62.0001 43.9001 63.9001 40.0001 62.9001 36.2001ZM52 11.1001C52.1 10.6001 52.5001 10.5001 52.7001 10.5001C52.9001 10.5001 53.3001 10.6001 53.4001 11.1001L54.6 15.7001C53.3 16.4001 51.8001 17.0001 50.4001 17.4001L52 11.1001ZM49.5 20.9001C51.3 20.4001 53.4001 19.7001 55.4001 18.7001L56.2001 21.8001C53.9001 23.4001 50.9 24.4001 48.5 25.0001L49.5 20.9001ZM47.6 28.4001C50.2 27.8001 53.9001 26.7001 56.9001 24.9001L57.6 27.7001C54.6 30.4001 49.6 31.9001 46.5 32.6001L47.6 28.4001ZM45.4001 36.9001L45.7 35.8001C48.5 35.3001 54.3 33.9001 58.5 30.9001L59.3 34.1001C55.8 38.0001 48 39.5001 45.5 40.0001C45.3 39.5001 45.2 38.9001 45.2 38.3001C45.2 37.8001 45.3001 37.4001 45.4001 36.9001ZM57.3 42.8001C54.5 44.1001 50.6001 44.0001 47.9001 42.6001C51.1001 41.9001 56.5001 40.4001 60.2001 37.4001C60.4001 39.6001 59.3 41.8001 57.3 42.8001Z" fill="#301F00"/>
</svg>
