<svg width="24" height="24" viewBox="0 0 24 24" fill="currentColor" xmlns="http://www.w3.org/2000/svg">
<path d="M20 5H16.83L15.59 3.65C15.4036 3.44539 15.1767 3.28191 14.9235 3.16999C14.6704 3.05807 14.3968 3.00017 14.12 3H9.88C9.32 3 8.78 3.24 8.4 3.65L7.17 5H4C2.9 5 2 5.9 2 7V19C2 20.1 2.9 21 4 21H20C21.1 21 22 20.1 22 19V7C22 5.9 21.1 5 20 5ZM13.67 17.7C13.15 17.89 12.59 18 12 18C9.24 18 7 15.76 7 13H5L7.5 10.5L10 13H8C8 15.21 9.79 17 12 17C12.46 17 12.91 16.92 13.32 16.77C13.3821 16.7417 13.4494 16.7264 13.5176 16.7251C13.5859 16.7239 13.6536 16.7366 13.7167 16.7627C13.7798 16.7887 13.8369 16.8274 13.8844 16.8765C13.9319 16.9255 13.9688 16.9837 13.9929 17.0476C14.0169 17.1115 14.0276 17.1797 14.0242 17.2478C14.0208 17.316 14.0034 17.3828 13.9731 17.4439C13.9428 17.5051 13.9003 17.5594 13.8482 17.6035C13.796 17.6475 13.7354 17.6804 13.67 17.7ZM16.5 15.5L14 13H16C16 10.79 14.21 9 12 9C11.54 9 11.09 9.08 10.68 9.23C10.6179 9.25834 10.5506 9.27362 10.4824 9.27488C10.4141 9.27614 10.3464 9.26336 10.2833 9.23732C10.2202 9.21129 10.1631 9.17256 10.1156 9.12354C10.0681 9.07452 10.0312 9.01626 10.0071 8.95237C9.98308 8.88849 9.97243 8.82034 9.97582 8.75217C9.97922 8.68399 9.9966 8.61724 10.0269 8.55607C10.0572 8.49489 10.0997 8.44059 10.1518 8.39654C10.204 8.35249 10.2646 8.31963 10.33 8.3C10.85 8.11 11.41 8 12 8C14.76 8 17 10.24 17 13H19L16.5 15.5Z" fill="currentColor"/>
</svg>
