<svg width="182" height="183" viewBox="0 0 182 183" fill="none" xmlns="http://www.w3.org/2000/svg">
<path d="M153.562 44.3203H129.391L123.632 28.0934C123.234 26.983 122.505 26.0232 121.544 25.3451C120.584 24.667 119.438 24.3036 118.264 24.3047H63.7355C61.3361 24.3047 59.1855 25.8237 58.3857 28.0934L52.6094 44.3203H28.4375C20.5816 44.3203 14.2188 50.7182 14.2188 58.6172V140.109C14.2188 148.008 20.5816 154.406 28.4375 154.406H153.562C161.418 154.406 167.781 148.008 167.781 140.109V58.6172C167.781 50.7182 161.418 44.3203 153.562 44.3203ZM154.984 140.109C154.984 140.896 154.345 141.539 153.562 141.539H28.4375C27.6555 141.539 27.0156 140.896 27.0156 140.109V58.6172C27.0156 57.8309 27.6555 57.1875 28.4375 57.1875H61.6205L64.6598 48.6451L68.7299 37.1719H113.252L117.322 48.6451L120.362 57.1875H153.562C154.345 57.1875 154.984 57.8309 154.984 58.6172V140.109ZM91 68.625C75.2883 68.625 62.5625 81.4207 62.5625 97.2188C62.5625 113.017 75.2883 125.812 91 125.812C106.712 125.812 119.438 113.017 119.438 97.2188C119.438 81.4207 106.712 68.625 91 68.625ZM91 114.375C81.5801 114.375 73.9375 106.69 73.9375 97.2188C73.9375 87.7471 81.5801 80.0625 91 80.0625C100.42 80.0625 108.062 87.7471 108.062 97.2188C108.062 106.69 100.42 114.375 91 114.375Z" fill="black"/>
</svg>
