<svg width="45" height="45" viewBox="0 0 45 45" fill="none" xmlns="http://www.w3.org/2000/svg">
<path d="M29.8072 28.8018C30.8707 28.2305 32.088 27.9053 33.3844 27.9053H33.3888C33.5206 27.9053 33.5821 27.7471 33.4855 27.6592C32.1373 26.4493 30.5972 25.4721 28.9283 24.7676C28.9108 24.7588 28.8932 24.7544 28.8756 24.7456C31.6046 22.7637 33.38 19.5425 33.38 15.9082C33.38 9.8877 28.5109 5.00977 22.5035 5.00977C16.4962 5.00977 11.6315 9.8877 11.6315 15.9082C11.6315 19.5425 13.4068 22.7637 16.1402 24.7456C16.1227 24.7544 16.1051 24.7588 16.0875 24.7676C14.1232 25.5981 12.3609 26.7891 10.8448 28.3096C9.33748 29.8142 8.13743 31.5979 7.31163 33.561C6.49914 35.4835 6.06065 37.5432 6.01964 39.6299C6.01847 39.6768 6.02669 39.7234 6.04384 39.7671C6.06098 39.8108 6.08669 39.8506 6.11945 39.8842C6.15221 39.9178 6.19137 39.9444 6.2346 39.9627C6.27784 39.9809 6.32429 39.9902 6.3712 39.9902H9.00353C9.19249 39.9902 9.3507 39.8364 9.35509 39.6475C9.44298 36.2549 10.8009 33.0776 13.2047 30.6694C15.6876 28.1777 18.9923 26.8066 22.5079 26.8066C24.9996 26.8066 27.3902 27.4966 29.4513 28.7886C29.5042 28.8218 29.565 28.8406 29.6275 28.8429C29.69 28.8452 29.752 28.831 29.8072 28.8018V28.8018ZM22.5079 23.4668C20.4952 23.4668 18.6012 22.6802 17.173 21.252C16.4703 20.5511 15.9132 19.7181 15.5338 18.8009C15.1544 17.8838 14.9603 16.9007 14.9625 15.9082C14.9625 13.8911 15.7491 11.9927 17.173 10.5645C18.5968 9.13623 20.4908 8.34961 22.5079 8.34961C24.525 8.34961 26.4147 9.13623 27.8429 10.5645C28.5456 11.2653 29.1027 12.0983 29.482 13.0155C29.8614 13.9326 30.0556 14.9157 30.0533 15.9082C30.0533 17.9253 29.2667 19.8237 27.8429 21.252C26.4147 22.6802 24.5206 23.4668 22.5079 23.4668ZM38.671 33.9258H28.1241C27.9308 33.9258 27.7726 34.084 27.7726 34.2773V36.7383C27.7726 36.9316 27.9308 37.0898 28.1241 37.0898H38.671C38.8644 37.0898 39.0226 36.9316 39.0226 36.7383V34.2773C39.0226 34.084 38.8644 33.9258 38.671 33.9258Z" fill="black"/>
</svg>
