<svg width="45" height="45" viewBox="0 0 45 45" fill="currentColor" xmlns="http://www.w3.org/2000/svg">
<g opacity="0.7">
<path d="M38.3812 14.0625L39.75 12.6938C40.1155 12.3283 40.3208 11.8325 40.3208 11.3156C40.3208 10.7987 40.1155 10.303 39.75 9.9375C39.3845 9.572 38.8888 9.36667 38.3719 9.36667C37.855 9.36667 37.3593 9.572 36.9937 9.9375L35.625 11.25L34.2563 9.88125C33.8833 9.51575 33.3804 9.31338 32.8582 9.31865C32.3361 9.32393 31.8374 9.53642 31.4719 9.90938C31.1064 10.2823 30.904 10.7852 30.9093 11.3074C30.9146 11.8296 31.127 12.3283 31.5 12.6938L32.8688 14.0625L31.5 15.4313C31.1345 15.7968 30.9292 16.2925 30.9292 16.8094C30.9292 17.3263 31.1345 17.822 31.5 18.1875C31.8655 18.553 32.3612 18.7583 32.8781 18.7583C33.395 18.7583 33.8907 18.553 34.2563 18.1875L35.625 16.875L36.9937 18.2438C37.3667 18.6093 37.8696 18.8116 38.3918 18.8064C38.9139 18.8011 39.4126 18.5886 39.7781 18.2156C40.1436 17.8427 40.346 17.3398 40.3407 16.8176C40.3354 16.2954 40.123 15.7968 39.75 15.4313L38.3812 14.0625ZM18.75 20.625C20.2334 20.625 21.6834 20.1851 22.9168 19.361C24.1501 18.5369 25.1114 17.3656 25.6791 15.9951C26.2468 14.6247 26.3953 13.1167 26.1059 11.6618C25.8165 10.207 25.1022 8.8706 24.0533 7.8217C23.0044 6.77281 21.668 6.0585 20.2132 5.76911C18.7583 5.47972 17.2503 5.62825 15.8799 6.19591C14.5094 6.76356 13.3381 7.72486 12.514 8.95823C11.6899 10.1916 11.25 11.6416 11.25 13.125C11.25 15.1141 12.0402 17.0218 13.4467 18.4283C14.8532 19.8348 16.7609 20.625 18.75 20.625ZM30 39.375C30.4973 39.375 30.9742 39.1775 31.3258 38.8258C31.6775 38.4742 31.875 37.9973 31.875 37.5C31.875 34.019 30.4922 30.6806 28.0308 28.2192C25.5694 25.7578 22.231 24.375 18.75 24.375C15.269 24.375 11.9306 25.7578 9.46922 28.2192C7.00781 30.6806 5.625 34.019 5.625 37.5C5.625 37.9973 5.82254 38.4742 6.17417 38.8258C6.52581 39.1775 7.00272 39.375 7.5 39.375H30Z" fill="currentColor"/>
</g>
</svg>
