<?xml version="1.0" standalone="no"?>
<!DOCTYPE svg PUBLIC "-//W3C//DTD SVG 20010904//EN"
 "http://www.w3.org/TR/2001/REC-SVG-20010904/DTD/svg10.dtd">
<svg version="1.0" xmlns="http://www.w3.org/2000/svg"
 width="512.000000pt" height="512.000000pt" viewBox="0 0 512.000000 512.000000"
 preserveAspectRatio="xMidYMid meet">

<g transform="translate(0.000000,512.000000) scale(0.100000,-0.100000)"
fill="currentColor" stroke="none">
<path d="M2370 5114 c-19 -2 -78 -9 -130 -15 -788 -90 -1517 -582 -1919 -1296
-354 -628 -417 -1411 -170 -2107 52 -147 181 -411 208 -425 49 -27 111 7 111
61 0 14 -22 67 -49 119 -161 306 -253 656 -268 1019 -30 756 301 1482 898
1967 351 286 831 480 1289 522 714 66 1408 -186 1920 -699 278 -277 462 -574
585 -945 166 -498 166 -1013 0 -1510 -124 -372 -307 -668 -585 -945 -277 -278
-573 -461 -945 -585 -879 -294 -1841 -57 -2485 611 -63 66 -131 140 -150 166
-52 70 -89 83 -134 47 -19 -15 -26 -30 -26 -54 0 -44 96 -160 271 -330 595
-576 1419 -822 2244 -670 1026 190 1851 1014 2039 2039 156 845 -103 1682
-705 2285 -399 398 -879 639 -1449 726 -100 15 -472 28 -550 19z"/>
<path d="M2290 4719 c-193 -25 -500 -110 -535 -149 -39 -43 -10 -120 45 -120
15 0 76 16 135 35 201 66 324 86 565 92 169 4 241 2 334 -11 866 -121 1554
-779 1718 -1641 26 -139 36 -460 18 -603 -52 -428 -221 -797 -517 -1129 -58
-65 -76 -93 -76 -115 0 -39 33 -71 74 -71 27 0 43 11 94 64 253 268 451 637
534 999 71 308 69 686 -4 995 -70 297 -220 604 -413 849 -71 91 -257 277 -348
349 -306 240 -655 391 -1039 448 -139 20 -455 25 -585 8z"/>
<path d="M1374 4382 c-531 -349 -882 -904 -968 -1530 -21 -148 -21 -436 0
-584 53 -387 210 -756 452 -1062 71 -91 257 -277 348 -348 308 -243 675 -399
1069 -453 166 -23 502 -17 665 13 285 52 572 166 807 320 92 61 113 83 113
122 0 28 -43 70 -72 70 -13 0 -68 -30 -123 -66 -186 -122 -422 -224 -632 -273
-296 -69 -647 -69 -941 -1 -776 182 -1382 825 -1527 1620 -23 123 -32 464 -16
586 50 375 179 693 405 994 128 170 325 352 513 474 104 67 126 108 83 154
-35 38 -77 29 -176 -36z"/>
<path d="M3058 3350 c-172 -29 -297 -129 -347 -277 -12 -34 -21 -83 -21 -108
l0 -45 90 0 90 0 0 28 c0 55 30 129 70 175 103 117 332 118 427 3 38 -47 53
-96 53 -178 0 -54 -6 -77 -34 -134 -45 -90 -90 -143 -409 -484 l-267 -285 0
-62 0 -63 485 0 485 0 0 75 0 75 -371 0 -371 0 205 213 c298 309 348 370 414
502 86 171 64 346 -57 459 -28 26 -71 56 -96 67 -96 43 -232 58 -346 39z"/>
<path d="M1626 2958 c4 -7 80 -119 169 -248 89 -129 165 -240 168 -247 4 -7
-72 -125 -177 -277 l-185 -266 108 0 109 0 123 195 c68 107 127 195 130 195 3
0 62 -88 130 -195 l124 -195 108 0 108 0 -78 113 c-43 61 -126 181 -185 266
l-107 154 31 46 c18 25 96 139 175 254 79 114 143 210 143 212 0 3 -48 4 -107
3 l-106 -3 -76 -120 c-42 -66 -95 -151 -119 -189 l-43 -68 -118 189 -118 188
-107 3 c-86 2 -106 0 -100 -10z"/>
</g>
</svg>
