<?xml version="1.0" standalone="no"?>
<!DOCTYPE svg PUBLIC "-//W3C//DTD SVG 20010904//EN"
 "http://www.w3.org/TR/2001/REC-SVG-20010904/DTD/svg10.dtd">
<svg version="1.0" xmlns="http://www.w3.org/2000/svg"
 width="512.000000pt" height="512.000000pt" viewBox="0 0 512.000000 512.000000"
 preserveAspectRatio="xMidYMid meet">

<g transform="translate(0.000000,512.000000) scale(0.100000,-0.100000)"
fill="#000000" stroke="none" >
<path d="M2453 5105 c-141 -38 -254 -144 -298 -281 l-16 -50 -68 -12 c-168
-29 -439 -147 -710 -311 -179 -109 -198 -117 -276 -126 -127 -14 -265 34 -345
121 -26 30 -51 67 -55 83 -8 35 -38 69 -70 77 -33 8 -77 -15 -94 -50 -12 -25
-11 -36 3 -81 41 -130 178 -250 336 -296 25 -7 48 -15 53 -19 4 -4 -154 -402
-352 -886 l-360 -879 -76 -5 c-70 -5 -79 -8 -102 -35 -24 -28 -25 -33 -20
-115 27 -378 278 -703 639 -826 114 -38 197 -46 428 -41 184 3 226 7 289 26
390 115 654 440 687 845 6 78 5 84 -19 112 -23 26 -32 29 -103 34 l-77 5 -358
875 c-197 481 -359 878 -359 881 0 3 24 11 53 18 57 13 117 44 282 145 220
136 505 261 638 281 42 6 47 5 47 -11 0 -37 50 -125 100 -178 l50 -53 0 -1921
0 -1922 -144 0 -144 0 -27 -31 -26 -32 3 -199 3 -200 28 -24 28 -24 539 0 539
0 28 24 28 24 3 200 3 199 -26 32 -27 31 -144 0 -144 0 0 1922 0 1921 50 53
c50 53 100 141 100 178 0 16 5 17 47 11 135 -20 441 -157 663 -296 136 -85
218 -125 271 -134 21 -4 39 -10 39 -13 0 -4 -162 -401 -359 -882 l-358 -875
-77 -5 c-71 -5 -80 -8 -103 -34 -24 -28 -25 -34 -19 -112 33 -403 299 -731
686 -845 64 -19 107 -23 290 -26 231 -5 314 3 428 41 142 49 262 124 367 230
161 163 255 370 272 596 5 82 4 87 -20 115 -23 27 -32 30 -102 35 l-76 5 -360
879 c-198 484 -356 882 -352 886 5 4 28 12 53 19 157 45 296 167 336 295 14
46 15 57 3 82 -17 35 -61 58 -94 50 -32 -8 -62 -42 -70 -77 -4 -16 -29 -53
-55 -83 -81 -87 -217 -135 -348 -121 -71 8 -124 32 -297 139 -237 147 -521
270 -687 298 l-67 12 -16 50 c-69 214 -297 338 -512 281z m189 -171 c105 -35
168 -126 168 -239 0 -78 -15 -119 -65 -173 -118 -132 -352 -92 -419 70 -23 55
-21 158 5 213 54 114 190 171 311 129z m6 -2542 l-3 -1877 -85 0 -85 0 -3
1877 -2 1877 90 0 90 0 -2 -1877z m-1304 781 c174 -425 316 -774 316 -777 0
-3 -286 -6 -635 -6 -349 0 -635 4 -635 8 0 6 398 984 627 1540 3 7 7 12 8 10
2 -2 146 -350 319 -775z m3076 -8 c170 -417 310 -762 310 -766 0 -5 -286 -9
-636 -9 -602 0 -636 1 -630 18 4 9 147 360 318 780 197 480 315 758 320 749 4
-8 147 -355 318 -772z m-2550 -962 c-1 -45 -34 -155 -70 -230 -92 -189 -245
-324 -447 -396 -86 -31 -93 -32 -298 -35 -166 -3 -224 0 -278 12 -260 61 -469
242 -558 486 -15 43 -31 101 -35 129 l-7 51 847 0 c799 0 846 -1 846 -17z
m3066 -32 c-21 -156 -131 -347 -264 -456 -82 -68 -204 -130 -310 -156 -74 -18
-107 -20 -295 -17 -207 3 -214 4 -300 35 -203 72 -360 212 -448 399 -35 74
-68 184 -69 227 0 16 47 17 846 17 l847 0 -7 -49z m-1946 -1916 l0 -85 -430 0
-430 0 0 85 0 85 430 0 430 0 0 -85z"/>
</g>
</svg>
