<?xml version="1.0" standalone="no"?>
<!DOCTYPE svg PUBLIC "-//W3C//DTD SVG 20010904//EN"
 "http://www.w3.org/TR/2001/REC-SVG-20010904/DTD/svg10.dtd">
<svg version="1.0" xmlns="http://www.w3.org/2000/svg"
 width="512.000000pt" height="512.000000pt" viewBox="0 0 512.000000 512.000000"
 preserveAspectRatio="xMidYMid meet">

<g transform="translate(0.000000,512.000000) scale(0.100000,-0.100000)"
fill="currentColor" stroke="none">
<path d="M2370 5114 c-19 -2 -78 -9 -130 -15 -788 -90 -1517 -582 -1919 -1296
-354 -628 -417 -1411 -170 -2107 52 -147 181 -411 208 -425 49 -27 111 7 111
61 0 14 -22 67 -49 119 -161 306 -253 656 -268 1019 -30 756 301 1482 898
1967 351 286 831 480 1289 522 714 66 1408 -186 1920 -699 278 -277 462 -574
585 -945 166 -498 166 -1013 0 -1510 -124 -372 -307 -668 -585 -945 -277 -278
-573 -461 -945 -585 -879 -294 -1841 -57 -2485 611 -63 66 -131 140 -150 166
-52 70 -89 83 -134 47 -19 -15 -26 -30 -26 -54 0 -44 96 -160 271 -330 595
-576 1419 -822 2244 -670 1026 190 1851 1014 2039 2039 156 845 -103 1682
-705 2285 -399 398 -879 639 -1449 726 -100 15 -472 28 -550 19z"/>
<path d="M2290 4719 c-193 -25 -500 -110 -535 -149 -39 -43 -10 -120 45 -120
15 0 76 16 135 35 201 66 324 86 565 92 169 4 241 2 334 -11 866 -121 1554
-779 1718 -1641 26 -139 36 -460 18 -603 -52 -428 -221 -797 -517 -1129 -58
-65 -76 -93 -76 -115 0 -39 33 -71 74 -71 27 0 43 11 94 64 253 268 451 637
534 999 71 308 69 686 -4 995 -70 297 -220 604 -413 849 -71 91 -257 277 -348
349 -306 240 -655 391 -1039 448 -139 20 -455 25 -585 8z"/>
<path d="M1374 4382 c-531 -349 -882 -904 -968 -1530 -21 -148 -21 -436 0
-584 53 -387 210 -756 452 -1062 71 -91 257 -277 348 -348 308 -243 675 -399
1069 -453 166 -23 502 -17 665 13 285 52 572 166 807 320 92 61 113 83 113
122 0 28 -43 70 -72 70 -13 0 -68 -30 -123 -66 -186 -122 -422 -224 -632 -273
-296 -69 -647 -69 -941 -1 -776 182 -1382 825 -1527 1620 -23 123 -32 464 -16
586 50 375 179 693 405 994 128 170 325 352 513 474 104 67 126 108 83 154
-35 38 -77 29 -176 -36z"/>
<path d="M1212 3162 c-14 -14 -28 -80 -60 -273 -23 -140 -42 -263 -42 -275 0
-26 40 -64 68 -64 12 0 45 10 74 21 75 31 207 32 263 2 52 -28 110 -88 130
-135 19 -47 20 -148 1 -192 -20 -49 -85 -116 -131 -137 -26 -12 -64 -19 -106
-19 -125 0 -215 73 -254 205 -22 76 -75 99 -124 54 -20 -19 -23 -29 -19 -73
10 -115 104 -243 223 -302 55 -27 69 -29 170 -29 104 0 114 2 176 32 81 40
160 121 197 200 34 76 43 206 17 282 -39 117 -134 218 -248 264 -42 17 -73 21
-159 21 -69 0 -108 4 -107 10 0 6 10 70 22 141 l23 130 187 5 c175 5 188 6
208 27 27 27 29 75 4 103 -17 19 -30 20 -257 20 -216 0 -240 -2 -256 -18z"/>
<path d="M2209 3162 c-104 -42 -167 -103 -217 -210 l-27 -57 0 -335 0 -335 32
-67 c39 -82 100 -145 179 -184 54 -26 68 -29 164 -29 93 0 112 3 162 27 75 35
142 104 181 186 l32 67 0 335 0 335 -32 67 c-39 82 -106 151 -181 186 -76 36
-222 42 -293 14z m229 -151 c44 -23 88 -64 110 -106 15 -26 17 -71 17 -345 0
-274 -2 -319 -17 -345 -76 -140 -261 -169 -372 -59 -61 62 -61 60 -61 404 0
274 2 319 17 345 22 41 65 83 108 106 48 25 148 25 198 0z"/>
<path d="M3005 3163 c-85 -44 -136 -124 -143 -224 -8 -121 45 -220 142 -265
134 -63 278 11 323 165 37 129 -26 278 -139 325 -48 20 -144 20 -183 -1z m137
-144 c23 -13 48 -67 48 -106 0 -15 -9 -43 -20 -61 -60 -97 -166 -46 -157 76 6
84 64 126 129 91z"/>
<path d="M3707 3163 c-30 -34 -527 -1125 -527 -1158 0 -18 8 -39 18 -48 25
-22 85 -22 104 1 27 30 528 1127 528 1155 0 57 -85 91 -123 50z"/>
<path d="M3815 2451 c-96 -43 -150 -133 -150 -251 0 -62 5 -84 27 -126 47 -90
117 -134 213 -134 88 0 166 52 210 140 26 51 31 156 11 216 -45 136 -192 209
-311 155z m126 -141 c50 -27 64 -124 26 -181 -42 -63 -125 -47 -148 30 -16 55
-5 105 32 135 33 28 59 32 90 16z"/>
</g>
</svg>
