<svg width="48" height="48" viewBox="0 0 48 48" fill="none" xmlns="http://www.w3.org/2000/svg">
<path d="M34.5 21.523V15C34.5 12.2152 33.3938 9.54451 31.4246 7.57538C29.4555 5.60625 26.7848 4.5 24 4.5C21.2152 4.5 18.5445 5.60625 16.5754 7.57538C14.6063 9.54451 13.5 12.2152 13.5 15V21.523C11.8981 23.5053 10.89 25.9005 10.5924 28.4316C10.2947 30.9628 10.7197 33.5265 11.818 35.8263C12.9164 38.1261 14.6433 40.068 16.7991 41.4274C18.9549 42.7868 21.4514 43.5083 24 43.5083C26.5486 43.5083 29.0452 42.7868 31.2009 41.4274C33.3567 40.068 35.0836 38.1261 36.182 35.8263C37.2803 33.5265 37.7053 30.9628 37.4076 28.4316C37.11 25.9005 36.1019 23.5053 34.5 21.523V21.523Z" stroke="black" stroke-linecap="round" stroke-linejoin="round"/>
<path d="M24 16.5C26.0831 16.5013 28.1373 16.9875 30 17.92V15C30 13.4087 29.3679 11.8826 28.2426 10.7574C27.1174 9.63214 25.5913 9 24 9C22.4087 9 20.8826 9.63214 19.7574 10.7574C18.6321 11.8826 18 13.4087 18 15V17.92C19.8627 16.9874 21.9169 16.5013 24 16.5V16.5ZM27.5 28C27.5022 27.3731 27.336 26.7572 27.0188 26.2165C26.7015 25.6758 26.2449 25.2303 25.6966 24.9264C25.1483 24.6225 24.5284 24.4715 23.9018 24.4891C23.2752 24.5067 22.6648 24.6923 22.1344 25.0264C21.604 25.3606 21.1731 25.831 20.8867 26.3886C20.6003 26.9463 20.4689 27.5706 20.5062 28.1963C20.5436 28.8221 20.7483 29.4263 21.0991 29.9459C21.4498 30.4655 21.9336 30.8813 22.5 31.15V36H25.5V31.15C26.0972 30.8679 26.6021 30.4222 26.9562 29.8646C27.3102 29.307 27.4988 28.6605 27.5 28V28Z" stroke="black" stroke-linecap="round" stroke-linejoin="round"/>
</svg>
