<svg width="48" height="48" viewBox="0 0 48 48" fill="none" xmlns="http://www.w3.org/2000/svg">
<path d="M24.0002 28.459C20.7232 28.459 19.4802 27.039 18.9032 26.241M18.5792 22.042C18.5653 21.3018 18.2615 20.5967 17.7331 20.0782C17.2048 19.5597 16.494 19.2692 15.7537 19.2692C15.0134 19.2692 14.3027 19.5597 13.7743 20.0782C13.246 20.5967 12.9421 21.3018 12.9282 22.042M15.7532 36.845C17.4552 36.979 17.1952 41.437 15.0212 41.193C12.8472 40.949 13.2242 36.645 15.7532 36.845Z" stroke="black" stroke-linecap="round" stroke-linejoin="round"/>
<path d="M9.68481 8.90185C10.6377 7.94897 10.9888 6.75514 10.469 6.23535C9.9492 5.71556 8.75537 6.06665 7.80249 7.01953C6.84961 7.97241 6.49852 9.16624 7.01831 9.68603C7.5381 10.2058 8.73193 9.85473 9.68481 8.90185Z" stroke="black" stroke-linecap="round" stroke-linejoin="round"/>
<path d="M14.4981 11.902C13.2682 9.93481 11.9225 8.04247 10.4681 6.23499M12.7401 13.6C11.2101 11.903 7.01709 9.68599 7.01709 9.68599M24.0001 28.459C27.2771 28.459 28.5201 27.039 29.0971 26.241M29.4211 22.042C29.435 21.3018 29.7388 20.5967 30.2672 20.0782C30.7956 19.5596 31.5063 19.2691 32.2466 19.2691C32.9869 19.2691 33.6976 19.5596 34.226 20.0782C34.7544 20.5967 35.0582 21.3018 35.0721 22.042M24.0001 43.5C29.0971 43.5 29.6731 41.858 29.6731 40.793C29.6731 39.728 28.5641 36.165 24.0001 36.165C19.4361 36.165 18.3271 39.73 18.3271 40.795C18.3271 41.86 18.9031 43.5 24.0001 43.5ZM22.7451 5.24699C21.0431 5.38099 21.3031 9.83899 23.4771 9.59499C25.6511 9.35099 25.2741 5.04699 22.7451 5.24699Z" stroke="black" stroke-linecap="round" stroke-linejoin="round"/>
<path d="M40.9831 9.68603C41.5029 9.16625 41.1518 7.97241 40.199 7.01953C39.2461 6.06665 38.0523 5.71557 37.5325 6.23535C37.0127 6.75514 37.3638 7.94897 38.3166 8.90185C39.2695 9.85473 40.4634 10.2058 40.9831 9.68603Z" stroke="black" stroke-linecap="round" stroke-linejoin="round"/>
<path d="M33.502 11.902C34.7318 9.9348 36.0775 8.04246 37.532 6.23499M35.26 13.6C36.79 11.903 40.983 9.68599 40.983 9.68599" stroke="black" stroke-linecap="round" stroke-linejoin="round"/>
<path d="M28.3319 8.947H28.3569C28.9715 8.56833 29.4518 8.00623 29.7299 7.34C28.291 7.33555 26.8683 7.6433 25.5599 8.242C26.6753 7.06394 27.7122 5.81392 28.6639 4.5C28.6639 4.5 22.4529 6.053 20.3529 8.733H20.3689C11.7539 11.09 6.77588 21.472 6.77588 27.527C6.77588 34.39 19.3359 36.164 23.9999 36.164C28.6639 36.164 41.2239 34.39 41.2239 27.527C41.2239 21.638 36.5149 11.66 28.3319 8.947V8.947Z" stroke="black" stroke-linecap="round" stroke-linejoin="round"/>
</svg>
