<svg width="40" height="40" viewBox="0 0 40 40" fill="currentColor" xmlns="http://www.w3.org/2000/svg">
<path d="M12 18C15.3137 18 18 15.3137 18 12C18 8.68629 15.3137 6 12 6C8.68629 6 6 8.68629 6 12C6 15.3137 8.68629 18 12 18Z" fill="currentColor"/>
<path d="M28 18C31.3137 18 34 15.3137 34 12C34 8.68629 31.3137 6 28 6C24.6863 6 22 8.68629 22 12C22 15.3137 24.6863 18 28 18Z" fill="currentColor"/>
<path d="M28 20C34.62 20 40 23.58 40 28V32H28V28C28 25.04 25.58 22.46 22 21.08C23.76 20.38 25.82 20 28 20ZM12 20C18.62 20 24 23.58 24 28V32H0V28C0 23.58 5.38 20 12 20Z" fill="currentColor"/>
</svg>
