<svg width="49" height="51" viewBox="0 0 49 51" fill="none" xmlns="http://www.w3.org/2000/svg">
<path d="M43.0996 18.3919V14.3013C43.0942 12.1971 42.2873 10.1811 40.8559 8.69525C39.4245 7.2094 37.4854 6.37499 35.4637 6.375C34.4601 6.3736 33.4661 6.57814 32.5385 6.97692C31.6109 7.37569 30.7679 7.96088 30.0578 8.69901C29.3476 9.43714 28.7843 10.3137 28.3999 11.2787C28.0155 12.2436 27.8177 13.2779 27.8177 14.3225V20.6975C27.8177 21.5795 28.1543 22.4254 28.7535 23.0491C29.3528 23.6727 30.1655 24.0231 31.0129 24.0231H40.2004C40.8123 24.0231 41.3991 24.2761 41.8318 24.7264C42.2644 25.1768 42.5075 25.7875 42.5075 26.4244V38.1119C42.5088 39.0382 42.3344 39.9558 41.9941 40.8118C41.6538 41.6677 41.1544 42.4453 40.5245 43.0999C39.8947 43.7544 39.1469 44.2731 38.3239 44.6259C37.501 44.9788 36.6192 45.159 35.7291 45.1562H31.4416C30.4877 45.1619 29.5705 44.7736 28.8911 44.0765C28.2118 43.3794 27.8258 42.4304 27.8177 41.4375V34.2125C27.8177 29.1656 21.5089 28.1562 21.5089 21.59V9.88125H12.8523C11.9385 9.88125 11.0337 10.0688 10.1895 10.433C9.34544 10.7973 8.57862 11.3313 7.93294 12.0043C7.28727 12.6773 6.77541 13.4762 6.42665 14.3553C6.07788 15.2344 5.89906 16.1764 5.9004 17.1275V17.1275C5.9004 17.6131 5.99229 18.0939 6.17082 18.5425C6.34935 18.9911 6.61102 19.3987 6.9409 19.742C7.27078 20.0854 7.66241 20.3577 8.09342 20.5435C8.52442 20.7294 8.98638 20.825 9.4529 20.825H12.25V37.4956C12.25 39.5274 13.0254 41.4759 14.4057 42.9125C15.786 44.3492 17.6581 45.1562 19.6102 45.1562H31.411M12.2908 27.1363H7.03352M19.651 45.1562H8.72811M21.5089 9.88125V5.84375M15.1185 9.88125V5.84375" stroke="black" stroke-linecap="round" stroke-linejoin="round"/>
<path d="M13.5771 15.4807C14 15.4807 14.3428 15.1239 14.3428 14.6838C14.3428 14.2437 14 13.8869 13.5771 13.8869C13.1543 13.8869 12.8115 14.2437 12.8115 14.6838C12.8115 15.1239 13.1543 15.4807 13.5771 15.4807Z" fill="black"/>
<path d="M38.0157 37.91L36.1987 33.7875C36.6442 33.586 37.0094 33.2309 37.2328 32.782C37.4562 32.333 37.5242 31.8177 37.4254 31.3227C37.3265 30.8277 37.0668 30.3833 36.69 30.0642C36.3132 29.7452 35.8422 29.571 35.3565 29.571C34.8707 29.571 34.3998 29.7452 34.023 30.0642C33.6462 30.3833 33.3864 30.8277 33.2876 31.3227C33.1887 31.8177 33.2567 32.333 33.4801 32.782C33.7036 33.2309 34.0688 33.586 34.5143 33.7875L32.9014 37.8675L38.0157 37.91Z" stroke="black" stroke-linecap="round" stroke-linejoin="round"/>
</svg>
