<svg width="60" height="60" viewBox="0 0 60 60" fill="currentColor" xmlns="http://www.w3.org/2000/svg">
<path d="M50.8594 42.8906H46.7403C46.459 42.8906 46.1954 43.0137 46.0196 43.2305C45.6094 43.7285 45.17 44.209 44.7071 44.666C42.8139 46.5611 40.5714 48.0714 38.1036 49.1133C35.5469 50.1932 32.7989 50.7471 30.0235 50.7422C27.2169 50.7422 24.4981 50.1914 21.9434 49.1133C19.4756 48.0714 17.2331 46.5611 15.3399 44.666C13.4433 42.7773 11.931 40.5387 10.8868 38.0742C9.80281 35.5195 9.25789 32.8066 9.25789 30C9.25789 27.1934 9.80867 24.4805 10.8868 21.9258C11.9298 19.459 13.4298 17.2383 15.3399 15.334C17.2501 13.4297 19.4708 11.9297 21.9434 10.8867C24.4981 9.80859 27.2169 9.25781 30.0235 9.25781C32.8301 9.25781 35.5489 9.80273 38.1036 10.8867C40.5762 11.9297 42.7969 13.4297 44.7071 15.334C45.17 15.7969 45.6036 16.2773 46.0196 16.7695C46.1954 16.9863 46.4649 17.1094 46.7403 17.1094H50.8594C51.2286 17.1094 51.4571 16.6992 51.252 16.3887C46.7579 9.4043 38.8946 4.78125 29.9591 4.80468C15.92 4.83984 4.66415 16.2363 4.80477 30.2578C4.9454 44.0566 16.1837 55.1953 30.0235 55.1953C38.9356 55.1953 46.7637 50.5781 51.252 43.6113C51.4512 43.3008 51.2286 42.8906 50.8594 42.8906ZM56.0684 29.6309L47.754 23.0684C47.4434 22.8223 46.9922 23.0449 46.9922 23.4375V27.8906H28.5938C28.336 27.8906 28.1251 28.1016 28.1251 28.3594V31.6406C28.1251 31.8984 28.336 32.1094 28.5938 32.1094H46.9922V36.5625C46.9922 36.9551 47.4493 37.1777 47.754 36.9316L56.0684 30.3691C56.1244 30.3253 56.1697 30.2693 56.2009 30.2053C56.2321 30.1414 56.2483 30.0711 56.2483 30C56.2483 29.9289 56.2321 29.8586 56.2009 29.7947C56.1697 29.7307 56.1244 29.6747 56.0684 29.6309V29.6309Z" fill="currentColor"/>
</svg>
