<?xml version="1.0" standalone="no"?>
<!DOCTYPE svg PUBLIC "-//W3C//DTD SVG 20010904//EN"
 "http://www.w3.org/TR/2001/REC-SVG-20010904/DTD/svg10.dtd">
<svg version="1.0" xmlns="http://www.w3.org/2000/svg"
 width="512.000000pt" height="512.000000pt" viewBox="0 0 512.000000 512.000000"
 preserveAspectRatio="xMidYMid meet">

<g transform="translate(0.000000,512.000000) scale(0.100000,-0.100000)"
fill="#000000" stroke="none">
<path d="M2365 5050 c-445 -45 -842 -230 -1122 -523 -179 -188 -294 -406 -339
-643 -18 -101 -21 -287 -4 -388 6 -38 7 -72 3 -76 -4 -4 -60 -24 -123 -45
-195 -64 -392 -144 -457 -186 -261 -170 -384 -510 -290 -799 13 -41 109 -255
213 -475 l188 -400 76 -75 c41 -41 98 -86 125 -100 l50 -26 5 -234 c5 -211 8
-241 28 -295 97 -260 375 -412 640 -350 65 15 134 46 165 73 25 22 22 74 -7
101 -29 27 -43 26 -156 -15 -63 -22 -86 -26 -145 -21 -38 3 -96 15 -128 27
-81 31 -175 119 -213 202 -29 62 -29 66 -32 270 l-3 208 40 0 c67 0 139 20
306 85 153 60 343 124 413 139 l32 8 0 -302 c0 -192 -4 -318 -11 -346 -10 -40
-10 -49 8 -72 22 -30 69 -40 102 -22 43 23 51 89 51 446 l0 332 68 12 c112 19
272 39 372 45 52 3 116 8 142 11 l47 5 3 -543 3 -543 27 -74 c72 -198 239
-343 443 -386 90 -19 138 -19 233 1 134 28 262 106 341 207 40 52 101 170 101
196 0 7 6 11 13 8 105 -45 145 -57 213 -67 126 -18 256 7 374 73 84 47 190
160 234 248 52 107 66 184 66 389 0 122 4 180 13 191 7 8 33 29 58 46 25 18
70 58 100 91 49 52 74 100 243 458 104 219 200 433 213 474 75 230 13 504
-155 681 -119 127 -204 172 -541 286 -91 31 -170 59 -174 63 -5 4 -3 35 3 69
17 97 13 312 -9 416 -26 125 -79 264 -112 298 -33 32 -57 34 -93 6 -35 -27
-34 -66 5 -157 44 -107 70 -235 70 -362 1 -111 -9 -217 -20 -224 -3 -2 -69 11
-146 30 -411 99 -856 147 -1365 146 -405 0 -667 -21 -1029 -83 -144 -24 -376
-74 -442 -95 -23 -6 -29 14 -38 124 -53 617 451 1156 1209 1294 91 17 155 21
310 21 212 0 338 -17 514 -68 258 -75 516 -225 686 -399 62 -64 100 -73 138
-33 43 46 32 73 -76 177 -241 234 -586 398 -957 455 -124 19 -380 27 -500 15z
m655 -1571 c423 -27 848 -110 1260 -245 360 -117 450 -161 544 -266 124 -137
174 -335 127 -508 -9 -36 -100 -243 -201 -460 -172 -367 -189 -398 -240 -450
-30 -30 -77 -70 -103 -88 -35 -23 -55 -47 -72 -85 -23 -49 -25 -62 -25 -232 0
-202 -10 -260 -62 -357 -81 -151 -276 -248 -445 -220 -141 23 -263 110 -325
229 -53 101 -58 141 -58 462 l0 289 -28 53 c-42 81 -91 107 -244 129 -255 37
-595 49 -883 30 -426 -28 -740 -100 -1155 -263 -146 -57 -160 -61 -240 -61
-77 -1 -92 2 -152 32 -120 59 -139 88 -348 533 -101 217 -192 423 -201 459
-50 185 6 384 146 525 84 85 137 114 357 194 710 258 1475 356 2348 300z
m-170 -1869 c80 -6 197 -17 260 -26 173 -23 160 4 160 -343 0 -315 8 -378 58
-485 16 -34 46 -83 66 -110 34 -44 37 -53 31 -92 -16 -110 -127 -249 -240
-300 -250 -115 -540 24 -610 291 -12 49 -15 143 -15 567 l0 508 73 0 c39 0
137 -5 217 -10z"/>
<path d="M1835 3182 c-90 -27 -163 -70 -230 -137 -254 -254 -186 -688 133
-848 92 -46 165 -60 272 -55 215 12 396 147 472 354 31 85 31 263 0 349 -56
151 -178 273 -329 327 -82 29 -236 34 -318 10z m302 -166 c76 -35 153 -112
191 -193 23 -50 27 -71 27 -153 0 -82 -4 -103 -27 -153 -38 -80 -115 -158
-191 -193 -55 -26 -73 -29 -162 -29 -90 0 -106 3 -158 28 -74 37 -147 110
-183 183 -33 67 -44 183 -24 264 26 109 128 218 242 261 79 29 202 22 285 -15z"/>
<path d="M2970 3184 c-119 -42 -192 -140 -192 -259 0 -67 30 -141 74 -182 12
-12 95 -58 183 -103 192 -97 235 -135 235 -204 0 -57 -40 -107 -105 -132 -101
-38 -254 7 -343 100 -58 61 -108 62 -138 5 -20 -40 -1 -81 64 -140 176 -158
447 -172 588 -30 87 87 111 209 60 308 -42 83 -99 127 -282 221 -162 83 -170
89 -182 126 -11 34 -10 43 5 74 31 61 63 77 156 77 69 -1 90 -5 133 -27 28
-15 65 -38 82 -52 58 -50 135 -24 135 44 0 37 -22 63 -97 112 -112 73 -269 98
-376 62z"/>
<path d="M3943 2980 c-12 -5 -26 -17 -31 -27 -21 -39 -322 -875 -322 -894 0
-53 2 -54 267 -150 176 -63 196 -65 228 -16 18 28 12 68 -13 90 -10 8 -82 38
-162 66 -80 29 -146 54 -148 55 -2 3 96 277 101 283 2 1 63 -20 137 -47 74
-28 143 -50 152 -50 71 0 98 106 35 138 -12 7 -74 30 -137 53 -63 23 -119 45
-124 50 -10 9 84 279 98 279 5 0 71 -22 146 -50 75 -27 150 -50 167 -50 34 0
58 22 68 61 12 50 -23 72 -233 149 -107 38 -197 70 -200 69 -4 0 -17 -4 -29
-9z"/>
<path d="M749 2860 c-9 -5 -22 -22 -28 -38 -11 -26 2 -67 149 -473 93 -255
170 -454 182 -466 12 -13 31 -23 43 -23 25 0 341 114 360 130 38 31 17 114
-31 126 -18 5 -64 -7 -152 -40 -69 -25 -126 -45 -127 -43 -1 1 -66 180 -144
397 -148 408 -164 440 -214 440 -12 0 -29 -5 -38 -10z"/>
<path d="M1713 4375 c-56 -24 -59 -82 -7 -132 80 -75 199 -103 302 -69 54 18
137 84 147 117 10 31 -13 76 -44 87 -31 11 -62 -1 -121 -44 -49 -36 -123 -31
-177 12 -51 40 -64 44 -100 29z"/>
<path d="M3009 4378 c-31 -10 -54 -57 -44 -87 10 -33 93 -99 147 -117 103 -34
222 -6 302 69 42 40 48 85 16 117 -34 34 -69 30 -121 -12 -61 -49 -140 -51
-197 -3 -40 34 -72 44 -103 33z"/>
<path d="M2477 4180 c-110 -28 -257 -151 -257 -216 0 -36 37 -74 74 -74 25 0
42 11 81 51 123 126 231 130 356 12 77 -73 113 -82 148 -37 28 35 26 60 -5
106 -84 120 -263 191 -397 158z"/>
</g>
</svg>
