<svg width="16" height="16" viewBox="0 0 16 16" fill="none" xmlns="http://www.w3.org/2000/svg">
<path fill-rule="evenodd" clip-rule="evenodd" d="M8 5.5C8.13261 5.5 8.25979 5.55268 8.35355 5.64645C8.44732 5.74021 8.5 5.86739 8.5 6V7.5H10C10.1326 7.5 10.2598 7.55268 10.3536 7.64645C10.4473 7.74021 10.5 7.86739 10.5 8C10.5 8.13261 10.4473 8.25979 10.3536 8.35355C10.2598 8.44732 10.1326 8.5 10 8.5H8.5V10C8.5 10.1326 8.44732 10.2598 8.35355 10.3536C8.25979 10.4473 8.13261 10.5 8 10.5C7.86739 10.5 7.74021 10.4473 7.64645 10.3536C7.55268 10.2598 7.5 10.1326 7.5 10V8.5H6C5.86739 8.5 5.74021 8.44732 5.64645 8.35355C5.55268 8.25979 5.5 8.13261 5.5 8C5.5 7.86739 5.55268 7.74021 5.64645 7.64645C5.74021 7.55268 5.86739 7.5 6 7.5H7.5V6C7.5 5.86739 7.55268 5.74021 7.64645 5.64645C7.74021 5.55268 7.86739 5.5 8 5.5V5.5Z" fill="black"/>
<path d="M10.2732 2.51305L9.35217 1.56905L10.0672 0.87105L10.6892 1.50805L11.5792 1.49705C11.9644 1.49249 12.3467 1.56501 12.7035 1.71034C13.0603 1.85567 13.3845 2.07088 13.6569 2.34331C13.9293 2.61574 14.1446 2.9399 14.2899 3.29671C14.4352 3.65353 14.5077 4.0358 14.5032 4.42105L14.4932 5.31105L15.1292 5.93305C15.4046 6.20222 15.6235 6.52373 15.7729 6.8787C15.9224 7.23366 15.9994 7.61491 15.9994 8.00005C15.9994 8.38519 15.9224 8.76644 15.7729 9.1214C15.6235 9.47637 15.4046 9.79788 15.1292 10.067L14.4922 10.689L14.5032 11.5791C14.5077 11.9643 14.4352 12.3466 14.2899 12.7034C14.1446 13.0602 13.9293 13.3844 13.6569 13.6568C13.3845 13.9292 13.0603 14.1444 12.7035 14.2898C12.3467 14.4351 11.9644 14.5076 11.5792 14.503L10.6892 14.493L10.0672 15.129C9.798 15.4045 9.47649 15.6234 9.12152 15.7728C8.76656 15.9223 8.38531 15.9992 8.00017 15.9992C7.61503 15.9992 7.23378 15.9223 6.87882 15.7728C6.52386 15.6234 6.20234 15.4045 5.93317 15.129L5.31117 14.492L4.42117 14.503C4.03592 14.5076 3.65365 14.4351 3.29683 14.2898C2.94002 14.1444 2.61586 13.9292 2.34343 13.6568C2.071 13.3844 1.85579 13.0602 1.71046 12.7034C1.56513 12.3466 1.49261 11.9643 1.49717 11.5791L1.50717 10.689L0.871172 10.067C0.595712 9.79788 0.376832 9.47637 0.227395 9.1214C0.0779572 8.76644 0.000976562 8.38519 0.000976562 8.00005C0.000976562 7.61491 0.0779572 7.23366 0.227395 6.8787C0.376832 6.52373 0.595712 6.20222 0.871172 5.93305L1.50817 5.31105L1.49717 4.42105C1.49261 4.0358 1.56513 3.65353 1.71046 3.29671C1.85579 2.9399 2.071 2.61574 2.34343 2.34331C2.61586 2.07088 2.94002 1.85567 3.29683 1.71034C3.65365 1.56501 4.03592 1.49249 4.42117 1.49705L5.31117 1.50705L5.93317 0.87105C6.20234 0.59559 6.52386 0.37671 6.87882 0.227273C7.23378 0.0778352 7.61503 0.000854492 8.00017 0.000854492C8.38531 0.000854492 8.76656 0.0778352 9.12152 0.227273C9.47649 0.37671 9.798 0.59559 10.0672 0.87105L9.35217 1.56905C9.17613 1.38884 8.96584 1.24564 8.73366 1.14787C8.50148 1.0501 8.2521 0.99973 8.00017 0.99973C7.74825 0.99973 7.49886 1.0501 7.26668 1.14787C7.0345 1.24564 6.82421 1.38884 6.64817 1.56905L5.72817 2.51305L4.40817 2.49705C4.15635 2.49423 3.9065 2.54177 3.67331 2.63688C3.44012 2.73198 3.22829 2.87273 3.05026 3.05085C2.87223 3.22897 2.7316 3.44088 2.63661 3.67412C2.54163 3.90736 2.49422 4.15723 2.49717 4.40905L2.51317 5.72705L1.56917 6.64805C1.38896 6.82409 1.24576 7.03438 1.14799 7.26656C1.05022 7.49874 0.999852 7.74812 0.999852 8.00005C0.999852 8.25198 1.05022 8.50136 1.14799 8.73354C1.24576 8.96572 1.38896 9.17601 1.56917 9.35205L2.51317 10.272L2.49717 11.592C2.49436 11.8439 2.5419 12.0937 2.637 12.3269C2.7321 12.5601 2.87285 12.7719 3.05097 12.95C3.22909 13.128 3.441 13.2686 3.67424 13.3636C3.90748 13.4586 4.15735 13.506 4.40917 13.503L5.72717 13.4871L6.64817 14.431C6.82421 14.6113 7.0345 14.7545 7.26668 14.8522C7.49886 14.95 7.74825 15.0004 8.00017 15.0004C8.2521 15.0004 8.50148 14.95 8.73366 14.8522C8.96584 14.7545 9.17613 14.6113 9.35217 14.431L10.2722 13.4871L11.5922 13.503C11.844 13.5059 12.0938 13.4583 12.327 13.3632C12.5602 13.2681 12.7721 13.1274 12.9501 12.9493C13.1281 12.7711 13.2687 12.5592 13.3637 12.326C13.4587 12.0927 13.5061 11.8429 13.5032 11.591L13.4872 10.273L14.4312 9.35205C14.6114 9.17601 14.7546 8.96572 14.8524 8.73354C14.9501 8.50136 15.0005 8.25198 15.0005 8.00005C15.0005 7.74812 14.9501 7.49874 14.8524 7.26656C14.7546 7.03438 14.6114 6.82409 14.4312 6.64805L13.4872 5.72805L13.5032 4.40805C13.506 4.15623 13.4584 3.90638 13.3633 3.67319C13.2682 3.44 13.1275 3.22817 12.9494 3.05014C12.7712 2.87211 12.5593 2.73147 12.3261 2.63649C12.0929 2.54151 11.843 2.4941 11.5912 2.49705L10.2732 2.51305V2.51305Z" fill="black"/>
</svg>
