<svg width="48" height="48" viewBox="0 0 48 48" fill="none" xmlns="http://www.w3.org/2000/svg">
<path d="M33.4 18.7C35.5539 18.7 37.3 16.9539 37.3 14.8C37.3 12.6461 35.5539 10.9 33.4 10.9C31.2461 10.9 29.5 12.6461 29.5 14.8C29.5 16.9539 31.2461 18.7 33.4 18.7Z" stroke="black"/>
<path d="M20.4 20.4C19.6354 17.9217 19.7333 15.2575 20.6777 12.8421C21.6221 10.4266 23.3573 8.40248 25.6 7.10001C27.8561 5.80259 30.4905 5.32293 33.0591 5.74191C35.6277 6.1609 37.9732 7.4529 39.7 9.40001C41.4204 11.3284 42.4292 13.7874 42.5588 16.3684C42.6884 18.9494 41.931 21.497 40.4124 23.588C38.8938 25.679 36.7054 27.1875 34.2109 27.8628C31.7165 28.538 29.066 28.3394 26.7 27.3M20.4 20.4L5.5 37V42.4H11.6L12.3 38.2L18.8 37.8L19.3 32.3L24.8 32.2L26.6 27.4" stroke="black"/>
</svg>
