<?xml version="1.0" standalone="no"?>
<!DOCTYPE svg PUBLIC "-//W3C//DTD SVG 20010904//EN"
 "http://www.w3.org/TR/2001/REC-SVG-20010904/DTD/svg10.dtd">
<svg version="1.0" xmlns="http://www.w3.org/2000/svg"
 width="512.000000pt" height="512.000000pt" viewBox="0 0 512.000000 512.000000"
 preserveAspectRatio="xMidYMid meet">

<g transform="translate(0.000000,512.000000) scale(0.100000,-0.100000)"
fill="currentColor" stroke="none">
<path d="M2370 5114 c-19 -2 -78 -9 -130 -15 -548 -62 -1083 -325 -1489 -730
-405 -406 -652 -907 -732 -1489 -18 -125 -18 -515 0 -640 105 -762 511 -1409
1146 -1826 918 -603 2139 -541 3000 153 1085 874 1272 2464 420 3559 -415 532
-997 871 -1667 970 -98 14 -474 27 -548 18z m455 -215 c529 -55 1039 -307
1425 -705 361 -372 589 -851 650 -1363 14 -121 14 -421 0 -542 -52 -436 -237
-871 -515 -1214 -97 -119 -286 -302 -405 -391 -345 -258 -731 -413 -1153 -464
-127 -15 -433 -13 -562 4 -510 67 -967 288 -1336 644 -394 379 -632 851 -705
1397 -19 143 -19 447 0 590 73 546 311 1018 704 1396 513 495 1178 722 1897
648z"/>
<path d="M2395 3955 c-267 -43 -490 -157 -681 -349 -312 -312 -433 -747 -325
-1171 36 -140 121 -321 202 -428 216 -287 542 -466 895 -493 46 -4 84 -9 84
-11 0 -3 -57 -59 -126 -126 l-125 -122 73 -72 73 -72 275 269 275 270 -275
269 -275 270 -73 -72 -74 -72 167 -161 c191 -184 190 -182 36 -169 -345 28
-614 183 -797 462 -271 410 -210 952 144 1295 130 126 260 201 437 254 121 36
340 45 466 19 393 -79 689 -357 800 -750 12 -44 24 -82 26 -84 4 -6 176 40
187 49 5 5 -4 50 -18 102 -130 454 -485 786 -946 883 -107 23 -315 28 -425 10z"/>
</g>
</svg>
