<svg width="35" height="35" viewBox="0 0 35 35" fill="currentColor" xmlns="http://www.w3.org/2000/svg">
<path d="M17.5 0C7.83594 0 0 7.83594 0 17.5C0 27.1641 7.83594 35 17.5 35C27.1641 35 35 27.1641 35 17.5C35 7.83594 27.1641 0 17.5 0ZM17.5 27.6562C16.6367 27.6562 15.9375 26.957 15.9375 26.0938C15.9375 25.2305 16.6367 24.5312 17.5 24.5312C18.3633 24.5312 19.0625 25.2305 19.0625 26.0938C19.0625 26.957 18.3633 27.6562 17.5 27.6562ZM19.957 19.082C19.6033 19.2186 19.2989 19.4587 19.0836 19.7708C18.8683 20.083 18.752 20.4528 18.75 20.832V21.7188C18.75 21.8906 18.6094 22.0312 18.4375 22.0312H16.5625C16.3906 22.0312 16.25 21.8906 16.25 21.7188V20.8789C16.25 19.9766 16.5117 19.0859 17.0273 18.3438C17.5312 17.6172 18.2344 17.0625 19.0625 16.7461C20.3906 16.2344 21.25 15.1211 21.25 13.9062C21.25 12.1836 19.5664 10.7812 17.5 10.7812C15.4336 10.7812 13.75 12.1836 13.75 13.9062V14.2031C13.75 14.375 13.6094 14.5156 13.4375 14.5156H11.5625C11.3906 14.5156 11.25 14.375 11.25 14.2031V13.9062C11.25 12.3711 11.9219 10.9375 13.1406 9.87109C14.3125 8.84375 15.8594 8.28125 17.5 8.28125C19.1406 8.28125 20.6875 8.84766 21.8594 9.87109C23.0781 10.9375 23.75 12.3711 23.75 13.9062C23.75 16.1641 22.2617 18.1953 19.957 19.082Z" fill="currentColor"/>
</svg>
