<svg width="90" height="87" viewBox="0 0 90 87" fill="none" xmlns="http://www.w3.org/2000/svg">
<path d="M12.8571 38.0625H15.5692C20.5312 47.6631 31.8214 54.375 45 54.375C58.1786 54.375 69.4687 47.6631 74.4308 38.0625H77.1429C78.9107 38.0625 80.3571 36.8391 80.3571 35.3438V19.0312C80.3571 17.5359 78.9107 16.3125 77.1429 16.3125H74.4308C69.4687 6.71191 58.1786 0 45 0C31.8214 0 20.5312 6.71191 15.5692 16.3125H12.8571C11.0893 16.3125 9.64286 17.5359 9.64286 19.0312V35.3438C9.64286 36.8391 11.0893 38.0625 12.8571 38.0625ZM20.8929 23.1094C20.8929 19.3541 25.2121 16.3125 30.5357 16.3125H59.4643C64.7879 16.3125 69.1071 19.3541 69.1071 23.1094V27.1875C69.1071 36.1934 60.4687 43.5 49.8214 43.5H40.1786C29.5312 43.5 20.8929 36.1934 20.8929 27.1875V23.1094ZM35.3571 35.3438L37.7679 29.2266L45 27.1875L37.7679 25.1484L35.3571 19.0312L32.9464 25.1484L25.7143 27.1875L32.9464 29.2266L35.3571 35.3438ZM65.8125 54.6129C59.8058 57.8924 52.6741 59.8125 45 59.8125C37.3259 59.8125 30.1942 57.8924 24.1875 54.6129C10.6272 55.8193 0 65.4199 0 77.2125V78.8438C0 83.3467 4.3192 87 9.64286 87H25.7143V76.125C25.7143 73.1174 28.5871 70.6875 32.1429 70.6875H57.8571C61.4129 70.6875 64.2857 73.1174 64.2857 76.125V87H80.3571C85.6808 87 90 83.3467 90 78.8438V77.2125C90 65.4199 79.3728 55.8193 65.8125 54.6129ZM54.6429 76.125C52.875 76.125 51.4286 77.3484 51.4286 78.8438C51.4286 80.3391 52.875 81.5625 54.6429 81.5625C56.4107 81.5625 57.8571 80.3391 57.8571 78.8438C57.8571 77.3484 56.4107 76.125 54.6429 76.125ZM35.3571 76.125C33.5893 76.125 32.1429 77.3484 32.1429 78.8438V87H38.5714V78.8438C38.5714 77.3484 37.125 76.125 35.3571 76.125Z" fill="black"/>
</svg>
