<svg width="24" height="24" viewBox="0 0 24 24" fill="none" xmlns="http://www.w3.org/2000/svg">
<path d="M7 8C7 6.67392 7.52678 5.40215 8.46447 4.46447C9.40215 3.52678 10.6739 3 12 3C13.3261 3 14.5979 3.52678 15.5355 4.46447C16.4732 5.40215 17 6.67392 17 8C17 9.32608 16.4732 10.5979 15.5355 11.5355C14.5979 12.4732 13.3261 13 12 13C10.6739 13 9.40215 12.4732 8.46447 11.5355C7.52678 10.5979 7 9.32608 7 8V8ZM12 11C12.7956 11 13.5587 10.6839 14.1213 10.1213C14.6839 9.55871 15 8.79565 15 8C15 7.20435 14.6839 6.44129 14.1213 5.87868C13.5587 5.31607 12.7956 5 12 5C11.2044 5 10.4413 5.31607 9.87868 5.87868C9.31607 6.44129 9 7.20435 9 8C9 8.79565 9.31607 9.55871 9.87868 10.1213C10.4413 10.6839 11.2044 11 12 11V11ZM6.343 16.343C5.60014 17.0859 5.01088 17.9678 4.60887 18.9385C4.20686 19.9091 3.99996 20.9494 4 22H6C6 20.4087 6.63214 18.8826 7.75736 17.7574C8.88258 16.6321 10.4087 16 12 16C13.5913 16 15.1174 16.6321 16.2426 17.7574C17.3679 18.8826 18 20.4087 18 22H20C20.0001 20.4177 19.5309 18.8709 18.6518 17.5553C17.7728 16.2396 16.5234 15.2142 15.0615 14.6087C13.5997 14.0032 11.9911 13.8447 10.4392 14.1534C8.88731 14.4621 7.46182 15.2241 6.343 16.343V16.343Z" fill="black"/>
</svg>
