<?xml version="1.0" standalone="no"?>
<!DOCTYPE svg PUBLIC "-//W3C//DTD SVG 20010904//EN"
 "http://www.w3.org/TR/2001/REC-SVG-20010904/DTD/svg10.dtd">
<svg version="1.0" xmlns="http://www.w3.org/2000/svg"
 width="512.000000pt" height="512.000000pt" viewBox="0 0 512.000000 512.000000"
 preserveAspectRatio="xMidYMid meet">

<g transform="translate(0.000000,512.000000) scale(0.100000,-0.100000)"
fill="currentColor" stroke="none">
<path d="M1020 4990 l0 -129 -427 -3 -428 -3 -46 -27 c-51 -30 -92 -84 -108
-143 -14 -53 -15 -738 0 -840 35 -255 146 -483 322 -659 170 -171 358 -274
595 -326 46 -10 86 -21 88 -23 3 -3 9 -62 15 -132 22 -293 116 -556 282 -792
80 -113 247 -281 362 -361 118 -84 292 -169 433 -212 61 -19 112 -39 112 -45
0 -5 -39 -126 -86 -267 l-85 -257 -322 -3 -323 -3 -49 -26 c-83 -42 -100 -75
-218 -415 -59 -170 -107 -312 -107 -316 0 -10 3060 -10 3060 0 0 4 -48 146
-107 316 -118 340 -135 373 -218 415 l-49 26 -323 3 -322 3 -85 257 c-47 141
-86 262 -86 267 0 6 51 26 113 45 140 43 314 128 432 212 115 80 282 248 362
361 166 236 260 499 282 792 6 70 12 129 15 132 2 2 42 13 88 23 117 25 217
62 316 116 116 63 182 112 279 210 176 176 287 404 322 659 15 102 14 787 0
840 -16 59 -57 113 -108 143 l-46 27 -427 3 -428 3 0 129 0 130 -1540 0 -1540
0 0 -130z m0 -1136 l0 -496 -27 7 c-53 12 -168 76 -233 128 -103 84 -177 194
-223 332 -17 51 -21 95 -24 293 l-5 232 256 0 256 0 0 -496z m3588 264 c-4
-220 -6 -238 -31 -313 -59 -177 -178 -320 -328 -394 -46 -23 -99 -44 -116 -47
l-33 -6 0 496 0 496 256 0 256 0 -4 -232z m-2008 -110 c18 -40 68 -153 112
-250 l80 -178 265 -2 264 -3 -185 -247 c-102 -136 -186 -255 -186 -263 0 -9
27 -124 60 -257 34 -132 59 -242 58 -243 -2 -1 -117 61 -255 137 l-253 140
-252 -140 c-139 -76 -254 -138 -256 -137 -1 1 24 111 58 243 33 133 60 248 60
257 0 8 -84 127 -186 263 l-185 247 264 3 265 2 80 178 c44 97 94 210 112 250
18 39 36 72 40 72 4 0 22 -33 40 -72z"/>
</g>
</svg>
