<?xml version="1.0" standalone="no"?>
<!DOCTYPE svg PUBLIC "-//W3C//DTD SVG 20010904//EN"
 "http://www.w3.org/TR/2001/REC-SVG-20010904/DTD/svg10.dtd">
<svg version="1.0" xmlns="http://www.w3.org/2000/svg"
 width="512.000000pt" height="512.000000pt" viewBox="0 0 512.000000 512.000000"
 preserveAspectRatio="xMidYMid meet">

<g transform="translate(0.000000,512.000000) scale(0.100000,-0.100000)"
fill="#000000" stroke="none">
<path d="M1065 5101 c-49 -22 -86 -64 -125 -142 -27 -52 -37 -61 -100 -95 -80
-42 -124 -87 -139 -141 -13 -47 -13 -59 0 -106 15 -55 63 -104 141 -143 61
-31 71 -40 97 -93 17 -32 42 -73 57 -91 56 -66 151 -87 229 -51 50 23 65 40
112 126 35 63 45 73 108 108 38 20 78 45 88 55 56 50 74 160 38 231 -24 46
-35 56 -125 106 -64 37 -75 47 -109 110 -47 86 -62 103 -112 126 -51 24 -109
24 -160 0z m105 -143 c6 -7 32 -49 58 -93 45 -76 50 -81 130 -123 74 -39 82
-46 82 -73 0 -25 -7 -32 -52 -55 -101 -51 -123 -71 -169 -154 -43 -78 -71
-102 -99 -85 -6 3 -24 32 -40 64 -42 84 -73 116 -151 157 -113 60 -114 84 -4
144 81 45 113 77 152 154 33 66 41 76 64 76 10 0 23 -6 29 -12z"/>
<path d="M4317 4605 c-72 -18 -97 -43 -158 -156 -40 -74 -43 -77 -130 -124
-120 -65 -144 -99 -144 -206 0 -106 27 -145 144 -208 76 -41 88 -52 120 -106
l34 -59 -23 -66 c-33 -93 -95 -215 -147 -287 -24 -35 -45 -63 -47 -63 -2 0
-16 35 -31 78 -51 144 -150 319 -254 450 -37 46 -46 52 -80 52 -46 0 -71 -24
-71 -68 0 -23 16 -54 60 -113 81 -109 134 -202 182 -317 43 -102 91 -279 103
-374 l6 -58 -36 0 c-62 0 -187 -30 -250 -60 -69 -33 -141 -91 -188 -149 -18
-22 -35 -40 -40 -40 -4 -1 -24 10 -45 22 -110 70 -291 96 -421 62 -68 -17
-160 -60 -200 -92 -23 -19 -23 -19 -126 33 -144 72 -218 89 -385 89 -128 -1
-141 -3 -237 -36 l-103 -35 -22 23 c-38 37 -139 92 -208 114 -91 29 -240 29
-332 0 l-67 -21 -53 40 c-29 22 -81 52 -116 67 l-63 28 7 50 c3 27 17 91 30
142 134 518 544 921 1066 1048 389 94 792 25 1131 -194 51 -34 105 -61 119
-61 34 0 68 39 68 77 0 25 -9 39 -42 65 -63 50 -114 81 -224 136 -550 276
-1210 208 -1699 -173 -160 -125 -313 -303 -407 -473 -29 -53 -43 -70 -49 -60
-15 22 -47 137 -68 239 -10 53 -28 113 -39 135 -29 57 -98 119 -165 150 -53
24 -68 26 -145 22 -64 -3 -98 -10 -130 -27 -118 -61 -186 -171 -186 -301 1
-182 111 -521 241 -744 l46 -79 -29 -20 c-72 -50 -162 -154 -197 -228 -62
-130 -62 -126 -48 -843 14 -698 16 -726 71 -845 39 -83 65 -111 102 -111 34 0
78 39 78 70 0 11 -13 44 -30 73 -55 99 -57 115 -70 764 -7 330 -11 635 -8 677
15 238 245 419 477 377 89 -17 161 -53 230 -117 67 -62 86 -66 158 -30 153 77
336 46 472 -80 35 -32 68 -54 81 -54 12 0 61 15 109 34 241 97 435 70 699 -96
42 -26 63 -20 132 37 83 68 144 89 265 90 122 0 167 -15 267 -91 39 -30 79
-54 88 -54 27 0 57 28 88 82 83 148 264 237 423 209 157 -27 288 -134 334
-271 22 -67 235 -1224 235 -1279 0 -96 -46 -218 -110 -288 -93 -103 -206 -148
-348 -141 -98 5 -165 30 -245 91 -52 41 -97 48 -123 20 -8 -10 -33 -46 -55
-80 -119 -184 -352 -243 -549 -138 -92 50 -110 47 -165 -22 -54 -70 -99 -107
-170 -139 -55 -25 -168 -49 -191 -40 -7 3 -21 24 -32 48 -23 53 -64 89 -153
134 -65 32 -71 38 -104 104 -66 132 -131 177 -240 168 -82 -7 -129 -43 -181
-143 -55 -104 -84 -125 -174 -125 -39 0 -95 8 -132 20 -99 30 -147 66 -244
183 -36 43 -65 44 -132 2 -114 -70 -211 -87 -352 -63 -67 12 -70 11 -95 -12
-47 -44 -26 -106 45 -130 19 -6 76 -14 125 -17 100 -6 185 9 277 50 l54 24 60
-56 c65 -60 159 -112 237 -131 l47 -12 -6 -54 c-13 -105 41 -182 172 -247 62
-30 68 -36 100 -99 76 -150 166 -202 285 -167 58 18 95 55 147 149 46 83 49
86 127 127 44 24 92 57 107 74 19 23 31 29 47 24 29 -9 160 11 228 35 65 23
146 74 208 131 l43 40 75 -26 c216 -72 434 -20 594 142 l73 73 60 -30 c84 -42
160 -60 260 -60 103 0 181 19 269 65 91 48 151 103 209 188 70 106 97 196 97
327 0 91 -15 182 -108 680 -110 583 -128 661 -172 739 l-25 43 65 60 c166 152
330 412 409 650 54 162 14 314 -104 396 -22 15 -39 30 -40 33 0 3 28 19 62 35
150 70 202 188 138 314 -24 47 -43 63 -136 113 -76 41 -80 45 -121 121 -50 93
-66 112 -113 136 -50 25 -98 29 -153 15z m141 -235 c49 -91 87 -127 182 -175
73 -37 92 -64 72 -102 -6 -10 -43 -36 -84 -57 -97 -52 -122 -76 -170 -169 -66
-126 -108 -125 -172 2 -43 84 -75 117 -157 160 -83 44 -99 58 -99 91 0 33 16
47 107 94 86 45 92 51 146 152 69 129 107 130 175 4z m-3782 -409 c56 -34 83
-81 99 -172 20 -113 38 -174 92 -307 l46 -114 -21 -71 c-11 -40 -28 -110 -36
-156 -9 -47 -17 -85 -19 -86 -1 -1 -33 -7 -72 -12 -69 -11 -70 -11 -92 15 -30
35 -124 218 -163 316 -73 185 -119 404 -100 475 13 49 48 93 92 114 46 23 135
22 174 -2z m3963 -304 c12 -24 21 -62 21 -84 0 -80 -93 -286 -202 -449 -66
-99 -223 -274 -246 -274 -6 0 -34 16 -63 35 -30 19 -68 40 -86 46 -29 9 -33
15 -33 45 0 20 -5 66 -11 104 l-10 69 61 73 c80 95 151 210 197 321 l36 88 37
-6 c63 -11 129 13 180 65 l45 46 27 -18 c14 -10 36 -38 47 -61z m-2549 -2904
c56 -103 75 -122 175 -175 48 -26 81 -50 83 -61 9 -45 -7 -64 -85 -105 -94
-49 -128 -84 -178 -180 -28 -53 -44 -74 -63 -79 -37 -9 -52 5 -99 92 -54 100
-66 112 -155 159 -90 48 -108 63 -108 91 0 28 31 56 105 93 77 38 105 67 156
161 48 87 53 92 94 89 26 -3 35 -13 75 -85z"/>
<path d="M3028 3806 c-90 -24 -151 -94 -164 -190 -6 -39 -3 -48 19 -70 15 -15
37 -26 52 -26 33 0 75 42 75 75 0 28 31 64 58 66 52 4 77 -17 86 -71 10 -66
68 -90 120 -49 20 16 26 29 26 60 0 137 -137 239 -272 205z"/>
<path d="M1700 3799 c-73 -29 -125 -99 -136 -183 -6 -39 -3 -48 19 -70 14 -14
37 -26 50 -26 37 0 77 36 77 71 0 39 32 69 73 69 41 0 62 -22 71 -72 18 -99
146 -85 146 15 0 75 -49 150 -122 188 -41 21 -135 25 -178 8z"/>
<path d="M2298 3710 c-77 -12 -142 -45 -182 -91 -116 -136 -49 -416 126 -529
226 -146 512 0 558 284 26 166 -42 286 -185 325 -55 15 -247 22 -317 11z m247
-150 c86 -14 109 -40 109 -122 -1 -150 -110 -268 -236 -256 -115 12 -208 123
-208 250 0 66 10 92 43 110 46 25 192 34 292 18z"/>
<path d="M772 2527 l-23 -24 12 -609 c13 -682 11 -666 81 -692 33 -13 41 -12
75 4 36 18 49 41 262 457 123 240 227 435 230 431 3 -3 33 -224 67 -492 l61
-485 32 -29 c39 -35 89 -38 126 -5 20 17 78 154 246 586 120 310 219 576 219
591 0 33 -40 70 -76 70 -50 0 -34 35 -308 -670 -63 -162 -117 -288 -120 -280
-2 8 -32 240 -66 515 -55 444 -64 503 -83 523 -28 30 -79 30 -104 -1 -10 -13
-121 -225 -247 -470 -126 -246 -230 -446 -232 -444 -1 1 -8 225 -14 497 -10
450 -13 497 -29 520 -26 36 -79 39 -109 7z"/>
<path d="M3790 2460 c-11 -11 -20 -33 -20 -49 0 -16 38 -235 85 -486 47 -252
84 -459 82 -461 -2 -3 -196 192 -432 431 -253 258 -437 438 -452 441 -32 8
-71 -10 -84 -39 -15 -33 192 -1221 218 -1249 34 -37 108 -18 125 32 3 9 -31
225 -77 480 -45 256 -81 466 -80 468 2 2 191 -186 421 -418 246 -248 428 -423
442 -427 39 -10 75 9 95 48 l17 37 -109 587 c-79 424 -114 592 -127 606 -23
25 -78 25 -104 -1z"/>
<path d="M2482 2187 l-22 -23 0 -622 c0 -609 0 -622 20 -642 25 -25 71 -26
101 -1 l24 19 0 627 0 627 -24 19 c-32 26 -73 24 -99 -4z"/>
</g>
</svg>
